%TF.GenerationSoftware,KiCad,Pcbnew,8.0.7*%
%TF.CreationDate,2024-12-17T16:06:41+01:00*%
%TF.ProjectId,CM5_MINIMA,434d355f-4d49-44e4-994d-412e6b696361,rev?*%
%TF.SameCoordinates,Original*%
%TF.FileFunction,Other,Comment*%
%FSLAX46Y46*%
G04 Gerber Fmt 4.6, Leading zero omitted, Abs format (unit mm)*
G04 Created by KiCad (PCBNEW 8.0.7) date 2024-12-17 16:06:41*
%MOMM*%
%LPD*%
G01*
G04 APERTURE LIST*
%ADD10C,0.070000*%
%ADD11C,0.300000*%
%ADD12C,0.150000*%
G04 APERTURE END LIST*
D10*
X28041904Y13653593D02*
X28041904Y14053593D01*
X28270475Y13653593D02*
X28099046Y13882164D01*
X28270475Y14053593D02*
X28041904Y13825021D01*
X28441904Y13863117D02*
X28575237Y13863117D01*
X28632380Y13653593D02*
X28441904Y13653593D01*
X28441904Y13653593D02*
X28441904Y14053593D01*
X28441904Y14053593D02*
X28632380Y14053593D01*
X28803809Y13863117D02*
X28937142Y13863117D01*
X28994285Y13653593D02*
X28803809Y13653593D01*
X28803809Y13653593D02*
X28803809Y14053593D01*
X28803809Y14053593D02*
X28994285Y14053593D01*
X29165714Y13653593D02*
X29165714Y14053593D01*
X29165714Y14053593D02*
X29318095Y14053593D01*
X29318095Y14053593D02*
X29356190Y14034545D01*
X29356190Y14034545D02*
X29375237Y14015498D01*
X29375237Y14015498D02*
X29394285Y13977402D01*
X29394285Y13977402D02*
X29394285Y13920260D01*
X29394285Y13920260D02*
X29375237Y13882164D01*
X29375237Y13882164D02*
X29356190Y13863117D01*
X29356190Y13863117D02*
X29318095Y13844069D01*
X29318095Y13844069D02*
X29165714Y13844069D01*
X29641904Y14053593D02*
X29718095Y14053593D01*
X29718095Y14053593D02*
X29756190Y14034545D01*
X29756190Y14034545D02*
X29794285Y13996450D01*
X29794285Y13996450D02*
X29813333Y13920260D01*
X29813333Y13920260D02*
X29813333Y13786926D01*
X29813333Y13786926D02*
X29794285Y13710736D01*
X29794285Y13710736D02*
X29756190Y13672640D01*
X29756190Y13672640D02*
X29718095Y13653593D01*
X29718095Y13653593D02*
X29641904Y13653593D01*
X29641904Y13653593D02*
X29603809Y13672640D01*
X29603809Y13672640D02*
X29565714Y13710736D01*
X29565714Y13710736D02*
X29546666Y13786926D01*
X29546666Y13786926D02*
X29546666Y13920260D01*
X29546666Y13920260D02*
X29565714Y13996450D01*
X29565714Y13996450D02*
X29603809Y14034545D01*
X29603809Y14034545D02*
X29641904Y14053593D01*
X29984762Y14053593D02*
X29984762Y13729783D01*
X29984762Y13729783D02*
X30003809Y13691688D01*
X30003809Y13691688D02*
X30022857Y13672640D01*
X30022857Y13672640D02*
X30060952Y13653593D01*
X30060952Y13653593D02*
X30137143Y13653593D01*
X30137143Y13653593D02*
X30175238Y13672640D01*
X30175238Y13672640D02*
X30194285Y13691688D01*
X30194285Y13691688D02*
X30213333Y13729783D01*
X30213333Y13729783D02*
X30213333Y14053593D01*
X30346667Y14053593D02*
X30575238Y14053593D01*
X30460952Y13653593D02*
X30460952Y14053593D01*
D11*
%TO.C,U502*%
X37000000Y34450000D02*
G75*
G02*
X36700000Y34450000I-150000J0D01*
G01*
X36700000Y34450000D02*
G75*
G02*
X37000000Y34450000I150000J0D01*
G01*
D12*
%TO.C,H101*%
X4350000Y24100000D02*
G75*
G02*
X550000Y24100000I-1900000J0D01*
G01*
X550000Y24100000D02*
G75*
G02*
X4350000Y24100000I1900000J0D01*
G01*
D11*
%TO.C,J101*%
X4420000Y30400000D02*
G75*
G02*
X4120000Y30400000I-150000J0D01*
G01*
X4120000Y30400000D02*
G75*
G02*
X4420000Y30400000I150000J0D01*
G01*
X11580000Y30400000D02*
G75*
G02*
X11280000Y30400000I-150000J0D01*
G01*
X11280000Y30400000D02*
G75*
G02*
X11580000Y30400000I150000J0D01*
G01*
%TO.C,USB701*%
X4420000Y18850000D02*
G75*
G02*
X4120000Y18850000I-150000J0D01*
G01*
X4120000Y18850000D02*
G75*
G02*
X4420000Y18850000I150000J0D01*
G01*
X11580000Y18850000D02*
G75*
G02*
X11280000Y18850000I-150000J0D01*
G01*
X11280000Y18850000D02*
G75*
G02*
X11580000Y18850000I150000J0D01*
G01*
%TD*%
M02*
