M48
; DRILL file {KiCad 8.0.7} date 2024-12-17T16:06:41+0100
; FORMAT={-:-/ absolute / inch / decimal}
; #@! TF.CreationDate,2024-12-17T16:06:41+01:00
; #@! TF.GenerationSoftware,Kicad,Pcbnew,8.0.7
; #@! TF.FileFunction,Plated,1,4,PTH
FMAT,2
INCH
; #@! TA.AperFunction,Plated,PTH,ViaDrill
T1C0.0118
; #@! TA.AperFunction,Plated,PTH,ComponentDrill
T2C0.0197
; #@! TA.AperFunction,Plated,PTH,ComponentDrill
T3C0.0197
; #@! TA.AperFunction,Plated,PTH,ComponentDrill
T4C0.0315
; #@! TA.AperFunction,Plated,PTH,ComponentDrill
T5C0.0354
; #@! TA.AperFunction,Plated,PTH,ComponentDrill
T6C0.0866
%
G90
G05
T1
X0.0709Y1.4035
X0.0846Y2.1476
X0.1555Y2.1949
X0.1693Y0.5965
X0.1791Y1.3366
X0.1811Y1.2343
X0.1811Y1.1594
X0.1831Y0.7795
X0.1831Y0.7047
X0.2106Y1.0315
X0.2158Y0.1737
X0.2224Y0.2579
X0.2283Y0.4783
X0.2402Y0.8071
X0.2579Y0.6378
X0.2618Y0.1457
X0.2638Y0.2756
X0.2657Y1.3091
X0.2677Y1.2618
X0.2702Y1.2863
X0.2874Y2.1732
X0.2874Y1.0157
X0.2952Y1.2953
X0.2953Y1.1299
X0.2953Y0.8445
X0.2953Y0.6772
X0.3051Y0.4606
X0.3228Y0.8445
X0.3229Y1.2953
X0.3406Y0.6004
X0.3445Y1.3091
X0.3445Y1.2776
X0.3504Y1.1319
X0.3504Y0.6575
X0.3622Y0.4587
X0.3642Y0.437
X0.3661Y0.4154
X0.376Y0.6122
X0.3898Y0.5433
X0.4193Y1.0669
X0.437Y1.2343
X0.437Y0.7795
X0.437Y0.7047
X0.4902Y1.1535
X0.5197Y0.8031
X0.5197Y0.7087
X0.5197Y0.6614
X0.5217Y0.8976
X0.5217Y0.8504
X0.5217Y0.7559
X0.5315Y2.1654
X0.5413Y1.689
X0.5433Y1.8425
X0.5571Y0.5453
X0.5768Y1.3228
X0.5846Y1.0984
X0.5898Y0.852
X0.5945Y0.7184
X0.5945Y0.743
X0.5965Y0.9449
X0.5984Y0.6476
X0.6004Y0.6161
X0.6043Y0.8819
X0.6094Y0.8325
X0.616Y0.7923
X0.624Y0.7047
X0.6305Y0.6502
X0.6319Y0.6772
X0.6339Y0.8209
X0.6356Y0.7727
X0.6358Y1.3209
X0.6358Y1.2913
X0.6378Y0.622
X0.6398Y1.0866
X0.6417Y0.8976
X0.6417Y0.4646
X0.6693Y2.0551
X0.6693Y1.5512
X0.6703Y2.0246
X0.6831Y0.4705
X0.6969Y1.0866
X0.6969Y0.8976
X0.6988Y0.5591
X0.7008Y0.6831
X0.7008Y0.622
X0.7205Y1.0295
X0.7382Y0.4941
X0.7402Y0.8878
X0.7402Y0.8209
X0.7402Y0.748
X0.7539Y1.1967
X0.7579Y1.1673
X0.7602Y0.4646
X0.7815Y1.2047
X0.7835Y1.1752
X0.7894Y1.1476
X0.7992Y0.4685
X0.811Y0.9035
X0.813Y1.1831
X0.815Y1.1535
X0.8169Y0.7559
X0.8169Y0.6732
X0.8248Y0.9252
X0.8287Y0.5728
X0.8307Y1.9508
X0.8366Y2.1142
X0.8425Y0.9724
X0.8524Y1.9508
X0.8524Y0.9961
X0.8583Y0.4685
X0.8602Y1.5472
X0.874Y1.9508
X0.8839Y0.8307
X0.8878Y0.5728
X0.8976Y1.9508
X0.9035Y1.6299
X0.9055Y1.8248
X0.9173Y0.4685
X0.937Y1.3484
X0.9469Y0.5728
X0.9764Y0.4705
X0.9783Y1.5472
X0.9862Y1.7244
X0.9902Y1.8248
X0.9921Y1.6299
X0.9961Y1.9252
X1.0106Y0.8264
X1.0197Y0.6969
X1.0236Y0.2913
X1.0445Y0.2756
X1.0453Y0.8075
X1.0591Y1.2717
X1.0669Y0.5945
X1.0803Y0.2382
X1.0945Y1.4134
X1.0965Y1.8248
X1.0984Y0.6004
X1.1043Y1.7244
X1.1043Y0.2598
X1.1063Y1.5472
X1.1083Y1.9193
X1.1083Y1.6299
X1.2008Y0.6024
X1.2146Y1.8248
X1.2224Y0.2028
X1.2224Y0.1201
X1.2224Y0.0354
X1.2264Y1.9193
X1.2264Y1.6299
X1.2323Y1.7244
X1.2343Y1.5472
X1.2451Y0.2825
X1.2677Y0.2618
X1.2701Y1.4213
X1.2717Y1.2451
X1.2874Y1.2189
X1.3425Y1.8248
X1.3504Y1.5472
X1.3543Y1.9193
X1.3543Y1.6299
X1.3602Y1.7244
X1.3642Y2.1122
X1.4055Y0.2618
X1.4114Y1.4055
X1.4134Y0.6969
X1.4528Y1.4055
X1.4705Y1.8248
X1.4744Y1.5453
X1.4764Y1.9193
X1.4764Y1.7244
X1.4803Y1.0138
X1.4803Y0.6457
X1.5039Y1.628
X1.5394Y0.498
X1.5787Y0.4055
X1.5827Y0.626
X1.5846Y0.2638
X1.5866Y1.8248
X1.5984Y1.9193
X1.6004Y1.7224
X1.6024Y0.4055
X1.6063Y1.6201
X1.6083Y2.1122
X1.6339Y1.4213
X1.6378Y0.3287
X1.6417Y0.6161
X1.6555Y0.3091
X1.6575Y1.5394
X1.662Y1.413
X1.6713Y1.3858
X1.6732Y0.6161
X1.6752Y1.4606
X1.6815Y1.4325
X1.688Y0.4134
X1.7028Y0.3937
X1.7106Y1.8228
X1.7106Y1.4232
X1.7106Y0.8169
X1.7165Y0.6654
X1.7224Y1.9173
X1.7244Y1.6654
X1.7244Y0.6969
X1.7264Y1.4843
X1.7264Y0.8406
X1.7264Y0.7913
X1.7382Y0.8169
X1.7402Y0.6142
X1.752Y0.2638
X1.7539Y0.8406
X1.7539Y0.7913
X1.7657Y0.8169
X1.7815Y0.8406
X1.7815Y0.7913
X1.7933Y0.8169
X1.7972Y1.748
X1.7972Y0.7323
X1.8071Y1.3976
X1.8189Y1.4606
X1.8209Y0.2362
X1.8228Y0.5315
X1.8327Y1.4272
X1.8327Y0.6654
X1.8346Y0.6969
X1.8366Y1.5591
X1.8386Y1.2598
X1.8406Y1.8504
X1.8425Y0.5591
X1.8473Y1.4521
X1.8543Y1.3406
X1.8543Y0.7165
X1.8563Y1.3701
X1.8563Y1.1142
X1.8563Y1.0551
X1.8563Y0.9783
X1.8563Y0.6949
X1.8583Y1.2126
X1.8602Y1.5
X1.8668Y1.4716
X1.8819Y0.439
X1.8898Y1.6535
X1.8957Y1.4646
X1.9134Y1.0571
X1.9154Y0.9154
X1.9173Y0.6535
X1.9173Y0.6142
X1.9193Y1.252
X1.9232Y1.2795
X1.9272Y1.4862
X1.9291Y1.311
X1.9331Y1.7618
X1.939Y1.1161
X1.9449Y1.3346
X1.9449Y1.2461
X1.9469Y1.4469
X1.9469Y1.0886
X1.9508Y0.8996
X1.9568Y1.4765
X1.9705Y1.5236
X1.9763Y1.496
X1.9783Y1.2283
X1.9823Y1.872
X1.998Y1.5827
X1.998Y0.4941
X2.0039Y1.4823
X2.0079Y1.3917
X2.0118Y1.685
X2.0256Y0.4488
X2.0276Y0.4094
X2.0296Y1.5729
X2.0354Y0.7657
X2.0354Y0.7441
X2.0354Y0.7224
X2.0354Y0.7008
X2.0374Y1.1358
X2.0413Y1.5433
X2.0413Y1.3839
X2.0413Y1.3169
X2.0413Y0.9173
X2.0453Y1.626
X2.0453Y1.2106
X2.0453Y1.1043
X2.0472Y0.9449
X2.0472Y0.5295
X2.0491Y1.5924
X2.063Y0.7657
X2.063Y0.7441
X2.063Y0.7224
X2.063Y0.7008
X2.0689Y0.2736
X2.0728Y1.3228
X2.0748Y1.7835
X2.0807Y1.5827
X2.0807Y0.8051
X2.1024Y1.3268
X2.1083Y1.2894
T2
X0.7382Y1.3071
X1.6516Y0.9606
X1.939Y0.5039
T4
X0.1681Y1.1969
X0.1681Y0.7421
X0.45Y1.1969
X0.45Y0.7421
T6
X0.0965Y0.9488
T3
G00X0.2067Y1.2768
M15
G01X0.1713Y1.2768
M16
G05
G00X0.2067Y1.1169
M15
G01X0.1713Y1.1169
M16
G05
G00X0.2067Y0.822
M15
G01X0.1713Y0.822
M16
G05
G00X0.2067Y0.6622
M15
G01X0.1713Y0.6622
M16
G05
G00X0.4468Y1.2768
M15
G01X0.4114Y1.2768
M16
G05
G00X0.4468Y1.1169
M15
G01X0.4114Y1.1169
M16
G05
G00X0.4468Y0.822
M15
G01X0.4114Y0.822
M16
G05
G00X0.4468Y0.6622
M15
G01X0.4114Y0.6622
M16
G05
T5
G00X0.5335Y0.4094
M15
G01X0.5335Y0.3386
M16
G05
G00X0.5335Y0.1551
M15
G01X0.5335Y0.1236
M16
G05
G00X1.1043Y0.4094
M15
G01X1.1043Y0.3386
M16
G05
G00X1.1043Y0.1551
M15
G01X1.1043Y0.1236
M16
G05
M30
