%TF.GenerationSoftware,KiCad,Pcbnew,8.0.7*%
%TF.CreationDate,2024-12-17T15:55:04+01:00*%
%TF.ProjectId,CM5_MINIMA,434d355f-4d49-44e4-994d-412e6b696361,rev?*%
%TF.SameCoordinates,Original*%
%TF.FileFunction,Soldermask,Bot*%
%TF.FilePolarity,Negative*%
%FSLAX46Y46*%
G04 Gerber Fmt 4.6, Leading zero omitted, Abs format (unit mm)*
G04 Created by KiCad (PCBNEW 8.0.7) date 2024-12-17 15:55:04*
%MOMM*%
%LPD*%
G01*
G04 APERTURE LIST*
G04 Aperture macros list*
%AMRoundRect*
0 Rectangle with rounded corners*
0 $1 Rounding radius*
0 $2 $3 $4 $5 $6 $7 $8 $9 X,Y pos of 4 corners*
0 Add a 4 corners polygon primitive as box body*
4,1,4,$2,$3,$4,$5,$6,$7,$8,$9,$2,$3,0*
0 Add four circle primitives for the rounded corners*
1,1,$1+$1,$2,$3*
1,1,$1+$1,$4,$5*
1,1,$1+$1,$6,$7*
1,1,$1+$1,$8,$9*
0 Add four rect primitives between the rounded corners*
20,1,$1+$1,$2,$3,$4,$5,0*
20,1,$1+$1,$4,$5,$6,$7,0*
20,1,$1+$1,$6,$7,$8,$9,0*
20,1,$1+$1,$8,$9,$2,$3,0*%
G04 Aperture macros list end*
%ADD10C,0.800000*%
%ADD11C,1.000000*%
%ADD12C,2.600000*%
%ADD13C,3.800000*%
%ADD14C,0.990600*%
%ADD15O,1.800000X0.860000*%
%ADD16C,1.400000*%
%ADD17O,1.500000X3.300000*%
%ADD18O,1.500000X2.300000*%
%ADD19C,6.100000*%
%ADD20R,0.700000X0.200000*%
%ADD21RoundRect,0.250000X-1.025000X0.787500X-1.025000X-0.787500X1.025000X-0.787500X1.025000X0.787500X0*%
G04 APERTURE END LIST*
D10*
%TO.C,SW602*%
X52550000Y14300000D03*
%TD*%
%TO.C,SW601*%
X52550000Y9500000D03*
%TD*%
D11*
%TO.C,TP104*%
X18750000Y33200000D03*
%TD*%
D12*
%TO.C,H101*%
X2450000Y24100000D03*
D13*
X2450000Y24100000D03*
%TD*%
D14*
%TO.C,U503*%
X26740000Y13835000D03*
X31820000Y14851000D03*
X31820000Y12819000D03*
%TD*%
D10*
%TO.C,J101*%
X11430000Y30400000D03*
X4270000Y30400000D03*
D15*
X10900000Y28370000D03*
X10900000Y32430000D03*
X4800000Y28370000D03*
X4800000Y32430000D03*
%TD*%
D16*
%TO.C,T401*%
X15790000Y41480000D03*
X15790000Y48480000D03*
%TD*%
D11*
%TO.C,TP105*%
X41950000Y24400000D03*
%TD*%
D17*
%TO.C,J501*%
X28050000Y9500000D03*
X13550000Y9500000D03*
D18*
X13550000Y3540000D03*
X28050000Y3540000D03*
%TD*%
D10*
%TO.C,USB701*%
X11430000Y18850000D03*
X4270000Y18850000D03*
D15*
X10900000Y16820000D03*
X10900000Y20880000D03*
X4800000Y16820000D03*
X4800000Y20880000D03*
%TD*%
D11*
%TO.C,TP106*%
X49250000Y12800000D03*
%TD*%
D19*
%TO.C,Module301*%
X48950000Y3500000D03*
X48950000Y51500000D03*
D20*
X50990000Y34800000D03*
X47910000Y34800000D03*
X50990000Y34400000D03*
X47910000Y34400000D03*
X50990000Y34000000D03*
X47910000Y34000000D03*
X50990000Y33600000D03*
X47910000Y33600000D03*
X50990000Y33200000D03*
X47910000Y33200000D03*
X50990000Y32800000D03*
X47910000Y32800000D03*
X50990000Y32400000D03*
X47910000Y32400000D03*
X50990000Y32000000D03*
X47910000Y32000000D03*
X50990000Y31600000D03*
X47910000Y31600000D03*
X50990000Y31200000D03*
X47910000Y31200000D03*
X50990000Y30800000D03*
X47910000Y30800000D03*
X50990000Y30400000D03*
X47910000Y30400000D03*
X50990000Y30000000D03*
X47910000Y30000000D03*
X50990000Y29600000D03*
X47910000Y29600000D03*
X50990000Y29200000D03*
X47910000Y29200000D03*
X50990000Y28800000D03*
X47910000Y28800000D03*
X50990000Y28400000D03*
X47910000Y28400000D03*
X50990000Y28000000D03*
X47910000Y28000000D03*
X50990000Y27600000D03*
X47910000Y27600000D03*
X50990000Y27200000D03*
X47910000Y27200000D03*
X50990000Y26800000D03*
X47910000Y26800000D03*
X50990000Y26400000D03*
X47910000Y26400000D03*
X50990000Y26000000D03*
X47910000Y26000000D03*
X50990000Y25600000D03*
X47910000Y25600000D03*
X50990000Y25200000D03*
X47910000Y25200000D03*
X50990000Y24800000D03*
X47910000Y24800000D03*
X50990000Y24400000D03*
X47910000Y24400000D03*
X50990000Y24000000D03*
X47910000Y24000000D03*
X50990000Y23600000D03*
X47910000Y23600000D03*
X50990000Y23200000D03*
X47910000Y23200000D03*
X50990000Y22800000D03*
X47910000Y22800000D03*
X50990000Y22400000D03*
X47910000Y22400000D03*
X50990000Y22000000D03*
X47910000Y22000000D03*
X50990000Y21600000D03*
X47910000Y21600000D03*
X50990000Y21200000D03*
X47910000Y21200000D03*
X50990000Y20800000D03*
X47910000Y20800000D03*
X50990000Y20400000D03*
X47910000Y20400000D03*
X50990000Y20000000D03*
X47910000Y20000000D03*
X50990000Y19600000D03*
X47910000Y19600000D03*
X50990000Y19200000D03*
X47910000Y19200000D03*
X50990000Y18800000D03*
X47910000Y18800000D03*
X50990000Y18400000D03*
X47910000Y18400000D03*
X50990000Y18000000D03*
X47910000Y18000000D03*
X50990000Y17600000D03*
X47910000Y17600000D03*
X50990000Y17200000D03*
X47910000Y17200000D03*
X50990000Y16800000D03*
X47910000Y16800000D03*
X50990000Y16400000D03*
X47910000Y16400000D03*
X50990000Y16000000D03*
X47910000Y16000000D03*
X50990000Y15600000D03*
X47910000Y15600000D03*
X50990000Y15200000D03*
X47910000Y15200000D03*
%TD*%
D21*
%TO.C,C702*%
X7850000Y19312500D03*
X7850000Y13087500D03*
%TD*%
D19*
%TO.C,Module302*%
X48950000Y3500000D03*
X48950000Y51500000D03*
D20*
X16990000Y34800000D03*
X13910000Y34800000D03*
X16990000Y34400000D03*
X13910000Y34400000D03*
X16990000Y34000000D03*
X13910000Y34000000D03*
X16990000Y33600000D03*
X13910000Y33600000D03*
X16990000Y33200000D03*
X13910000Y33200000D03*
X16990000Y32800000D03*
X13910000Y32800000D03*
X16990000Y32400000D03*
X13910000Y32400000D03*
X16990000Y32000000D03*
X13910000Y32000000D03*
X16990000Y31600000D03*
X13910000Y31600000D03*
X16990000Y31200000D03*
X13910000Y31200000D03*
X16990000Y30800000D03*
X13910000Y30800000D03*
X16990000Y30400000D03*
X13910000Y30400000D03*
X16990000Y30000000D03*
X13910000Y30000000D03*
X16990000Y29600000D03*
X13910000Y29600000D03*
X16990000Y29200000D03*
X13910000Y29200000D03*
X16990000Y28800000D03*
X13910000Y28800000D03*
X16990000Y28400000D03*
X13910000Y28400000D03*
X16990000Y28000000D03*
X13910000Y28000000D03*
X16990000Y27600000D03*
X13910000Y27600000D03*
X16990000Y27200000D03*
X13910000Y27200000D03*
X16990000Y26800000D03*
X13910000Y26800000D03*
X16990000Y26400000D03*
X13910000Y26400000D03*
X16990000Y26000000D03*
X13910000Y26000000D03*
X16990000Y25600000D03*
X13910000Y25600000D03*
X16990000Y25200000D03*
X13910000Y25200000D03*
X16990000Y24800000D03*
X13910000Y24800000D03*
X16990000Y24400000D03*
X13910000Y24400000D03*
X16990000Y24000000D03*
X13910000Y24000000D03*
X16990000Y23600000D03*
X13910000Y23600000D03*
X16990000Y23200000D03*
X13910000Y23200000D03*
X16990000Y22800000D03*
X13910000Y22800000D03*
X16990000Y22400000D03*
X13910000Y22400000D03*
X16990000Y22000000D03*
X13910000Y22000000D03*
X16990000Y21600000D03*
X13910000Y21600000D03*
X16990000Y21200000D03*
X13910000Y21200000D03*
X16990000Y20800000D03*
X13910000Y20800000D03*
X16990000Y20400000D03*
X13910000Y20400000D03*
X16990000Y20000000D03*
X13910000Y20000000D03*
X16990000Y19600000D03*
X13910000Y19600000D03*
X16990000Y19200000D03*
X13910000Y19200000D03*
X16990000Y18800000D03*
X13910000Y18800000D03*
X16990000Y18400000D03*
X13910000Y18400000D03*
X16990000Y18000000D03*
X13910000Y18000000D03*
X16990000Y17600000D03*
X13910000Y17600000D03*
X16990000Y17200000D03*
X13910000Y17200000D03*
X16990000Y16800000D03*
X13910000Y16800000D03*
X16990000Y16400000D03*
X13910000Y16400000D03*
X16990000Y16000000D03*
X13910000Y16000000D03*
X16990000Y15600000D03*
X13910000Y15600000D03*
X16990000Y15200000D03*
X13910000Y15200000D03*
%TD*%
M02*
