%TF.GenerationSoftware,KiCad,Pcbnew,8.0.7*%
%TF.CreationDate,2024-12-14T14:48:29+01:00*%
%TF.ProjectId,CM5_CB,434d355f-4342-42e6-9b69-6361645f7063,rev?*%
%TF.SameCoordinates,Original*%
%TF.FileFunction,Profile,NP*%
%FSLAX46Y46*%
G04 Gerber Fmt 4.6, Leading zero omitted, Abs format (unit mm)*
G04 Created by KiCad (PCBNEW 8.0.7) date 2024-12-14 14:48:29*
%MOMM*%
%LPD*%
G01*
G04 APERTURE LIST*
%TA.AperFunction,Profile*%
%ADD10C,0.050000*%
%TD*%
%TA.AperFunction,Profile*%
%ADD11C,0.010000*%
%TD*%
G04 APERTURE END LIST*
D10*
X87646447Y-72653553D02*
X87646447Y-72553553D01*
X88446447Y-72653553D02*
G75*
G02*
X88046447Y-73053553I-399999J-1D01*
G01*
X88046447Y-73053553D02*
G75*
G02*
X87646447Y-72653553I-1J399999D01*
G01*
X82046447Y-76553553D02*
X82046447Y-72553553D01*
X87646447Y-76553553D02*
X87646447Y-76453553D01*
X87146447Y-72053553D02*
X82546447Y-72053553D01*
X88446447Y-71653553D02*
X88446447Y-72653553D01*
X87946447Y-77953553D02*
X82146447Y-77953553D01*
X82146447Y-71153553D02*
X87946447Y-71153553D01*
X87646447Y-76453553D02*
G75*
G02*
X88046447Y-76053553I399999J1D01*
G01*
X88046447Y-76053553D02*
G75*
G02*
X88446447Y-76453553I1J-399999D01*
G01*
X82546447Y-77053553D02*
X87146447Y-77053553D01*
X82046447Y-72553553D02*
G75*
G02*
X82546447Y-72053553I500001J-1D01*
G01*
X82546447Y-77053553D02*
G75*
G02*
X82046447Y-76553553I1J500001D01*
G01*
X88446447Y-76453553D02*
X88446447Y-77453553D01*
X87646447Y-76553553D02*
G75*
G02*
X87146447Y-77053553I-500001J1D01*
G01*
X87146447Y-72053553D02*
G75*
G02*
X87646447Y-72553553I-1J-500001D01*
G01*
X80946447Y-72353553D02*
G75*
G02*
X82146447Y-71153553I1200000J0D01*
G01*
X88446447Y-77453553D02*
G75*
G02*
X87946447Y-77953553I-500001J1D01*
G01*
X87946447Y-71153553D02*
G75*
G02*
X88446447Y-71653553I-1J-500001D01*
G01*
X82146447Y-77953553D02*
G75*
G02*
X80946447Y-76753553I0J1200000D01*
G01*
X80946447Y-76753553D02*
X80946447Y-72353553D01*
X82350000Y-81070000D02*
G75*
G02*
X78350000Y-77070000I0J4000000D01*
G01*
X78350000Y-27930000D02*
G75*
G02*
X82350000Y-23930000I4000000J0D01*
G01*
X132901573Y-77070000D02*
G75*
G02*
X128901573Y-81070000I-4000000J0D01*
G01*
X128901573Y-23930000D02*
G75*
G02*
X132901573Y-27930000I0J-4000000D01*
G01*
X78350000Y-77070000D02*
X78350000Y-27930000D01*
X128901573Y-81070000D02*
X82350000Y-81070000D01*
X82350000Y-23930000D02*
X128901573Y-23930000D01*
X132901573Y-27930000D02*
X132901573Y-77070000D01*
D11*
%TO.C,T401*%
X88805000Y-28295000D02*
G75*
G02*
X89805000Y-29295000I0J-1000000D01*
G01*
X89805000Y-42945000D02*
G75*
G02*
X88805000Y-43945000I-999999J-1D01*
G01*
X88805000Y-28295000D02*
X78305000Y-28295000D01*
X78305000Y-28295000D02*
X78305000Y-43945000D01*
X89805000Y-42945000D02*
X89805000Y-29295000D01*
X78305000Y-43945000D02*
X88805000Y-43945000D01*
%TD*%
M02*
