%TF.GenerationSoftware,KiCad,Pcbnew,8.0.7*%
%TF.CreationDate,2024-12-14T14:48:29+01:00*%
%TF.ProjectId,CM5_CB,434d355f-4342-42e6-9b69-6361645f7063,rev?*%
%TF.SameCoordinates,Original*%
%TF.FileFunction,Copper,L2,Inr*%
%TF.FilePolarity,Positive*%
%FSLAX46Y46*%
G04 Gerber Fmt 4.6, Leading zero omitted, Abs format (unit mm)*
G04 Created by KiCad (PCBNEW 8.0.7) date 2024-12-14 14:48:29*
%MOMM*%
%LPD*%
G01*
G04 APERTURE LIST*
%TA.AperFunction,ComponentPad*%
%ADD10O,2.100000X1.000000*%
%TD*%
%TA.AperFunction,ComponentPad*%
%ADD11O,1.800000X1.000000*%
%TD*%
%TA.AperFunction,ComponentPad*%
%ADD12O,1.500000X2.300000*%
%TD*%
%TA.AperFunction,ComponentPad*%
%ADD13O,1.500000X3.300000*%
%TD*%
%TA.AperFunction,ViaPad*%
%ADD14C,0.450000*%
%TD*%
G04 APERTURE END LIST*
D10*
%TO.N,GND*%
%TO.C,J101*%
X85155000Y-48780000D03*
D11*
X80975000Y-48780000D03*
D10*
X85155000Y-57420000D03*
D11*
X80975000Y-57420000D03*
%TD*%
D12*
%TO.N,GND*%
%TO.C,J501*%
X106350000Y-77560000D03*
X91850000Y-77560000D03*
D13*
X91850000Y-71600000D03*
X106350000Y-71600000D03*
%TD*%
D14*
%TO.N,+3V3*%
X95517500Y-41967500D03*
X95500000Y-29550000D03*
X120100000Y-50700000D03*
X120050000Y-50200000D03*
X118800000Y-59150000D03*
X118800000Y-58650000D03*
%TO.N,/CM5/GPIO2*%
X125100000Y-57400000D03*
%TO.N,/CM5/GPIO3*%
X125250000Y-56650000D03*
%TO.N,+5V*%
X124950000Y-59400000D03*
X123450000Y-58950000D03*
X99800000Y-51350000D03*
X98350000Y-50850000D03*
X124500000Y-58950000D03*
X130150000Y-61600000D03*
X129950000Y-62000000D03*
X98850000Y-51350000D03*
%TO.N,/CM5/ETH_nLED_ACTIVITY*%
X127300000Y-47800000D03*
%TO.N,/CM5/nLED_SPEED_100_1000*%
X131700000Y-47400000D03*
%TO.N,+3V3*%
X125100000Y-63400000D03*
X128200000Y-73800000D03*
X84100000Y-75000000D03*
%TO.N,+5V*%
X130520000Y-62000000D03*
%TO.N,/CM5/GLOBAL_EN*%
X129500000Y-73000000D03*
%TO.N,/CM5/PWR_BUT*%
X127000000Y-64500000D03*
%TO.N,+1V8*%
X121300000Y-63250000D03*
%TO.N,+3V3*%
X124500000Y-62600000D03*
%TO.N,/CM5/GPIO_VREF*%
X125400000Y-61500000D03*
%TO.N,/CM5/SDA0*%
X88600000Y-73900000D03*
%TO.N,/CM5/SCL0*%
X89700000Y-74800000D03*
%TO.N,/CC1*%
X99700000Y-56400000D03*
%TO.N,/USB_C.D_P*%
X87023800Y-52951500D03*
%TO.N,/USB_C.D_N*%
X87023800Y-52248500D03*
%TO.N,/CC2*%
X98500000Y-57050000D03*
%TO.N,/CM5/HDMI_PI.HDMI0_HOTPLUG*%
X94600000Y-69300000D03*
%TO.N,/CM5/HDMI_PI.HDMI0_SDA*%
X94700000Y-66900000D03*
%TO.N,/CM5/HDMI_PI.HDMI0_SCL*%
X93150000Y-65900000D03*
%TO.N,/CM5/HDMI_PI.HDMI0_CEC*%
X97610000Y-69300000D03*
%TO.N,/CM5/HDMI_PI.HDMI0_CK_P*%
X94460000Y-63358500D03*
%TO.N,/CM5/HDMI_PI.HDMI0_CK_N*%
X94460000Y-64061500D03*
%TO.N,/CM5/HDMI_PI.HDMI0_D0_N*%
X93387971Y-62851500D03*
%TO.N,/CM5/HDMI_PI.HDMI0_D0_P*%
X93387971Y-62148500D03*
%TO.N,/CM5/HDMI_PI.HDMI0_D1_N*%
X94467604Y-61641500D03*
%TO.N,/CM5/HDMI_PI.HDMI0_D1_P*%
X94467604Y-60938500D03*
%TO.N,/CM5/HDMI_PI.HDMI0_D2_P*%
X93462679Y-59748500D03*
%TO.N,/CM5/HDMI_PI.HDMI0_D2_N*%
X93462679Y-60451500D03*
%TO.N,/CM5/ETH_PI.TRD1_N*%
X125716766Y-43721790D03*
%TO.N,/CM5/ETH_PI.TRD1_P*%
X125221790Y-44216766D03*
%TO.N,/CM5/ETH_PI.TRD2_N*%
X128497488Y-43102512D03*
%TO.N,/CM5/ETH_PI.TRD2_P*%
X128002512Y-43597488D03*
%TO.N,/CM5/ETH_PI.TRD3_P*%
X129852512Y-41147488D03*
%TO.N,/CM5/ETH_PI.TRD3_N*%
X130347488Y-40652512D03*
%TO.N,/CM5/ETH_PI.TRD0_P*%
X120515626Y-45210602D03*
%TO.N,/CM5/ETH_PI.TRD0_N*%
X121010602Y-44715626D03*
%TD*%
M02*
