%TF.GenerationSoftware,KiCad,Pcbnew,8.0.7*%
%TF.CreationDate,2024-12-17T16:06:41+01:00*%
%TF.ProjectId,CM5_MINIMA,434d355f-4d49-44e4-994d-412e6b696361,rev?*%
%TF.SameCoordinates,Original*%
%TF.FileFunction,Copper,L3,Inr*%
%TF.FilePolarity,Positive*%
%FSLAX46Y46*%
G04 Gerber Fmt 4.6, Leading zero omitted, Abs format (unit mm)*
G04 Created by KiCad (PCBNEW 8.0.7) date 2024-12-17 16:06:41*
%MOMM*%
%LPD*%
G01*
G04 APERTURE LIST*
%TA.AperFunction,ComponentPad*%
%ADD10C,1.000000*%
%TD*%
%TA.AperFunction,ComponentPad*%
%ADD11C,2.600000*%
%TD*%
%TA.AperFunction,ComponentPad*%
%ADD12C,0.800000*%
%TD*%
%TA.AperFunction,ComponentPad*%
%ADD13O,1.800000X0.860000*%
%TD*%
%TA.AperFunction,ComponentPad*%
%ADD14O,1.500000X3.300000*%
%TD*%
%TA.AperFunction,ComponentPad*%
%ADD15O,1.500000X2.300000*%
%TD*%
%TA.AperFunction,ViaPad*%
%ADD16C,0.450000*%
%TD*%
G04 APERTURE END LIST*
D10*
%TO.N,GND*%
%TO.C,TP104*%
X18750000Y33200000D03*
%TD*%
D11*
%TO.N,GND*%
%TO.C,H101*%
X2450000Y24100000D03*
%TD*%
D12*
%TO.N,*%
%TO.C,J101*%
X11430000Y30400000D03*
X4270000Y30400000D03*
D13*
%TO.N,GND*%
X10900000Y28370000D03*
X10900000Y32430000D03*
X4800000Y28370000D03*
X4800000Y32430000D03*
%TD*%
D10*
%TO.N,GND*%
%TO.C,TP105*%
X41950000Y24400000D03*
%TD*%
D14*
%TO.N,GND*%
%TO.C,J501*%
X28050000Y9500000D03*
X13550000Y9500000D03*
D15*
X13550000Y3540000D03*
X28050000Y3540000D03*
%TD*%
D12*
%TO.N,*%
%TO.C,USB701*%
X11430000Y18850000D03*
X4270000Y18850000D03*
D13*
%TO.N,GND*%
X10900000Y16820000D03*
X10900000Y20880000D03*
X4800000Y16820000D03*
X4800000Y20880000D03*
%TD*%
D10*
%TO.N,GND*%
%TO.C,TP106*%
X49250000Y12800000D03*
%TD*%
D16*
%TO.N,GND*%
X6650000Y3700000D03*
X40650000Y43750000D03*
X7300000Y55200000D03*
X14650000Y33600000D03*
X22950000Y41400000D03*
X40100000Y10300000D03*
X7300000Y25800000D03*
X37500000Y48750000D03*
X18300000Y26150000D03*
X9900000Y13800000D03*
X16300000Y22800000D03*
X27850000Y46350000D03*
X40600000Y48750000D03*
X11100000Y17900000D03*
X48150000Y37200000D03*
X16150000Y33550000D03*
X34300000Y39300000D03*
X28100000Y39300000D03*
X49550000Y22850000D03*
X4650000Y19800000D03*
X31050000Y5150000D03*
X15850000Y17900000D03*
X34100000Y46350000D03*
X17800000Y17350000D03*
X52000000Y13450000D03*
X47100000Y34050000D03*
X34400000Y41400000D03*
X49400000Y33900000D03*
X47250000Y38100000D03*
X44500000Y6700000D03*
X26550000Y20510000D03*
X31350000Y39300000D03*
X51000000Y35350000D03*
X13200000Y16800000D03*
X50900000Y37650000D03*
X20750000Y17100000D03*
X35900000Y17700000D03*
X32200000Y6650000D03*
X22550000Y14550000D03*
X43600000Y16900000D03*
X28050000Y43800000D03*
X52550000Y6950000D03*
X47150000Y34800000D03*
X17700000Y22800000D03*
X31050000Y900000D03*
X9550000Y15550000D03*
X37500000Y43800000D03*
X13750000Y42900000D03*
X4550000Y33950000D03*
X27100000Y15100000D03*
X52700000Y45300000D03*
X51850000Y39200000D03*
X26900000Y32300000D03*
X44200000Y15600000D03*
X51500000Y10400000D03*
X49100000Y44750000D03*
X14150000Y13850000D03*
X23000000Y46350000D03*
X13250000Y19200000D03*
X16200000Y15800000D03*
X50350000Y47550000D03*
X34400000Y48750000D03*
X13200000Y20400000D03*
X49400000Y31650000D03*
X4600000Y31350000D03*
X25300000Y48900000D03*
X25050000Y43800000D03*
X23800000Y34250000D03*
X43250000Y10000000D03*
X37600000Y25750000D03*
X47200000Y30800000D03*
X45900000Y35500000D03*
X24850000Y39300000D03*
X40300000Y46350000D03*
X48650000Y23250000D03*
X42100000Y39100000D03*
X6750000Y33250000D03*
X31150000Y48750000D03*
X2150000Y54550000D03*
X46250000Y6000000D03*
X28150000Y41400000D03*
X21650000Y25300000D03*
X21800000Y11900000D03*
X9200000Y11650000D03*
X26000000Y7400000D03*
X43850000Y37700000D03*
X40800000Y41150000D03*
X40200000Y15900000D03*
X38200000Y41350000D03*
X21250000Y53700000D03*
X42050000Y7850000D03*
X9250000Y11100000D03*
X46650000Y39600000D03*
X51100000Y42800000D03*
X21650000Y49550000D03*
X46750000Y47000000D03*
X31150000Y41400000D03*
X23300000Y11900000D03*
X28150000Y48750000D03*
X42450000Y35200000D03*
X24800000Y11950000D03*
X51750000Y28850000D03*
X6862190Y32671901D03*
X40250000Y6700000D03*
X17700000Y27600000D03*
X30500000Y15300000D03*
X14850000Y27900000D03*
X40850000Y53650000D03*
X47150000Y26800000D03*
X5800000Y12150000D03*
X42550000Y37100000D03*
X25900000Y17700000D03*
X51950000Y41300000D03*
X3950000Y55750000D03*
X42500000Y15650000D03*
X37600000Y16400000D03*
X17350000Y11950000D03*
X50050000Y38700000D03*
X34550000Y43800000D03*
X9300000Y10550000D03*
X47150000Y28300000D03*
X52850000Y40200000D03*
X4600000Y29450000D03*
X45650000Y44400000D03*
X46550000Y36250000D03*
X4650000Y17900000D03*
X20300000Y11900000D03*
X17000000Y52200000D03*
X18800000Y19000000D03*
X31050000Y3050000D03*
X41700000Y15650000D03*
X49450000Y36750000D03*
X43800000Y42300000D03*
X15200000Y16450000D03*
X35700000Y6650000D03*
X27800000Y35900000D03*
X8750000Y33250000D03*
X16250000Y27600000D03*
X13200000Y18000000D03*
X31300000Y43800000D03*
X32700000Y30960000D03*
X21100000Y49550000D03*
X51850000Y23300000D03*
X21850000Y39300000D03*
X11100000Y31350000D03*
X53550000Y32750000D03*
X24050000Y14550000D03*
X7750000Y11700000D03*
X46200000Y37100000D03*
X47150000Y24850000D03*
X6700000Y7000000D03*
X37450000Y39250000D03*
X22200000Y49550000D03*
X48000000Y42000000D03*
X20600000Y22950000D03*
X18750000Y12550000D03*
X11100000Y19800000D03*
X43750000Y48700000D03*
X13500000Y55000000D03*
X43450000Y36150000D03*
X52650000Y33600000D03*
X46300000Y13500000D03*
X48850000Y32500000D03*
X13250000Y21600000D03*
X15150000Y24000000D03*
X48600000Y26850000D03*
X28050000Y6600000D03*
X50750000Y40200000D03*
X8750000Y32450000D03*
X1800000Y35650000D03*
X43450000Y46300000D03*
X48700000Y15600000D03*
X40700000Y10300000D03*
X37350000Y46350000D03*
X18800000Y20850000D03*
X25150000Y46350000D03*
X34650000Y53650000D03*
X49450000Y27650000D03*
X13250000Y22800000D03*
X30850000Y46350000D03*
X16100000Y20850000D03*
X50750000Y12550000D03*
X22450000Y21100000D03*
X48950000Y37750000D03*
X5650000Y6550000D03*
X21050000Y14550000D03*
X15350000Y22400000D03*
X20750000Y19200000D03*
X41500000Y36100000D03*
X46800000Y14200000D03*
X13800000Y46800000D03*
X51850000Y33450000D03*
X22800000Y49550000D03*
X18800000Y22550000D03*
X51850000Y35150000D03*
X17800000Y15800000D03*
X51950000Y30750000D03*
X25200000Y41400000D03*
%TO.N,/CM5/ETH_PI.TRD3_P*%
X51552512Y39952512D03*
%TO.N,/CM5/ETH_PI.TRD0_P*%
X42215626Y35889398D03*
%TO.N,/CM5/ETH_PI.TRD1_P*%
X46921790Y36883234D03*
%TO.N,/CM5/ETH_PI.TRD2_P*%
X49702512Y37502512D03*
%TO.N,/CM5/nLED_ACTIVITY*%
X49250000Y28350000D03*
%TO.N,/CM5/GPIO_VREF*%
X45650000Y18600000D03*
%TO.N,/CM5/EEPROM_nWP*%
X48750000Y31800000D03*
%TO.N,/CM5/PI_nLED_PWR*%
X52850000Y20450000D03*
%TO.N,/CM5/GLOBAL_EN*%
X51450000Y11400000D03*
%TO.N,/CM5/nLED_SPEED_100_1000*%
X53400000Y33700000D03*
%TO.N,/SCL*%
X25670000Y20990000D03*
X41600000Y8350000D03*
X27440000Y6050000D03*
%TO.N,/SDA*%
X26530000Y7000000D03*
X42875000Y10500000D03*
%TO.N,/CM5/HDMI_PI.HDMI0_D2_P*%
X14981641Y21641442D03*
%TO.N,/CM5/HDMI_PI.HDMI0_CEC*%
X19310000Y11800000D03*
%TO.N,/CM5/HDMI_PI.HDMI0_HOTPLUG*%
X16300000Y11800000D03*
%TO.N,/CM5/HDMI_PI.HDMI0_D1_N*%
X16144681Y19627736D03*
%TO.N,/CM5/HDMI_PI.HDMI0_D2_N*%
X15478739Y21144344D03*
%TO.N,/CM5/PWR_BUT*%
X48700000Y16600000D03*
%TO.N,/CM5/HDMI_PI.HDMI0_CK_P*%
X16050000Y17200000D03*
%TO.N,/CM5/HDMI_PI.HDMI0_D1_P*%
X15647583Y20124834D03*
%TO.N,/CM5/HDMI_PI.HDMI0_D0_P*%
X15101349Y18872889D03*
%TO.N,/CM5/HDMI_PI.HDMI0_CK_N*%
X16014923Y16514923D03*
%TO.N,/CM5/VBUS_EN*%
X16150000Y32800000D03*
X8650000Y15250000D03*
X4300000Y15150000D03*
%TO.N,/CM5/HDMI_PI.HDMI0_SDA*%
X17750000Y14200000D03*
%TO.N,/CM5/HDMI_PI.HDMI0_D0_N*%
X15099995Y18247888D03*
%TO.N,/CM5/PWM*%
X50250000Y31200000D03*
%TO.N,/CM5/TACHO*%
X46700000Y32000000D03*
%TO.N,/CM5/HDMI_PI.HDMI0_SCL*%
X15250000Y15650000D03*
%TO.N,/USB_C.D_P*%
X7498500Y32901410D03*
%TO.N,/CC2*%
X6800000Y32050000D03*
X20950000Y23500000D03*
X10650000Y27100000D03*
%TO.N,/USB_C.D_N*%
X7500000Y28700000D03*
X8201500Y32901410D03*
%TO.N,/CC1*%
X12450000Y29300000D03*
X8900000Y28750000D03*
X21400000Y24700000D03*
%TO.N,+5V*%
X44550000Y21350000D03*
X52400000Y19450000D03*
X43850000Y21350000D03*
X52400000Y18900000D03*
X51950000Y28050000D03*
X19850000Y30600000D03*
X19150000Y30395000D03*
X43850000Y20100000D03*
X51700000Y19450000D03*
X20050000Y29150000D03*
X43450000Y20750000D03*
X45250000Y21350000D03*
X20700000Y29300000D03*
X44150000Y20750000D03*
X52400000Y17800000D03*
X45550000Y20750000D03*
X51700000Y18900000D03*
X51700000Y17800000D03*
X52000000Y24000000D03*
X45250000Y20100000D03*
X44550000Y20100000D03*
X52400000Y18350000D03*
X51700000Y18350000D03*
X19900000Y29850000D03*
X20650000Y30050000D03*
X44850000Y20750000D03*
X19250000Y29650000D03*
%TO.N,+3V3*%
X39100000Y12650000D03*
X32300000Y31625000D03*
X32260000Y36100000D03*
X31625000Y7175000D03*
X47800000Y11150000D03*
X46600000Y17700000D03*
X47150000Y17650000D03*
X17025000Y51425000D03*
X47100000Y18200000D03*
X27900000Y15250000D03*
X17000000Y39400000D03*
X5482109Y4410903D03*
X43800000Y17700000D03*
%TO.N,+1V8*%
X46550000Y16900000D03*
%TO.N,/CM5/ETH_nLED_ACTIVITY*%
X49000000Y33300000D03*
%TO.N,/CM5/ETH_PI.TRD0_N*%
X42710602Y36384374D03*
%TO.N,/CM5/ETH_PI.TRD2_N*%
X50197488Y37997488D03*
%TO.N,/CM5/ETH_PI.TRD1_N*%
X47416766Y37378210D03*
%TO.N,/CM5/ETH_PI.TRD3_N*%
X52047488Y40447488D03*
%TO.N,/LoRaWAN/UART2_RX*%
X36900000Y35700000D03*
%TO.N,/LoRaWAN/UART2_TX*%
X35850000Y35700000D03*
%TO.N,/USB/VBUS*%
X6550000Y16200000D03*
X6100000Y20500000D03*
%TO.N,/USB/CC1*%
X8900000Y16700000D03*
X5350000Y26200000D03*
%TO.N,/CM5/USB2P.D_P*%
X7500000Y21450000D03*
%TO.N,/CM5/USB2P.D_N*%
X8200000Y21450000D03*
X7500000Y17200000D03*
%TD*%
%TA.AperFunction,Conductor*%
%TO.N,GND*%
G36*
X50535684Y56669499D02*
G01*
X50599757Y56669500D01*
X50603387Y56669411D01*
X50622963Y56668450D01*
X50940973Y56652829D01*
X50948173Y56652120D01*
X51280709Y56602795D01*
X51287824Y56601379D01*
X51613922Y56519698D01*
X51620836Y56517601D01*
X51937358Y56404349D01*
X51944066Y56401570D01*
X52144517Y56306766D01*
X52247958Y56257843D01*
X52254335Y56254435D01*
X52542690Y56081604D01*
X52548722Y56077573D01*
X52818727Y55877326D01*
X52824341Y55872719D01*
X53073423Y55646966D01*
X53078550Y55641839D01*
X53304307Y55392756D01*
X53308907Y55387151D01*
X53509154Y55117149D01*
X53513189Y55111111D01*
X53686013Y54822773D01*
X53689436Y54816368D01*
X53833159Y54512493D01*
X53835938Y54505784D01*
X53949186Y54189278D01*
X53951294Y54182329D01*
X54032974Y53856250D01*
X54034391Y53849127D01*
X54083715Y53516611D01*
X54084427Y53509384D01*
X54100984Y53172362D01*
X54101073Y53168731D01*
X54101073Y4031820D01*
X54100984Y4028189D01*
X54084400Y3690619D01*
X54083688Y3683392D01*
X54034363Y3350877D01*
X54032946Y3343755D01*
X53951270Y3017682D01*
X53949162Y3010732D01*
X53835913Y2694227D01*
X53833134Y2687518D01*
X53689412Y2383645D01*
X53685989Y2377240D01*
X53513167Y2088905D01*
X53509132Y2082867D01*
X53308890Y1812873D01*
X53304283Y1807259D01*
X53078529Y1558180D01*
X53073394Y1553046D01*
X52824334Y1327312D01*
X52818720Y1322704D01*
X52548702Y1122447D01*
X52542664Y1118413D01*
X52254344Y945602D01*
X52247940Y942179D01*
X51944057Y798456D01*
X51937348Y795677D01*
X51620849Y682433D01*
X51613899Y680325D01*
X51287821Y598648D01*
X51280698Y597231D01*
X50948185Y547910D01*
X50940958Y547198D01*
X50602840Y530590D01*
X50599210Y530501D01*
X50531155Y530501D01*
X50531139Y530500D01*
X50135321Y530500D01*
X50082995Y552174D01*
X50061321Y604500D01*
X50082995Y656826D01*
X50110881Y674347D01*
X50119208Y677261D01*
X50119212Y677264D01*
X50119215Y677264D01*
X50427910Y825924D01*
X50718018Y1008211D01*
X50985893Y1221834D01*
X51228166Y1464107D01*
X51441789Y1731982D01*
X51624076Y2022090D01*
X51772736Y2330785D01*
X51772736Y2330788D01*
X51772739Y2330792D01*
X51853177Y2560675D01*
X51885897Y2654183D01*
X51962139Y2988217D01*
X52000500Y3328688D01*
X52000500Y3671312D01*
X51962139Y4011783D01*
X51913445Y4225124D01*
X51885898Y4345813D01*
X51885892Y4345831D01*
X51772739Y4669209D01*
X51723968Y4770483D01*
X51624076Y4977910D01*
X51441789Y5268018D01*
X51228166Y5535893D01*
X50985893Y5778166D01*
X50718018Y5991789D01*
X50427910Y6174076D01*
X50425360Y6175304D01*
X50119208Y6322740D01*
X49795830Y6435893D01*
X49795812Y6435899D01*
X49461786Y6512139D01*
X49315866Y6528580D01*
X49121312Y6550500D01*
X48778688Y6550500D01*
X48608452Y6531320D01*
X48438213Y6512139D01*
X48104187Y6435899D01*
X48104169Y6435893D01*
X47780791Y6322740D01*
X47472091Y6174077D01*
X47181981Y5991789D01*
X46914103Y5778163D01*
X46671837Y5535897D01*
X46458211Y5268019D01*
X46275923Y4977909D01*
X46127260Y4669209D01*
X46014107Y4345831D01*
X46014101Y4345813D01*
X45946145Y4048077D01*
X45913370Y4001886D01*
X45857533Y3992399D01*
X45811342Y4025174D01*
X45800000Y4064544D01*
X45800000Y6350000D01*
X31350000Y6350000D01*
X31350000Y604500D01*
X31328326Y552174D01*
X31276000Y530500D01*
X4051819Y530500D01*
X4048188Y530589D01*
X3710617Y547173D01*
X3703390Y547885D01*
X3370873Y597210D01*
X3363751Y598627D01*
X3051191Y676919D01*
X3037677Y680304D01*
X3030728Y682411D01*
X2714221Y795660D01*
X2707512Y798439D01*
X2403637Y942161D01*
X2397232Y945584D01*
X2108896Y1118406D01*
X2102858Y1122441D01*
X1832857Y1322688D01*
X1827244Y1327295D01*
X1578173Y1553039D01*
X1573038Y1558174D01*
X1526447Y1609579D01*
X1347294Y1807245D01*
X1342687Y1812858D01*
X1142440Y2082859D01*
X1138405Y2088897D01*
X1119999Y2119606D01*
X965579Y2377241D01*
X962160Y2383638D01*
X952164Y2404772D01*
X818436Y2687518D01*
X815659Y2694222D01*
X805302Y2723168D01*
X702406Y3010742D01*
X700306Y3017665D01*
X618625Y3343755D01*
X617209Y3350874D01*
X610082Y3398922D01*
X567882Y3683406D01*
X567173Y3690604D01*
X550589Y4028189D01*
X550501Y4031843D01*
X550612Y4216306D01*
X551482Y5657486D01*
X2564869Y5657486D01*
X2564869Y5248693D01*
X2603780Y4841770D01*
X2603782Y4841753D01*
X2660133Y4549769D01*
X2681246Y4440376D01*
X2788917Y4074197D01*
X2796567Y4048179D01*
X2948687Y3668758D01*
X2948692Y3668749D01*
X3136225Y3305546D01*
X3136229Y3305539D01*
X3136235Y3305528D01*
X3254304Y3122114D01*
X3321529Y3017682D01*
X3357503Y2961799D01*
X3610483Y2640691D01*
X3881160Y2357384D01*
X3892887Y2345110D01*
X3892890Y2345108D01*
X4202115Y2077774D01*
X4202119Y2077771D01*
X4202123Y2077768D01*
X4535411Y1841065D01*
X4724953Y1731982D01*
X4889719Y1637157D01*
X5063348Y1558180D01*
X5261820Y1467902D01*
X5261825Y1467901D01*
X5261828Y1467899D01*
X5648330Y1334836D01*
X5648345Y1334831D01*
X6045780Y1239153D01*
X6450519Y1181738D01*
X6858884Y1163107D01*
X7267169Y1183429D01*
X7671665Y1242520D01*
X8068701Y1339843D01*
X8454672Y1474514D01*
X8826072Y1645311D01*
X9179529Y1850682D01*
X9511834Y2088764D01*
X9819969Y2357393D01*
X9914912Y2457583D01*
X9925178Y2466182D01*
X9927558Y2468242D01*
X9927563Y2468244D01*
X9965274Y2510673D01*
X9966861Y2512401D01*
X10005884Y2553584D01*
X10005886Y2553590D01*
X10007909Y2556377D01*
X10015398Y2567060D01*
X10035024Y2589148D01*
X10133825Y2753464D01*
X10200669Y2933167D01*
X10233268Y3122108D01*
X10230506Y3313821D01*
X10192478Y3501745D01*
X10163919Y3572238D01*
X10120488Y3679443D01*
X10120486Y3679448D01*
X10016993Y3840850D01*
X9918158Y3945792D01*
X9885546Y3980420D01*
X9885543Y3980422D01*
X9885540Y3980426D01*
X9822127Y4026672D01*
X12670000Y4026672D01*
X12670000Y3618500D01*
X13100000Y3618500D01*
X13100000Y3461500D01*
X12670000Y3461500D01*
X12670000Y3053329D01*
X12703816Y2883320D01*
X12703818Y2883313D01*
X12770152Y2723168D01*
X12866458Y2579034D01*
X12989033Y2456459D01*
X13133167Y2360153D01*
X13293312Y2293819D01*
X13293319Y2293817D01*
X13463329Y2260000D01*
X13471500Y2260000D01*
X13471500Y2695160D01*
X13490756Y2690000D01*
X13609244Y2690000D01*
X13628500Y2695160D01*
X13628500Y2260000D01*
X13636671Y2260000D01*
X13806680Y2293817D01*
X13806687Y2293819D01*
X13966832Y2360153D01*
X14110966Y2456459D01*
X14110968Y2456460D01*
X14233540Y2579032D01*
X14233541Y2579034D01*
X14329847Y2723168D01*
X14396181Y2883313D01*
X14396183Y2883320D01*
X14430000Y3053329D01*
X14430000Y3461500D01*
X14000000Y3461500D01*
X14000000Y3618500D01*
X14430000Y3618500D01*
X14430000Y4026672D01*
X27170000Y4026672D01*
X27170000Y3618500D01*
X27600000Y3618500D01*
X27600000Y3461500D01*
X27170000Y3461500D01*
X27170000Y3053329D01*
X27203816Y2883320D01*
X27203818Y2883313D01*
X27270152Y2723168D01*
X27366458Y2579034D01*
X27489033Y2456459D01*
X27633167Y2360153D01*
X27793312Y2293819D01*
X27793319Y2293817D01*
X27963329Y2260000D01*
X27971500Y2260000D01*
X27971500Y2695160D01*
X27990756Y2690000D01*
X28109244Y2690000D01*
X28128500Y2695160D01*
X28128500Y2260000D01*
X28136671Y2260000D01*
X28306680Y2293817D01*
X28306687Y2293819D01*
X28466832Y2360153D01*
X28610966Y2456459D01*
X28610968Y2456460D01*
X28733540Y2579032D01*
X28733541Y2579034D01*
X28829847Y2723168D01*
X28896181Y2883313D01*
X28896183Y2883320D01*
X28930000Y3053329D01*
X28930000Y3461500D01*
X28500000Y3461500D01*
X28500000Y3618500D01*
X28930000Y3618500D01*
X28930000Y4026672D01*
X28896183Y4196681D01*
X28896181Y4196688D01*
X28829847Y4356833D01*
X28733541Y4500967D01*
X28610966Y4623542D01*
X28466832Y4719848D01*
X28306687Y4786182D01*
X28306680Y4786184D01*
X28136671Y4820000D01*
X28128500Y4820000D01*
X28128500Y4384841D01*
X28109244Y4390000D01*
X27990756Y4390000D01*
X27971500Y4384841D01*
X27971500Y4820000D01*
X27963329Y4820000D01*
X27793319Y4786184D01*
X27793312Y4786182D01*
X27633167Y4719848D01*
X27489033Y4623542D01*
X27489032Y4623540D01*
X27366460Y4500968D01*
X27366458Y4500967D01*
X27270152Y4356833D01*
X27203818Y4196688D01*
X27203816Y4196681D01*
X27170000Y4026672D01*
X14430000Y4026672D01*
X14396183Y4196681D01*
X14396181Y4196688D01*
X14329847Y4356833D01*
X14233541Y4500967D01*
X14110966Y4623542D01*
X13966832Y4719848D01*
X13806687Y4786182D01*
X13806680Y4786184D01*
X13636671Y4820000D01*
X13628500Y4820000D01*
X13628500Y4384841D01*
X13609244Y4390000D01*
X13490756Y4390000D01*
X13471500Y4384841D01*
X13471500Y4820000D01*
X13463329Y4820000D01*
X13293319Y4786184D01*
X13293312Y4786182D01*
X13133167Y4719848D01*
X12989033Y4623542D01*
X12989032Y4623540D01*
X12866460Y4500968D01*
X12866458Y4500967D01*
X12770152Y4356833D01*
X12703818Y4196688D01*
X12703816Y4196681D01*
X12670000Y4026672D01*
X9822127Y4026672D01*
X9820047Y4028189D01*
X9730629Y4093400D01*
X9730625Y4093402D01*
X9557558Y4175907D01*
X9557555Y4175908D01*
X9372247Y4225124D01*
X9181044Y4239364D01*
X9181042Y4239364D01*
X9181040Y4239364D01*
X9181035Y4239364D01*
X8990497Y4218142D01*
X8990486Y4218140D01*
X8807103Y4162180D01*
X8807102Y4162179D01*
X8637168Y4073401D01*
X8486486Y3954832D01*
X8446150Y3908758D01*
X8438435Y3901150D01*
X8235448Y3728388D01*
X8227497Y3722490D01*
X7993729Y3572238D01*
X7985062Y3567455D01*
X7733339Y3449755D01*
X7724111Y3446171D01*
X7458925Y3363122D01*
X7449301Y3360802D01*
X7175407Y3313893D01*
X7165559Y3312878D01*
X6887848Y3302949D01*
X6877954Y3303258D01*
X6601408Y3330484D01*
X6591642Y3332111D01*
X6321207Y3396007D01*
X6311747Y3398922D01*
X6052250Y3498347D01*
X6043263Y3502500D01*
X5799369Y3635667D01*
X5791021Y3640979D01*
X5567082Y3805510D01*
X5559514Y3811892D01*
X5483181Y3885544D01*
X5460575Y3937474D01*
X5481310Y3990179D01*
X5522985Y4011886D01*
X5607413Y4025257D01*
X5720451Y4082853D01*
X5810159Y4172561D01*
X5867755Y4285599D01*
X5887601Y4410903D01*
X5867755Y4536207D01*
X5810159Y4649245D01*
X5720451Y4738953D01*
X5607413Y4796549D01*
X5607411Y4796550D01*
X5607410Y4796550D01*
X5482109Y4816395D01*
X5356807Y4796550D01*
X5243765Y4738952D01*
X5154059Y4649246D01*
X5119850Y4582107D01*
X5076783Y4545325D01*
X5020320Y4549769D01*
X4985805Y4586775D01*
X4919944Y4741843D01*
X4916692Y4751193D01*
X4843173Y5019172D01*
X4841198Y5028872D01*
X4804103Y5304288D01*
X4803442Y5314139D01*
X4803442Y5592035D01*
X4804104Y5601911D01*
X4841194Y5877313D01*
X4843169Y5887014D01*
X4887883Y6050000D01*
X27034508Y6050000D01*
X27054353Y5924699D01*
X27054353Y5924698D01*
X27054354Y5924696D01*
X27111950Y5811658D01*
X27201658Y5721950D01*
X27314696Y5664354D01*
X27440000Y5644508D01*
X27565304Y5664354D01*
X27678342Y5721950D01*
X27768050Y5811658D01*
X27825646Y5924696D01*
X27845492Y6050000D01*
X27825646Y6175304D01*
X27768050Y6288342D01*
X27678342Y6378050D01*
X27565304Y6435646D01*
X27565302Y6435647D01*
X27565301Y6435647D01*
X27440000Y6455492D01*
X27314698Y6435647D01*
X27201656Y6378049D01*
X27111951Y6288344D01*
X27054353Y6175302D01*
X27034508Y6050000D01*
X4887883Y6050000D01*
X4916688Y6154996D01*
X4919934Y6164332D01*
X5028578Y6420138D01*
X5033032Y6428935D01*
X5174848Y6667950D01*
X5180437Y6676076D01*
X5352884Y6894017D01*
X5359513Y6901331D01*
X5559503Y7094300D01*
X5567060Y7100673D01*
X5791011Y7265216D01*
X5799345Y7270520D01*
X6043264Y7403703D01*
X6052234Y7407847D01*
X6311728Y7507274D01*
X6321181Y7510188D01*
X6591643Y7574090D01*
X6601375Y7575712D01*
X6877942Y7602944D01*
X6887830Y7603252D01*
X7165557Y7593323D01*
X7175380Y7592311D01*
X7449295Y7545402D01*
X7458903Y7543085D01*
X7724107Y7460032D01*
X7733315Y7456456D01*
X7985058Y7338749D01*
X7993707Y7333976D01*
X8227487Y7183720D01*
X8235427Y7177830D01*
X8326080Y7100677D01*
X8438423Y7005063D01*
X8446141Y6997452D01*
X8486464Y6951389D01*
X8637135Y6832822D01*
X8637141Y6832818D01*
X8773340Y6761658D01*
X8807078Y6744031D01*
X8913497Y6711555D01*
X8990462Y6688066D01*
X8990464Y6688066D01*
X8990466Y6688065D01*
X9181024Y6666837D01*
X9372232Y6681074D01*
X9557546Y6730288D01*
X9730623Y6812796D01*
X9885540Y6925774D01*
X9955446Y7000000D01*
X26124508Y7000000D01*
X26144353Y6874699D01*
X26144353Y6874698D01*
X26144354Y6874696D01*
X26201950Y6761658D01*
X26291658Y6671950D01*
X26404696Y6614354D01*
X26530000Y6594508D01*
X26655304Y6614354D01*
X26768342Y6671950D01*
X26858050Y6761658D01*
X26915646Y6874696D01*
X26935492Y7000000D01*
X26915646Y7125304D01*
X26890325Y7175000D01*
X31219508Y7175000D01*
X31239353Y7049699D01*
X31239353Y7049698D01*
X31239354Y7049696D01*
X31296950Y6936658D01*
X31386658Y6846950D01*
X31499696Y6789354D01*
X31625000Y6769508D01*
X31750304Y6789354D01*
X31863342Y6846950D01*
X31953050Y6936658D01*
X32010646Y7049696D01*
X32030492Y7175000D01*
X32010646Y7300304D01*
X31953050Y7413342D01*
X31863342Y7503050D01*
X31750304Y7560646D01*
X31750302Y7560647D01*
X31750301Y7560647D01*
X31625000Y7580492D01*
X31499698Y7560647D01*
X31386656Y7503049D01*
X31296951Y7413344D01*
X31239353Y7300302D01*
X31219508Y7175000D01*
X26890325Y7175000D01*
X26858050Y7238342D01*
X26768342Y7328050D01*
X26655304Y7385646D01*
X26655302Y7385647D01*
X26655301Y7385647D01*
X26530000Y7405492D01*
X26404698Y7385647D01*
X26291656Y7328049D01*
X26201951Y7238344D01*
X26144353Y7125302D01*
X26124508Y7000000D01*
X9955446Y7000000D01*
X10016996Y7065354D01*
X10120490Y7226761D01*
X10192482Y7404469D01*
X10194278Y7413342D01*
X10203425Y7458553D01*
X10230508Y7592398D01*
X10233266Y7784116D01*
X10200661Y7973060D01*
X10133810Y8152766D01*
X10035001Y8317083D01*
X10029127Y8323694D01*
X10015433Y8339107D01*
X10007564Y8350327D01*
X10005884Y8352643D01*
X10005883Y8352646D01*
X10005880Y8352649D01*
X10005878Y8352652D01*
X9966851Y8393839D01*
X9965281Y8395549D01*
X9927548Y8437997D01*
X9927547Y8437998D01*
X9927545Y8438000D01*
X9925606Y8439678D01*
X9914834Y8448700D01*
X9819953Y8548823D01*
X9805919Y8561058D01*
X9511821Y8817447D01*
X9511818Y8817449D01*
X9511816Y8817451D01*
X9179509Y9055530D01*
X9179501Y9055536D01*
X8826054Y9260898D01*
X8826051Y9260900D01*
X8655255Y9339444D01*
X8454649Y9431696D01*
X8068680Y9566364D01*
X7671643Y9663684D01*
X7267150Y9722773D01*
X7063003Y9732933D01*
X6858861Y9743093D01*
X6858858Y9743093D01*
X6858857Y9743093D01*
X6450498Y9724461D01*
X6045773Y9667046D01*
X6045764Y9667044D01*
X6045758Y9667043D01*
X5883840Y9628063D01*
X5648311Y9571361D01*
X5261807Y9438293D01*
X5261796Y9438288D01*
X4889699Y9269033D01*
X4535386Y9065119D01*
X4202107Y8828421D01*
X3892853Y8561058D01*
X3892848Y8561054D01*
X3610478Y8265504D01*
X3610475Y8265501D01*
X3357486Y7944379D01*
X3192024Y7687337D01*
X3136223Y7600652D01*
X3088009Y7507272D01*
X2948679Y7237425D01*
X2948673Y7237413D01*
X2796563Y6858009D01*
X2796558Y6857995D01*
X2681239Y6465794D01*
X2603777Y6064418D01*
X2603776Y6064416D01*
X2564869Y5657486D01*
X551482Y5657486D01*
X554398Y10486672D01*
X12670000Y10486672D01*
X12670000Y9578500D01*
X13100000Y9578500D01*
X13100000Y9421500D01*
X12670000Y9421500D01*
X12670000Y8513329D01*
X12703816Y8343320D01*
X12703818Y8343313D01*
X12770152Y8183168D01*
X12866458Y8039034D01*
X12989033Y7916459D01*
X13133167Y7820153D01*
X13293312Y7753819D01*
X13293319Y7753817D01*
X13463329Y7720000D01*
X13471500Y7720000D01*
X13471500Y8155160D01*
X13490756Y8150000D01*
X13609244Y8150000D01*
X13628500Y8155160D01*
X13628500Y7720000D01*
X13636671Y7720000D01*
X13806680Y7753817D01*
X13806687Y7753819D01*
X13966832Y7820153D01*
X14110966Y7916459D01*
X14110968Y7916460D01*
X14233540Y8039032D01*
X14233541Y8039034D01*
X14329847Y8183168D01*
X14396181Y8343313D01*
X14396183Y8343320D01*
X14430000Y8513329D01*
X14430000Y9421500D01*
X14000000Y9421500D01*
X14000000Y9578500D01*
X14430000Y9578500D01*
X14430000Y10486672D01*
X27170000Y10486672D01*
X27170000Y9578500D01*
X27600000Y9578500D01*
X27600000Y9421500D01*
X27170000Y9421500D01*
X27170000Y8513329D01*
X27203816Y8343320D01*
X27203818Y8343313D01*
X27270152Y8183168D01*
X27366458Y8039034D01*
X27489033Y7916459D01*
X27633167Y7820153D01*
X27793312Y7753819D01*
X27793319Y7753817D01*
X27963329Y7720000D01*
X27971500Y7720000D01*
X27971500Y8155160D01*
X27990756Y8150000D01*
X28109244Y8150000D01*
X28128500Y8155160D01*
X28128500Y7720000D01*
X28136671Y7720000D01*
X28306680Y7753817D01*
X28306687Y7753819D01*
X28466832Y7820153D01*
X28610966Y7916459D01*
X28610968Y7916460D01*
X28733540Y8039032D01*
X28733541Y8039034D01*
X28829847Y8183168D01*
X28896181Y8343313D01*
X28896183Y8343320D01*
X28897512Y8350000D01*
X41194508Y8350000D01*
X41214353Y8224699D01*
X41214353Y8224698D01*
X41214354Y8224696D01*
X41271950Y8111658D01*
X41361658Y8021950D01*
X41474696Y7964354D01*
X41600000Y7944508D01*
X41725304Y7964354D01*
X41838342Y8021950D01*
X41928050Y8111658D01*
X41985646Y8224696D01*
X42005492Y8350000D01*
X41985646Y8475304D01*
X41928050Y8588342D01*
X41838342Y8678050D01*
X41725304Y8735646D01*
X41725302Y8735647D01*
X41725301Y8735647D01*
X41600000Y8755492D01*
X41474698Y8735647D01*
X41361656Y8678049D01*
X41271951Y8588344D01*
X41214353Y8475302D01*
X41194508Y8350000D01*
X28897512Y8350000D01*
X28930000Y8513329D01*
X28930000Y9421500D01*
X28500000Y9421500D01*
X28500000Y9564069D01*
X51899500Y9564069D01*
X51899500Y9435931D01*
X51900343Y9431695D01*
X51924497Y9310261D01*
X51924498Y9310258D01*
X51924499Y9310256D01*
X51973535Y9191873D01*
X52044724Y9085331D01*
X52135331Y8994724D01*
X52241873Y8923535D01*
X52360256Y8874499D01*
X52360258Y8874499D01*
X52360260Y8874498D01*
X52402903Y8866016D01*
X52485931Y8849500D01*
X52485933Y8849500D01*
X52614067Y8849500D01*
X52614069Y8849500D01*
X52739744Y8874499D01*
X52858127Y8923535D01*
X52964669Y8994724D01*
X53055276Y9085331D01*
X53126465Y9191873D01*
X53175501Y9310256D01*
X53200500Y9435931D01*
X53200500Y9564069D01*
X53175501Y9689744D01*
X53126465Y9808127D01*
X53055276Y9914669D01*
X52964669Y10005276D01*
X52858127Y10076465D01*
X52858124Y10076467D01*
X52858123Y10076467D01*
X52739742Y10125502D01*
X52739739Y10125503D01*
X52649696Y10143414D01*
X52614069Y10150500D01*
X52485931Y10150500D01*
X52454726Y10144293D01*
X52360260Y10125503D01*
X52360257Y10125502D01*
X52241876Y10076467D01*
X52135331Y10005277D01*
X52135330Y10005275D01*
X52044725Y9914670D01*
X52044723Y9914669D01*
X51973533Y9808124D01*
X51924498Y9689743D01*
X51924497Y9689740D01*
X51903043Y9581883D01*
X51899500Y9564069D01*
X28500000Y9564069D01*
X28500000Y9578500D01*
X28930000Y9578500D01*
X28930000Y10486672D01*
X28927349Y10500000D01*
X42469508Y10500000D01*
X42489353Y10374699D01*
X42489353Y10374698D01*
X42489354Y10374696D01*
X42546950Y10261658D01*
X42636658Y10171950D01*
X42749696Y10114354D01*
X42875000Y10094508D01*
X43000304Y10114354D01*
X43113342Y10171950D01*
X43203050Y10261658D01*
X43260646Y10374696D01*
X43280492Y10500000D01*
X43260646Y10625304D01*
X43203050Y10738342D01*
X43113342Y10828050D01*
X43000304Y10885646D01*
X43000302Y10885647D01*
X43000301Y10885647D01*
X42875000Y10905492D01*
X42749698Y10885647D01*
X42636656Y10828049D01*
X42546951Y10738344D01*
X42489353Y10625302D01*
X42469508Y10500000D01*
X28927349Y10500000D01*
X28896183Y10656681D01*
X28896181Y10656688D01*
X28829847Y10816833D01*
X28733541Y10960967D01*
X28610966Y11083542D01*
X28511503Y11150000D01*
X47394508Y11150000D01*
X47414353Y11024699D01*
X47414353Y11024698D01*
X47414354Y11024696D01*
X47471950Y10911658D01*
X47561658Y10821950D01*
X47674696Y10764354D01*
X47800000Y10744508D01*
X47925304Y10764354D01*
X48038342Y10821950D01*
X48128050Y10911658D01*
X48185646Y11024696D01*
X48205492Y11150000D01*
X48185646Y11275304D01*
X48128050Y11388342D01*
X48116392Y11400000D01*
X51044508Y11400000D01*
X51064353Y11274699D01*
X51064353Y11274698D01*
X51064354Y11274696D01*
X51121950Y11161658D01*
X51211658Y11071950D01*
X51324696Y11014354D01*
X51450000Y10994508D01*
X51575304Y11014354D01*
X51688342Y11071950D01*
X51778050Y11161658D01*
X51835646Y11274696D01*
X51855492Y11400000D01*
X51835646Y11525304D01*
X51778050Y11638342D01*
X51688342Y11728050D01*
X51575304Y11785646D01*
X51575302Y11785647D01*
X51575301Y11785647D01*
X51450000Y11805492D01*
X51324698Y11785647D01*
X51211656Y11728049D01*
X51121951Y11638344D01*
X51064353Y11525302D01*
X51044508Y11400000D01*
X48116392Y11400000D01*
X48038342Y11478050D01*
X47925304Y11535646D01*
X47925302Y11535647D01*
X47925301Y11535647D01*
X47800000Y11555492D01*
X47674698Y11535647D01*
X47561656Y11478049D01*
X47471951Y11388344D01*
X47414353Y11275302D01*
X47394508Y11150000D01*
X28511503Y11150000D01*
X28466832Y11179848D01*
X28306687Y11246182D01*
X28306680Y11246184D01*
X28136671Y11280000D01*
X28128500Y11280000D01*
X28128500Y10844841D01*
X28109244Y10850000D01*
X27990756Y10850000D01*
X27971500Y10844841D01*
X27971500Y11280000D01*
X27963329Y11280000D01*
X27793319Y11246184D01*
X27793312Y11246182D01*
X27633167Y11179848D01*
X27489033Y11083542D01*
X27489032Y11083540D01*
X27366460Y10960968D01*
X27366458Y10960967D01*
X27270152Y10816833D01*
X27203818Y10656688D01*
X27203816Y10656681D01*
X27170000Y10486672D01*
X14430000Y10486672D01*
X14396183Y10656681D01*
X14396181Y10656688D01*
X14329847Y10816833D01*
X14233541Y10960967D01*
X14110966Y11083542D01*
X13966832Y11179848D01*
X13806687Y11246182D01*
X13806680Y11246184D01*
X13636671Y11280000D01*
X13628500Y11280000D01*
X13628500Y10844841D01*
X13609244Y10850000D01*
X13490756Y10850000D01*
X13471500Y10844841D01*
X13471500Y11280000D01*
X13463329Y11280000D01*
X13293319Y11246184D01*
X13293312Y11246182D01*
X13133167Y11179848D01*
X12989033Y11083542D01*
X12989032Y11083540D01*
X12866460Y10960968D01*
X12866458Y10960967D01*
X12770152Y10816833D01*
X12703818Y10656688D01*
X12703816Y10656681D01*
X12670000Y10486672D01*
X554398Y10486672D01*
X555191Y11800000D01*
X15894508Y11800000D01*
X15914353Y11674699D01*
X15914353Y11674698D01*
X15914354Y11674696D01*
X15971950Y11561658D01*
X16061658Y11471950D01*
X16174696Y11414354D01*
X16300000Y11394508D01*
X16425304Y11414354D01*
X16538342Y11471950D01*
X16628050Y11561658D01*
X16685646Y11674696D01*
X16705492Y11800000D01*
X18904508Y11800000D01*
X18924353Y11674699D01*
X18924353Y11674698D01*
X18924354Y11674696D01*
X18981950Y11561658D01*
X19071658Y11471950D01*
X19184696Y11414354D01*
X19310000Y11394508D01*
X19435304Y11414354D01*
X19548342Y11471950D01*
X19638050Y11561658D01*
X19695646Y11674696D01*
X19715492Y11800000D01*
X19695646Y11925304D01*
X19638050Y12038342D01*
X19548342Y12128050D01*
X19435304Y12185646D01*
X19435302Y12185647D01*
X19435301Y12185647D01*
X19310000Y12205492D01*
X19184698Y12185647D01*
X19071656Y12128049D01*
X18981951Y12038344D01*
X18924353Y11925302D01*
X18904508Y11800000D01*
X16705492Y11800000D01*
X16685646Y11925304D01*
X16628050Y12038342D01*
X16538342Y12128050D01*
X16425304Y12185646D01*
X16425302Y12185647D01*
X16425301Y12185647D01*
X16300000Y12205492D01*
X16174698Y12185647D01*
X16061656Y12128049D01*
X15971951Y12038344D01*
X15914353Y11925302D01*
X15894508Y11800000D01*
X555191Y11800000D01*
X555851Y12892455D01*
X31074200Y12892455D01*
X31074200Y12745546D01*
X31102858Y12601465D01*
X31102861Y12601454D01*
X31159078Y12465734D01*
X31195210Y12411658D01*
X31240699Y12343580D01*
X31344580Y12239699D01*
X31466731Y12158080D01*
X31602458Y12101860D01*
X31746545Y12073200D01*
X31893455Y12073200D01*
X32037542Y12101860D01*
X32173269Y12158080D01*
X32295420Y12239699D01*
X32399301Y12343580D01*
X32480920Y12465731D01*
X32537140Y12601458D01*
X32546795Y12650000D01*
X38694508Y12650000D01*
X38714353Y12524699D01*
X38714353Y12524698D01*
X38714354Y12524696D01*
X38771950Y12411658D01*
X38861658Y12321950D01*
X38974696Y12264354D01*
X39100000Y12244508D01*
X39225304Y12264354D01*
X39338342Y12321950D01*
X39428050Y12411658D01*
X39485646Y12524696D01*
X39505492Y12650000D01*
X39485646Y12775304D01*
X39473061Y12800004D01*
X48615373Y12800004D01*
X48615373Y12799997D01*
X48633812Y12648129D01*
X48633814Y12648125D01*
X48688065Y12505075D01*
X48751768Y12412786D01*
X49026141Y12687160D01*
X49038060Y12658386D01*
X49108386Y12588060D01*
X49137158Y12576143D01*
X48862574Y12301559D01*
X48889486Y12277716D01*
X48889489Y12277714D01*
X49024956Y12206615D01*
X49173502Y12170001D01*
X49173508Y12170000D01*
X49326492Y12170000D01*
X49326497Y12170001D01*
X49475043Y12206615D01*
X49610510Y12277714D01*
X49637424Y12301559D01*
X49362841Y12576143D01*
X49391614Y12588060D01*
X49461940Y12658386D01*
X49473857Y12687159D01*
X49748230Y12412786D01*
X49811935Y12505078D01*
X49866185Y12648125D01*
X49866187Y12648129D01*
X49884627Y12799997D01*
X49884627Y12800004D01*
X49866187Y12951872D01*
X49866185Y12951876D01*
X49811934Y13094926D01*
X49748231Y13187216D01*
X49473857Y12912843D01*
X49461940Y12941614D01*
X49391614Y13011940D01*
X49362840Y13023859D01*
X49637424Y13298442D01*
X49610513Y13322285D01*
X49610510Y13322287D01*
X49475043Y13393386D01*
X49326497Y13430000D01*
X49173502Y13430000D01*
X49024956Y13393386D01*
X48889490Y13322288D01*
X48862573Y13298443D01*
X49137158Y13023858D01*
X49108386Y13011940D01*
X49038060Y12941614D01*
X49026142Y12912842D01*
X48751767Y13187217D01*
X48688067Y13094930D01*
X48688066Y13094928D01*
X48633814Y12951876D01*
X48633812Y12951872D01*
X48615373Y12800004D01*
X39473061Y12800004D01*
X39428050Y12888342D01*
X39338342Y12978050D01*
X39225304Y13035646D01*
X39225302Y13035647D01*
X39225301Y13035647D01*
X39100000Y13055492D01*
X38974698Y13035647D01*
X38861656Y12978049D01*
X38771951Y12888344D01*
X38714353Y12775302D01*
X38694508Y12650000D01*
X32546795Y12650000D01*
X32565800Y12745545D01*
X32565800Y12892455D01*
X32537140Y13036542D01*
X32512955Y13094930D01*
X32480921Y13172267D01*
X32479710Y13174079D01*
X32399301Y13294420D01*
X32295420Y13398301D01*
X32247979Y13430000D01*
X32173266Y13479922D01*
X32037546Y13536139D01*
X32037535Y13536142D01*
X31893455Y13564800D01*
X31746545Y13564800D01*
X31602464Y13536142D01*
X31602453Y13536139D01*
X31466733Y13479922D01*
X31344583Y13398304D01*
X31240696Y13294417D01*
X31159078Y13172267D01*
X31102861Y13036547D01*
X31102858Y13036536D01*
X31074200Y12892455D01*
X555851Y12892455D01*
X556640Y14200000D01*
X17344508Y14200000D01*
X17364353Y14074699D01*
X17364353Y14074698D01*
X17364354Y14074696D01*
X17421950Y13961658D01*
X17511658Y13871950D01*
X17624696Y13814354D01*
X17750000Y13794508D01*
X17875304Y13814354D01*
X17988342Y13871950D01*
X18024847Y13908455D01*
X25994200Y13908455D01*
X25994200Y13761546D01*
X26022858Y13617465D01*
X26022861Y13617454D01*
X26079078Y13481734D01*
X26079079Y13481732D01*
X26079080Y13481731D01*
X26160699Y13359580D01*
X26264580Y13255699D01*
X26386731Y13174080D01*
X26522458Y13117860D01*
X26666545Y13089200D01*
X26813455Y13089200D01*
X26957542Y13117860D01*
X27093269Y13174080D01*
X27215420Y13255699D01*
X27319301Y13359580D01*
X27400920Y13481731D01*
X27457140Y13617458D01*
X27485800Y13761545D01*
X27485800Y13908455D01*
X27457140Y14052542D01*
X27433232Y14110261D01*
X27400921Y14188267D01*
X27399710Y14190079D01*
X27319301Y14310420D01*
X27215420Y14414301D01*
X27179440Y14438342D01*
X27093266Y14495922D01*
X26957546Y14552139D01*
X26957535Y14552142D01*
X26813455Y14580800D01*
X26666545Y14580800D01*
X26522464Y14552142D01*
X26522453Y14552139D01*
X26386733Y14495922D01*
X26264583Y14414304D01*
X26160696Y14310417D01*
X26079078Y14188267D01*
X26022861Y14052547D01*
X26022858Y14052536D01*
X25994200Y13908455D01*
X18024847Y13908455D01*
X18078050Y13961658D01*
X18135646Y14074696D01*
X18155492Y14200000D01*
X18135646Y14325304D01*
X18078050Y14438342D01*
X17988342Y14528050D01*
X17875304Y14585646D01*
X17875302Y14585647D01*
X17875301Y14585647D01*
X17750000Y14605492D01*
X17624698Y14585647D01*
X17511656Y14528049D01*
X17421951Y14438344D01*
X17364353Y14325302D01*
X17344508Y14200000D01*
X556640Y14200000D01*
X557213Y15150000D01*
X3894508Y15150000D01*
X3914353Y15024699D01*
X3914353Y15024698D01*
X3914354Y15024696D01*
X3971950Y14911658D01*
X4061658Y14821950D01*
X4174696Y14764354D01*
X4300000Y14744508D01*
X4425304Y14764354D01*
X4538342Y14821950D01*
X4628050Y14911658D01*
X4685646Y15024696D01*
X4705492Y15150000D01*
X4689654Y15250000D01*
X8244508Y15250000D01*
X8264353Y15124699D01*
X8264353Y15124698D01*
X8264354Y15124696D01*
X8321950Y15011658D01*
X8411658Y14921950D01*
X8524696Y14864354D01*
X8650000Y14844508D01*
X8775304Y14864354D01*
X8888342Y14921950D01*
X8978050Y15011658D01*
X9035646Y15124696D01*
X9055492Y15250000D01*
X9035646Y15375304D01*
X8978050Y15488342D01*
X8888342Y15578050D01*
X8775304Y15635646D01*
X8775302Y15635647D01*
X8775301Y15635647D01*
X8684676Y15650000D01*
X14844508Y15650000D01*
X14864353Y15524699D01*
X14864353Y15524698D01*
X14864354Y15524696D01*
X14921950Y15411658D01*
X15011658Y15321950D01*
X15124696Y15264354D01*
X15250000Y15244508D01*
X15284675Y15250000D01*
X27494508Y15250000D01*
X27514353Y15124699D01*
X27514353Y15124698D01*
X27514354Y15124696D01*
X27571950Y15011658D01*
X27661658Y14921950D01*
X27774696Y14864354D01*
X27900000Y14844508D01*
X28025304Y14864354D01*
X28138342Y14921950D01*
X28140847Y14924455D01*
X31074200Y14924455D01*
X31074200Y14777546D01*
X31102858Y14633465D01*
X31102861Y14633454D01*
X31159078Y14497734D01*
X31198762Y14438342D01*
X31240699Y14375580D01*
X31344580Y14271699D01*
X31466731Y14190080D01*
X31602458Y14133860D01*
X31746545Y14105200D01*
X31893455Y14105200D01*
X32037542Y14133860D01*
X32173269Y14190080D01*
X32295420Y14271699D01*
X32387789Y14364068D01*
X51899500Y14364068D01*
X51899500Y14235933D01*
X51924497Y14110261D01*
X51924498Y14110258D01*
X51924499Y14110256D01*
X51973535Y13991873D01*
X52044724Y13885331D01*
X52135331Y13794724D01*
X52241873Y13723535D01*
X52360256Y13674499D01*
X52360258Y13674499D01*
X52360260Y13674498D01*
X52402903Y13666016D01*
X52485931Y13649500D01*
X52485933Y13649500D01*
X52614067Y13649500D01*
X52614069Y13649500D01*
X52739744Y13674499D01*
X52858127Y13723535D01*
X52964669Y13794724D01*
X53055276Y13885331D01*
X53126465Y13991873D01*
X53175501Y14110256D01*
X53200500Y14235931D01*
X53200500Y14364069D01*
X53175501Y14489744D01*
X53126465Y14608127D01*
X53055276Y14714669D01*
X52964669Y14805276D01*
X52858127Y14876465D01*
X52858124Y14876467D01*
X52858123Y14876467D01*
X52739742Y14925502D01*
X52739739Y14925503D01*
X52649696Y14943414D01*
X52614069Y14950500D01*
X52485931Y14950500D01*
X52454726Y14944293D01*
X52360260Y14925503D01*
X52360257Y14925502D01*
X52241876Y14876467D01*
X52135331Y14805277D01*
X52135330Y14805275D01*
X52044725Y14714670D01*
X52044723Y14714669D01*
X51973533Y14608124D01*
X51924498Y14489743D01*
X51924497Y14489740D01*
X51899500Y14364068D01*
X32387789Y14364068D01*
X32399301Y14375580D01*
X32480920Y14497731D01*
X32537140Y14633458D01*
X32565800Y14777545D01*
X32565800Y14924455D01*
X32537140Y15068542D01*
X32480920Y15204269D01*
X32399301Y15326420D01*
X32295420Y15430301D01*
X32223960Y15478049D01*
X32173266Y15511922D01*
X32037546Y15568139D01*
X32037535Y15568142D01*
X31893455Y15596800D01*
X31746545Y15596800D01*
X31602464Y15568142D01*
X31602453Y15568139D01*
X31466733Y15511922D01*
X31344583Y15430304D01*
X31240696Y15326417D01*
X31159078Y15204267D01*
X31102861Y15068547D01*
X31102858Y15068536D01*
X31074200Y14924455D01*
X28140847Y14924455D01*
X28228050Y15011658D01*
X28285646Y15124696D01*
X28305492Y15250000D01*
X28285646Y15375304D01*
X28228050Y15488342D01*
X28138342Y15578050D01*
X28025304Y15635646D01*
X28025302Y15635647D01*
X28025301Y15635647D01*
X27900000Y15655492D01*
X27774698Y15635647D01*
X27661656Y15578049D01*
X27571951Y15488344D01*
X27514353Y15375302D01*
X27494508Y15250000D01*
X15284675Y15250000D01*
X15375304Y15264354D01*
X15488342Y15321950D01*
X15578050Y15411658D01*
X15635646Y15524696D01*
X15655492Y15650000D01*
X15635646Y15775304D01*
X15578050Y15888342D01*
X15488342Y15978050D01*
X15375304Y16035646D01*
X15375302Y16035647D01*
X15375301Y16035647D01*
X15250000Y16055492D01*
X15124698Y16035647D01*
X15011656Y15978049D01*
X14921951Y15888344D01*
X14864353Y15775302D01*
X14844508Y15650000D01*
X8684676Y15650000D01*
X8650000Y15655492D01*
X8524698Y15635647D01*
X8411656Y15578049D01*
X8321951Y15488344D01*
X8264353Y15375302D01*
X8244508Y15250000D01*
X4689654Y15250000D01*
X4685646Y15275304D01*
X4628050Y15388342D01*
X4538342Y15478050D01*
X4425304Y15535646D01*
X4425302Y15535647D01*
X4425301Y15535647D01*
X4300000Y15555492D01*
X4174698Y15535647D01*
X4061656Y15478049D01*
X3971951Y15388344D01*
X3914353Y15275302D01*
X3894508Y15150000D01*
X557213Y15150000D01*
X557847Y16200000D01*
X6144508Y16200000D01*
X6164353Y16074699D01*
X6164353Y16074698D01*
X6164354Y16074696D01*
X6221950Y15961658D01*
X6311658Y15871950D01*
X6424696Y15814354D01*
X6550000Y15794508D01*
X6675304Y15814354D01*
X6788342Y15871950D01*
X6878050Y15961658D01*
X6935646Y16074696D01*
X6955492Y16200000D01*
X6935646Y16325304D01*
X6878050Y16438342D01*
X6788342Y16528050D01*
X6675304Y16585646D01*
X6675302Y16585647D01*
X6675301Y16585647D01*
X6550000Y16605492D01*
X6424698Y16585647D01*
X6311656Y16528049D01*
X6221951Y16438344D01*
X6164353Y16325302D01*
X6144508Y16200000D01*
X557847Y16200000D01*
X558269Y16898501D01*
X3771278Y16898501D01*
X3771279Y16898500D01*
X4111918Y16898500D01*
X4100001Y16869730D01*
X4100001Y16770270D01*
X4111918Y16741500D01*
X3771278Y16741500D01*
X3808161Y16603852D01*
X3808163Y16603847D01*
X3881886Y16476156D01*
X3986155Y16371887D01*
X4113846Y16298164D01*
X4113851Y16298162D01*
X4256272Y16260001D01*
X4256273Y16260000D01*
X4721500Y16260000D01*
X4721500Y16569988D01*
X4878500Y16569988D01*
X4878500Y16260000D01*
X5343727Y16260000D01*
X5343727Y16260001D01*
X5486148Y16298162D01*
X5486153Y16298164D01*
X5613844Y16371887D01*
X5718113Y16476156D01*
X5791836Y16603847D01*
X5791838Y16603852D01*
X5817601Y16700000D01*
X8494508Y16700000D01*
X8514353Y16574699D01*
X8514353Y16574698D01*
X8514354Y16574696D01*
X8571950Y16461658D01*
X8661658Y16371950D01*
X8774696Y16314354D01*
X8900000Y16294508D01*
X9025304Y16314354D01*
X9138342Y16371950D01*
X9228050Y16461658D01*
X9285646Y16574696D01*
X9305492Y16700000D01*
X9285646Y16825304D01*
X9248350Y16898501D01*
X9871278Y16898501D01*
X9871279Y16898500D01*
X10211918Y16898500D01*
X10200001Y16869730D01*
X10200001Y16770270D01*
X10211918Y16741500D01*
X9871278Y16741500D01*
X9908161Y16603852D01*
X9908163Y16603847D01*
X9981886Y16476156D01*
X10086155Y16371887D01*
X10213846Y16298164D01*
X10213851Y16298162D01*
X10356272Y16260001D01*
X10356273Y16260000D01*
X10821500Y16260000D01*
X10821500Y16569988D01*
X10978500Y16569988D01*
X10978500Y16260000D01*
X11443727Y16260000D01*
X11443727Y16260001D01*
X11586148Y16298162D01*
X11586153Y16298164D01*
X11713844Y16371887D01*
X11818113Y16476156D01*
X11840495Y16514923D01*
X15609431Y16514923D01*
X15629276Y16389622D01*
X15629276Y16389621D01*
X15629277Y16389619D01*
X15686873Y16276581D01*
X15776581Y16186873D01*
X15889619Y16129277D01*
X16014923Y16109431D01*
X16140227Y16129277D01*
X16253265Y16186873D01*
X16342973Y16276581D01*
X16400569Y16389619D01*
X16420415Y16514923D01*
X16400569Y16640227D01*
X16342973Y16753265D01*
X16308640Y16787598D01*
X16286966Y16839922D01*
X16308638Y16892247D01*
X16316391Y16900000D01*
X46144508Y16900000D01*
X46164353Y16774699D01*
X46164353Y16774698D01*
X46164354Y16774696D01*
X46221950Y16661658D01*
X46311658Y16571950D01*
X46424696Y16514354D01*
X46550000Y16494508D01*
X46675304Y16514354D01*
X46788342Y16571950D01*
X46816392Y16600000D01*
X48294508Y16600000D01*
X48314353Y16474699D01*
X48314353Y16474698D01*
X48314354Y16474696D01*
X48371950Y16361658D01*
X48461658Y16271950D01*
X48574696Y16214354D01*
X48700000Y16194508D01*
X48825304Y16214354D01*
X48938342Y16271950D01*
X49028050Y16361658D01*
X49085646Y16474696D01*
X49105492Y16600000D01*
X49085646Y16725304D01*
X49028050Y16838342D01*
X48938342Y16928050D01*
X48825304Y16985646D01*
X48825302Y16985647D01*
X48825301Y16985647D01*
X48700000Y17005492D01*
X48574698Y16985647D01*
X48461656Y16928049D01*
X48371951Y16838344D01*
X48314353Y16725302D01*
X48294508Y16600000D01*
X46816392Y16600000D01*
X46878050Y16661658D01*
X46935646Y16774696D01*
X46955492Y16900000D01*
X46935646Y17025304D01*
X46878050Y17138342D01*
X46788342Y17228050D01*
X46784224Y17232168D01*
X46785863Y17233808D01*
X46760637Y17274962D01*
X46773853Y17330035D01*
X46800121Y17352476D01*
X46805879Y17355410D01*
X46862338Y17359858D01*
X46891804Y17341804D01*
X46911658Y17321950D01*
X47024696Y17264354D01*
X47150000Y17244508D01*
X47275304Y17264354D01*
X47388342Y17321950D01*
X47478050Y17411658D01*
X47535646Y17524696D01*
X47555492Y17650000D01*
X47535646Y17775304D01*
X47478050Y17888342D01*
X47458196Y17908196D01*
X47436522Y17960522D01*
X47444586Y17994114D01*
X47485646Y18074696D01*
X47505492Y18200000D01*
X47485646Y18325304D01*
X47428050Y18438342D01*
X47338342Y18528050D01*
X47225304Y18585646D01*
X47225302Y18585647D01*
X47225301Y18585647D01*
X47100000Y18605492D01*
X46974698Y18585647D01*
X46861656Y18528049D01*
X46771951Y18438344D01*
X46714353Y18325302D01*
X46694508Y18200000D01*
X46694508Y18199999D01*
X46696360Y18188304D01*
X46683137Y18133232D01*
X46634846Y18103640D01*
X46611696Y18103640D01*
X46600002Y18105492D01*
X46600000Y18105492D01*
X46474698Y18085647D01*
X46361656Y18028049D01*
X46271951Y17938344D01*
X46214353Y17825302D01*
X46194508Y17700000D01*
X46214353Y17574699D01*
X46214353Y17574698D01*
X46214354Y17574696D01*
X46266705Y17471952D01*
X46271951Y17461657D01*
X46365776Y17367832D01*
X46364135Y17366192D01*
X46389361Y17325044D01*
X46376149Y17269969D01*
X46349871Y17247521D01*
X46311657Y17228050D01*
X46221951Y17138344D01*
X46164353Y17025302D01*
X46144508Y16900000D01*
X16316391Y16900000D01*
X16378050Y16961658D01*
X16435646Y17074696D01*
X16455492Y17200000D01*
X16435646Y17325304D01*
X16378050Y17438342D01*
X16288342Y17528050D01*
X16175304Y17585646D01*
X16175302Y17585647D01*
X16175301Y17585647D01*
X16050000Y17605492D01*
X15924698Y17585647D01*
X15811656Y17528049D01*
X15721951Y17438344D01*
X15664353Y17325302D01*
X15644508Y17200000D01*
X15664353Y17074699D01*
X15664353Y17074698D01*
X15664354Y17074696D01*
X15721950Y16961658D01*
X15721951Y16961657D01*
X15756282Y16927326D01*
X15777956Y16875000D01*
X15756282Y16822674D01*
X15686874Y16753267D01*
X15629276Y16640225D01*
X15609431Y16514923D01*
X11840495Y16514923D01*
X11891836Y16603847D01*
X11891838Y16603852D01*
X11928721Y16741500D01*
X11588082Y16741500D01*
X11599999Y16770270D01*
X11599999Y16869730D01*
X11588082Y16898500D01*
X11928721Y16898500D01*
X11928721Y16898501D01*
X11891838Y17036149D01*
X11891836Y17036154D01*
X11818113Y17163845D01*
X11713844Y17268114D01*
X11586153Y17341837D01*
X11586148Y17341839D01*
X11443727Y17380000D01*
X10978500Y17380000D01*
X10978500Y17070012D01*
X10821500Y17070012D01*
X10821500Y17380000D01*
X10356273Y17380000D01*
X10213851Y17341839D01*
X10213846Y17341837D01*
X10086155Y17268114D01*
X9981886Y17163845D01*
X9908163Y17036154D01*
X9908161Y17036149D01*
X9871278Y16898501D01*
X9248350Y16898501D01*
X9228050Y16938342D01*
X9138342Y17028050D01*
X9025304Y17085646D01*
X9025302Y17085647D01*
X9025301Y17085647D01*
X8900000Y17105492D01*
X8774698Y17085647D01*
X8661656Y17028049D01*
X8571951Y16938344D01*
X8514353Y16825302D01*
X8494508Y16700000D01*
X5817601Y16700000D01*
X5828721Y16741500D01*
X5488082Y16741500D01*
X5499999Y16770270D01*
X5499999Y16869730D01*
X5488082Y16898500D01*
X5828721Y16898500D01*
X5828721Y16898501D01*
X5791838Y17036149D01*
X5791836Y17036154D01*
X5718113Y17163845D01*
X5681958Y17200000D01*
X7094508Y17200000D01*
X7114353Y17074699D01*
X7114353Y17074698D01*
X7114354Y17074696D01*
X7171950Y16961658D01*
X7261658Y16871950D01*
X7374696Y16814354D01*
X7500000Y16794508D01*
X7625304Y16814354D01*
X7738342Y16871950D01*
X7828050Y16961658D01*
X7885646Y17074696D01*
X7905492Y17200000D01*
X7885646Y17325304D01*
X7828050Y17438342D01*
X7738342Y17528050D01*
X7625304Y17585646D01*
X7625302Y17585647D01*
X7625301Y17585647D01*
X7500000Y17605492D01*
X7374698Y17585647D01*
X7261656Y17528049D01*
X7171951Y17438344D01*
X7114353Y17325302D01*
X7094508Y17200000D01*
X5681958Y17200000D01*
X5613844Y17268114D01*
X5486153Y17341837D01*
X5486148Y17341839D01*
X5343727Y17380000D01*
X4878500Y17380000D01*
X4878500Y17070012D01*
X4721500Y17070012D01*
X4721500Y17380000D01*
X4256273Y17380000D01*
X4113851Y17341839D01*
X4113846Y17341837D01*
X3986155Y17268114D01*
X3881886Y17163845D01*
X3808163Y17036154D01*
X3808161Y17036149D01*
X3771278Y16898501D01*
X558269Y16898501D01*
X558753Y17700000D01*
X43394508Y17700000D01*
X43414353Y17574699D01*
X43414353Y17574698D01*
X43414354Y17574696D01*
X43471950Y17461658D01*
X43561658Y17371950D01*
X43674696Y17314354D01*
X43800000Y17294508D01*
X43925304Y17314354D01*
X44038342Y17371950D01*
X44128050Y17461658D01*
X44185646Y17574696D01*
X44205492Y17700000D01*
X44185646Y17825304D01*
X44128050Y17938342D01*
X44038342Y18028050D01*
X43925304Y18085646D01*
X43925302Y18085647D01*
X43925301Y18085647D01*
X43800000Y18105492D01*
X43674698Y18085647D01*
X43561656Y18028049D01*
X43471951Y17938344D01*
X43414353Y17825302D01*
X43394508Y17700000D01*
X558753Y17700000D01*
X559486Y18914069D01*
X3619500Y18914069D01*
X3619500Y18785931D01*
X3621735Y18774696D01*
X3644497Y18660261D01*
X3644498Y18660258D01*
X3692130Y18545263D01*
X3693535Y18541873D01*
X3730716Y18486228D01*
X3762710Y18438344D01*
X3764724Y18435331D01*
X3855331Y18344724D01*
X3961873Y18273535D01*
X4080256Y18224499D01*
X4080258Y18224499D01*
X4080260Y18224498D01*
X4122903Y18216016D01*
X4205931Y18199500D01*
X4205933Y18199500D01*
X4334067Y18199500D01*
X4334069Y18199500D01*
X4459744Y18224499D01*
X4578127Y18273535D01*
X4684669Y18344724D01*
X4775276Y18435331D01*
X4846465Y18541873D01*
X4895501Y18660256D01*
X4920500Y18785931D01*
X4920500Y18914069D01*
X10779500Y18914069D01*
X10779500Y18785931D01*
X10781735Y18774696D01*
X10804497Y18660261D01*
X10804498Y18660258D01*
X10852130Y18545263D01*
X10853535Y18541873D01*
X10890716Y18486228D01*
X10922710Y18438344D01*
X10924724Y18435331D01*
X11015331Y18344724D01*
X11121873Y18273535D01*
X11240256Y18224499D01*
X11240258Y18224499D01*
X11240260Y18224498D01*
X11282903Y18216016D01*
X11365931Y18199500D01*
X11365933Y18199500D01*
X11494067Y18199500D01*
X11494069Y18199500D01*
X11619744Y18224499D01*
X11676210Y18247888D01*
X14694503Y18247888D01*
X14714348Y18122587D01*
X14714348Y18122586D01*
X14714349Y18122584D01*
X14771945Y18009546D01*
X14861653Y17919838D01*
X14974691Y17862242D01*
X15099995Y17842396D01*
X15225299Y17862242D01*
X15338337Y17919838D01*
X15428045Y18009546D01*
X15485641Y18122584D01*
X15505487Y18247888D01*
X15485641Y18373192D01*
X15428045Y18486230D01*
X15406889Y18507386D01*
X15385215Y18559712D01*
X15401902Y18600000D01*
X45244508Y18600000D01*
X45264353Y18474699D01*
X45264353Y18474698D01*
X45264354Y18474696D01*
X45321950Y18361658D01*
X45411658Y18271950D01*
X45524696Y18214354D01*
X45650000Y18194508D01*
X45775304Y18214354D01*
X45888342Y18271950D01*
X45978050Y18361658D01*
X46035646Y18474696D01*
X46055492Y18600000D01*
X46035646Y18725304D01*
X45978050Y18838342D01*
X45888342Y18928050D01*
X45775304Y18985646D01*
X45775302Y18985647D01*
X45775301Y18985647D01*
X45650000Y19005492D01*
X45524698Y18985647D01*
X45411656Y18928049D01*
X45321951Y18838344D01*
X45264353Y18725302D01*
X45244508Y18600000D01*
X15401902Y18600000D01*
X15406888Y18612037D01*
X15429399Y18634547D01*
X15486995Y18747585D01*
X15506841Y18872889D01*
X15486995Y18998193D01*
X15429399Y19111231D01*
X15339691Y19200939D01*
X15226653Y19258535D01*
X15226651Y19258536D01*
X15226650Y19258536D01*
X15101349Y19278381D01*
X14976047Y19258536D01*
X14863005Y19200938D01*
X14773300Y19111233D01*
X14715702Y18998191D01*
X14695857Y18872889D01*
X14715702Y18747588D01*
X14715702Y18747587D01*
X14715703Y18747585D01*
X14773299Y18634547D01*
X14773300Y18634546D01*
X14794454Y18613392D01*
X14816128Y18561066D01*
X14794456Y18508742D01*
X14771945Y18486230D01*
X14771943Y18486228D01*
X14714349Y18373193D01*
X14714348Y18373193D01*
X14694503Y18247888D01*
X11676210Y18247888D01*
X11738127Y18273535D01*
X11844669Y18344724D01*
X11935276Y18435331D01*
X12006465Y18541873D01*
X12055501Y18660256D01*
X12080500Y18785931D01*
X12080500Y18914069D01*
X12058374Y19025303D01*
X12055502Y19039740D01*
X12055501Y19039743D01*
X12013391Y19141405D01*
X12006465Y19158127D01*
X11935276Y19264669D01*
X11844669Y19355276D01*
X11738127Y19426465D01*
X11738124Y19426467D01*
X11738123Y19426467D01*
X11619742Y19475502D01*
X11619739Y19475503D01*
X11529696Y19493414D01*
X11494069Y19500500D01*
X11365931Y19500500D01*
X11334726Y19494293D01*
X11240260Y19475503D01*
X11240257Y19475502D01*
X11121876Y19426467D01*
X11015331Y19355277D01*
X11015330Y19355275D01*
X10924725Y19264670D01*
X10924723Y19264669D01*
X10853533Y19158124D01*
X10804498Y19039743D01*
X10804497Y19039740D01*
X10783043Y18931883D01*
X10779500Y18914069D01*
X4920500Y18914069D01*
X4898374Y19025303D01*
X4895502Y19039740D01*
X4895501Y19039743D01*
X4853391Y19141405D01*
X4846465Y19158127D01*
X4775276Y19264669D01*
X4684669Y19355276D01*
X4578127Y19426465D01*
X4578124Y19426467D01*
X4578123Y19426467D01*
X4459742Y19475502D01*
X4459739Y19475503D01*
X4369696Y19493414D01*
X4334069Y19500500D01*
X4205931Y19500500D01*
X4174726Y19494293D01*
X4080260Y19475503D01*
X4080257Y19475502D01*
X3961876Y19426467D01*
X3855331Y19355277D01*
X3855330Y19355275D01*
X3764725Y19264670D01*
X3764723Y19264669D01*
X3693533Y19158124D01*
X3644498Y19039743D01*
X3644497Y19039740D01*
X3623043Y18931883D01*
X3619500Y18914069D01*
X559486Y18914069D01*
X560720Y20958501D01*
X3771278Y20958501D01*
X3771279Y20958500D01*
X4111918Y20958500D01*
X4100001Y20929730D01*
X4100001Y20830270D01*
X4111918Y20801500D01*
X3771278Y20801500D01*
X3808161Y20663852D01*
X3808163Y20663847D01*
X3881886Y20536156D01*
X3986155Y20431887D01*
X4113846Y20358164D01*
X4113851Y20358162D01*
X4256272Y20320001D01*
X4256273Y20320000D01*
X4721500Y20320000D01*
X4721500Y20629988D01*
X4878500Y20629988D01*
X4878500Y20320000D01*
X5343727Y20320000D01*
X5343727Y20320001D01*
X5486148Y20358162D01*
X5486153Y20358164D01*
X5604388Y20426427D01*
X5660540Y20433820D01*
X5705474Y20399341D01*
X5712271Y20380147D01*
X5712553Y20380238D01*
X5714352Y20374702D01*
X5714353Y20374700D01*
X5714354Y20374696D01*
X5771950Y20261658D01*
X5861658Y20171950D01*
X5974696Y20114354D01*
X6100000Y20094508D01*
X6225304Y20114354D01*
X6245872Y20124834D01*
X15242091Y20124834D01*
X15261936Y19999533D01*
X15261936Y19999532D01*
X15261937Y19999530D01*
X15319533Y19886492D01*
X15409241Y19796784D01*
X15522279Y19739188D01*
X15647583Y19719342D01*
X15655826Y19720648D01*
X15710899Y19707430D01*
X15740494Y19659140D01*
X15740495Y19635986D01*
X15739189Y19627739D01*
X15739189Y19627737D01*
X15759034Y19502435D01*
X15759034Y19502434D01*
X15759035Y19502432D01*
X15816631Y19389394D01*
X15906339Y19299686D01*
X16019377Y19242090D01*
X16144681Y19222244D01*
X16269985Y19242090D01*
X16383023Y19299686D01*
X16472731Y19389394D01*
X16503611Y19450000D01*
X51294508Y19450000D01*
X51314353Y19324699D01*
X51314353Y19324698D01*
X51314354Y19324696D01*
X51348065Y19258535D01*
X51373511Y19208595D01*
X51377954Y19152133D01*
X51373511Y19141405D01*
X51314353Y19025302D01*
X51294508Y18900000D01*
X51314353Y18774699D01*
X51314353Y18774698D01*
X51314354Y18774696D01*
X51328168Y18747585D01*
X51373511Y18658595D01*
X51377954Y18602133D01*
X51373511Y18591405D01*
X51371950Y18588343D01*
X51371950Y18588342D01*
X51358052Y18561066D01*
X51314353Y18475302D01*
X51294508Y18350000D01*
X51314353Y18224699D01*
X51314353Y18224698D01*
X51314354Y18224696D01*
X51366383Y18122584D01*
X51373511Y18108595D01*
X51377954Y18052133D01*
X51373511Y18041405D01*
X51371950Y18038343D01*
X51371950Y18038342D01*
X51357278Y18009546D01*
X51314353Y17925302D01*
X51294508Y17800000D01*
X51314353Y17674699D01*
X51314353Y17674698D01*
X51314354Y17674696D01*
X51371950Y17561658D01*
X51461658Y17471950D01*
X51574696Y17414354D01*
X51700000Y17394508D01*
X51825304Y17414354D01*
X51938342Y17471950D01*
X51997674Y17531282D01*
X52050000Y17552956D01*
X52102326Y17531282D01*
X52161658Y17471950D01*
X52274696Y17414354D01*
X52400000Y17394508D01*
X52525304Y17414354D01*
X52638342Y17471950D01*
X52728050Y17561658D01*
X52785646Y17674696D01*
X52805492Y17800000D01*
X52785646Y17925304D01*
X52728050Y18038342D01*
X52728048Y18038344D01*
X52726489Y18041404D01*
X52722045Y18097867D01*
X52726489Y18108596D01*
X52728048Y18111657D01*
X52728050Y18111658D01*
X52785646Y18224696D01*
X52805492Y18350000D01*
X52785646Y18475304D01*
X52728050Y18588342D01*
X52728048Y18588344D01*
X52726489Y18591404D01*
X52722045Y18647867D01*
X52726489Y18658596D01*
X52728048Y18661657D01*
X52728050Y18661658D01*
X52785646Y18774696D01*
X52805492Y18900000D01*
X52785646Y19025304D01*
X52728050Y19138342D01*
X52728048Y19138344D01*
X52726489Y19141404D01*
X52722045Y19197867D01*
X52726489Y19208596D01*
X52728048Y19211657D01*
X52728050Y19211658D01*
X52785646Y19324696D01*
X52805492Y19450000D01*
X52785646Y19575304D01*
X52728050Y19688342D01*
X52638342Y19778050D01*
X52525304Y19835646D01*
X52525302Y19835647D01*
X52525301Y19835647D01*
X52400000Y19855492D01*
X52274698Y19835647D01*
X52161656Y19778049D01*
X52102326Y19718718D01*
X52050000Y19697044D01*
X51997674Y19718718D01*
X51938343Y19778049D01*
X51938342Y19778050D01*
X51825304Y19835646D01*
X51825302Y19835647D01*
X51825301Y19835647D01*
X51700000Y19855492D01*
X51574698Y19835647D01*
X51461656Y19778049D01*
X51371951Y19688344D01*
X51314353Y19575302D01*
X51294508Y19450000D01*
X16503611Y19450000D01*
X16530327Y19502432D01*
X16550173Y19627736D01*
X16530327Y19753040D01*
X16472731Y19866078D01*
X16383023Y19955786D01*
X16269985Y20013382D01*
X16269983Y20013383D01*
X16269982Y20013383D01*
X16144681Y20033228D01*
X16144678Y20033228D01*
X16136431Y20031922D01*
X16081359Y20045145D01*
X16051768Y20093437D01*
X16051769Y20116591D01*
X16052619Y20121952D01*
X16053075Y20124834D01*
X16033229Y20250138D01*
X15975633Y20363176D01*
X15885925Y20452884D01*
X15772887Y20510480D01*
X15772885Y20510481D01*
X15772884Y20510481D01*
X15647583Y20530326D01*
X15522281Y20510481D01*
X15409239Y20452883D01*
X15319534Y20363178D01*
X15261936Y20250136D01*
X15242091Y20124834D01*
X6245872Y20124834D01*
X6338342Y20171950D01*
X6428050Y20261658D01*
X6485646Y20374696D01*
X6505492Y20500000D01*
X6485646Y20625304D01*
X6428050Y20738342D01*
X6338342Y20828050D01*
X6225304Y20885646D01*
X6225302Y20885647D01*
X6225301Y20885647D01*
X6100000Y20905492D01*
X5974696Y20885647D01*
X5934607Y20865220D01*
X5878145Y20860777D01*
X5877765Y20861101D01*
X5865784Y20832174D01*
X5865770Y20832163D01*
X5856782Y20823174D01*
X5804456Y20801500D01*
X5488082Y20801500D01*
X5499999Y20830270D01*
X5499999Y20929730D01*
X5488082Y20958500D01*
X5813458Y20958500D01*
X5830627Y20951389D01*
X5828721Y20958501D01*
X9871278Y20958501D01*
X9871279Y20958500D01*
X10211918Y20958500D01*
X10200001Y20929730D01*
X10200001Y20830270D01*
X10211918Y20801500D01*
X9871278Y20801500D01*
X9908161Y20663852D01*
X9908163Y20663847D01*
X9981886Y20536156D01*
X10086155Y20431887D01*
X10213846Y20358164D01*
X10213851Y20358162D01*
X10356272Y20320001D01*
X10356273Y20320000D01*
X10821500Y20320000D01*
X10821500Y20629988D01*
X10978500Y20629988D01*
X10978500Y20320000D01*
X11443727Y20320000D01*
X11443727Y20320001D01*
X11586148Y20358162D01*
X11586153Y20358164D01*
X11713844Y20431887D01*
X11818113Y20536156D01*
X11891836Y20663847D01*
X11891838Y20663852D01*
X11928721Y20801500D01*
X11588082Y20801500D01*
X11599999Y20830270D01*
X11599999Y20929730D01*
X11588082Y20958500D01*
X11928721Y20958500D01*
X11928721Y20958501D01*
X11891838Y21096149D01*
X11891836Y21096154D01*
X11818113Y21223845D01*
X11713844Y21328114D01*
X11586153Y21401837D01*
X11586148Y21401839D01*
X11443727Y21440000D01*
X10978500Y21440000D01*
X10978500Y21130012D01*
X10821500Y21130012D01*
X10821500Y21440000D01*
X10356273Y21440000D01*
X10213851Y21401839D01*
X10213846Y21401837D01*
X10086155Y21328114D01*
X9981886Y21223845D01*
X9908163Y21096154D01*
X9908161Y21096149D01*
X9871278Y20958501D01*
X5828721Y20958501D01*
X5791838Y21096149D01*
X5791836Y21096154D01*
X5718113Y21223845D01*
X5613844Y21328114D01*
X5486153Y21401837D01*
X5486148Y21401839D01*
X5343727Y21440000D01*
X4878500Y21440000D01*
X4878500Y21130012D01*
X4721500Y21130012D01*
X4721500Y21440000D01*
X4256273Y21440000D01*
X4113851Y21401839D01*
X4113846Y21401837D01*
X3986155Y21328114D01*
X3881886Y21223845D01*
X3808163Y21096154D01*
X3808161Y21096149D01*
X3771278Y20958501D01*
X560720Y20958501D01*
X561017Y21450000D01*
X7094508Y21450000D01*
X7114353Y21324699D01*
X7114353Y21324698D01*
X7114354Y21324696D01*
X7171950Y21211658D01*
X7261658Y21121950D01*
X7374696Y21064354D01*
X7500000Y21044508D01*
X7625304Y21064354D01*
X7738342Y21121950D01*
X7797674Y21181282D01*
X7850000Y21202956D01*
X7902326Y21181282D01*
X7961658Y21121950D01*
X8074696Y21064354D01*
X8200000Y21044508D01*
X8325304Y21064354D01*
X8438342Y21121950D01*
X8528050Y21211658D01*
X8585646Y21324696D01*
X8605492Y21450000D01*
X8585646Y21575304D01*
X8551947Y21641442D01*
X14576149Y21641442D01*
X14595994Y21516141D01*
X14595994Y21516140D01*
X14595995Y21516138D01*
X14653591Y21403100D01*
X14743299Y21313392D01*
X14856337Y21255796D01*
X14981641Y21235950D01*
X14989884Y21237256D01*
X15044957Y21224038D01*
X15074552Y21175748D01*
X15074553Y21152594D01*
X15073247Y21144347D01*
X15073247Y21144344D01*
X15074625Y21135646D01*
X15093092Y21019043D01*
X15093092Y21019042D01*
X15093093Y21019040D01*
X15150689Y20906002D01*
X15240397Y20816294D01*
X15353435Y20758698D01*
X15478739Y20738852D01*
X15604043Y20758698D01*
X15717081Y20816294D01*
X15806789Y20906002D01*
X15849588Y20990000D01*
X25264508Y20990000D01*
X25284353Y20864699D01*
X25284353Y20864698D01*
X25284354Y20864696D01*
X25341950Y20751658D01*
X25431658Y20661950D01*
X25544696Y20604354D01*
X25670000Y20584508D01*
X25795304Y20604354D01*
X25908342Y20661950D01*
X25996392Y20750000D01*
X43044508Y20750000D01*
X43064353Y20624699D01*
X43064353Y20624698D01*
X43064354Y20624696D01*
X43121950Y20511658D01*
X43211658Y20421950D01*
X43324696Y20364354D01*
X43371526Y20356937D01*
X43418885Y20349436D01*
X43467176Y20319843D01*
X43480398Y20264771D01*
X43473245Y20242754D01*
X43464353Y20225303D01*
X43444508Y20100000D01*
X43464353Y19974699D01*
X43464353Y19974698D01*
X43464354Y19974696D01*
X43521950Y19861658D01*
X43611658Y19771950D01*
X43724696Y19714354D01*
X43850000Y19694508D01*
X43975304Y19714354D01*
X44088342Y19771950D01*
X44147674Y19831282D01*
X44200000Y19852956D01*
X44252326Y19831282D01*
X44311658Y19771950D01*
X44424696Y19714354D01*
X44550000Y19694508D01*
X44675304Y19714354D01*
X44788342Y19771950D01*
X44847674Y19831282D01*
X44900000Y19852956D01*
X44952326Y19831282D01*
X45011658Y19771950D01*
X45124696Y19714354D01*
X45250000Y19694508D01*
X45375304Y19714354D01*
X45488342Y19771950D01*
X45578050Y19861658D01*
X45635646Y19974696D01*
X45655492Y20100000D01*
X45635646Y20225304D01*
X45619287Y20257409D01*
X45614844Y20313870D01*
X45651626Y20356937D01*
X45673648Y20364092D01*
X45675304Y20364354D01*
X45788342Y20421950D01*
X45816392Y20450000D01*
X52444508Y20450000D01*
X52464353Y20324699D01*
X52464353Y20324698D01*
X52464354Y20324696D01*
X52521950Y20211658D01*
X52611658Y20121950D01*
X52724696Y20064354D01*
X52850000Y20044508D01*
X52975304Y20064354D01*
X53088342Y20121950D01*
X53178050Y20211658D01*
X53235646Y20324696D01*
X53255492Y20450000D01*
X53235646Y20575304D01*
X53178050Y20688342D01*
X53088342Y20778050D01*
X52975304Y20835646D01*
X52975302Y20835647D01*
X52975301Y20835647D01*
X52850000Y20855492D01*
X52724698Y20835647D01*
X52611656Y20778049D01*
X52521951Y20688344D01*
X52464353Y20575302D01*
X52444508Y20450000D01*
X45816392Y20450000D01*
X45878050Y20511658D01*
X45935646Y20624696D01*
X45955492Y20750000D01*
X45935646Y20875304D01*
X45878050Y20988342D01*
X45788342Y21078050D01*
X45752811Y21096154D01*
X45672767Y21136939D01*
X45635985Y21180006D01*
X45635986Y21218746D01*
X45634735Y21218944D01*
X45640404Y21254738D01*
X45655492Y21350000D01*
X45635646Y21475304D01*
X45578050Y21588342D01*
X45488342Y21678050D01*
X45375304Y21735646D01*
X45375302Y21735647D01*
X45375301Y21735647D01*
X45250000Y21755492D01*
X45124698Y21735647D01*
X45011656Y21678049D01*
X44952326Y21618718D01*
X44900000Y21597044D01*
X44847674Y21618718D01*
X44788343Y21678049D01*
X44788342Y21678050D01*
X44675304Y21735646D01*
X44675302Y21735647D01*
X44675301Y21735647D01*
X44550000Y21755492D01*
X44424698Y21735647D01*
X44311656Y21678049D01*
X44252326Y21618718D01*
X44200000Y21597044D01*
X44147674Y21618718D01*
X44088343Y21678049D01*
X44088342Y21678050D01*
X43975304Y21735646D01*
X43975302Y21735647D01*
X43975301Y21735647D01*
X43850000Y21755492D01*
X43724698Y21735647D01*
X43611656Y21678049D01*
X43521951Y21588344D01*
X43464353Y21475302D01*
X43444508Y21350000D01*
X43463119Y21232493D01*
X43449897Y21177421D01*
X43401607Y21147828D01*
X43324698Y21135647D01*
X43211656Y21078049D01*
X43121951Y20988344D01*
X43064353Y20875302D01*
X43044508Y20750000D01*
X25996392Y20750000D01*
X25998050Y20751658D01*
X26055646Y20864696D01*
X26075492Y20990000D01*
X26055646Y21115304D01*
X25998050Y21228342D01*
X25908342Y21318050D01*
X25795304Y21375646D01*
X25795302Y21375647D01*
X25795301Y21375647D01*
X25670000Y21395492D01*
X25544698Y21375647D01*
X25431656Y21318049D01*
X25341951Y21228344D01*
X25284353Y21115302D01*
X25264508Y20990000D01*
X15849588Y20990000D01*
X15864385Y21019040D01*
X15884231Y21144344D01*
X15864385Y21269648D01*
X15806789Y21382686D01*
X15717081Y21472394D01*
X15604043Y21529990D01*
X15604041Y21529991D01*
X15604040Y21529991D01*
X15478739Y21549836D01*
X15478736Y21549836D01*
X15470489Y21548530D01*
X15415417Y21561753D01*
X15385826Y21610045D01*
X15385827Y21633199D01*
X15387133Y21641442D01*
X15379705Y21688342D01*
X15367287Y21766746D01*
X15309691Y21879784D01*
X15219983Y21969492D01*
X15106945Y22027088D01*
X15106943Y22027089D01*
X15106942Y22027089D01*
X14981641Y22046934D01*
X14856339Y22027089D01*
X14743297Y21969491D01*
X14653592Y21879786D01*
X14595994Y21766744D01*
X14576149Y21641442D01*
X8551947Y21641442D01*
X8528050Y21688342D01*
X8438342Y21778050D01*
X8325304Y21835646D01*
X8325302Y21835647D01*
X8325301Y21835647D01*
X8200000Y21855492D01*
X8074698Y21835647D01*
X7961656Y21778049D01*
X7902326Y21718718D01*
X7850000Y21697044D01*
X7797674Y21718718D01*
X7738343Y21778049D01*
X7738342Y21778050D01*
X7625304Y21835646D01*
X7625302Y21835647D01*
X7625301Y21835647D01*
X7500000Y21855492D01*
X7374698Y21835647D01*
X7261656Y21778049D01*
X7171951Y21688344D01*
X7114353Y21575302D01*
X7094508Y21450000D01*
X561017Y21450000D01*
X562617Y24100004D01*
X1015099Y24100004D01*
X1015099Y24099997D01*
X1034667Y23863830D01*
X1092848Y23634082D01*
X1188042Y23417063D01*
X1317662Y23218664D01*
X1317665Y23218661D01*
X1384759Y23145778D01*
X1616673Y23377692D01*
X1727689Y23266676D01*
X1493438Y23032424D01*
X1665181Y22898751D01*
X1873607Y22785956D01*
X2097754Y22709007D01*
X2331510Y22670001D01*
X2331513Y22670000D01*
X2568487Y22670000D01*
X2568489Y22670001D01*
X2802245Y22709007D01*
X3026392Y22785956D01*
X3234817Y22898751D01*
X3406559Y23032425D01*
X3172309Y23266675D01*
X3283325Y23377691D01*
X3515239Y23145777D01*
X3515239Y23145778D01*
X3582333Y23218661D01*
X3582346Y23218678D01*
X3711957Y23417063D01*
X3748337Y23500000D01*
X20544508Y23500000D01*
X20564353Y23374699D01*
X20564353Y23374698D01*
X20564354Y23374696D01*
X20621950Y23261658D01*
X20711658Y23171950D01*
X20824696Y23114354D01*
X20950000Y23094508D01*
X21075304Y23114354D01*
X21188342Y23171950D01*
X21278050Y23261658D01*
X21335646Y23374696D01*
X21355492Y23500000D01*
X21335646Y23625304D01*
X21278050Y23738342D01*
X21188342Y23828050D01*
X21075304Y23885646D01*
X21075302Y23885647D01*
X21075301Y23885647D01*
X20950000Y23905492D01*
X20824698Y23885647D01*
X20711656Y23828049D01*
X20621951Y23738344D01*
X20564353Y23625302D01*
X20544508Y23500000D01*
X3748337Y23500000D01*
X3807151Y23634082D01*
X3865332Y23863830D01*
X3884901Y24099997D01*
X3884901Y24100004D01*
X3865332Y24336171D01*
X3807151Y24565919D01*
X3748337Y24700000D01*
X20994508Y24700000D01*
X21014353Y24574699D01*
X21014353Y24574698D01*
X21014354Y24574696D01*
X21071950Y24461658D01*
X21161658Y24371950D01*
X21274696Y24314354D01*
X21400000Y24294508D01*
X21525304Y24314354D01*
X21638342Y24371950D01*
X21666396Y24400004D01*
X41315373Y24400004D01*
X41315373Y24399997D01*
X41333812Y24248129D01*
X41333814Y24248125D01*
X41388065Y24105075D01*
X41451768Y24012786D01*
X41726141Y24287160D01*
X41738060Y24258386D01*
X41808386Y24188060D01*
X41837158Y24176143D01*
X41562574Y23901559D01*
X41589486Y23877716D01*
X41589489Y23877714D01*
X41724956Y23806615D01*
X41873502Y23770001D01*
X41873508Y23770000D01*
X42026492Y23770000D01*
X42026497Y23770001D01*
X42175043Y23806615D01*
X42310510Y23877714D01*
X42337424Y23901559D01*
X42238983Y24000000D01*
X51594508Y24000000D01*
X51614353Y23874699D01*
X51614353Y23874698D01*
X51614354Y23874696D01*
X51671950Y23761658D01*
X51761658Y23671950D01*
X51874696Y23614354D01*
X52000000Y23594508D01*
X52125304Y23614354D01*
X52238342Y23671950D01*
X52328050Y23761658D01*
X52385646Y23874696D01*
X52405492Y24000000D01*
X52385646Y24125304D01*
X52328050Y24238342D01*
X52238342Y24328050D01*
X52125304Y24385646D01*
X52125302Y24385647D01*
X52125301Y24385647D01*
X52000000Y24405492D01*
X51874698Y24385647D01*
X51761656Y24328049D01*
X51671951Y24238344D01*
X51614353Y24125302D01*
X51594508Y24000000D01*
X42238983Y24000000D01*
X42062841Y24176143D01*
X42091614Y24188060D01*
X42161940Y24258386D01*
X42173857Y24287159D01*
X42448230Y24012786D01*
X42511935Y24105078D01*
X42566185Y24248125D01*
X42566187Y24248129D01*
X42584627Y24399997D01*
X42584627Y24400004D01*
X42566187Y24551872D01*
X42566185Y24551876D01*
X42511934Y24694926D01*
X42448231Y24787216D01*
X42173857Y24512843D01*
X42161940Y24541614D01*
X42091614Y24611940D01*
X42062840Y24623859D01*
X42337424Y24898442D01*
X42310513Y24922285D01*
X42310510Y24922287D01*
X42175043Y24993386D01*
X42026497Y25030000D01*
X41873502Y25030000D01*
X41724956Y24993386D01*
X41589490Y24922288D01*
X41562573Y24898443D01*
X41837158Y24623858D01*
X41808386Y24611940D01*
X41738060Y24541614D01*
X41726142Y24512842D01*
X41451767Y24787217D01*
X41388067Y24694930D01*
X41388066Y24694928D01*
X41333814Y24551876D01*
X41333812Y24551872D01*
X41315373Y24400004D01*
X21666396Y24400004D01*
X21728050Y24461658D01*
X21785646Y24574696D01*
X21805492Y24700000D01*
X21785646Y24825304D01*
X21728050Y24938342D01*
X21638342Y25028050D01*
X21525304Y25085646D01*
X21525302Y25085647D01*
X21525301Y25085647D01*
X21400000Y25105492D01*
X21274698Y25085647D01*
X21161656Y25028049D01*
X21071951Y24938344D01*
X21014353Y24825302D01*
X20994508Y24700000D01*
X3748337Y24700000D01*
X3711957Y24782938D01*
X3582337Y24981337D01*
X3582334Y24981340D01*
X3515239Y25054224D01*
X3283325Y24822310D01*
X3172308Y24933327D01*
X3406560Y25167578D01*
X3234818Y25301250D01*
X3026392Y25414045D01*
X2802245Y25490994D01*
X2568489Y25530000D01*
X2331510Y25530000D01*
X2097754Y25490994D01*
X1873607Y25414045D01*
X1665191Y25301255D01*
X1665181Y25301249D01*
X1493438Y25167578D01*
X1727690Y24933326D01*
X1616674Y24822310D01*
X1384759Y25054224D01*
X1317664Y24981340D01*
X1317662Y24981337D01*
X1188042Y24782938D01*
X1092848Y24565919D01*
X1034667Y24336171D01*
X1015099Y24100004D01*
X562617Y24100004D01*
X563885Y26200000D01*
X4944508Y26200000D01*
X4964353Y26074699D01*
X4964353Y26074698D01*
X4964354Y26074696D01*
X5021950Y25961658D01*
X5111658Y25871950D01*
X5224696Y25814354D01*
X5350000Y25794508D01*
X5475304Y25814354D01*
X5588342Y25871950D01*
X5678050Y25961658D01*
X5735646Y26074696D01*
X5755492Y26200000D01*
X5735646Y26325304D01*
X5678050Y26438342D01*
X5588342Y26528050D01*
X5475304Y26585646D01*
X5475302Y26585647D01*
X5475301Y26585647D01*
X5350000Y26605492D01*
X5224698Y26585647D01*
X5111656Y26528049D01*
X5021951Y26438344D01*
X4964353Y26325302D01*
X4944508Y26200000D01*
X563885Y26200000D01*
X564429Y27100000D01*
X10244508Y27100000D01*
X10264353Y26974699D01*
X10264353Y26974698D01*
X10264354Y26974696D01*
X10321950Y26861658D01*
X10411658Y26771950D01*
X10524696Y26714354D01*
X10650000Y26694508D01*
X10775304Y26714354D01*
X10888342Y26771950D01*
X10978050Y26861658D01*
X11035646Y26974696D01*
X11055492Y27100000D01*
X11035646Y27225304D01*
X10978050Y27338342D01*
X10888342Y27428050D01*
X10775304Y27485646D01*
X10775302Y27485647D01*
X10775301Y27485647D01*
X10650000Y27505492D01*
X10524698Y27485647D01*
X10411656Y27428049D01*
X10321951Y27338344D01*
X10264353Y27225302D01*
X10244508Y27100000D01*
X564429Y27100000D01*
X565243Y28448501D01*
X3771278Y28448501D01*
X3771279Y28448500D01*
X4111918Y28448500D01*
X4100001Y28419730D01*
X4100001Y28320270D01*
X4111918Y28291500D01*
X3771278Y28291500D01*
X3808161Y28153852D01*
X3808163Y28153847D01*
X3881886Y28026156D01*
X3986155Y27921887D01*
X4113846Y27848164D01*
X4113851Y27848162D01*
X4256272Y27810001D01*
X4256273Y27810000D01*
X4721500Y27810000D01*
X4721500Y28119988D01*
X4878500Y28119988D01*
X4878500Y27810000D01*
X5343727Y27810000D01*
X5343727Y27810001D01*
X5486148Y27848162D01*
X5486153Y27848164D01*
X5613844Y27921887D01*
X5718113Y28026156D01*
X5791836Y28153847D01*
X5791838Y28153852D01*
X5828721Y28291500D01*
X5488082Y28291500D01*
X5499999Y28320270D01*
X5499999Y28419730D01*
X5488082Y28448500D01*
X5828721Y28448500D01*
X5828721Y28448501D01*
X5791838Y28586149D01*
X5791836Y28586154D01*
X5726106Y28700000D01*
X7094508Y28700000D01*
X7114353Y28574699D01*
X7114353Y28574698D01*
X7114354Y28574696D01*
X7171950Y28461658D01*
X7261658Y28371950D01*
X7374696Y28314354D01*
X7500000Y28294508D01*
X7625304Y28314354D01*
X7738342Y28371950D01*
X7828050Y28461658D01*
X7885646Y28574696D01*
X7905492Y28700000D01*
X7897573Y28750000D01*
X8494508Y28750000D01*
X8514353Y28624699D01*
X8514353Y28624698D01*
X8514354Y28624696D01*
X8571950Y28511658D01*
X8661658Y28421950D01*
X8774696Y28364354D01*
X8900000Y28344508D01*
X9025304Y28364354D01*
X9138342Y28421950D01*
X9164893Y28448501D01*
X9871278Y28448501D01*
X9871279Y28448500D01*
X10211918Y28448500D01*
X10200001Y28419730D01*
X10200001Y28320270D01*
X10211918Y28291500D01*
X9871278Y28291500D01*
X9908161Y28153852D01*
X9908163Y28153847D01*
X9981886Y28026156D01*
X10086155Y27921887D01*
X10213846Y27848164D01*
X10213851Y27848162D01*
X10356272Y27810001D01*
X10356273Y27810000D01*
X10821500Y27810000D01*
X10821500Y28119988D01*
X10978500Y28119988D01*
X10978500Y27810000D01*
X11443727Y27810000D01*
X11443727Y27810001D01*
X11586148Y27848162D01*
X11586153Y27848164D01*
X11713844Y27921887D01*
X11818113Y28026156D01*
X11891836Y28153847D01*
X11891838Y28153852D01*
X11928721Y28291500D01*
X11588082Y28291500D01*
X11599999Y28320270D01*
X11599999Y28350000D01*
X48844508Y28350000D01*
X48864353Y28224699D01*
X48864353Y28224698D01*
X48864354Y28224696D01*
X48921950Y28111658D01*
X49011658Y28021950D01*
X49124696Y27964354D01*
X49250000Y27944508D01*
X49375304Y27964354D01*
X49488342Y28021950D01*
X49516392Y28050000D01*
X51544508Y28050000D01*
X51564353Y27924699D01*
X51564353Y27924698D01*
X51564354Y27924696D01*
X51621950Y27811658D01*
X51711658Y27721950D01*
X51824696Y27664354D01*
X51950000Y27644508D01*
X52075304Y27664354D01*
X52188342Y27721950D01*
X52278050Y27811658D01*
X52335646Y27924696D01*
X52355492Y28050000D01*
X52335646Y28175304D01*
X52278050Y28288342D01*
X52188342Y28378050D01*
X52075304Y28435646D01*
X52075302Y28435647D01*
X52075301Y28435647D01*
X51950000Y28455492D01*
X51824698Y28435647D01*
X51711656Y28378049D01*
X51621951Y28288344D01*
X51564353Y28175302D01*
X51544508Y28050000D01*
X49516392Y28050000D01*
X49578050Y28111658D01*
X49635646Y28224696D01*
X49655492Y28350000D01*
X49635646Y28475304D01*
X49578050Y28588342D01*
X49488342Y28678050D01*
X49375304Y28735646D01*
X49375302Y28735647D01*
X49375301Y28735647D01*
X49250000Y28755492D01*
X49124698Y28735647D01*
X49011656Y28678049D01*
X48921951Y28588344D01*
X48864353Y28475302D01*
X48844508Y28350000D01*
X11599999Y28350000D01*
X11599999Y28419730D01*
X11588082Y28448500D01*
X11928721Y28448500D01*
X11928721Y28448501D01*
X11891838Y28586149D01*
X11891836Y28586154D01*
X11818113Y28713845D01*
X11713844Y28818114D01*
X11586153Y28891837D01*
X11586148Y28891839D01*
X11443727Y28930000D01*
X10978500Y28930000D01*
X10978500Y28620012D01*
X10821500Y28620012D01*
X10821500Y28930000D01*
X10356273Y28930000D01*
X10213851Y28891839D01*
X10213846Y28891837D01*
X10086155Y28818114D01*
X9981886Y28713845D01*
X9908163Y28586154D01*
X9908161Y28586149D01*
X9871278Y28448501D01*
X9164893Y28448501D01*
X9228050Y28511658D01*
X9285646Y28624696D01*
X9305492Y28750000D01*
X9285646Y28875304D01*
X9228050Y28988342D01*
X9138342Y29078050D01*
X9025304Y29135646D01*
X9025302Y29135647D01*
X9025301Y29135647D01*
X8900000Y29155492D01*
X8774698Y29135647D01*
X8661656Y29078049D01*
X8571951Y28988344D01*
X8514353Y28875302D01*
X8494508Y28750000D01*
X7897573Y28750000D01*
X7885646Y28825304D01*
X7828050Y28938342D01*
X7738342Y29028050D01*
X7625304Y29085646D01*
X7625302Y29085647D01*
X7625301Y29085647D01*
X7500000Y29105492D01*
X7374698Y29085647D01*
X7261656Y29028049D01*
X7171951Y28938344D01*
X7114353Y28825302D01*
X7094508Y28700000D01*
X5726106Y28700000D01*
X5718113Y28713845D01*
X5613844Y28818114D01*
X5486153Y28891837D01*
X5486148Y28891839D01*
X5343727Y28930000D01*
X4878500Y28930000D01*
X4878500Y28620012D01*
X4721500Y28620012D01*
X4721500Y28930000D01*
X4256273Y28930000D01*
X4113851Y28891839D01*
X4113846Y28891837D01*
X3986155Y28818114D01*
X3881886Y28713845D01*
X3808163Y28586154D01*
X3808161Y28586149D01*
X3771278Y28448501D01*
X565243Y28448501D01*
X565757Y29300000D01*
X12044508Y29300000D01*
X12064353Y29174699D01*
X12064353Y29174698D01*
X12064354Y29174696D01*
X12121950Y29061658D01*
X12211658Y28971950D01*
X12324696Y28914354D01*
X12450000Y28894508D01*
X12575304Y28914354D01*
X12688342Y28971950D01*
X12778050Y29061658D01*
X12835646Y29174696D01*
X12855492Y29300000D01*
X12835646Y29425304D01*
X12778050Y29538342D01*
X12688342Y29628050D01*
X12575304Y29685646D01*
X12575302Y29685647D01*
X12575301Y29685647D01*
X12450000Y29705492D01*
X12324698Y29685647D01*
X12211656Y29628049D01*
X12121951Y29538344D01*
X12064353Y29425302D01*
X12044508Y29300000D01*
X565757Y29300000D01*
X566460Y30464068D01*
X3619500Y30464068D01*
X3619500Y30335933D01*
X3644497Y30210261D01*
X3644498Y30210258D01*
X3666700Y30156657D01*
X3693535Y30091873D01*
X3764724Y29985331D01*
X3855331Y29894724D01*
X3961873Y29823535D01*
X4080256Y29774499D01*
X4080258Y29774499D01*
X4080260Y29774498D01*
X4122903Y29766016D01*
X4205931Y29749500D01*
X4205933Y29749500D01*
X4334067Y29749500D01*
X4334069Y29749500D01*
X4459744Y29774499D01*
X4578127Y29823535D01*
X4684669Y29894724D01*
X4775276Y29985331D01*
X4846465Y30091873D01*
X4895501Y30210256D01*
X4920500Y30335931D01*
X4920500Y30464068D01*
X10779500Y30464068D01*
X10779500Y30335933D01*
X10804497Y30210261D01*
X10804498Y30210258D01*
X10826700Y30156657D01*
X10853535Y30091873D01*
X10924724Y29985331D01*
X11015331Y29894724D01*
X11121873Y29823535D01*
X11240256Y29774499D01*
X11240258Y29774499D01*
X11240260Y29774498D01*
X11282903Y29766016D01*
X11365931Y29749500D01*
X11365933Y29749500D01*
X11494067Y29749500D01*
X11494069Y29749500D01*
X11619744Y29774499D01*
X11738127Y29823535D01*
X11844669Y29894724D01*
X11935276Y29985331D01*
X12006465Y30091873D01*
X12055501Y30210256D01*
X12080500Y30335931D01*
X12080500Y30395000D01*
X18744508Y30395000D01*
X18764353Y30269699D01*
X18764353Y30269698D01*
X18764354Y30269696D01*
X18821950Y30156658D01*
X18911658Y30066950D01*
X18946046Y30049428D01*
X18982828Y30006363D01*
X18978385Y29949900D01*
X18964776Y29931170D01*
X18921952Y29888346D01*
X18864353Y29775302D01*
X18844508Y29650000D01*
X18864353Y29524699D01*
X18864353Y29524698D01*
X18864354Y29524696D01*
X18921950Y29411658D01*
X19011658Y29321950D01*
X19124696Y29264354D01*
X19250000Y29244508D01*
X19375304Y29264354D01*
X19488342Y29321950D01*
X19565289Y29398898D01*
X19617614Y29420571D01*
X19669940Y29398897D01*
X19691614Y29346571D01*
X19683549Y29312977D01*
X19664353Y29275304D01*
X19644508Y29150000D01*
X19664353Y29024699D01*
X19664353Y29024698D01*
X19664354Y29024696D01*
X19721950Y28911658D01*
X19811658Y28821950D01*
X19924696Y28764354D01*
X20050000Y28744508D01*
X20175304Y28764354D01*
X20288342Y28821950D01*
X20378050Y28911658D01*
X20386076Y28927412D01*
X20429139Y28964192D01*
X20485599Y28959752D01*
X20574696Y28914354D01*
X20574695Y28914354D01*
X20591718Y28911658D01*
X20700000Y28894508D01*
X20825304Y28914354D01*
X20938342Y28971950D01*
X21028050Y29061658D01*
X21085646Y29174696D01*
X21105492Y29300000D01*
X21085646Y29425304D01*
X21028050Y29538342D01*
X20938342Y29628050D01*
X20938341Y29628051D01*
X20933762Y29630384D01*
X20896981Y29673452D01*
X20901427Y29729915D01*
X20915031Y29748640D01*
X20978050Y29811658D01*
X21035646Y29924696D01*
X21055492Y30050000D01*
X21035646Y30175304D01*
X20978050Y30288342D01*
X20888342Y30378050D01*
X20775304Y30435646D01*
X20775302Y30435647D01*
X20775301Y30435647D01*
X20650000Y30455492D01*
X20524698Y30435647D01*
X20411656Y30378049D01*
X20321950Y30288343D01*
X20268986Y30184396D01*
X20225919Y30147614D01*
X20169456Y30152058D01*
X20150726Y30165666D01*
X20138341Y30178051D01*
X20133762Y30180384D01*
X20096981Y30223452D01*
X20101427Y30279915D01*
X20115031Y30298640D01*
X20178050Y30361658D01*
X20235646Y30474696D01*
X20255492Y30600000D01*
X20235646Y30725304D01*
X20178050Y30838342D01*
X20088342Y30928050D01*
X19975304Y30985646D01*
X19975302Y30985647D01*
X19975301Y30985647D01*
X19850000Y31005492D01*
X19724698Y30985647D01*
X19611656Y30928049D01*
X19521950Y30838343D01*
X19481370Y30758701D01*
X19438303Y30721919D01*
X19381842Y30726362D01*
X19275304Y30780646D01*
X19275302Y30780647D01*
X19275301Y30780647D01*
X19150000Y30800492D01*
X19024698Y30780647D01*
X18911656Y30723049D01*
X18821951Y30633344D01*
X18764353Y30520302D01*
X18744508Y30395000D01*
X12080500Y30395000D01*
X12080500Y30464069D01*
X12055501Y30589744D01*
X12006465Y30708127D01*
X11935276Y30814669D01*
X11844669Y30905276D01*
X11738127Y30976465D01*
X11738124Y30976467D01*
X11738123Y30976467D01*
X11619742Y31025502D01*
X11619739Y31025503D01*
X11529696Y31043414D01*
X11494069Y31050500D01*
X11365931Y31050500D01*
X11334726Y31044293D01*
X11240260Y31025503D01*
X11240257Y31025502D01*
X11121876Y30976467D01*
X11015331Y30905277D01*
X11015330Y30905275D01*
X10924725Y30814670D01*
X10924723Y30814669D01*
X10853533Y30708124D01*
X10804498Y30589743D01*
X10804497Y30589740D01*
X10783043Y30481883D01*
X10781615Y30474699D01*
X10779500Y30464068D01*
X4920500Y30464068D01*
X4920500Y30464069D01*
X4895501Y30589744D01*
X4846465Y30708127D01*
X4775276Y30814669D01*
X4684669Y30905276D01*
X4578127Y30976465D01*
X4578124Y30976467D01*
X4578123Y30976467D01*
X4459742Y31025502D01*
X4459739Y31025503D01*
X4369696Y31043414D01*
X4334069Y31050500D01*
X4205931Y31050500D01*
X4174726Y31044293D01*
X4080260Y31025503D01*
X4080257Y31025502D01*
X3961876Y30976467D01*
X3855331Y30905277D01*
X3855330Y30905275D01*
X3764725Y30814670D01*
X3764723Y30814669D01*
X3693533Y30708124D01*
X3644498Y30589743D01*
X3644497Y30589740D01*
X3623043Y30481883D01*
X3621615Y30474699D01*
X3619500Y30464068D01*
X566460Y30464068D01*
X566904Y31200000D01*
X49844508Y31200000D01*
X49864353Y31074699D01*
X49864353Y31074698D01*
X49864354Y31074696D01*
X49921950Y30961658D01*
X50011658Y30871950D01*
X50124696Y30814354D01*
X50250000Y30794508D01*
X50375304Y30814354D01*
X50488342Y30871950D01*
X50578050Y30961658D01*
X50635646Y31074696D01*
X50655492Y31200000D01*
X50635646Y31325304D01*
X50578050Y31438342D01*
X50488342Y31528050D01*
X50375304Y31585646D01*
X50375302Y31585647D01*
X50375301Y31585647D01*
X50250000Y31605492D01*
X50124698Y31585647D01*
X50011656Y31528049D01*
X49921951Y31438344D01*
X49864353Y31325302D01*
X49844508Y31200000D01*
X566904Y31200000D01*
X567161Y31625000D01*
X31894508Y31625000D01*
X31914353Y31499699D01*
X31914353Y31499698D01*
X31914354Y31499696D01*
X31971950Y31386658D01*
X32061658Y31296950D01*
X32174696Y31239354D01*
X32300000Y31219508D01*
X32425304Y31239354D01*
X32538342Y31296950D01*
X32628050Y31386658D01*
X32685646Y31499696D01*
X32705492Y31625000D01*
X32685646Y31750304D01*
X32628050Y31863342D01*
X32538342Y31953050D01*
X32446198Y32000000D01*
X46294508Y32000000D01*
X46314353Y31874699D01*
X46314353Y31874698D01*
X46314354Y31874696D01*
X46371950Y31761658D01*
X46461658Y31671950D01*
X46574696Y31614354D01*
X46700000Y31594508D01*
X46825304Y31614354D01*
X46938342Y31671950D01*
X47028050Y31761658D01*
X47047586Y31800000D01*
X48344508Y31800000D01*
X48364353Y31674699D01*
X48364353Y31674698D01*
X48364354Y31674696D01*
X48421950Y31561658D01*
X48511658Y31471950D01*
X48624696Y31414354D01*
X48750000Y31394508D01*
X48875304Y31414354D01*
X48988342Y31471950D01*
X49078050Y31561658D01*
X49135646Y31674696D01*
X49155492Y31800000D01*
X49135646Y31925304D01*
X49078050Y32038342D01*
X48988342Y32128050D01*
X48875304Y32185646D01*
X48875302Y32185647D01*
X48875301Y32185647D01*
X48750000Y32205492D01*
X48624698Y32185647D01*
X48511656Y32128049D01*
X48421951Y32038344D01*
X48364353Y31925302D01*
X48344508Y31800000D01*
X47047586Y31800000D01*
X47085646Y31874696D01*
X47105492Y32000000D01*
X47085646Y32125304D01*
X47028050Y32238342D01*
X46938342Y32328050D01*
X46825304Y32385646D01*
X46825302Y32385647D01*
X46825301Y32385647D01*
X46700000Y32405492D01*
X46574698Y32385647D01*
X46461656Y32328049D01*
X46371951Y32238344D01*
X46314353Y32125302D01*
X46294508Y32000000D01*
X32446198Y32000000D01*
X32425304Y32010646D01*
X32425302Y32010647D01*
X32425301Y32010647D01*
X32300000Y32030492D01*
X32174698Y32010647D01*
X32061656Y31953049D01*
X31971951Y31863344D01*
X31914353Y31750302D01*
X31894508Y31625000D01*
X567161Y31625000D01*
X567694Y32508501D01*
X3771278Y32508501D01*
X3771279Y32508500D01*
X4111918Y32508500D01*
X4100001Y32479730D01*
X4100001Y32380270D01*
X4111918Y32351500D01*
X3771278Y32351500D01*
X3808161Y32213852D01*
X3808163Y32213847D01*
X3881886Y32086156D01*
X3986155Y31981887D01*
X4113846Y31908164D01*
X4113851Y31908162D01*
X4256272Y31870001D01*
X4256273Y31870000D01*
X4721500Y31870000D01*
X4721500Y32179988D01*
X4878500Y32179988D01*
X4878500Y31870000D01*
X5343727Y31870000D01*
X5343727Y31870001D01*
X5486148Y31908162D01*
X5486153Y31908164D01*
X5613844Y31981887D01*
X5681957Y32050000D01*
X6394508Y32050000D01*
X6414353Y31924699D01*
X6414353Y31924698D01*
X6414354Y31924696D01*
X6471950Y31811658D01*
X6561658Y31721950D01*
X6674696Y31664354D01*
X6800000Y31644508D01*
X6925304Y31664354D01*
X7038342Y31721950D01*
X7128050Y31811658D01*
X7185646Y31924696D01*
X7205492Y32050000D01*
X7185646Y32175304D01*
X7128050Y32288342D01*
X7038342Y32378050D01*
X6925304Y32435646D01*
X6925302Y32435647D01*
X6925301Y32435647D01*
X6800000Y32455492D01*
X6674698Y32435647D01*
X6561656Y32378049D01*
X6471951Y32288344D01*
X6414353Y32175302D01*
X6394508Y32050000D01*
X5681957Y32050000D01*
X5718113Y32086156D01*
X5791836Y32213847D01*
X5791838Y32213852D01*
X5828721Y32351500D01*
X5488082Y32351500D01*
X5499999Y32380270D01*
X5499999Y32479730D01*
X5488082Y32508500D01*
X5828721Y32508500D01*
X5828721Y32508501D01*
X5791838Y32646149D01*
X5791836Y32646154D01*
X5718113Y32773845D01*
X5613844Y32878114D01*
X5573494Y32901410D01*
X7093008Y32901410D01*
X7112853Y32776109D01*
X7112853Y32776108D01*
X7112854Y32776106D01*
X7170450Y32663068D01*
X7260158Y32573360D01*
X7373196Y32515764D01*
X7498500Y32495918D01*
X7623804Y32515764D01*
X7736842Y32573360D01*
X7797674Y32634192D01*
X7850000Y32655866D01*
X7902326Y32634192D01*
X7963158Y32573360D01*
X8076196Y32515764D01*
X8201500Y32495918D01*
X8280947Y32508501D01*
X9871278Y32508501D01*
X9871279Y32508500D01*
X10211918Y32508500D01*
X10200001Y32479730D01*
X10200001Y32380270D01*
X10211918Y32351500D01*
X9871278Y32351500D01*
X9908161Y32213852D01*
X9908163Y32213847D01*
X9981886Y32086156D01*
X10086155Y31981887D01*
X10213846Y31908164D01*
X10213851Y31908162D01*
X10356272Y31870001D01*
X10356273Y31870000D01*
X10821500Y31870000D01*
X10821500Y32179988D01*
X10978500Y32179988D01*
X10978500Y31870000D01*
X11443727Y31870000D01*
X11443727Y31870001D01*
X11586148Y31908162D01*
X11586153Y31908164D01*
X11713844Y31981887D01*
X11818113Y32086156D01*
X11891836Y32213847D01*
X11891838Y32213852D01*
X11928721Y32351500D01*
X11588082Y32351500D01*
X11599999Y32380270D01*
X11599999Y32479730D01*
X11588082Y32508500D01*
X11928721Y32508500D01*
X11928721Y32508501D01*
X11891838Y32646149D01*
X11891836Y32646154D01*
X11818113Y32773845D01*
X11791958Y32800000D01*
X15744508Y32800000D01*
X15764353Y32674699D01*
X15764353Y32674698D01*
X15764354Y32674696D01*
X15821950Y32561658D01*
X15911658Y32471950D01*
X16024696Y32414354D01*
X16150000Y32394508D01*
X16275304Y32414354D01*
X16388342Y32471950D01*
X16478050Y32561658D01*
X16535646Y32674696D01*
X16555492Y32800000D01*
X16535646Y32925304D01*
X16478050Y33038342D01*
X16388342Y33128050D01*
X16275304Y33185646D01*
X16275302Y33185647D01*
X16275301Y33185647D01*
X16184651Y33200004D01*
X18115373Y33200004D01*
X18115373Y33199997D01*
X18133812Y33048129D01*
X18133814Y33048125D01*
X18188065Y32905075D01*
X18251768Y32812786D01*
X18526141Y33087160D01*
X18538060Y33058386D01*
X18608386Y32988060D01*
X18637158Y32976143D01*
X18362574Y32701559D01*
X18389486Y32677716D01*
X18389489Y32677714D01*
X18524956Y32606615D01*
X18673502Y32570001D01*
X18673508Y32570000D01*
X18826492Y32570000D01*
X18826497Y32570001D01*
X18975043Y32606615D01*
X19110510Y32677714D01*
X19137424Y32701559D01*
X18862841Y32976143D01*
X18891614Y32988060D01*
X18961940Y33058386D01*
X18973857Y33087159D01*
X19248230Y32812786D01*
X19311935Y32905078D01*
X19366185Y33048125D01*
X19366187Y33048129D01*
X19384627Y33199997D01*
X19384627Y33200004D01*
X19372485Y33300000D01*
X48594508Y33300000D01*
X48614353Y33174699D01*
X48614353Y33174698D01*
X48614354Y33174696D01*
X48671950Y33061658D01*
X48761658Y32971950D01*
X48874696Y32914354D01*
X49000000Y32894508D01*
X49125304Y32914354D01*
X49238342Y32971950D01*
X49328050Y33061658D01*
X49385646Y33174696D01*
X49405492Y33300000D01*
X49385646Y33425304D01*
X49328050Y33538342D01*
X49238342Y33628050D01*
X49125304Y33685646D01*
X49125302Y33685647D01*
X49125301Y33685647D01*
X49034676Y33700000D01*
X52994508Y33700000D01*
X53014353Y33574699D01*
X53014353Y33574698D01*
X53014354Y33574696D01*
X53071950Y33461658D01*
X53161658Y33371950D01*
X53274696Y33314354D01*
X53400000Y33294508D01*
X53525304Y33314354D01*
X53638342Y33371950D01*
X53728050Y33461658D01*
X53785646Y33574696D01*
X53805492Y33700000D01*
X53785646Y33825304D01*
X53728050Y33938342D01*
X53638342Y34028050D01*
X53525304Y34085646D01*
X53525302Y34085647D01*
X53525301Y34085647D01*
X53400000Y34105492D01*
X53274698Y34085647D01*
X53161656Y34028049D01*
X53071951Y33938344D01*
X53014353Y33825302D01*
X52994508Y33700000D01*
X49034676Y33700000D01*
X49000000Y33705492D01*
X48874698Y33685647D01*
X48761656Y33628049D01*
X48671951Y33538344D01*
X48614353Y33425302D01*
X48594508Y33300000D01*
X19372485Y33300000D01*
X19366187Y33351872D01*
X19366185Y33351876D01*
X19311934Y33494926D01*
X19248231Y33587216D01*
X18973857Y33312843D01*
X18961940Y33341614D01*
X18891614Y33411940D01*
X18862840Y33423859D01*
X19137424Y33698442D01*
X19110513Y33722285D01*
X19110510Y33722287D01*
X18975043Y33793386D01*
X18826497Y33830000D01*
X18673502Y33830000D01*
X18524956Y33793386D01*
X18389490Y33722288D01*
X18362573Y33698443D01*
X18637158Y33423858D01*
X18608386Y33411940D01*
X18538060Y33341614D01*
X18526142Y33312842D01*
X18251767Y33587217D01*
X18188067Y33494930D01*
X18188066Y33494928D01*
X18133814Y33351876D01*
X18133812Y33351872D01*
X18115373Y33200004D01*
X16184651Y33200004D01*
X16150000Y33205492D01*
X16024698Y33185647D01*
X15911656Y33128049D01*
X15821951Y33038344D01*
X15764353Y32925302D01*
X15744508Y32800000D01*
X11791958Y32800000D01*
X11713844Y32878114D01*
X11586153Y32951837D01*
X11586148Y32951839D01*
X11443727Y32990000D01*
X10978500Y32990000D01*
X10978500Y32680012D01*
X10821500Y32680012D01*
X10821500Y32990000D01*
X10356273Y32990000D01*
X10213851Y32951839D01*
X10213846Y32951837D01*
X10086155Y32878114D01*
X9981886Y32773845D01*
X9908163Y32646154D01*
X9908161Y32646149D01*
X9871278Y32508501D01*
X8280947Y32508501D01*
X8326804Y32515764D01*
X8439842Y32573360D01*
X8529550Y32663068D01*
X8587146Y32776106D01*
X8606992Y32901410D01*
X8587146Y33026714D01*
X8529550Y33139752D01*
X8439842Y33229460D01*
X8326804Y33287056D01*
X8326802Y33287057D01*
X8326801Y33287057D01*
X8201500Y33306902D01*
X8076198Y33287057D01*
X7963156Y33229459D01*
X7902326Y33168628D01*
X7850000Y33146954D01*
X7797674Y33168628D01*
X7736843Y33229459D01*
X7736842Y33229460D01*
X7623804Y33287056D01*
X7623802Y33287057D01*
X7623801Y33287057D01*
X7498500Y33306902D01*
X7373198Y33287057D01*
X7260156Y33229459D01*
X7170451Y33139754D01*
X7164487Y33128049D01*
X7123764Y33048125D01*
X7112853Y33026712D01*
X7093008Y32901410D01*
X5573494Y32901410D01*
X5486153Y32951837D01*
X5486148Y32951839D01*
X5343727Y32990000D01*
X4878500Y32990000D01*
X4878500Y32680012D01*
X4721500Y32680012D01*
X4721500Y32990000D01*
X4256273Y32990000D01*
X4113851Y32951839D01*
X4113846Y32951837D01*
X3986155Y32878114D01*
X3881886Y32773845D01*
X3808163Y32646154D01*
X3808161Y32646149D01*
X3771278Y32508501D01*
X567694Y32508501D01*
X569863Y36100000D01*
X31854508Y36100000D01*
X31874353Y35974699D01*
X31874353Y35974698D01*
X31874354Y35974696D01*
X31931950Y35861658D01*
X32021658Y35771950D01*
X32134696Y35714354D01*
X32260000Y35694508D01*
X32294675Y35700000D01*
X35444508Y35700000D01*
X35464353Y35574699D01*
X35464353Y35574698D01*
X35464354Y35574696D01*
X35521950Y35461658D01*
X35611658Y35371950D01*
X35724696Y35314354D01*
X35850000Y35294508D01*
X35975304Y35314354D01*
X36088342Y35371950D01*
X36178050Y35461658D01*
X36235646Y35574696D01*
X36255492Y35700000D01*
X36494508Y35700000D01*
X36514353Y35574699D01*
X36514353Y35574698D01*
X36514354Y35574696D01*
X36571950Y35461658D01*
X36661658Y35371950D01*
X36774696Y35314354D01*
X36900000Y35294508D01*
X37025304Y35314354D01*
X37138342Y35371950D01*
X37228050Y35461658D01*
X37285646Y35574696D01*
X37305492Y35700000D01*
X37285646Y35825304D01*
X37252988Y35889398D01*
X41810134Y35889398D01*
X41829979Y35764097D01*
X41829979Y35764096D01*
X41829980Y35764094D01*
X41887576Y35651056D01*
X41977284Y35561348D01*
X42090322Y35503752D01*
X42215626Y35483906D01*
X42340930Y35503752D01*
X42453968Y35561348D01*
X42543676Y35651056D01*
X42601272Y35764094D01*
X42621118Y35889398D01*
X42620211Y35895124D01*
X42633433Y35950196D01*
X42681723Y35979789D01*
X42704875Y35979789D01*
X42710602Y35978882D01*
X42835906Y35998728D01*
X42948944Y36056324D01*
X43038652Y36146032D01*
X43096248Y36259070D01*
X43116094Y36384374D01*
X43096248Y36509678D01*
X43038652Y36622716D01*
X42948944Y36712424D01*
X42835906Y36770020D01*
X42835904Y36770021D01*
X42835903Y36770021D01*
X42710602Y36789866D01*
X42585300Y36770021D01*
X42472258Y36712423D01*
X42382553Y36622718D01*
X42324955Y36509676D01*
X42305110Y36384374D01*
X42305110Y36384373D01*
X42306017Y36378643D01*
X42292791Y36323572D01*
X42244497Y36293983D01*
X42221357Y36293983D01*
X42215627Y36294890D01*
X42215626Y36294890D01*
X42090324Y36275045D01*
X41977282Y36217447D01*
X41887577Y36127742D01*
X41829979Y36014700D01*
X41810134Y35889398D01*
X37252988Y35889398D01*
X37228050Y35938342D01*
X37138342Y36028050D01*
X37025304Y36085646D01*
X37025302Y36085647D01*
X37025301Y36085647D01*
X36900000Y36105492D01*
X36774698Y36085647D01*
X36661656Y36028049D01*
X36571951Y35938344D01*
X36514353Y35825302D01*
X36494508Y35700000D01*
X36255492Y35700000D01*
X36235646Y35825304D01*
X36178050Y35938342D01*
X36088342Y36028050D01*
X35975304Y36085646D01*
X35975302Y36085647D01*
X35975301Y36085647D01*
X35850000Y36105492D01*
X35724698Y36085647D01*
X35611656Y36028049D01*
X35521951Y35938344D01*
X35464353Y35825302D01*
X35444508Y35700000D01*
X32294675Y35700000D01*
X32385304Y35714354D01*
X32498342Y35771950D01*
X32588050Y35861658D01*
X32645646Y35974696D01*
X32665492Y36100000D01*
X32645646Y36225304D01*
X32588050Y36338342D01*
X32498342Y36428050D01*
X32385304Y36485646D01*
X32385302Y36485647D01*
X32385301Y36485647D01*
X32260000Y36505492D01*
X32134698Y36485647D01*
X32021656Y36428049D01*
X31931951Y36338344D01*
X31874353Y36225302D01*
X31854508Y36100000D01*
X569863Y36100000D01*
X570153Y36580546D01*
X591859Y36632857D01*
X644153Y36654500D01*
X4762920Y36654500D01*
X4815246Y36632826D01*
X4836920Y36580500D01*
X4836920Y36113786D01*
X6639632Y36113786D01*
X6639632Y36580500D01*
X6661306Y36632826D01*
X6713632Y36654500D01*
X10677315Y36654500D01*
X10677321Y36654500D01*
X10889771Y36685046D01*
X10889778Y36685048D01*
X11095706Y36745514D01*
X11095708Y36745515D01*
X11095712Y36745516D01*
X11290951Y36834679D01*
X11366504Y36883234D01*
X46516298Y36883234D01*
X46536143Y36757933D01*
X46536143Y36757932D01*
X46536144Y36757930D01*
X46593740Y36644892D01*
X46683448Y36555184D01*
X46796486Y36497588D01*
X46921790Y36477742D01*
X47047094Y36497588D01*
X47160132Y36555184D01*
X47249840Y36644892D01*
X47307436Y36757930D01*
X47327282Y36883234D01*
X47326375Y36888960D01*
X47339597Y36944032D01*
X47387887Y36973625D01*
X47411039Y36973625D01*
X47416766Y36972718D01*
X47542070Y36992564D01*
X47655108Y37050160D01*
X47744816Y37139868D01*
X47802412Y37252906D01*
X47822258Y37378210D01*
X47802571Y37502512D01*
X49297020Y37502512D01*
X49316865Y37377211D01*
X49316865Y37377210D01*
X49316866Y37377208D01*
X49374462Y37264170D01*
X49464170Y37174462D01*
X49577208Y37116866D01*
X49702512Y37097020D01*
X49827816Y37116866D01*
X49940854Y37174462D01*
X50030562Y37264170D01*
X50088158Y37377208D01*
X50108004Y37502512D01*
X50107097Y37508238D01*
X50120319Y37563310D01*
X50168609Y37592903D01*
X50191761Y37592903D01*
X50197488Y37591996D01*
X50322792Y37611842D01*
X50435830Y37669438D01*
X50525538Y37759146D01*
X50583134Y37872184D01*
X50602980Y37997488D01*
X50583134Y38122792D01*
X50525538Y38235830D01*
X50435830Y38325538D01*
X50322792Y38383134D01*
X50322790Y38383135D01*
X50322789Y38383135D01*
X50197488Y38402980D01*
X50072186Y38383135D01*
X49959144Y38325537D01*
X49869439Y38235832D01*
X49811841Y38122790D01*
X49791996Y37997488D01*
X49791996Y37997487D01*
X49792903Y37991757D01*
X49779677Y37936686D01*
X49731383Y37907097D01*
X49708243Y37907097D01*
X49702513Y37908004D01*
X49702512Y37908004D01*
X49577210Y37888159D01*
X49464168Y37830561D01*
X49374463Y37740856D01*
X49316865Y37627814D01*
X49297020Y37502512D01*
X47802571Y37502512D01*
X47802412Y37503514D01*
X47744816Y37616552D01*
X47655108Y37706260D01*
X47542070Y37763856D01*
X47542068Y37763857D01*
X47542067Y37763857D01*
X47416766Y37783702D01*
X47291464Y37763857D01*
X47178422Y37706259D01*
X47088717Y37616554D01*
X47088716Y37616552D01*
X47033527Y37508237D01*
X47031119Y37503512D01*
X47011274Y37378210D01*
X47011274Y37378209D01*
X47012181Y37372479D01*
X46998955Y37317408D01*
X46950661Y37287819D01*
X46927521Y37287819D01*
X46921791Y37288726D01*
X46921790Y37288726D01*
X46796488Y37268881D01*
X46683446Y37211283D01*
X46593741Y37121578D01*
X46536143Y37008536D01*
X46516298Y36883234D01*
X11366504Y36883234D01*
X11471514Y36950720D01*
X11633725Y37091276D01*
X11774281Y37253487D01*
X11890321Y37434050D01*
X11979484Y37629289D01*
X11982228Y37638632D01*
X12039952Y37835223D01*
X12039952Y37835224D01*
X12039954Y37835230D01*
X12070500Y38047681D01*
X12070500Y38154998D01*
X12070500Y38220891D01*
X12070500Y38220892D01*
X12070500Y39400000D01*
X16594508Y39400000D01*
X16614353Y39274699D01*
X16614353Y39274698D01*
X16614354Y39274696D01*
X16671950Y39161658D01*
X16761658Y39071950D01*
X16874696Y39014354D01*
X17000000Y38994508D01*
X17125304Y39014354D01*
X17238342Y39071950D01*
X17328050Y39161658D01*
X17385646Y39274696D01*
X17405492Y39400000D01*
X17385646Y39525304D01*
X17328050Y39638342D01*
X17238342Y39728050D01*
X17125304Y39785646D01*
X17125302Y39785647D01*
X17125301Y39785647D01*
X17000000Y39805492D01*
X16874698Y39785647D01*
X16761656Y39728049D01*
X16671951Y39638344D01*
X16614353Y39525302D01*
X16594508Y39400000D01*
X12070500Y39400000D01*
X12070500Y39952512D01*
X51147020Y39952512D01*
X51166865Y39827211D01*
X51166865Y39827210D01*
X51166866Y39827208D01*
X51224462Y39714170D01*
X51314170Y39624462D01*
X51427208Y39566866D01*
X51552512Y39547020D01*
X51677816Y39566866D01*
X51790854Y39624462D01*
X51880562Y39714170D01*
X51938158Y39827208D01*
X51958004Y39952512D01*
X51957097Y39958238D01*
X51970319Y40013310D01*
X52018609Y40042903D01*
X52041761Y40042903D01*
X52047488Y40041996D01*
X52172792Y40061842D01*
X52285830Y40119438D01*
X52375538Y40209146D01*
X52433134Y40322184D01*
X52452980Y40447488D01*
X52433134Y40572792D01*
X52375538Y40685830D01*
X52285830Y40775538D01*
X52172792Y40833134D01*
X52172790Y40833135D01*
X52172789Y40833135D01*
X52047488Y40852980D01*
X51922186Y40833135D01*
X51809144Y40775537D01*
X51719439Y40685832D01*
X51661841Y40572790D01*
X51641996Y40447488D01*
X51641996Y40447487D01*
X51642903Y40441757D01*
X51629677Y40386686D01*
X51581383Y40357097D01*
X51558243Y40357097D01*
X51552513Y40358004D01*
X51552512Y40358004D01*
X51427210Y40338159D01*
X51314168Y40280561D01*
X51224463Y40190856D01*
X51166865Y40077814D01*
X51147020Y39952512D01*
X12070500Y39952512D01*
X12070500Y41573616D01*
X14819500Y41573616D01*
X14819500Y41386385D01*
X14856025Y41202756D01*
X14856027Y41202749D01*
X14927678Y41029769D01*
X15031698Y40874092D01*
X15164092Y40741698D01*
X15319769Y40637678D01*
X15492749Y40566027D01*
X15676384Y40529500D01*
X15676385Y40529500D01*
X15863615Y40529500D01*
X15863616Y40529500D01*
X16047251Y40566027D01*
X16220231Y40637678D01*
X16375908Y40741698D01*
X16508302Y40874092D01*
X16612322Y41029769D01*
X16683973Y41202749D01*
X16720500Y41386384D01*
X16720500Y41573616D01*
X16683973Y41757251D01*
X16612322Y41930231D01*
X16508302Y42085908D01*
X16375908Y42218302D01*
X16220231Y42322322D01*
X16220228Y42322324D01*
X16220227Y42322324D01*
X16047251Y42393973D01*
X16047244Y42393975D01*
X15908902Y42421493D01*
X15863616Y42430500D01*
X15676384Y42430500D01*
X15640056Y42423275D01*
X15492755Y42393975D01*
X15492748Y42393973D01*
X15319772Y42322324D01*
X15164092Y42218303D01*
X15164091Y42218301D01*
X15031699Y42085909D01*
X15031697Y42085908D01*
X14927676Y41930228D01*
X14856027Y41757252D01*
X14856025Y41757245D01*
X14819500Y41573616D01*
X12070500Y41573616D01*
X12070500Y48573616D01*
X14819500Y48573616D01*
X14819500Y48386385D01*
X14856025Y48202756D01*
X14856027Y48202749D01*
X14927678Y48029769D01*
X15031698Y47874092D01*
X15164092Y47741698D01*
X15319769Y47637678D01*
X15492749Y47566027D01*
X15676384Y47529500D01*
X15676385Y47529500D01*
X15863615Y47529500D01*
X15863616Y47529500D01*
X16047251Y47566027D01*
X16220231Y47637678D01*
X16375908Y47741698D01*
X16508302Y47874092D01*
X16612322Y48029769D01*
X16683973Y48202749D01*
X16720500Y48386384D01*
X16720500Y48573616D01*
X16683973Y48757251D01*
X16612322Y48930231D01*
X16508302Y49085908D01*
X16375908Y49218302D01*
X16220231Y49322322D01*
X16220228Y49322324D01*
X16220227Y49322324D01*
X16047251Y49393973D01*
X16047244Y49393975D01*
X15908902Y49421493D01*
X15863616Y49430500D01*
X15676384Y49430500D01*
X15640056Y49423275D01*
X15492755Y49393975D01*
X15492748Y49393973D01*
X15319772Y49322324D01*
X15164092Y49218303D01*
X15164091Y49218301D01*
X15031699Y49085909D01*
X15031697Y49085908D01*
X14927676Y48930228D01*
X14856027Y48757252D01*
X14856025Y48757245D01*
X14819500Y48573616D01*
X12070500Y48573616D01*
X12070500Y51425000D01*
X16619508Y51425000D01*
X16639353Y51299699D01*
X16639353Y51299698D01*
X16639354Y51299696D01*
X16696950Y51186658D01*
X16786658Y51096950D01*
X16899696Y51039354D01*
X17025000Y51019508D01*
X17150304Y51039354D01*
X17263342Y51096950D01*
X17353050Y51186658D01*
X17410646Y51299696D01*
X17430492Y51425000D01*
X17410646Y51550304D01*
X17353050Y51663342D01*
X17345080Y51671312D01*
X45899500Y51671312D01*
X45899500Y51328688D01*
X45902767Y51299696D01*
X45937861Y50988214D01*
X46014101Y50654188D01*
X46014107Y50654170D01*
X46127260Y50330792D01*
X46275923Y50022092D01*
X46275924Y50022090D01*
X46458211Y49731982D01*
X46671834Y49464107D01*
X46914107Y49221834D01*
X47181982Y49008211D01*
X47472090Y48825924D01*
X47723158Y48705016D01*
X47780791Y48677261D01*
X48071492Y48575542D01*
X48104183Y48564103D01*
X48438217Y48487861D01*
X48778688Y48449500D01*
X48778692Y48449500D01*
X49121308Y48449500D01*
X49121312Y48449500D01*
X49461783Y48487861D01*
X49795817Y48564103D01*
X49941463Y48615067D01*
X50119208Y48677261D01*
X50119212Y48677264D01*
X50119215Y48677264D01*
X50427910Y48825924D01*
X50718018Y49008211D01*
X50985893Y49221834D01*
X51228166Y49464107D01*
X51441789Y49731982D01*
X51624076Y50022090D01*
X51772736Y50330785D01*
X51772736Y50330788D01*
X51772739Y50330792D01*
X51885892Y50654170D01*
X51885897Y50654183D01*
X51962139Y50988217D01*
X52000500Y51328688D01*
X52000500Y51671312D01*
X51962139Y52011783D01*
X51895979Y52301644D01*
X51885898Y52345813D01*
X51885892Y52345831D01*
X51772739Y52669209D01*
X51624076Y52977909D01*
X51624076Y52977910D01*
X51441789Y53268018D01*
X51228166Y53535893D01*
X50985893Y53778166D01*
X50718018Y53991789D01*
X50427910Y54174076D01*
X50396343Y54189278D01*
X50119208Y54322740D01*
X49795830Y54435893D01*
X49795812Y54435899D01*
X49461786Y54512139D01*
X49315866Y54528580D01*
X49121312Y54550500D01*
X48778688Y54550500D01*
X48608452Y54531320D01*
X48438213Y54512139D01*
X48104187Y54435899D01*
X48104169Y54435893D01*
X47780791Y54322740D01*
X47472091Y54174077D01*
X47181981Y53991789D01*
X46914103Y53778163D01*
X46671837Y53535897D01*
X46458211Y53268019D01*
X46275923Y52977909D01*
X46127260Y52669209D01*
X46014107Y52345831D01*
X46014101Y52345813D01*
X45937861Y52011787D01*
X45921987Y51870892D01*
X45899500Y51671312D01*
X17345080Y51671312D01*
X17263342Y51753050D01*
X17150304Y51810646D01*
X17150302Y51810647D01*
X17150301Y51810647D01*
X17025000Y51830492D01*
X16899698Y51810647D01*
X16786656Y51753049D01*
X16696951Y51663344D01*
X16639353Y51550302D01*
X16619508Y51425000D01*
X12070500Y51425000D01*
X12070500Y51870892D01*
X12070500Y51912318D01*
X12039954Y52124769D01*
X12001705Y52255034D01*
X11979486Y52330705D01*
X11979484Y52330710D01*
X11928930Y52441407D01*
X11890321Y52525950D01*
X11879442Y52542878D01*
X11774285Y52706507D01*
X11774284Y52706508D01*
X11774281Y52706513D01*
X11633724Y52868724D01*
X11471513Y53009281D01*
X11471508Y53009285D01*
X11471506Y53009286D01*
X11290956Y53125318D01*
X11290948Y53125322D01*
X11095709Y53214485D01*
X11095704Y53214487D01*
X10889776Y53274953D01*
X10889764Y53274955D01*
X10677322Y53305500D01*
X10677318Y53305500D01*
X10635892Y53305500D01*
X634882Y53305500D01*
X582556Y53327174D01*
X560882Y53379500D01*
X560971Y53383130D01*
X563238Y53429300D01*
X567173Y53509397D01*
X567882Y53516593D01*
X617209Y53849131D01*
X618626Y53856249D01*
X652577Y53991789D01*
X700307Y54182342D01*
X702404Y54189253D01*
X815663Y54505790D01*
X818433Y54512478D01*
X962168Y54816379D01*
X965574Y54822752D01*
X1138410Y55111112D01*
X1142434Y55117134D01*
X1342690Y55387148D01*
X1347294Y55392756D01*
X1573050Y55641840D01*
X1578160Y55646950D01*
X1827248Y55872711D01*
X1832857Y55877313D01*
X1880087Y55912341D01*
X2102866Y56077566D01*
X2108888Y56081590D01*
X2397248Y56254426D01*
X2403621Y56257832D01*
X2707522Y56401567D01*
X2714210Y56404337D01*
X3030747Y56517596D01*
X3037658Y56519693D01*
X3363755Y56601375D01*
X3370869Y56602791D01*
X3703407Y56652118D01*
X3710601Y56652827D01*
X4048188Y56669412D01*
X4051819Y56669500D01*
X4115892Y56669500D01*
X50535680Y56669500D01*
X50535684Y56669499D01*
G37*
%TD.AperFunction*%
%TD*%
M02*
