%TF.GenerationSoftware,KiCad,Pcbnew,8.0.7*%
%TF.CreationDate,2024-12-17T16:06:41+01:00*%
%TF.ProjectId,CM5_MINIMA,434d355f-4d49-44e4-994d-412e6b696361,rev?*%
%TF.SameCoordinates,Original*%
%TF.FileFunction,Legend,Bot*%
%TF.FilePolarity,Positive*%
%FSLAX46Y46*%
G04 Gerber Fmt 4.6, Leading zero omitted, Abs format (unit mm)*
G04 Created by KiCad (PCBNEW 8.0.7) date 2024-12-17 16:06:41*
%MOMM*%
%LPD*%
G01*
G04 APERTURE LIST*
G04 Aperture macros list*
%AMRoundRect*
0 Rectangle with rounded corners*
0 $1 Rounding radius*
0 $2 $3 $4 $5 $6 $7 $8 $9 X,Y pos of 4 corners*
0 Add a 4 corners polygon primitive as box body*
4,1,4,$2,$3,$4,$5,$6,$7,$8,$9,$2,$3,0*
0 Add four circle primitives for the rounded corners*
1,1,$1+$1,$2,$3*
1,1,$1+$1,$4,$5*
1,1,$1+$1,$6,$7*
1,1,$1+$1,$8,$9*
0 Add four rect primitives between the rounded corners*
20,1,$1+$1,$2,$3,$4,$5,0*
20,1,$1+$1,$4,$5,$6,$7,0*
20,1,$1+$1,$6,$7,$8,$9,0*
20,1,$1+$1,$8,$9,$2,$3,0*%
G04 Aperture macros list end*
%ADD10C,0.150000*%
%ADD11C,0.120000*%
%ADD12C,0.000000*%
%ADD13C,1.400000*%
%ADD14C,0.800000*%
%ADD15C,1.000000*%
%ADD16C,2.600000*%
%ADD17C,3.800000*%
%ADD18C,0.990600*%
%ADD19O,1.800000X0.860000*%
%ADD20O,1.500000X3.300000*%
%ADD21O,1.500000X2.300000*%
%ADD22C,6.100000*%
%ADD23R,0.700000X0.200000*%
%ADD24RoundRect,0.250000X-1.025000X0.787500X-1.025000X-0.787500X1.025000X-0.787500X1.025000X0.787500X0*%
G04 APERTURE END LIST*
D10*
X46574819Y19299524D02*
X45574819Y19299524D01*
X45574819Y19299524D02*
X46289104Y18966191D01*
X46289104Y18966191D02*
X45574819Y18632858D01*
X45574819Y18632858D02*
X46574819Y18632858D01*
X46574819Y18013810D02*
X46527200Y18109048D01*
X46527200Y18109048D02*
X46479580Y18156667D01*
X46479580Y18156667D02*
X46384342Y18204286D01*
X46384342Y18204286D02*
X46098628Y18204286D01*
X46098628Y18204286D02*
X46003390Y18156667D01*
X46003390Y18156667D02*
X45955771Y18109048D01*
X45955771Y18109048D02*
X45908152Y18013810D01*
X45908152Y18013810D02*
X45908152Y17870953D01*
X45908152Y17870953D02*
X45955771Y17775715D01*
X45955771Y17775715D02*
X46003390Y17728096D01*
X46003390Y17728096D02*
X46098628Y17680477D01*
X46098628Y17680477D02*
X46384342Y17680477D01*
X46384342Y17680477D02*
X46479580Y17728096D01*
X46479580Y17728096D02*
X46527200Y17775715D01*
X46527200Y17775715D02*
X46574819Y17870953D01*
X46574819Y17870953D02*
X46574819Y18013810D01*
X46574819Y16823334D02*
X45574819Y16823334D01*
X46527200Y16823334D02*
X46574819Y16918572D01*
X46574819Y16918572D02*
X46574819Y17109048D01*
X46574819Y17109048D02*
X46527200Y17204286D01*
X46527200Y17204286D02*
X46479580Y17251905D01*
X46479580Y17251905D02*
X46384342Y17299524D01*
X46384342Y17299524D02*
X46098628Y17299524D01*
X46098628Y17299524D02*
X46003390Y17251905D01*
X46003390Y17251905D02*
X45955771Y17204286D01*
X45955771Y17204286D02*
X45908152Y17109048D01*
X45908152Y17109048D02*
X45908152Y16918572D01*
X45908152Y16918572D02*
X45955771Y16823334D01*
X45908152Y15918572D02*
X46574819Y15918572D01*
X45908152Y16347143D02*
X46431961Y16347143D01*
X46431961Y16347143D02*
X46527200Y16299524D01*
X46527200Y16299524D02*
X46574819Y16204286D01*
X46574819Y16204286D02*
X46574819Y16061429D01*
X46574819Y16061429D02*
X46527200Y15966191D01*
X46527200Y15966191D02*
X46479580Y15918572D01*
X46574819Y15299524D02*
X46527200Y15394762D01*
X46527200Y15394762D02*
X46431961Y15442381D01*
X46431961Y15442381D02*
X45574819Y15442381D01*
X46527200Y14537619D02*
X46574819Y14632857D01*
X46574819Y14632857D02*
X46574819Y14823333D01*
X46574819Y14823333D02*
X46527200Y14918571D01*
X46527200Y14918571D02*
X46431961Y14966190D01*
X46431961Y14966190D02*
X46051009Y14966190D01*
X46051009Y14966190D02*
X45955771Y14918571D01*
X45955771Y14918571D02*
X45908152Y14823333D01*
X45908152Y14823333D02*
X45908152Y14632857D01*
X45908152Y14632857D02*
X45955771Y14537619D01*
X45955771Y14537619D02*
X46051009Y14490000D01*
X46051009Y14490000D02*
X46146247Y14490000D01*
X46146247Y14490000D02*
X46241485Y14966190D01*
X45574819Y14156666D02*
X45574819Y13537619D01*
X45574819Y13537619D02*
X45955771Y13870952D01*
X45955771Y13870952D02*
X45955771Y13728095D01*
X45955771Y13728095D02*
X46003390Y13632857D01*
X46003390Y13632857D02*
X46051009Y13585238D01*
X46051009Y13585238D02*
X46146247Y13537619D01*
X46146247Y13537619D02*
X46384342Y13537619D01*
X46384342Y13537619D02*
X46479580Y13585238D01*
X46479580Y13585238D02*
X46527200Y13632857D01*
X46527200Y13632857D02*
X46574819Y13728095D01*
X46574819Y13728095D02*
X46574819Y14013809D01*
X46574819Y14013809D02*
X46527200Y14109047D01*
X46527200Y14109047D02*
X46479580Y14156666D01*
X45574819Y12918571D02*
X45574819Y12823333D01*
X45574819Y12823333D02*
X45622438Y12728095D01*
X45622438Y12728095D02*
X45670057Y12680476D01*
X45670057Y12680476D02*
X45765295Y12632857D01*
X45765295Y12632857D02*
X45955771Y12585238D01*
X45955771Y12585238D02*
X46193866Y12585238D01*
X46193866Y12585238D02*
X46384342Y12632857D01*
X46384342Y12632857D02*
X46479580Y12680476D01*
X46479580Y12680476D02*
X46527200Y12728095D01*
X46527200Y12728095D02*
X46574819Y12823333D01*
X46574819Y12823333D02*
X46574819Y12918571D01*
X46574819Y12918571D02*
X46527200Y13013809D01*
X46527200Y13013809D02*
X46479580Y13061428D01*
X46479580Y13061428D02*
X46384342Y13109047D01*
X46384342Y13109047D02*
X46193866Y13156666D01*
X46193866Y13156666D02*
X45955771Y13156666D01*
X45955771Y13156666D02*
X45765295Y13109047D01*
X45765295Y13109047D02*
X45670057Y13061428D01*
X45670057Y13061428D02*
X45622438Y13013809D01*
X45622438Y13013809D02*
X45574819Y12918571D01*
X46574819Y11632857D02*
X46574819Y12204285D01*
X46574819Y11918571D02*
X45574819Y11918571D01*
X45574819Y11918571D02*
X45717676Y12013809D01*
X45717676Y12013809D02*
X45812914Y12109047D01*
X45812914Y12109047D02*
X45860533Y12204285D01*
X5109580Y17319048D02*
X5157200Y17366667D01*
X5157200Y17366667D02*
X5204819Y17509524D01*
X5204819Y17509524D02*
X5204819Y17604762D01*
X5204819Y17604762D02*
X5157200Y17747619D01*
X5157200Y17747619D02*
X5061961Y17842857D01*
X5061961Y17842857D02*
X4966723Y17890476D01*
X4966723Y17890476D02*
X4776247Y17938095D01*
X4776247Y17938095D02*
X4633390Y17938095D01*
X4633390Y17938095D02*
X4442914Y17890476D01*
X4442914Y17890476D02*
X4347676Y17842857D01*
X4347676Y17842857D02*
X4252438Y17747619D01*
X4252438Y17747619D02*
X4204819Y17604762D01*
X4204819Y17604762D02*
X4204819Y17509524D01*
X4204819Y17509524D02*
X4252438Y17366667D01*
X4252438Y17366667D02*
X4300057Y17319048D01*
X4204819Y16985714D02*
X4204819Y16319048D01*
X4204819Y16319048D02*
X5204819Y16747619D01*
X4204819Y15747619D02*
X4204819Y15652381D01*
X4204819Y15652381D02*
X4252438Y15557143D01*
X4252438Y15557143D02*
X4300057Y15509524D01*
X4300057Y15509524D02*
X4395295Y15461905D01*
X4395295Y15461905D02*
X4585771Y15414286D01*
X4585771Y15414286D02*
X4823866Y15414286D01*
X4823866Y15414286D02*
X5014342Y15461905D01*
X5014342Y15461905D02*
X5109580Y15509524D01*
X5109580Y15509524D02*
X5157200Y15557143D01*
X5157200Y15557143D02*
X5204819Y15652381D01*
X5204819Y15652381D02*
X5204819Y15747619D01*
X5204819Y15747619D02*
X5157200Y15842857D01*
X5157200Y15842857D02*
X5109580Y15890476D01*
X5109580Y15890476D02*
X5014342Y15938095D01*
X5014342Y15938095D02*
X4823866Y15985714D01*
X4823866Y15985714D02*
X4585771Y15985714D01*
X4585771Y15985714D02*
X4395295Y15938095D01*
X4395295Y15938095D02*
X4300057Y15890476D01*
X4300057Y15890476D02*
X4252438Y15842857D01*
X4252438Y15842857D02*
X4204819Y15747619D01*
X4300057Y15033333D02*
X4252438Y14985714D01*
X4252438Y14985714D02*
X4204819Y14890476D01*
X4204819Y14890476D02*
X4204819Y14652381D01*
X4204819Y14652381D02*
X4252438Y14557143D01*
X4252438Y14557143D02*
X4300057Y14509524D01*
X4300057Y14509524D02*
X4395295Y14461905D01*
X4395295Y14461905D02*
X4490533Y14461905D01*
X4490533Y14461905D02*
X4633390Y14509524D01*
X4633390Y14509524D02*
X5204819Y15080952D01*
X5204819Y15080952D02*
X5204819Y14461905D01*
X19074819Y19369524D02*
X18074819Y19369524D01*
X18074819Y19369524D02*
X18789104Y19036191D01*
X18789104Y19036191D02*
X18074819Y18702858D01*
X18074819Y18702858D02*
X19074819Y18702858D01*
X19074819Y18083810D02*
X19027200Y18179048D01*
X19027200Y18179048D02*
X18979580Y18226667D01*
X18979580Y18226667D02*
X18884342Y18274286D01*
X18884342Y18274286D02*
X18598628Y18274286D01*
X18598628Y18274286D02*
X18503390Y18226667D01*
X18503390Y18226667D02*
X18455771Y18179048D01*
X18455771Y18179048D02*
X18408152Y18083810D01*
X18408152Y18083810D02*
X18408152Y17940953D01*
X18408152Y17940953D02*
X18455771Y17845715D01*
X18455771Y17845715D02*
X18503390Y17798096D01*
X18503390Y17798096D02*
X18598628Y17750477D01*
X18598628Y17750477D02*
X18884342Y17750477D01*
X18884342Y17750477D02*
X18979580Y17798096D01*
X18979580Y17798096D02*
X19027200Y17845715D01*
X19027200Y17845715D02*
X19074819Y17940953D01*
X19074819Y17940953D02*
X19074819Y18083810D01*
X19074819Y16893334D02*
X18074819Y16893334D01*
X19027200Y16893334D02*
X19074819Y16988572D01*
X19074819Y16988572D02*
X19074819Y17179048D01*
X19074819Y17179048D02*
X19027200Y17274286D01*
X19027200Y17274286D02*
X18979580Y17321905D01*
X18979580Y17321905D02*
X18884342Y17369524D01*
X18884342Y17369524D02*
X18598628Y17369524D01*
X18598628Y17369524D02*
X18503390Y17321905D01*
X18503390Y17321905D02*
X18455771Y17274286D01*
X18455771Y17274286D02*
X18408152Y17179048D01*
X18408152Y17179048D02*
X18408152Y16988572D01*
X18408152Y16988572D02*
X18455771Y16893334D01*
X18408152Y15988572D02*
X19074819Y15988572D01*
X18408152Y16417143D02*
X18931961Y16417143D01*
X18931961Y16417143D02*
X19027200Y16369524D01*
X19027200Y16369524D02*
X19074819Y16274286D01*
X19074819Y16274286D02*
X19074819Y16131429D01*
X19074819Y16131429D02*
X19027200Y16036191D01*
X19027200Y16036191D02*
X18979580Y15988572D01*
X19074819Y15369524D02*
X19027200Y15464762D01*
X19027200Y15464762D02*
X18931961Y15512381D01*
X18931961Y15512381D02*
X18074819Y15512381D01*
X19027200Y14607619D02*
X19074819Y14702857D01*
X19074819Y14702857D02*
X19074819Y14893333D01*
X19074819Y14893333D02*
X19027200Y14988571D01*
X19027200Y14988571D02*
X18931961Y15036190D01*
X18931961Y15036190D02*
X18551009Y15036190D01*
X18551009Y15036190D02*
X18455771Y14988571D01*
X18455771Y14988571D02*
X18408152Y14893333D01*
X18408152Y14893333D02*
X18408152Y14702857D01*
X18408152Y14702857D02*
X18455771Y14607619D01*
X18455771Y14607619D02*
X18551009Y14560000D01*
X18551009Y14560000D02*
X18646247Y14560000D01*
X18646247Y14560000D02*
X18741485Y15036190D01*
X18074819Y14226666D02*
X18074819Y13607619D01*
X18074819Y13607619D02*
X18455771Y13940952D01*
X18455771Y13940952D02*
X18455771Y13798095D01*
X18455771Y13798095D02*
X18503390Y13702857D01*
X18503390Y13702857D02*
X18551009Y13655238D01*
X18551009Y13655238D02*
X18646247Y13607619D01*
X18646247Y13607619D02*
X18884342Y13607619D01*
X18884342Y13607619D02*
X18979580Y13655238D01*
X18979580Y13655238D02*
X19027200Y13702857D01*
X19027200Y13702857D02*
X19074819Y13798095D01*
X19074819Y13798095D02*
X19074819Y14083809D01*
X19074819Y14083809D02*
X19027200Y14179047D01*
X19027200Y14179047D02*
X18979580Y14226666D01*
X18074819Y12988571D02*
X18074819Y12893333D01*
X18074819Y12893333D02*
X18122438Y12798095D01*
X18122438Y12798095D02*
X18170057Y12750476D01*
X18170057Y12750476D02*
X18265295Y12702857D01*
X18265295Y12702857D02*
X18455771Y12655238D01*
X18455771Y12655238D02*
X18693866Y12655238D01*
X18693866Y12655238D02*
X18884342Y12702857D01*
X18884342Y12702857D02*
X18979580Y12750476D01*
X18979580Y12750476D02*
X19027200Y12798095D01*
X19027200Y12798095D02*
X19074819Y12893333D01*
X19074819Y12893333D02*
X19074819Y12988571D01*
X19074819Y12988571D02*
X19027200Y13083809D01*
X19027200Y13083809D02*
X18979580Y13131428D01*
X18979580Y13131428D02*
X18884342Y13179047D01*
X18884342Y13179047D02*
X18693866Y13226666D01*
X18693866Y13226666D02*
X18455771Y13226666D01*
X18455771Y13226666D02*
X18265295Y13179047D01*
X18265295Y13179047D02*
X18170057Y13131428D01*
X18170057Y13131428D02*
X18122438Y13083809D01*
X18122438Y13083809D02*
X18074819Y12988571D01*
X18170057Y12274285D02*
X18122438Y12226666D01*
X18122438Y12226666D02*
X18074819Y12131428D01*
X18074819Y12131428D02*
X18074819Y11893333D01*
X18074819Y11893333D02*
X18122438Y11798095D01*
X18122438Y11798095D02*
X18170057Y11750476D01*
X18170057Y11750476D02*
X18265295Y11702857D01*
X18265295Y11702857D02*
X18360533Y11702857D01*
X18360533Y11702857D02*
X18503390Y11750476D01*
X18503390Y11750476D02*
X19074819Y12321904D01*
X19074819Y12321904D02*
X19074819Y11702857D01*
D11*
%TO.C,Module301*%
X12450000Y51500000D02*
X12450000Y3500000D01*
X15950000Y0D02*
X48950000Y0D01*
X48010000Y36400000D02*
X50810000Y36400000D01*
X48010000Y35400000D02*
X48010000Y36400000D01*
X48010000Y14600000D02*
X48010000Y13600000D01*
X48010000Y13600000D02*
X50810000Y13600000D01*
X48950000Y55000000D02*
X15950000Y55000000D01*
X50810000Y35400000D02*
X50810000Y36400000D01*
X50810000Y14600000D02*
X50810000Y13600000D01*
X52450000Y3500000D02*
X52450000Y51500000D01*
X12450000Y51500000D02*
G75*
G02*
X15950000Y55000000I3500000J0D01*
G01*
X15950000Y0D02*
G75*
G02*
X12450000Y3500000I0J3500000D01*
G01*
X48950000Y55000000D02*
G75*
G02*
X52450000Y51500000I1J-3499999D01*
G01*
X52450000Y3500000D02*
G75*
G02*
X48950000Y0I-3499999J-1D01*
G01*
%TO.C,C702*%
X5590000Y20610000D02*
X5590000Y12550000D01*
X10110000Y20610000D02*
X5590000Y20610000D01*
X10110000Y12550000D02*
X10110000Y20610000D01*
D12*
%TO.C,kibuzzard-67602DFF*%
G36*
X2213305Y14958584D02*
G01*
X2258369Y14845923D01*
X2258369Y14616309D01*
X1945064Y14616309D01*
X1945064Y14848069D01*
X1983691Y14954292D01*
X2101717Y15004721D01*
X2213305Y14958584D01*
G37*
G36*
X2042436Y18390987D02*
G01*
X2165021Y18313734D01*
X2247908Y18200536D01*
X2275536Y18066953D01*
X2247908Y17931760D01*
X2165021Y17818026D01*
X2042436Y17740773D01*
X1895708Y17715021D01*
X1751931Y17741041D01*
X1629614Y17819099D01*
X1545923Y17932564D01*
X1518026Y18064807D01*
X1545118Y18201341D01*
X1626395Y18314807D01*
X1747908Y18391255D01*
X1895708Y18416738D01*
X2042436Y18390987D01*
G37*
G36*
X3211159Y21176395D02*
G01*
X3211159Y14223605D01*
X3211159Y13687124D01*
X588841Y13687124D01*
X588841Y14223605D01*
X588841Y14418884D01*
X1151073Y14418884D01*
X1166094Y14307296D01*
X1215451Y14247210D01*
X1274464Y14226824D01*
X1348498Y14223605D01*
X2455794Y14223605D01*
X2527682Y14226824D01*
X2586695Y14247210D01*
X2636052Y14307296D01*
X2651073Y14421030D01*
X2651073Y14848069D01*
X2642489Y14935515D01*
X2616738Y15026180D01*
X2574893Y15116309D01*
X2518026Y15202146D01*
X2442114Y15278594D01*
X2343133Y15340558D01*
X2226985Y15381599D01*
X2099571Y15395279D01*
X1972693Y15381867D01*
X1858155Y15341631D01*
X1760783Y15280204D01*
X1685408Y15203219D01*
X1628541Y15116309D01*
X1586695Y15025107D01*
X1560944Y14933637D01*
X1552361Y14845923D01*
X1552361Y14616309D01*
X1346352Y14616309D01*
X1272318Y14613090D01*
X1214378Y14592704D01*
X1166094Y14532618D01*
X1151073Y14418884D01*
X588841Y14418884D01*
X588841Y15680687D01*
X1148927Y15680687D01*
X1163948Y15569099D01*
X1213305Y15509013D01*
X1272318Y15488627D01*
X1346352Y15485408D01*
X2455794Y15485408D01*
X2527682Y15488627D01*
X2586695Y15509013D01*
X2636052Y15569099D01*
X2651073Y15682833D01*
X2636052Y15794421D01*
X2586695Y15854506D01*
X2527682Y15874893D01*
X2453648Y15878112D01*
X1344206Y15878112D01*
X1270172Y15874893D01*
X1212232Y15854506D01*
X1163948Y15794421D01*
X1148927Y15680687D01*
X588841Y15680687D01*
X588841Y16745064D01*
X1127468Y16745064D01*
X1133906Y16654131D01*
X1153219Y16557296D01*
X1187822Y16455901D01*
X1240129Y16351288D01*
X1307725Y16250697D01*
X1388197Y16161373D01*
X1487178Y16084925D01*
X1610300Y16022961D01*
X1752468Y15981921D01*
X1908584Y15968240D01*
X2058798Y15981652D01*
X2196137Y16021888D01*
X2315504Y16083047D01*
X2411803Y16159227D01*
X2490129Y16248552D01*
X2555579Y16349142D01*
X2606277Y16454292D01*
X2640343Y16557296D01*
X2659657Y16656813D01*
X2666094Y16751502D01*
X2652742Y16879304D01*
X2612685Y17010920D01*
X2545923Y17146352D01*
X2505150Y17204292D01*
X2460086Y17243991D01*
X2395708Y17264378D01*
X2275536Y17217167D01*
X2188627Y17136695D01*
X2159657Y17062661D01*
X2209013Y16946781D01*
X2218670Y16932833D01*
X2230472Y16914592D01*
X2242275Y16894206D01*
X2253004Y16865236D01*
X2261588Y16830901D01*
X2269099Y16787983D01*
X2271245Y16736481D01*
X2249785Y16614163D01*
X2186481Y16492918D01*
X2069528Y16397425D01*
X1989056Y16370064D01*
X1897854Y16360944D01*
X1780633Y16377307D01*
X1682189Y16426395D01*
X1606813Y16495869D01*
X1558798Y16573391D01*
X1524464Y16736481D01*
X1542167Y16849678D01*
X1595279Y16957511D01*
X1638197Y17064807D01*
X1607618Y17137768D01*
X1515880Y17215021D01*
X1391416Y17262232D01*
X1313090Y17232189D01*
X1247639Y17144206D01*
X1180877Y17016881D01*
X1140820Y16883834D01*
X1127468Y16745064D01*
X588841Y16745064D01*
X588841Y18075536D01*
X1125322Y18075536D01*
X1139270Y17925590D01*
X1181116Y17786910D01*
X1250858Y17659496D01*
X1348498Y17543348D01*
X1465853Y17446647D01*
X1594742Y17377575D01*
X1735166Y17336132D01*
X1887124Y17322318D01*
X2044045Y17335730D01*
X2188627Y17375966D01*
X2320869Y17443026D01*
X2440773Y17536910D01*
X2540290Y17649973D01*
X2611373Y17774571D01*
X2654024Y17910703D01*
X2668240Y18058369D01*
X2654225Y18209120D01*
X2612178Y18348069D01*
X2542100Y18475215D01*
X2443991Y18590558D01*
X2325630Y18686320D01*
X2194796Y18754721D01*
X2051489Y18795762D01*
X1895708Y18809442D01*
X1742610Y18795963D01*
X1600912Y18755526D01*
X1470614Y18688130D01*
X1351717Y18593777D01*
X1252669Y18480512D01*
X1181921Y18356384D01*
X1139472Y18221392D01*
X1125322Y18075536D01*
X588841Y18075536D01*
X588841Y19064807D01*
X588841Y19839485D01*
X1144635Y19839485D01*
X1144635Y19064807D01*
X1203648Y18927468D01*
X1344206Y18869528D01*
X1453112Y18888841D01*
X1552361Y18946781D01*
X1628809Y19021352D01*
X1707940Y19124893D01*
X1781706Y19238090D01*
X1842060Y19341631D01*
X1902146Y19434710D01*
X1975107Y19516524D01*
X2055579Y19573659D01*
X2138197Y19592704D01*
X2195064Y19585193D01*
X2250858Y19537983D01*
X2279828Y19429614D01*
X2235300Y19304077D01*
X2101717Y19262232D01*
X2033047Y19259013D01*
X1978326Y19238627D01*
X1933262Y19178541D01*
X1919313Y19064807D01*
X1934335Y18953219D01*
X1983691Y18893133D01*
X2042704Y18872747D01*
X2116738Y18869528D01*
X2253839Y18886695D01*
X2381879Y18938197D01*
X2500858Y19024034D01*
X2596233Y19137530D01*
X2653457Y19272008D01*
X2672532Y19427468D01*
X2654173Y19575536D01*
X2599094Y19707868D01*
X2507296Y19824464D01*
X2389270Y19915069D01*
X2255508Y19969433D01*
X2106009Y19987554D01*
X1997639Y19977092D01*
X1895708Y19945708D01*
X1804506Y19897157D01*
X1728326Y19835193D01*
X1615665Y19704292D01*
X1539485Y19575536D01*
X1539485Y19843777D01*
X1535193Y19917811D01*
X1513734Y19975751D01*
X1453648Y20024034D01*
X1339914Y20039056D01*
X1229399Y20024034D01*
X1170386Y19974678D01*
X1148927Y19913519D01*
X1144635Y19839485D01*
X588841Y19839485D01*
X588841Y20976824D01*
X1151073Y20976824D01*
X1166094Y20865236D01*
X1215451Y20805150D01*
X1274464Y20784764D01*
X1348498Y20781545D01*
X1571674Y20781545D01*
X1571674Y20260086D01*
X1586695Y20148498D01*
X1636052Y20088412D01*
X1695064Y20068026D01*
X1769099Y20064807D01*
X1837768Y20071245D01*
X2505150Y20236481D01*
X2646781Y20316953D01*
X2644635Y20478970D01*
X2582403Y20603433D01*
X2487983Y20633476D01*
X1940773Y20500429D01*
X1940773Y20781545D01*
X2466524Y20781545D01*
X2537339Y20784764D01*
X2593133Y20805150D01*
X2639270Y20866309D01*
X2653219Y20981116D01*
X2638197Y21092704D01*
X2588841Y21151717D01*
X2528755Y21172103D01*
X2455794Y21176395D01*
X1346352Y21176395D01*
X1272318Y21172103D01*
X1213305Y21150644D01*
X1166094Y21090558D01*
X1151073Y20976824D01*
X588841Y20976824D01*
X588841Y21176395D01*
X588841Y21712876D01*
X3211159Y21712876D01*
X3211159Y21176395D01*
G37*
D11*
%TO.C,Module302*%
X12450000Y51500000D02*
X12450000Y3500000D01*
X14010000Y36400000D02*
X16890000Y36400000D01*
X14010000Y35400000D02*
X14010000Y36400000D01*
X14010000Y14600000D02*
X14010000Y13600000D01*
X14010000Y13600000D02*
X16890000Y13600000D01*
X15950000Y0D02*
X48950000Y0D01*
X16890000Y35400000D02*
X16890000Y36400000D01*
X16890000Y14600000D02*
X16890000Y13600000D01*
X48950000Y55000000D02*
X15950000Y55000000D01*
X52450000Y3500000D02*
X52450000Y51500000D01*
X12450000Y51500000D02*
G75*
G02*
X15950000Y55000000I3500000J0D01*
G01*
X15950000Y0D02*
G75*
G02*
X12450000Y3500000I0J3500000D01*
G01*
X48950000Y55000000D02*
G75*
G02*
X52450000Y51500000I1J-3499999D01*
G01*
X52450000Y3500000D02*
G75*
G02*
X48950000Y0I-3499999J-1D01*
G01*
%TD*%
%LPC*%
D13*
%TO.C,T401*%
X15770000Y41480000D03*
X15770000Y48480000D03*
%TD*%
D14*
%TO.C,SW602*%
X52550000Y14300000D03*
%TD*%
%TO.C,SW601*%
X52550000Y9500000D03*
%TD*%
D15*
%TO.C,TP104*%
X18750000Y33200000D03*
%TD*%
D16*
%TO.C,H101*%
X2450000Y24100000D03*
D17*
X2450000Y24100000D03*
%TD*%
D18*
%TO.C,U503*%
X26740000Y13835000D03*
X31820000Y14851000D03*
X31820000Y12819000D03*
%TD*%
D14*
%TO.C,J101*%
X11430000Y30400000D03*
X4270000Y30400000D03*
D19*
X10900000Y28370000D03*
X10900000Y32430000D03*
X4800000Y28370000D03*
X4800000Y32430000D03*
%TD*%
D15*
%TO.C,TP105*%
X41950000Y24400000D03*
%TD*%
D20*
%TO.C,J501*%
X28050000Y9500000D03*
X13550000Y9500000D03*
D21*
X13550000Y3540000D03*
X28050000Y3540000D03*
%TD*%
D14*
%TO.C,USB701*%
X11430000Y18850000D03*
X4270000Y18850000D03*
D19*
X10900000Y16820000D03*
X10900000Y20880000D03*
X4800000Y16820000D03*
X4800000Y20880000D03*
%TD*%
D15*
%TO.C,TP106*%
X49250000Y12800000D03*
%TD*%
D22*
%TO.C,Module301*%
X48950000Y3500000D03*
X48950000Y51500000D03*
D23*
X50990000Y34800000D03*
X47910000Y34800000D03*
X50990000Y34400000D03*
X47910000Y34400000D03*
X50990000Y34000000D03*
X47910000Y34000000D03*
X50990000Y33600000D03*
X47910000Y33600000D03*
X50990000Y33200000D03*
X47910000Y33200000D03*
X50990000Y32800000D03*
X47910000Y32800000D03*
X50990000Y32400000D03*
X47910000Y32400000D03*
X50990000Y32000000D03*
X47910000Y32000000D03*
X50990000Y31600000D03*
X47910000Y31600000D03*
X50990000Y31200000D03*
X47910000Y31200000D03*
X50990000Y30800000D03*
X47910000Y30800000D03*
X50990000Y30400000D03*
X47910000Y30400000D03*
X50990000Y30000000D03*
X47910000Y30000000D03*
X50990000Y29600000D03*
X47910000Y29600000D03*
X50990000Y29200000D03*
X47910000Y29200000D03*
X50990000Y28800000D03*
X47910000Y28800000D03*
X50990000Y28400000D03*
X47910000Y28400000D03*
X50990000Y28000000D03*
X47910000Y28000000D03*
X50990000Y27600000D03*
X47910000Y27600000D03*
X50990000Y27200000D03*
X47910000Y27200000D03*
X50990000Y26800000D03*
X47910000Y26800000D03*
X50990000Y26400000D03*
X47910000Y26400000D03*
X50990000Y26000000D03*
X47910000Y26000000D03*
X50990000Y25600000D03*
X47910000Y25600000D03*
X50990000Y25200000D03*
X47910000Y25200000D03*
X50990000Y24800000D03*
X47910000Y24800000D03*
X50990000Y24400000D03*
X47910000Y24400000D03*
X50990000Y24000000D03*
X47910000Y24000000D03*
X50990000Y23600000D03*
X47910000Y23600000D03*
X50990000Y23200000D03*
X47910000Y23200000D03*
X50990000Y22800000D03*
X47910000Y22800000D03*
X50990000Y22400000D03*
X47910000Y22400000D03*
X50990000Y22000000D03*
X47910000Y22000000D03*
X50990000Y21600000D03*
X47910000Y21600000D03*
X50990000Y21200000D03*
X47910000Y21200000D03*
X50990000Y20800000D03*
X47910000Y20800000D03*
X50990000Y20400000D03*
X47910000Y20400000D03*
X50990000Y20000000D03*
X47910000Y20000000D03*
X50990000Y19600000D03*
X47910000Y19600000D03*
X50990000Y19200000D03*
X47910000Y19200000D03*
X50990000Y18800000D03*
X47910000Y18800000D03*
X50990000Y18400000D03*
X47910000Y18400000D03*
X50990000Y18000000D03*
X47910000Y18000000D03*
X50990000Y17600000D03*
X47910000Y17600000D03*
X50990000Y17200000D03*
X47910000Y17200000D03*
X50990000Y16800000D03*
X47910000Y16800000D03*
X50990000Y16400000D03*
X47910000Y16400000D03*
X50990000Y16000000D03*
X47910000Y16000000D03*
X50990000Y15600000D03*
X47910000Y15600000D03*
X50990000Y15200000D03*
X47910000Y15200000D03*
%TD*%
D24*
%TO.C,C702*%
X7850000Y19312500D03*
X7850000Y13087500D03*
%TD*%
D22*
%TO.C,Module302*%
X48950000Y3500000D03*
X48950000Y51500000D03*
D23*
X16990000Y34800000D03*
X13910000Y34800000D03*
X16990000Y34400000D03*
X13910000Y34400000D03*
X16990000Y34000000D03*
X13910000Y34000000D03*
X16990000Y33600000D03*
X13910000Y33600000D03*
X16990000Y33200000D03*
X13910000Y33200000D03*
X16990000Y32800000D03*
X13910000Y32800000D03*
X16990000Y32400000D03*
X13910000Y32400000D03*
X16990000Y32000000D03*
X13910000Y32000000D03*
X16990000Y31600000D03*
X13910000Y31600000D03*
X16990000Y31200000D03*
X13910000Y31200000D03*
X16990000Y30800000D03*
X13910000Y30800000D03*
X16990000Y30400000D03*
X13910000Y30400000D03*
X16990000Y30000000D03*
X13910000Y30000000D03*
X16990000Y29600000D03*
X13910000Y29600000D03*
X16990000Y29200000D03*
X13910000Y29200000D03*
X16990000Y28800000D03*
X13910000Y28800000D03*
X16990000Y28400000D03*
X13910000Y28400000D03*
X16990000Y28000000D03*
X13910000Y28000000D03*
X16990000Y27600000D03*
X13910000Y27600000D03*
X16990000Y27200000D03*
X13910000Y27200000D03*
X16990000Y26800000D03*
X13910000Y26800000D03*
X16990000Y26400000D03*
X13910000Y26400000D03*
X16990000Y26000000D03*
X13910000Y26000000D03*
X16990000Y25600000D03*
X13910000Y25600000D03*
X16990000Y25200000D03*
X13910000Y25200000D03*
X16990000Y24800000D03*
X13910000Y24800000D03*
X16990000Y24400000D03*
X13910000Y24400000D03*
X16990000Y24000000D03*
X13910000Y24000000D03*
X16990000Y23600000D03*
X13910000Y23600000D03*
X16990000Y23200000D03*
X13910000Y23200000D03*
X16990000Y22800000D03*
X13910000Y22800000D03*
X16990000Y22400000D03*
X13910000Y22400000D03*
X16990000Y22000000D03*
X13910000Y22000000D03*
X16990000Y21600000D03*
X13910000Y21600000D03*
X16990000Y21200000D03*
X13910000Y21200000D03*
X16990000Y20800000D03*
X13910000Y20800000D03*
X16990000Y20400000D03*
X13910000Y20400000D03*
X16990000Y20000000D03*
X13910000Y20000000D03*
X16990000Y19600000D03*
X13910000Y19600000D03*
X16990000Y19200000D03*
X13910000Y19200000D03*
X16990000Y18800000D03*
X13910000Y18800000D03*
X16990000Y18400000D03*
X13910000Y18400000D03*
X16990000Y18000000D03*
X13910000Y18000000D03*
X16990000Y17600000D03*
X13910000Y17600000D03*
X16990000Y17200000D03*
X13910000Y17200000D03*
X16990000Y16800000D03*
X13910000Y16800000D03*
X16990000Y16400000D03*
X13910000Y16400000D03*
X16990000Y16000000D03*
X13910000Y16000000D03*
X16990000Y15600000D03*
X13910000Y15600000D03*
X16990000Y15200000D03*
X13910000Y15200000D03*
%TD*%
%LPD*%
M02*
