%TF.GenerationSoftware,KiCad,Pcbnew,8.0.7*%
%TF.CreationDate,2024-12-14T14:48:29+01:00*%
%TF.ProjectId,CM5_CB,434d355f-4342-42e6-9b69-6361645f7063,rev?*%
%TF.SameCoordinates,Original*%
%TF.FileFunction,Paste,Bot*%
%TF.FilePolarity,Positive*%
%FSLAX46Y46*%
G04 Gerber Fmt 4.6, Leading zero omitted, Abs format (unit mm)*
G04 Created by KiCad (PCBNEW 8.0.7) date 2024-12-14 14:48:29*
%MOMM*%
%LPD*%
G01*
G04 APERTURE LIST*
%ADD10R,0.700000X0.200000*%
G04 APERTURE END LIST*
D10*
%TO.C,Module302*%
X95290000Y-46300000D03*
X92210000Y-46300000D03*
X95290000Y-46700000D03*
X92210000Y-46700000D03*
X95290000Y-47100000D03*
X92210000Y-47100000D03*
X95290000Y-47500000D03*
X92210000Y-47500000D03*
X95290000Y-47900000D03*
X92210000Y-47900000D03*
X95290000Y-48300000D03*
X92210000Y-48300000D03*
X95290000Y-48700000D03*
X92210000Y-48700000D03*
X95290000Y-49100000D03*
X92210000Y-49100000D03*
X95290000Y-49500000D03*
X92210000Y-49500000D03*
X95290000Y-49900000D03*
X92210000Y-49900000D03*
X95290000Y-50300000D03*
X92210000Y-50300000D03*
X95290000Y-50700000D03*
X92210000Y-50700000D03*
X95290000Y-51100000D03*
X92210000Y-51100000D03*
X95290000Y-51500000D03*
X92210000Y-51500000D03*
X95290000Y-51900000D03*
X92210000Y-51900000D03*
X95290000Y-52300000D03*
X92210000Y-52300000D03*
X95290000Y-52700000D03*
X92210000Y-52700000D03*
X95290000Y-53100000D03*
X92210000Y-53100000D03*
X95290000Y-53500000D03*
X92210000Y-53500000D03*
X95290000Y-53900000D03*
X92210000Y-53900000D03*
X95290000Y-54300000D03*
X92210000Y-54300000D03*
X95290000Y-54700000D03*
X92210000Y-54700000D03*
X95290000Y-55100000D03*
X92210000Y-55100000D03*
X95290000Y-55500000D03*
X92210000Y-55500000D03*
X95290000Y-55900000D03*
X92210000Y-55900000D03*
X95290000Y-56300000D03*
X92210000Y-56300000D03*
X95290000Y-56700000D03*
X92210000Y-56700000D03*
X95290000Y-57100000D03*
X92210000Y-57100000D03*
X95290000Y-57500000D03*
X92210000Y-57500000D03*
X95290000Y-57900000D03*
X92210000Y-57900000D03*
X95290000Y-58300000D03*
X92210000Y-58300000D03*
X95290000Y-58700000D03*
X92210000Y-58700000D03*
X95290000Y-59100000D03*
X92210000Y-59100000D03*
X95290000Y-59500000D03*
X92210000Y-59500000D03*
X95290000Y-59900000D03*
X92210000Y-59900000D03*
X95290000Y-60300000D03*
X92210000Y-60300000D03*
X95290000Y-60700000D03*
X92210000Y-60700000D03*
X95290000Y-61100000D03*
X92210000Y-61100000D03*
X95290000Y-61500000D03*
X92210000Y-61500000D03*
X95290000Y-61900000D03*
X92210000Y-61900000D03*
X95290000Y-62300000D03*
X92210000Y-62300000D03*
X95290000Y-62700000D03*
X92210000Y-62700000D03*
X95290000Y-63100000D03*
X92210000Y-63100000D03*
X95290000Y-63500000D03*
X92210000Y-63500000D03*
X95290000Y-63900000D03*
X92210000Y-63900000D03*
X95290000Y-64300000D03*
X92210000Y-64300000D03*
X95290000Y-64700000D03*
X92210000Y-64700000D03*
X95290000Y-65100000D03*
X92210000Y-65100000D03*
X95290000Y-65500000D03*
X92210000Y-65500000D03*
X95290000Y-65900000D03*
X92210000Y-65900000D03*
%TD*%
%TO.C,Module301*%
X126210000Y-65900000D03*
X129290000Y-65900000D03*
X126210000Y-65500000D03*
X129290000Y-65500000D03*
X126210000Y-65100000D03*
X129290000Y-65100000D03*
X126210000Y-64700000D03*
X129290000Y-64700000D03*
X126210000Y-64300000D03*
X129290000Y-64300000D03*
X126210000Y-63900000D03*
X129290000Y-63900000D03*
X126210000Y-63500000D03*
X129290000Y-63500000D03*
X126210000Y-63100000D03*
X129290000Y-63100000D03*
X126210000Y-62700000D03*
X129290000Y-62700000D03*
X126210000Y-62300000D03*
X129290000Y-62300000D03*
X126210000Y-61900000D03*
X129290000Y-61900000D03*
X126210000Y-61500000D03*
X129290000Y-61500000D03*
X126210000Y-61100000D03*
X129290000Y-61100000D03*
X126210000Y-60700000D03*
X129290000Y-60700000D03*
X126210000Y-60300000D03*
X129290000Y-60300000D03*
X126210000Y-59900000D03*
X129290000Y-59900000D03*
X126210000Y-59500000D03*
X129290000Y-59500000D03*
X126210000Y-59100000D03*
X129290000Y-59100000D03*
X126210000Y-58700000D03*
X129290000Y-58700000D03*
X126210000Y-58300000D03*
X129290000Y-58300000D03*
X126210000Y-57900000D03*
X129290000Y-57900000D03*
X126210000Y-57500000D03*
X129290000Y-57500000D03*
X126210000Y-57100000D03*
X129290000Y-57100000D03*
X126210000Y-56700000D03*
X129290000Y-56700000D03*
X126210000Y-56300000D03*
X129290000Y-56300000D03*
X126210000Y-55900000D03*
X129290000Y-55900000D03*
X126210000Y-55500000D03*
X129290000Y-55500000D03*
X126210000Y-55100000D03*
X129290000Y-55100000D03*
X126210000Y-54700000D03*
X129290000Y-54700000D03*
X126210000Y-54300000D03*
X129290000Y-54300000D03*
X126210000Y-53900000D03*
X129290000Y-53900000D03*
X126210000Y-53500000D03*
X129290000Y-53500000D03*
X126210000Y-53100000D03*
X129290000Y-53100000D03*
X126210000Y-52700000D03*
X129290000Y-52700000D03*
X126210000Y-52300000D03*
X129290000Y-52300000D03*
X126210000Y-51900000D03*
X129290000Y-51900000D03*
X126210000Y-51500000D03*
X129290000Y-51500000D03*
X126210000Y-51100000D03*
X129290000Y-51100000D03*
X126210000Y-50700000D03*
X129290000Y-50700000D03*
X126210000Y-50300000D03*
X129290000Y-50300000D03*
X126210000Y-49900000D03*
X129290000Y-49900000D03*
X126210000Y-49500000D03*
X129290000Y-49500000D03*
X126210000Y-49100000D03*
X129290000Y-49100000D03*
X126210000Y-48700000D03*
X129290000Y-48700000D03*
X126210000Y-48300000D03*
X129290000Y-48300000D03*
X126210000Y-47900000D03*
X129290000Y-47900000D03*
X126210000Y-47500000D03*
X129290000Y-47500000D03*
X126210000Y-47100000D03*
X129290000Y-47100000D03*
X126210000Y-46700000D03*
X129290000Y-46700000D03*
X126210000Y-46300000D03*
X129290000Y-46300000D03*
%TD*%
M02*
