%TF.GenerationSoftware,KiCad,Pcbnew,8.0.7*%
%TF.CreationDate,2024-12-14T14:48:29+01:00*%
%TF.ProjectId,CM5_CB,434d355f-4342-42e6-9b69-6361645f7063,rev?*%
%TF.SameCoordinates,Original*%
%TF.FileFunction,Legend,Top*%
%TF.FilePolarity,Positive*%
%FSLAX46Y46*%
G04 Gerber Fmt 4.6, Leading zero omitted, Abs format (unit mm)*
G04 Created by KiCad (PCBNEW 8.0.7) date 2024-12-14 14:48:29*
%MOMM*%
%LPD*%
G01*
G04 APERTURE LIST*
G04 Aperture macros list*
%AMRoundRect*
0 Rectangle with rounded corners*
0 $1 Rounding radius*
0 $2 $3 $4 $5 $6 $7 $8 $9 X,Y pos of 4 corners*
0 Add a 4 corners polygon primitive as box body*
4,1,4,$2,$3,$4,$5,$6,$7,$8,$9,$2,$3,0*
0 Add four circle primitives for the rounded corners*
1,1,$1+$1,$2,$3*
1,1,$1+$1,$4,$5*
1,1,$1+$1,$6,$7*
1,1,$1+$1,$8,$9*
0 Add four rect primitives between the rounded corners*
20,1,$1+$1,$2,$3,$4,$5,0*
20,1,$1+$1,$4,$5,$6,$7,0*
20,1,$1+$1,$6,$7,$8,$9,0*
20,1,$1+$1,$8,$9,$2,$3,0*%
G04 Aperture macros list end*
%ADD10C,0.150000*%
%ADD11C,0.050000*%
%ADD12C,0.254000*%
%ADD13C,0.000000*%
%ADD14C,0.120000*%
%ADD15C,0.250000*%
%ADD16C,0.300000*%
%ADD17C,0.200000*%
%ADD18C,0.127000*%
%ADD19C,0.400000*%
%ADD20C,0.100000*%
%ADD21RoundRect,0.140000X0.170000X-0.140000X0.170000X0.140000X-0.170000X0.140000X-0.170000X-0.140000X0*%
%ADD22RoundRect,0.250000X0.250000X0.475000X-0.250000X0.475000X-0.250000X-0.475000X0.250000X-0.475000X0*%
%ADD23RoundRect,0.087500X0.087500X-0.187500X0.087500X0.187500X-0.087500X0.187500X-0.087500X-0.187500X0*%
%ADD24RoundRect,0.175000X0.625000X-0.175000X0.625000X0.175000X-0.625000X0.175000X-0.625000X-0.175000X0*%
%ADD25R,1.800000X0.800000*%
%ADD26R,0.800000X1.800000*%
%ADD27RoundRect,0.250000X0.475000X-0.250000X0.475000X0.250000X-0.475000X0.250000X-0.475000X-0.250000X0*%
%ADD28RoundRect,0.135000X-0.135000X-0.185000X0.135000X-0.185000X0.135000X0.185000X-0.135000X0.185000X0*%
%ADD29RoundRect,0.250000X0.450000X-0.350000X0.450000X0.350000X-0.450000X0.350000X-0.450000X-0.350000X0*%
%ADD30C,6.100000*%
%ADD31C,0.800000*%
%ADD32R,1.700000X0.900000*%
%ADD33R,1.100000X0.800000*%
%ADD34C,0.650000*%
%ADD35RoundRect,0.150000X-0.425000X0.150000X-0.425000X-0.150000X0.425000X-0.150000X0.425000X0.150000X0*%
%ADD36RoundRect,0.075000X-0.500000X0.075000X-0.500000X-0.075000X0.500000X-0.075000X0.500000X0.075000X0*%
%ADD37O,2.100000X1.000000*%
%ADD38O,1.800000X1.000000*%
%ADD39RoundRect,0.140000X-0.140000X-0.170000X0.140000X-0.170000X0.140000X0.170000X-0.140000X0.170000X0*%
%ADD40O,1.500000X2.300000*%
%ADD41O,1.500000X3.300000*%
%ADD42R,0.300000X2.600000*%
%ADD43RoundRect,0.162500X0.162500X-0.837500X0.162500X0.837500X-0.162500X0.837500X-0.162500X-0.837500X0*%
%ADD44RoundRect,0.150000X0.625000X-0.150000X0.625000X0.150000X-0.625000X0.150000X-0.625000X-0.150000X0*%
%ADD45RoundRect,0.250000X0.650000X-0.350000X0.650000X0.350000X-0.650000X0.350000X-0.650000X-0.350000X0*%
%ADD46RoundRect,0.150000X0.587500X0.150000X-0.587500X0.150000X-0.587500X-0.150000X0.587500X-0.150000X0*%
%ADD47RoundRect,0.135000X0.135000X0.185000X-0.135000X0.185000X-0.135000X-0.185000X0.135000X-0.185000X0*%
%ADD48RoundRect,0.075000X0.200000X-0.075000X0.200000X0.075000X-0.200000X0.075000X-0.200000X-0.075000X0*%
%ADD49RoundRect,0.100000X-0.225000X-0.100000X0.225000X-0.100000X0.225000X0.100000X-0.225000X0.100000X0*%
%ADD50RoundRect,0.102000X1.500000X-0.700000X1.500000X0.700000X-1.500000X0.700000X-1.500000X-0.700000X0*%
%ADD51RoundRect,0.102000X1.500000X-0.355000X1.500000X0.355000X-1.500000X0.355000X-1.500000X-0.355000X0*%
%ADD52C,1.400000*%
%ADD53R,0.500000X0.400000*%
%ADD54R,0.600000X0.600000*%
G04 APERTURE END LIST*
D10*
X118449580Y-50569047D02*
X118497200Y-50616666D01*
X118497200Y-50616666D02*
X118544819Y-50759523D01*
X118544819Y-50759523D02*
X118544819Y-50854761D01*
X118544819Y-50854761D02*
X118497200Y-50997618D01*
X118497200Y-50997618D02*
X118401961Y-51092856D01*
X118401961Y-51092856D02*
X118306723Y-51140475D01*
X118306723Y-51140475D02*
X118116247Y-51188094D01*
X118116247Y-51188094D02*
X117973390Y-51188094D01*
X117973390Y-51188094D02*
X117782914Y-51140475D01*
X117782914Y-51140475D02*
X117687676Y-51092856D01*
X117687676Y-51092856D02*
X117592438Y-50997618D01*
X117592438Y-50997618D02*
X117544819Y-50854761D01*
X117544819Y-50854761D02*
X117544819Y-50759523D01*
X117544819Y-50759523D02*
X117592438Y-50616666D01*
X117592438Y-50616666D02*
X117640057Y-50569047D01*
X117544819Y-49664285D02*
X117544819Y-50140475D01*
X117544819Y-50140475D02*
X118021009Y-50188094D01*
X118021009Y-50188094D02*
X117973390Y-50140475D01*
X117973390Y-50140475D02*
X117925771Y-50045237D01*
X117925771Y-50045237D02*
X117925771Y-49807142D01*
X117925771Y-49807142D02*
X117973390Y-49711904D01*
X117973390Y-49711904D02*
X118021009Y-49664285D01*
X118021009Y-49664285D02*
X118116247Y-49616666D01*
X118116247Y-49616666D02*
X118354342Y-49616666D01*
X118354342Y-49616666D02*
X118449580Y-49664285D01*
X118449580Y-49664285D02*
X118497200Y-49711904D01*
X118497200Y-49711904D02*
X118544819Y-49807142D01*
X118544819Y-49807142D02*
X118544819Y-50045237D01*
X118544819Y-50045237D02*
X118497200Y-50140475D01*
X118497200Y-50140475D02*
X118449580Y-50188094D01*
X117544819Y-48997618D02*
X117544819Y-48902380D01*
X117544819Y-48902380D02*
X117592438Y-48807142D01*
X117592438Y-48807142D02*
X117640057Y-48759523D01*
X117640057Y-48759523D02*
X117735295Y-48711904D01*
X117735295Y-48711904D02*
X117925771Y-48664285D01*
X117925771Y-48664285D02*
X118163866Y-48664285D01*
X118163866Y-48664285D02*
X118354342Y-48711904D01*
X118354342Y-48711904D02*
X118449580Y-48759523D01*
X118449580Y-48759523D02*
X118497200Y-48807142D01*
X118497200Y-48807142D02*
X118544819Y-48902380D01*
X118544819Y-48902380D02*
X118544819Y-48997618D01*
X118544819Y-48997618D02*
X118497200Y-49092856D01*
X118497200Y-49092856D02*
X118449580Y-49140475D01*
X118449580Y-49140475D02*
X118354342Y-49188094D01*
X118354342Y-49188094D02*
X118163866Y-49235713D01*
X118163866Y-49235713D02*
X117925771Y-49235713D01*
X117925771Y-49235713D02*
X117735295Y-49188094D01*
X117735295Y-49188094D02*
X117640057Y-49140475D01*
X117640057Y-49140475D02*
X117592438Y-49092856D01*
X117592438Y-49092856D02*
X117544819Y-48997618D01*
X117544819Y-47759523D02*
X117544819Y-48235713D01*
X117544819Y-48235713D02*
X118021009Y-48283332D01*
X118021009Y-48283332D02*
X117973390Y-48235713D01*
X117973390Y-48235713D02*
X117925771Y-48140475D01*
X117925771Y-48140475D02*
X117925771Y-47902380D01*
X117925771Y-47902380D02*
X117973390Y-47807142D01*
X117973390Y-47807142D02*
X118021009Y-47759523D01*
X118021009Y-47759523D02*
X118116247Y-47711904D01*
X118116247Y-47711904D02*
X118354342Y-47711904D01*
X118354342Y-47711904D02*
X118449580Y-47759523D01*
X118449580Y-47759523D02*
X118497200Y-47807142D01*
X118497200Y-47807142D02*
X118544819Y-47902380D01*
X118544819Y-47902380D02*
X118544819Y-48140475D01*
X118544819Y-48140475D02*
X118497200Y-48235713D01*
X118497200Y-48235713D02*
X118449580Y-48283332D01*
X117499580Y-50569047D02*
X117547200Y-50616666D01*
X117547200Y-50616666D02*
X117594819Y-50759523D01*
X117594819Y-50759523D02*
X117594819Y-50854761D01*
X117594819Y-50854761D02*
X117547200Y-50997618D01*
X117547200Y-50997618D02*
X117451961Y-51092856D01*
X117451961Y-51092856D02*
X117356723Y-51140475D01*
X117356723Y-51140475D02*
X117166247Y-51188094D01*
X117166247Y-51188094D02*
X117023390Y-51188094D01*
X117023390Y-51188094D02*
X116832914Y-51140475D01*
X116832914Y-51140475D02*
X116737676Y-51092856D01*
X116737676Y-51092856D02*
X116642438Y-50997618D01*
X116642438Y-50997618D02*
X116594819Y-50854761D01*
X116594819Y-50854761D02*
X116594819Y-50759523D01*
X116594819Y-50759523D02*
X116642438Y-50616666D01*
X116642438Y-50616666D02*
X116690057Y-50569047D01*
X116594819Y-49664285D02*
X116594819Y-50140475D01*
X116594819Y-50140475D02*
X117071009Y-50188094D01*
X117071009Y-50188094D02*
X117023390Y-50140475D01*
X117023390Y-50140475D02*
X116975771Y-50045237D01*
X116975771Y-50045237D02*
X116975771Y-49807142D01*
X116975771Y-49807142D02*
X117023390Y-49711904D01*
X117023390Y-49711904D02*
X117071009Y-49664285D01*
X117071009Y-49664285D02*
X117166247Y-49616666D01*
X117166247Y-49616666D02*
X117404342Y-49616666D01*
X117404342Y-49616666D02*
X117499580Y-49664285D01*
X117499580Y-49664285D02*
X117547200Y-49711904D01*
X117547200Y-49711904D02*
X117594819Y-49807142D01*
X117594819Y-49807142D02*
X117594819Y-50045237D01*
X117594819Y-50045237D02*
X117547200Y-50140475D01*
X117547200Y-50140475D02*
X117499580Y-50188094D01*
X116594819Y-48997618D02*
X116594819Y-48902380D01*
X116594819Y-48902380D02*
X116642438Y-48807142D01*
X116642438Y-48807142D02*
X116690057Y-48759523D01*
X116690057Y-48759523D02*
X116785295Y-48711904D01*
X116785295Y-48711904D02*
X116975771Y-48664285D01*
X116975771Y-48664285D02*
X117213866Y-48664285D01*
X117213866Y-48664285D02*
X117404342Y-48711904D01*
X117404342Y-48711904D02*
X117499580Y-48759523D01*
X117499580Y-48759523D02*
X117547200Y-48807142D01*
X117547200Y-48807142D02*
X117594819Y-48902380D01*
X117594819Y-48902380D02*
X117594819Y-48997618D01*
X117594819Y-48997618D02*
X117547200Y-49092856D01*
X117547200Y-49092856D02*
X117499580Y-49140475D01*
X117499580Y-49140475D02*
X117404342Y-49188094D01*
X117404342Y-49188094D02*
X117213866Y-49235713D01*
X117213866Y-49235713D02*
X116975771Y-49235713D01*
X116975771Y-49235713D02*
X116785295Y-49188094D01*
X116785295Y-49188094D02*
X116690057Y-49140475D01*
X116690057Y-49140475D02*
X116642438Y-49092856D01*
X116642438Y-49092856D02*
X116594819Y-48997618D01*
X116928152Y-47807142D02*
X117594819Y-47807142D01*
X116547200Y-48045237D02*
X117261485Y-48283332D01*
X117261485Y-48283332D02*
X117261485Y-47664285D01*
X115430952Y-48689580D02*
X115383333Y-48737200D01*
X115383333Y-48737200D02*
X115240476Y-48784819D01*
X115240476Y-48784819D02*
X115145238Y-48784819D01*
X115145238Y-48784819D02*
X115002381Y-48737200D01*
X115002381Y-48737200D02*
X114907143Y-48641961D01*
X114907143Y-48641961D02*
X114859524Y-48546723D01*
X114859524Y-48546723D02*
X114811905Y-48356247D01*
X114811905Y-48356247D02*
X114811905Y-48213390D01*
X114811905Y-48213390D02*
X114859524Y-48022914D01*
X114859524Y-48022914D02*
X114907143Y-47927676D01*
X114907143Y-47927676D02*
X115002381Y-47832438D01*
X115002381Y-47832438D02*
X115145238Y-47784819D01*
X115145238Y-47784819D02*
X115240476Y-47784819D01*
X115240476Y-47784819D02*
X115383333Y-47832438D01*
X115383333Y-47832438D02*
X115430952Y-47880057D01*
X116335714Y-47784819D02*
X115859524Y-47784819D01*
X115859524Y-47784819D02*
X115811905Y-48261009D01*
X115811905Y-48261009D02*
X115859524Y-48213390D01*
X115859524Y-48213390D02*
X115954762Y-48165771D01*
X115954762Y-48165771D02*
X116192857Y-48165771D01*
X116192857Y-48165771D02*
X116288095Y-48213390D01*
X116288095Y-48213390D02*
X116335714Y-48261009D01*
X116335714Y-48261009D02*
X116383333Y-48356247D01*
X116383333Y-48356247D02*
X116383333Y-48594342D01*
X116383333Y-48594342D02*
X116335714Y-48689580D01*
X116335714Y-48689580D02*
X116288095Y-48737200D01*
X116288095Y-48737200D02*
X116192857Y-48784819D01*
X116192857Y-48784819D02*
X115954762Y-48784819D01*
X115954762Y-48784819D02*
X115859524Y-48737200D01*
X115859524Y-48737200D02*
X115811905Y-48689580D01*
X117002381Y-47784819D02*
X117097619Y-47784819D01*
X117097619Y-47784819D02*
X117192857Y-47832438D01*
X117192857Y-47832438D02*
X117240476Y-47880057D01*
X117240476Y-47880057D02*
X117288095Y-47975295D01*
X117288095Y-47975295D02*
X117335714Y-48165771D01*
X117335714Y-48165771D02*
X117335714Y-48403866D01*
X117335714Y-48403866D02*
X117288095Y-48594342D01*
X117288095Y-48594342D02*
X117240476Y-48689580D01*
X117240476Y-48689580D02*
X117192857Y-48737200D01*
X117192857Y-48737200D02*
X117097619Y-48784819D01*
X117097619Y-48784819D02*
X117002381Y-48784819D01*
X117002381Y-48784819D02*
X116907143Y-48737200D01*
X116907143Y-48737200D02*
X116859524Y-48689580D01*
X116859524Y-48689580D02*
X116811905Y-48594342D01*
X116811905Y-48594342D02*
X116764286Y-48403866D01*
X116764286Y-48403866D02*
X116764286Y-48165771D01*
X116764286Y-48165771D02*
X116811905Y-47975295D01*
X116811905Y-47975295D02*
X116859524Y-47880057D01*
X116859524Y-47880057D02*
X116907143Y-47832438D01*
X116907143Y-47832438D02*
X117002381Y-47784819D01*
X117669048Y-47784819D02*
X118288095Y-47784819D01*
X118288095Y-47784819D02*
X117954762Y-48165771D01*
X117954762Y-48165771D02*
X118097619Y-48165771D01*
X118097619Y-48165771D02*
X118192857Y-48213390D01*
X118192857Y-48213390D02*
X118240476Y-48261009D01*
X118240476Y-48261009D02*
X118288095Y-48356247D01*
X118288095Y-48356247D02*
X118288095Y-48594342D01*
X118288095Y-48594342D02*
X118240476Y-48689580D01*
X118240476Y-48689580D02*
X118192857Y-48737200D01*
X118192857Y-48737200D02*
X118097619Y-48784819D01*
X118097619Y-48784819D02*
X117811905Y-48784819D01*
X117811905Y-48784819D02*
X117716667Y-48737200D01*
X117716667Y-48737200D02*
X117669048Y-48689580D01*
X83904819Y-76006785D02*
X84714342Y-76006785D01*
X84714342Y-76006785D02*
X84809580Y-75959166D01*
X84809580Y-75959166D02*
X84857200Y-75911547D01*
X84857200Y-75911547D02*
X84904819Y-75816309D01*
X84904819Y-75816309D02*
X84904819Y-75625833D01*
X84904819Y-75625833D02*
X84857200Y-75530595D01*
X84857200Y-75530595D02*
X84809580Y-75482976D01*
X84809580Y-75482976D02*
X84714342Y-75435357D01*
X84714342Y-75435357D02*
X83904819Y-75435357D01*
X83904819Y-74530595D02*
X83904819Y-74721071D01*
X83904819Y-74721071D02*
X83952438Y-74816309D01*
X83952438Y-74816309D02*
X84000057Y-74863928D01*
X84000057Y-74863928D02*
X84142914Y-74959166D01*
X84142914Y-74959166D02*
X84333390Y-75006785D01*
X84333390Y-75006785D02*
X84714342Y-75006785D01*
X84714342Y-75006785D02*
X84809580Y-74959166D01*
X84809580Y-74959166D02*
X84857200Y-74911547D01*
X84857200Y-74911547D02*
X84904819Y-74816309D01*
X84904819Y-74816309D02*
X84904819Y-74625833D01*
X84904819Y-74625833D02*
X84857200Y-74530595D01*
X84857200Y-74530595D02*
X84809580Y-74482976D01*
X84809580Y-74482976D02*
X84714342Y-74435357D01*
X84714342Y-74435357D02*
X84476247Y-74435357D01*
X84476247Y-74435357D02*
X84381009Y-74482976D01*
X84381009Y-74482976D02*
X84333390Y-74530595D01*
X84333390Y-74530595D02*
X84285771Y-74625833D01*
X84285771Y-74625833D02*
X84285771Y-74816309D01*
X84285771Y-74816309D02*
X84333390Y-74911547D01*
X84333390Y-74911547D02*
X84381009Y-74959166D01*
X84381009Y-74959166D02*
X84476247Y-75006785D01*
X83904819Y-73816309D02*
X83904819Y-73721071D01*
X83904819Y-73721071D02*
X83952438Y-73625833D01*
X83952438Y-73625833D02*
X84000057Y-73578214D01*
X84000057Y-73578214D02*
X84095295Y-73530595D01*
X84095295Y-73530595D02*
X84285771Y-73482976D01*
X84285771Y-73482976D02*
X84523866Y-73482976D01*
X84523866Y-73482976D02*
X84714342Y-73530595D01*
X84714342Y-73530595D02*
X84809580Y-73578214D01*
X84809580Y-73578214D02*
X84857200Y-73625833D01*
X84857200Y-73625833D02*
X84904819Y-73721071D01*
X84904819Y-73721071D02*
X84904819Y-73816309D01*
X84904819Y-73816309D02*
X84857200Y-73911547D01*
X84857200Y-73911547D02*
X84809580Y-73959166D01*
X84809580Y-73959166D02*
X84714342Y-74006785D01*
X84714342Y-74006785D02*
X84523866Y-74054404D01*
X84523866Y-74054404D02*
X84285771Y-74054404D01*
X84285771Y-74054404D02*
X84095295Y-74006785D01*
X84095295Y-74006785D02*
X84000057Y-73959166D01*
X84000057Y-73959166D02*
X83952438Y-73911547D01*
X83952438Y-73911547D02*
X83904819Y-73816309D01*
X84904819Y-72530595D02*
X84904819Y-73102023D01*
X84904819Y-72816309D02*
X83904819Y-72816309D01*
X83904819Y-72816309D02*
X84047676Y-72911547D01*
X84047676Y-72911547D02*
X84142914Y-73006785D01*
X84142914Y-73006785D02*
X84190533Y-73102023D01*
X107685714Y-43504819D02*
X107685714Y-44314342D01*
X107685714Y-44314342D02*
X107733333Y-44409580D01*
X107733333Y-44409580D02*
X107780952Y-44457200D01*
X107780952Y-44457200D02*
X107876190Y-44504819D01*
X107876190Y-44504819D02*
X108066666Y-44504819D01*
X108066666Y-44504819D02*
X108161904Y-44457200D01*
X108161904Y-44457200D02*
X108209523Y-44409580D01*
X108209523Y-44409580D02*
X108257142Y-44314342D01*
X108257142Y-44314342D02*
X108257142Y-43504819D01*
X109209523Y-43504819D02*
X108733333Y-43504819D01*
X108733333Y-43504819D02*
X108685714Y-43981009D01*
X108685714Y-43981009D02*
X108733333Y-43933390D01*
X108733333Y-43933390D02*
X108828571Y-43885771D01*
X108828571Y-43885771D02*
X109066666Y-43885771D01*
X109066666Y-43885771D02*
X109161904Y-43933390D01*
X109161904Y-43933390D02*
X109209523Y-43981009D01*
X109209523Y-43981009D02*
X109257142Y-44076247D01*
X109257142Y-44076247D02*
X109257142Y-44314342D01*
X109257142Y-44314342D02*
X109209523Y-44409580D01*
X109209523Y-44409580D02*
X109161904Y-44457200D01*
X109161904Y-44457200D02*
X109066666Y-44504819D01*
X109066666Y-44504819D02*
X108828571Y-44504819D01*
X108828571Y-44504819D02*
X108733333Y-44457200D01*
X108733333Y-44457200D02*
X108685714Y-44409580D01*
X109876190Y-43504819D02*
X109971428Y-43504819D01*
X109971428Y-43504819D02*
X110066666Y-43552438D01*
X110066666Y-43552438D02*
X110114285Y-43600057D01*
X110114285Y-43600057D02*
X110161904Y-43695295D01*
X110161904Y-43695295D02*
X110209523Y-43885771D01*
X110209523Y-43885771D02*
X110209523Y-44123866D01*
X110209523Y-44123866D02*
X110161904Y-44314342D01*
X110161904Y-44314342D02*
X110114285Y-44409580D01*
X110114285Y-44409580D02*
X110066666Y-44457200D01*
X110066666Y-44457200D02*
X109971428Y-44504819D01*
X109971428Y-44504819D02*
X109876190Y-44504819D01*
X109876190Y-44504819D02*
X109780952Y-44457200D01*
X109780952Y-44457200D02*
X109733333Y-44409580D01*
X109733333Y-44409580D02*
X109685714Y-44314342D01*
X109685714Y-44314342D02*
X109638095Y-44123866D01*
X109638095Y-44123866D02*
X109638095Y-43885771D01*
X109638095Y-43885771D02*
X109685714Y-43695295D01*
X109685714Y-43695295D02*
X109733333Y-43600057D01*
X109733333Y-43600057D02*
X109780952Y-43552438D01*
X109780952Y-43552438D02*
X109876190Y-43504819D01*
X110590476Y-43600057D02*
X110638095Y-43552438D01*
X110638095Y-43552438D02*
X110733333Y-43504819D01*
X110733333Y-43504819D02*
X110971428Y-43504819D01*
X110971428Y-43504819D02*
X111066666Y-43552438D01*
X111066666Y-43552438D02*
X111114285Y-43600057D01*
X111114285Y-43600057D02*
X111161904Y-43695295D01*
X111161904Y-43695295D02*
X111161904Y-43790533D01*
X111161904Y-43790533D02*
X111114285Y-43933390D01*
X111114285Y-43933390D02*
X110542857Y-44504819D01*
X110542857Y-44504819D02*
X111161904Y-44504819D01*
X83849580Y-75469047D02*
X83897200Y-75516666D01*
X83897200Y-75516666D02*
X83944819Y-75659523D01*
X83944819Y-75659523D02*
X83944819Y-75754761D01*
X83944819Y-75754761D02*
X83897200Y-75897618D01*
X83897200Y-75897618D02*
X83801961Y-75992856D01*
X83801961Y-75992856D02*
X83706723Y-76040475D01*
X83706723Y-76040475D02*
X83516247Y-76088094D01*
X83516247Y-76088094D02*
X83373390Y-76088094D01*
X83373390Y-76088094D02*
X83182914Y-76040475D01*
X83182914Y-76040475D02*
X83087676Y-75992856D01*
X83087676Y-75992856D02*
X82992438Y-75897618D01*
X82992438Y-75897618D02*
X82944819Y-75754761D01*
X82944819Y-75754761D02*
X82944819Y-75659523D01*
X82944819Y-75659523D02*
X82992438Y-75516666D01*
X82992438Y-75516666D02*
X83040057Y-75469047D01*
X82944819Y-74611904D02*
X82944819Y-74802380D01*
X82944819Y-74802380D02*
X82992438Y-74897618D01*
X82992438Y-74897618D02*
X83040057Y-74945237D01*
X83040057Y-74945237D02*
X83182914Y-75040475D01*
X83182914Y-75040475D02*
X83373390Y-75088094D01*
X83373390Y-75088094D02*
X83754342Y-75088094D01*
X83754342Y-75088094D02*
X83849580Y-75040475D01*
X83849580Y-75040475D02*
X83897200Y-74992856D01*
X83897200Y-74992856D02*
X83944819Y-74897618D01*
X83944819Y-74897618D02*
X83944819Y-74707142D01*
X83944819Y-74707142D02*
X83897200Y-74611904D01*
X83897200Y-74611904D02*
X83849580Y-74564285D01*
X83849580Y-74564285D02*
X83754342Y-74516666D01*
X83754342Y-74516666D02*
X83516247Y-74516666D01*
X83516247Y-74516666D02*
X83421009Y-74564285D01*
X83421009Y-74564285D02*
X83373390Y-74611904D01*
X83373390Y-74611904D02*
X83325771Y-74707142D01*
X83325771Y-74707142D02*
X83325771Y-74897618D01*
X83325771Y-74897618D02*
X83373390Y-74992856D01*
X83373390Y-74992856D02*
X83421009Y-75040475D01*
X83421009Y-75040475D02*
X83516247Y-75088094D01*
X82944819Y-73897618D02*
X82944819Y-73802380D01*
X82944819Y-73802380D02*
X82992438Y-73707142D01*
X82992438Y-73707142D02*
X83040057Y-73659523D01*
X83040057Y-73659523D02*
X83135295Y-73611904D01*
X83135295Y-73611904D02*
X83325771Y-73564285D01*
X83325771Y-73564285D02*
X83563866Y-73564285D01*
X83563866Y-73564285D02*
X83754342Y-73611904D01*
X83754342Y-73611904D02*
X83849580Y-73659523D01*
X83849580Y-73659523D02*
X83897200Y-73707142D01*
X83897200Y-73707142D02*
X83944819Y-73802380D01*
X83944819Y-73802380D02*
X83944819Y-73897618D01*
X83944819Y-73897618D02*
X83897200Y-73992856D01*
X83897200Y-73992856D02*
X83849580Y-74040475D01*
X83849580Y-74040475D02*
X83754342Y-74088094D01*
X83754342Y-74088094D02*
X83563866Y-74135713D01*
X83563866Y-74135713D02*
X83325771Y-74135713D01*
X83325771Y-74135713D02*
X83135295Y-74088094D01*
X83135295Y-74088094D02*
X83040057Y-74040475D01*
X83040057Y-74040475D02*
X82992438Y-73992856D01*
X82992438Y-73992856D02*
X82944819Y-73897618D01*
X83040057Y-73183332D02*
X82992438Y-73135713D01*
X82992438Y-73135713D02*
X82944819Y-73040475D01*
X82944819Y-73040475D02*
X82944819Y-72802380D01*
X82944819Y-72802380D02*
X82992438Y-72707142D01*
X82992438Y-72707142D02*
X83040057Y-72659523D01*
X83040057Y-72659523D02*
X83135295Y-72611904D01*
X83135295Y-72611904D02*
X83230533Y-72611904D01*
X83230533Y-72611904D02*
X83373390Y-72659523D01*
X83373390Y-72659523D02*
X83944819Y-73230951D01*
X83944819Y-73230951D02*
X83944819Y-72611904D01*
X81729580Y-75669047D02*
X81777200Y-75716666D01*
X81777200Y-75716666D02*
X81824819Y-75859523D01*
X81824819Y-75859523D02*
X81824819Y-75954761D01*
X81824819Y-75954761D02*
X81777200Y-76097618D01*
X81777200Y-76097618D02*
X81681961Y-76192856D01*
X81681961Y-76192856D02*
X81586723Y-76240475D01*
X81586723Y-76240475D02*
X81396247Y-76288094D01*
X81396247Y-76288094D02*
X81253390Y-76288094D01*
X81253390Y-76288094D02*
X81062914Y-76240475D01*
X81062914Y-76240475D02*
X80967676Y-76192856D01*
X80967676Y-76192856D02*
X80872438Y-76097618D01*
X80872438Y-76097618D02*
X80824819Y-75954761D01*
X80824819Y-75954761D02*
X80824819Y-75859523D01*
X80824819Y-75859523D02*
X80872438Y-75716666D01*
X80872438Y-75716666D02*
X80920057Y-75669047D01*
X80824819Y-74811904D02*
X80824819Y-75002380D01*
X80824819Y-75002380D02*
X80872438Y-75097618D01*
X80872438Y-75097618D02*
X80920057Y-75145237D01*
X80920057Y-75145237D02*
X81062914Y-75240475D01*
X81062914Y-75240475D02*
X81253390Y-75288094D01*
X81253390Y-75288094D02*
X81634342Y-75288094D01*
X81634342Y-75288094D02*
X81729580Y-75240475D01*
X81729580Y-75240475D02*
X81777200Y-75192856D01*
X81777200Y-75192856D02*
X81824819Y-75097618D01*
X81824819Y-75097618D02*
X81824819Y-74907142D01*
X81824819Y-74907142D02*
X81777200Y-74811904D01*
X81777200Y-74811904D02*
X81729580Y-74764285D01*
X81729580Y-74764285D02*
X81634342Y-74716666D01*
X81634342Y-74716666D02*
X81396247Y-74716666D01*
X81396247Y-74716666D02*
X81301009Y-74764285D01*
X81301009Y-74764285D02*
X81253390Y-74811904D01*
X81253390Y-74811904D02*
X81205771Y-74907142D01*
X81205771Y-74907142D02*
X81205771Y-75097618D01*
X81205771Y-75097618D02*
X81253390Y-75192856D01*
X81253390Y-75192856D02*
X81301009Y-75240475D01*
X81301009Y-75240475D02*
X81396247Y-75288094D01*
X80824819Y-74097618D02*
X80824819Y-74002380D01*
X80824819Y-74002380D02*
X80872438Y-73907142D01*
X80872438Y-73907142D02*
X80920057Y-73859523D01*
X80920057Y-73859523D02*
X81015295Y-73811904D01*
X81015295Y-73811904D02*
X81205771Y-73764285D01*
X81205771Y-73764285D02*
X81443866Y-73764285D01*
X81443866Y-73764285D02*
X81634342Y-73811904D01*
X81634342Y-73811904D02*
X81729580Y-73859523D01*
X81729580Y-73859523D02*
X81777200Y-73907142D01*
X81777200Y-73907142D02*
X81824819Y-74002380D01*
X81824819Y-74002380D02*
X81824819Y-74097618D01*
X81824819Y-74097618D02*
X81777200Y-74192856D01*
X81777200Y-74192856D02*
X81729580Y-74240475D01*
X81729580Y-74240475D02*
X81634342Y-74288094D01*
X81634342Y-74288094D02*
X81443866Y-74335713D01*
X81443866Y-74335713D02*
X81205771Y-74335713D01*
X81205771Y-74335713D02*
X81015295Y-74288094D01*
X81015295Y-74288094D02*
X80920057Y-74240475D01*
X80920057Y-74240475D02*
X80872438Y-74192856D01*
X80872438Y-74192856D02*
X80824819Y-74097618D01*
X81824819Y-72811904D02*
X81824819Y-73383332D01*
X81824819Y-73097618D02*
X80824819Y-73097618D01*
X80824819Y-73097618D02*
X80967676Y-73192856D01*
X80967676Y-73192856D02*
X81062914Y-73288094D01*
X81062914Y-73288094D02*
X81110533Y-73383332D01*
X122520952Y-47934819D02*
X122187619Y-47458628D01*
X121949524Y-47934819D02*
X121949524Y-46934819D01*
X121949524Y-46934819D02*
X122330476Y-46934819D01*
X122330476Y-46934819D02*
X122425714Y-46982438D01*
X122425714Y-46982438D02*
X122473333Y-47030057D01*
X122473333Y-47030057D02*
X122520952Y-47125295D01*
X122520952Y-47125295D02*
X122520952Y-47268152D01*
X122520952Y-47268152D02*
X122473333Y-47363390D01*
X122473333Y-47363390D02*
X122425714Y-47411009D01*
X122425714Y-47411009D02*
X122330476Y-47458628D01*
X122330476Y-47458628D02*
X121949524Y-47458628D01*
X123473333Y-47934819D02*
X122901905Y-47934819D01*
X123187619Y-47934819D02*
X123187619Y-46934819D01*
X123187619Y-46934819D02*
X123092381Y-47077676D01*
X123092381Y-47077676D02*
X122997143Y-47172914D01*
X122997143Y-47172914D02*
X122901905Y-47220533D01*
X124092381Y-46934819D02*
X124187619Y-46934819D01*
X124187619Y-46934819D02*
X124282857Y-46982438D01*
X124282857Y-46982438D02*
X124330476Y-47030057D01*
X124330476Y-47030057D02*
X124378095Y-47125295D01*
X124378095Y-47125295D02*
X124425714Y-47315771D01*
X124425714Y-47315771D02*
X124425714Y-47553866D01*
X124425714Y-47553866D02*
X124378095Y-47744342D01*
X124378095Y-47744342D02*
X124330476Y-47839580D01*
X124330476Y-47839580D02*
X124282857Y-47887200D01*
X124282857Y-47887200D02*
X124187619Y-47934819D01*
X124187619Y-47934819D02*
X124092381Y-47934819D01*
X124092381Y-47934819D02*
X123997143Y-47887200D01*
X123997143Y-47887200D02*
X123949524Y-47839580D01*
X123949524Y-47839580D02*
X123901905Y-47744342D01*
X123901905Y-47744342D02*
X123854286Y-47553866D01*
X123854286Y-47553866D02*
X123854286Y-47315771D01*
X123854286Y-47315771D02*
X123901905Y-47125295D01*
X123901905Y-47125295D02*
X123949524Y-47030057D01*
X123949524Y-47030057D02*
X123997143Y-46982438D01*
X123997143Y-46982438D02*
X124092381Y-46934819D01*
X125282857Y-47268152D02*
X125282857Y-47934819D01*
X125044762Y-46887200D02*
X124806667Y-47601485D01*
X124806667Y-47601485D02*
X125425714Y-47601485D01*
X120004819Y-62519047D02*
X119528628Y-62852380D01*
X120004819Y-63090475D02*
X119004819Y-63090475D01*
X119004819Y-63090475D02*
X119004819Y-62709523D01*
X119004819Y-62709523D02*
X119052438Y-62614285D01*
X119052438Y-62614285D02*
X119100057Y-62566666D01*
X119100057Y-62566666D02*
X119195295Y-62519047D01*
X119195295Y-62519047D02*
X119338152Y-62519047D01*
X119338152Y-62519047D02*
X119433390Y-62566666D01*
X119433390Y-62566666D02*
X119481009Y-62614285D01*
X119481009Y-62614285D02*
X119528628Y-62709523D01*
X119528628Y-62709523D02*
X119528628Y-63090475D01*
X120004819Y-61566666D02*
X120004819Y-62138094D01*
X120004819Y-61852380D02*
X119004819Y-61852380D01*
X119004819Y-61852380D02*
X119147676Y-61947618D01*
X119147676Y-61947618D02*
X119242914Y-62042856D01*
X119242914Y-62042856D02*
X119290533Y-62138094D01*
X119004819Y-60947618D02*
X119004819Y-60852380D01*
X119004819Y-60852380D02*
X119052438Y-60757142D01*
X119052438Y-60757142D02*
X119100057Y-60709523D01*
X119100057Y-60709523D02*
X119195295Y-60661904D01*
X119195295Y-60661904D02*
X119385771Y-60614285D01*
X119385771Y-60614285D02*
X119623866Y-60614285D01*
X119623866Y-60614285D02*
X119814342Y-60661904D01*
X119814342Y-60661904D02*
X119909580Y-60709523D01*
X119909580Y-60709523D02*
X119957200Y-60757142D01*
X119957200Y-60757142D02*
X120004819Y-60852380D01*
X120004819Y-60852380D02*
X120004819Y-60947618D01*
X120004819Y-60947618D02*
X119957200Y-61042856D01*
X119957200Y-61042856D02*
X119909580Y-61090475D01*
X119909580Y-61090475D02*
X119814342Y-61138094D01*
X119814342Y-61138094D02*
X119623866Y-61185713D01*
X119623866Y-61185713D02*
X119385771Y-61185713D01*
X119385771Y-61185713D02*
X119195295Y-61138094D01*
X119195295Y-61138094D02*
X119100057Y-61090475D01*
X119100057Y-61090475D02*
X119052438Y-61042856D01*
X119052438Y-61042856D02*
X119004819Y-60947618D01*
X119004819Y-60280951D02*
X119004819Y-59661904D01*
X119004819Y-59661904D02*
X119385771Y-59995237D01*
X119385771Y-59995237D02*
X119385771Y-59852380D01*
X119385771Y-59852380D02*
X119433390Y-59757142D01*
X119433390Y-59757142D02*
X119481009Y-59709523D01*
X119481009Y-59709523D02*
X119576247Y-59661904D01*
X119576247Y-59661904D02*
X119814342Y-59661904D01*
X119814342Y-59661904D02*
X119909580Y-59709523D01*
X119909580Y-59709523D02*
X119957200Y-59757142D01*
X119957200Y-59757142D02*
X120004819Y-59852380D01*
X120004819Y-59852380D02*
X120004819Y-60138094D01*
X120004819Y-60138094D02*
X119957200Y-60233332D01*
X119957200Y-60233332D02*
X119909580Y-60280951D01*
X122004819Y-62519047D02*
X121528628Y-62852380D01*
X122004819Y-63090475D02*
X121004819Y-63090475D01*
X121004819Y-63090475D02*
X121004819Y-62709523D01*
X121004819Y-62709523D02*
X121052438Y-62614285D01*
X121052438Y-62614285D02*
X121100057Y-62566666D01*
X121100057Y-62566666D02*
X121195295Y-62519047D01*
X121195295Y-62519047D02*
X121338152Y-62519047D01*
X121338152Y-62519047D02*
X121433390Y-62566666D01*
X121433390Y-62566666D02*
X121481009Y-62614285D01*
X121481009Y-62614285D02*
X121528628Y-62709523D01*
X121528628Y-62709523D02*
X121528628Y-63090475D01*
X122004819Y-61566666D02*
X122004819Y-62138094D01*
X122004819Y-61852380D02*
X121004819Y-61852380D01*
X121004819Y-61852380D02*
X121147676Y-61947618D01*
X121147676Y-61947618D02*
X121242914Y-62042856D01*
X121242914Y-62042856D02*
X121290533Y-62138094D01*
X121004819Y-60947618D02*
X121004819Y-60852380D01*
X121004819Y-60852380D02*
X121052438Y-60757142D01*
X121052438Y-60757142D02*
X121100057Y-60709523D01*
X121100057Y-60709523D02*
X121195295Y-60661904D01*
X121195295Y-60661904D02*
X121385771Y-60614285D01*
X121385771Y-60614285D02*
X121623866Y-60614285D01*
X121623866Y-60614285D02*
X121814342Y-60661904D01*
X121814342Y-60661904D02*
X121909580Y-60709523D01*
X121909580Y-60709523D02*
X121957200Y-60757142D01*
X121957200Y-60757142D02*
X122004819Y-60852380D01*
X122004819Y-60852380D02*
X122004819Y-60947618D01*
X122004819Y-60947618D02*
X121957200Y-61042856D01*
X121957200Y-61042856D02*
X121909580Y-61090475D01*
X121909580Y-61090475D02*
X121814342Y-61138094D01*
X121814342Y-61138094D02*
X121623866Y-61185713D01*
X121623866Y-61185713D02*
X121385771Y-61185713D01*
X121385771Y-61185713D02*
X121195295Y-61138094D01*
X121195295Y-61138094D02*
X121100057Y-61090475D01*
X121100057Y-61090475D02*
X121052438Y-61042856D01*
X121052438Y-61042856D02*
X121004819Y-60947618D01*
X121100057Y-60233332D02*
X121052438Y-60185713D01*
X121052438Y-60185713D02*
X121004819Y-60090475D01*
X121004819Y-60090475D02*
X121004819Y-59852380D01*
X121004819Y-59852380D02*
X121052438Y-59757142D01*
X121052438Y-59757142D02*
X121100057Y-59709523D01*
X121100057Y-59709523D02*
X121195295Y-59661904D01*
X121195295Y-59661904D02*
X121290533Y-59661904D01*
X121290533Y-59661904D02*
X121433390Y-59709523D01*
X121433390Y-59709523D02*
X122004819Y-60280951D01*
X122004819Y-60280951D02*
X122004819Y-59661904D01*
X134337200Y-68635713D02*
X134384819Y-68492856D01*
X134384819Y-68492856D02*
X134384819Y-68254761D01*
X134384819Y-68254761D02*
X134337200Y-68159523D01*
X134337200Y-68159523D02*
X134289580Y-68111904D01*
X134289580Y-68111904D02*
X134194342Y-68064285D01*
X134194342Y-68064285D02*
X134099104Y-68064285D01*
X134099104Y-68064285D02*
X134003866Y-68111904D01*
X134003866Y-68111904D02*
X133956247Y-68159523D01*
X133956247Y-68159523D02*
X133908628Y-68254761D01*
X133908628Y-68254761D02*
X133861009Y-68445237D01*
X133861009Y-68445237D02*
X133813390Y-68540475D01*
X133813390Y-68540475D02*
X133765771Y-68588094D01*
X133765771Y-68588094D02*
X133670533Y-68635713D01*
X133670533Y-68635713D02*
X133575295Y-68635713D01*
X133575295Y-68635713D02*
X133480057Y-68588094D01*
X133480057Y-68588094D02*
X133432438Y-68540475D01*
X133432438Y-68540475D02*
X133384819Y-68445237D01*
X133384819Y-68445237D02*
X133384819Y-68207142D01*
X133384819Y-68207142D02*
X133432438Y-68064285D01*
X133384819Y-67730951D02*
X134384819Y-67492856D01*
X134384819Y-67492856D02*
X133670533Y-67302380D01*
X133670533Y-67302380D02*
X134384819Y-67111904D01*
X134384819Y-67111904D02*
X133384819Y-66873809D01*
X133384819Y-66064285D02*
X133384819Y-66254761D01*
X133384819Y-66254761D02*
X133432438Y-66349999D01*
X133432438Y-66349999D02*
X133480057Y-66397618D01*
X133480057Y-66397618D02*
X133622914Y-66492856D01*
X133622914Y-66492856D02*
X133813390Y-66540475D01*
X133813390Y-66540475D02*
X134194342Y-66540475D01*
X134194342Y-66540475D02*
X134289580Y-66492856D01*
X134289580Y-66492856D02*
X134337200Y-66445237D01*
X134337200Y-66445237D02*
X134384819Y-66349999D01*
X134384819Y-66349999D02*
X134384819Y-66159523D01*
X134384819Y-66159523D02*
X134337200Y-66064285D01*
X134337200Y-66064285D02*
X134289580Y-66016666D01*
X134289580Y-66016666D02*
X134194342Y-65969047D01*
X134194342Y-65969047D02*
X133956247Y-65969047D01*
X133956247Y-65969047D02*
X133861009Y-66016666D01*
X133861009Y-66016666D02*
X133813390Y-66064285D01*
X133813390Y-66064285D02*
X133765771Y-66159523D01*
X133765771Y-66159523D02*
X133765771Y-66349999D01*
X133765771Y-66349999D02*
X133813390Y-66445237D01*
X133813390Y-66445237D02*
X133861009Y-66492856D01*
X133861009Y-66492856D02*
X133956247Y-66540475D01*
X133384819Y-65349999D02*
X133384819Y-65254761D01*
X133384819Y-65254761D02*
X133432438Y-65159523D01*
X133432438Y-65159523D02*
X133480057Y-65111904D01*
X133480057Y-65111904D02*
X133575295Y-65064285D01*
X133575295Y-65064285D02*
X133765771Y-65016666D01*
X133765771Y-65016666D02*
X134003866Y-65016666D01*
X134003866Y-65016666D02*
X134194342Y-65064285D01*
X134194342Y-65064285D02*
X134289580Y-65111904D01*
X134289580Y-65111904D02*
X134337200Y-65159523D01*
X134337200Y-65159523D02*
X134384819Y-65254761D01*
X134384819Y-65254761D02*
X134384819Y-65349999D01*
X134384819Y-65349999D02*
X134337200Y-65445237D01*
X134337200Y-65445237D02*
X134289580Y-65492856D01*
X134289580Y-65492856D02*
X134194342Y-65540475D01*
X134194342Y-65540475D02*
X134003866Y-65588094D01*
X134003866Y-65588094D02*
X133765771Y-65588094D01*
X133765771Y-65588094D02*
X133575295Y-65540475D01*
X133575295Y-65540475D02*
X133480057Y-65492856D01*
X133480057Y-65492856D02*
X133432438Y-65445237D01*
X133432438Y-65445237D02*
X133384819Y-65349999D01*
X133480057Y-64635713D02*
X133432438Y-64588094D01*
X133432438Y-64588094D02*
X133384819Y-64492856D01*
X133384819Y-64492856D02*
X133384819Y-64254761D01*
X133384819Y-64254761D02*
X133432438Y-64159523D01*
X133432438Y-64159523D02*
X133480057Y-64111904D01*
X133480057Y-64111904D02*
X133575295Y-64064285D01*
X133575295Y-64064285D02*
X133670533Y-64064285D01*
X133670533Y-64064285D02*
X133813390Y-64111904D01*
X133813390Y-64111904D02*
X134384819Y-64683332D01*
X134384819Y-64683332D02*
X134384819Y-64064285D01*
X86180952Y-64534819D02*
X85847619Y-64058628D01*
X85609524Y-64534819D02*
X85609524Y-63534819D01*
X85609524Y-63534819D02*
X85990476Y-63534819D01*
X85990476Y-63534819D02*
X86085714Y-63582438D01*
X86085714Y-63582438D02*
X86133333Y-63630057D01*
X86133333Y-63630057D02*
X86180952Y-63725295D01*
X86180952Y-63725295D02*
X86180952Y-63868152D01*
X86180952Y-63868152D02*
X86133333Y-63963390D01*
X86133333Y-63963390D02*
X86085714Y-64011009D01*
X86085714Y-64011009D02*
X85990476Y-64058628D01*
X85990476Y-64058628D02*
X85609524Y-64058628D01*
X87133333Y-64534819D02*
X86561905Y-64534819D01*
X86847619Y-64534819D02*
X86847619Y-63534819D01*
X86847619Y-63534819D02*
X86752381Y-63677676D01*
X86752381Y-63677676D02*
X86657143Y-63772914D01*
X86657143Y-63772914D02*
X86561905Y-63820533D01*
X87752381Y-63534819D02*
X87847619Y-63534819D01*
X87847619Y-63534819D02*
X87942857Y-63582438D01*
X87942857Y-63582438D02*
X87990476Y-63630057D01*
X87990476Y-63630057D02*
X88038095Y-63725295D01*
X88038095Y-63725295D02*
X88085714Y-63915771D01*
X88085714Y-63915771D02*
X88085714Y-64153866D01*
X88085714Y-64153866D02*
X88038095Y-64344342D01*
X88038095Y-64344342D02*
X87990476Y-64439580D01*
X87990476Y-64439580D02*
X87942857Y-64487200D01*
X87942857Y-64487200D02*
X87847619Y-64534819D01*
X87847619Y-64534819D02*
X87752381Y-64534819D01*
X87752381Y-64534819D02*
X87657143Y-64487200D01*
X87657143Y-64487200D02*
X87609524Y-64439580D01*
X87609524Y-64439580D02*
X87561905Y-64344342D01*
X87561905Y-64344342D02*
X87514286Y-64153866D01*
X87514286Y-64153866D02*
X87514286Y-63915771D01*
X87514286Y-63915771D02*
X87561905Y-63725295D01*
X87561905Y-63725295D02*
X87609524Y-63630057D01*
X87609524Y-63630057D02*
X87657143Y-63582438D01*
X87657143Y-63582438D02*
X87752381Y-63534819D01*
X89038095Y-64534819D02*
X88466667Y-64534819D01*
X88752381Y-64534819D02*
X88752381Y-63534819D01*
X88752381Y-63534819D02*
X88657143Y-63677676D01*
X88657143Y-63677676D02*
X88561905Y-63772914D01*
X88561905Y-63772914D02*
X88466667Y-63820533D01*
X88095180Y-51814285D02*
X87380895Y-51814285D01*
X87380895Y-51814285D02*
X87238038Y-51766666D01*
X87238038Y-51766666D02*
X87142800Y-51671428D01*
X87142800Y-51671428D02*
X87095180Y-51528571D01*
X87095180Y-51528571D02*
X87095180Y-51433333D01*
X87095180Y-52814285D02*
X87095180Y-52242857D01*
X87095180Y-52528571D02*
X88095180Y-52528571D01*
X88095180Y-52528571D02*
X87952323Y-52433333D01*
X87952323Y-52433333D02*
X87857085Y-52338095D01*
X87857085Y-52338095D02*
X87809466Y-52242857D01*
X88095180Y-53433333D02*
X88095180Y-53528571D01*
X88095180Y-53528571D02*
X88047561Y-53623809D01*
X88047561Y-53623809D02*
X87999942Y-53671428D01*
X87999942Y-53671428D02*
X87904704Y-53719047D01*
X87904704Y-53719047D02*
X87714228Y-53766666D01*
X87714228Y-53766666D02*
X87476133Y-53766666D01*
X87476133Y-53766666D02*
X87285657Y-53719047D01*
X87285657Y-53719047D02*
X87190419Y-53671428D01*
X87190419Y-53671428D02*
X87142800Y-53623809D01*
X87142800Y-53623809D02*
X87095180Y-53528571D01*
X87095180Y-53528571D02*
X87095180Y-53433333D01*
X87095180Y-53433333D02*
X87142800Y-53338095D01*
X87142800Y-53338095D02*
X87190419Y-53290476D01*
X87190419Y-53290476D02*
X87285657Y-53242857D01*
X87285657Y-53242857D02*
X87476133Y-53195238D01*
X87476133Y-53195238D02*
X87714228Y-53195238D01*
X87714228Y-53195238D02*
X87904704Y-53242857D01*
X87904704Y-53242857D02*
X87999942Y-53290476D01*
X87999942Y-53290476D02*
X88047561Y-53338095D01*
X88047561Y-53338095D02*
X88095180Y-53433333D01*
X87095180Y-54719047D02*
X87095180Y-54147619D01*
X87095180Y-54433333D02*
X88095180Y-54433333D01*
X88095180Y-54433333D02*
X87952323Y-54338095D01*
X87952323Y-54338095D02*
X87857085Y-54242857D01*
X87857085Y-54242857D02*
X87809466Y-54147619D01*
X129880952Y-62199580D02*
X129833333Y-62247200D01*
X129833333Y-62247200D02*
X129690476Y-62294819D01*
X129690476Y-62294819D02*
X129595238Y-62294819D01*
X129595238Y-62294819D02*
X129452381Y-62247200D01*
X129452381Y-62247200D02*
X129357143Y-62151961D01*
X129357143Y-62151961D02*
X129309524Y-62056723D01*
X129309524Y-62056723D02*
X129261905Y-61866247D01*
X129261905Y-61866247D02*
X129261905Y-61723390D01*
X129261905Y-61723390D02*
X129309524Y-61532914D01*
X129309524Y-61532914D02*
X129357143Y-61437676D01*
X129357143Y-61437676D02*
X129452381Y-61342438D01*
X129452381Y-61342438D02*
X129595238Y-61294819D01*
X129595238Y-61294819D02*
X129690476Y-61294819D01*
X129690476Y-61294819D02*
X129833333Y-61342438D01*
X129833333Y-61342438D02*
X129880952Y-61390057D01*
X130833333Y-62294819D02*
X130261905Y-62294819D01*
X130547619Y-62294819D02*
X130547619Y-61294819D01*
X130547619Y-61294819D02*
X130452381Y-61437676D01*
X130452381Y-61437676D02*
X130357143Y-61532914D01*
X130357143Y-61532914D02*
X130261905Y-61580533D01*
X131452381Y-61294819D02*
X131547619Y-61294819D01*
X131547619Y-61294819D02*
X131642857Y-61342438D01*
X131642857Y-61342438D02*
X131690476Y-61390057D01*
X131690476Y-61390057D02*
X131738095Y-61485295D01*
X131738095Y-61485295D02*
X131785714Y-61675771D01*
X131785714Y-61675771D02*
X131785714Y-61913866D01*
X131785714Y-61913866D02*
X131738095Y-62104342D01*
X131738095Y-62104342D02*
X131690476Y-62199580D01*
X131690476Y-62199580D02*
X131642857Y-62247200D01*
X131642857Y-62247200D02*
X131547619Y-62294819D01*
X131547619Y-62294819D02*
X131452381Y-62294819D01*
X131452381Y-62294819D02*
X131357143Y-62247200D01*
X131357143Y-62247200D02*
X131309524Y-62199580D01*
X131309524Y-62199580D02*
X131261905Y-62104342D01*
X131261905Y-62104342D02*
X131214286Y-61913866D01*
X131214286Y-61913866D02*
X131214286Y-61675771D01*
X131214286Y-61675771D02*
X131261905Y-61485295D01*
X131261905Y-61485295D02*
X131309524Y-61390057D01*
X131309524Y-61390057D02*
X131357143Y-61342438D01*
X131357143Y-61342438D02*
X131452381Y-61294819D01*
X132166667Y-61390057D02*
X132214286Y-61342438D01*
X132214286Y-61342438D02*
X132309524Y-61294819D01*
X132309524Y-61294819D02*
X132547619Y-61294819D01*
X132547619Y-61294819D02*
X132642857Y-61342438D01*
X132642857Y-61342438D02*
X132690476Y-61390057D01*
X132690476Y-61390057D02*
X132738095Y-61485295D01*
X132738095Y-61485295D02*
X132738095Y-61580533D01*
X132738095Y-61580533D02*
X132690476Y-61723390D01*
X132690476Y-61723390D02*
X132119048Y-62294819D01*
X132119048Y-62294819D02*
X132738095Y-62294819D01*
X87249580Y-50819047D02*
X87297200Y-50866666D01*
X87297200Y-50866666D02*
X87344819Y-51009523D01*
X87344819Y-51009523D02*
X87344819Y-51104761D01*
X87344819Y-51104761D02*
X87297200Y-51247618D01*
X87297200Y-51247618D02*
X87201961Y-51342856D01*
X87201961Y-51342856D02*
X87106723Y-51390475D01*
X87106723Y-51390475D02*
X86916247Y-51438094D01*
X86916247Y-51438094D02*
X86773390Y-51438094D01*
X86773390Y-51438094D02*
X86582914Y-51390475D01*
X86582914Y-51390475D02*
X86487676Y-51342856D01*
X86487676Y-51342856D02*
X86392438Y-51247618D01*
X86392438Y-51247618D02*
X86344819Y-51104761D01*
X86344819Y-51104761D02*
X86344819Y-51009523D01*
X86344819Y-51009523D02*
X86392438Y-50866666D01*
X86392438Y-50866666D02*
X86440057Y-50819047D01*
X87344819Y-49866666D02*
X87344819Y-50438094D01*
X87344819Y-50152380D02*
X86344819Y-50152380D01*
X86344819Y-50152380D02*
X86487676Y-50247618D01*
X86487676Y-50247618D02*
X86582914Y-50342856D01*
X86582914Y-50342856D02*
X86630533Y-50438094D01*
X86344819Y-49247618D02*
X86344819Y-49152380D01*
X86344819Y-49152380D02*
X86392438Y-49057142D01*
X86392438Y-49057142D02*
X86440057Y-49009523D01*
X86440057Y-49009523D02*
X86535295Y-48961904D01*
X86535295Y-48961904D02*
X86725771Y-48914285D01*
X86725771Y-48914285D02*
X86963866Y-48914285D01*
X86963866Y-48914285D02*
X87154342Y-48961904D01*
X87154342Y-48961904D02*
X87249580Y-49009523D01*
X87249580Y-49009523D02*
X87297200Y-49057142D01*
X87297200Y-49057142D02*
X87344819Y-49152380D01*
X87344819Y-49152380D02*
X87344819Y-49247618D01*
X87344819Y-49247618D02*
X87297200Y-49342856D01*
X87297200Y-49342856D02*
X87249580Y-49390475D01*
X87249580Y-49390475D02*
X87154342Y-49438094D01*
X87154342Y-49438094D02*
X86963866Y-49485713D01*
X86963866Y-49485713D02*
X86725771Y-49485713D01*
X86725771Y-49485713D02*
X86535295Y-49438094D01*
X86535295Y-49438094D02*
X86440057Y-49390475D01*
X86440057Y-49390475D02*
X86392438Y-49342856D01*
X86392438Y-49342856D02*
X86344819Y-49247618D01*
X87344819Y-47961904D02*
X87344819Y-48533332D01*
X87344819Y-48247618D02*
X86344819Y-48247618D01*
X86344819Y-48247618D02*
X86487676Y-48342856D01*
X86487676Y-48342856D02*
X86582914Y-48438094D01*
X86582914Y-48438094D02*
X86630533Y-48533332D01*
D11*
X98070841Y-82367250D02*
X98070841Y-82939005D01*
X98070841Y-82939005D02*
X98032724Y-83053356D01*
X98032724Y-83053356D02*
X97956490Y-83129590D01*
X97956490Y-83129590D02*
X97842139Y-83167707D01*
X97842139Y-83167707D02*
X97765905Y-83167707D01*
X98833181Y-82367250D02*
X98452011Y-82367250D01*
X98452011Y-82367250D02*
X98413894Y-82748420D01*
X98413894Y-82748420D02*
X98452011Y-82710303D01*
X98452011Y-82710303D02*
X98528245Y-82672186D01*
X98528245Y-82672186D02*
X98718830Y-82672186D01*
X98718830Y-82672186D02*
X98795064Y-82710303D01*
X98795064Y-82710303D02*
X98833181Y-82748420D01*
X98833181Y-82748420D02*
X98871298Y-82824654D01*
X98871298Y-82824654D02*
X98871298Y-83015239D01*
X98871298Y-83015239D02*
X98833181Y-83091473D01*
X98833181Y-83091473D02*
X98795064Y-83129590D01*
X98795064Y-83129590D02*
X98718830Y-83167707D01*
X98718830Y-83167707D02*
X98528245Y-83167707D01*
X98528245Y-83167707D02*
X98452011Y-83129590D01*
X98452011Y-83129590D02*
X98413894Y-83091473D01*
X99366819Y-82367250D02*
X99443053Y-82367250D01*
X99443053Y-82367250D02*
X99519287Y-82405367D01*
X99519287Y-82405367D02*
X99557404Y-82443484D01*
X99557404Y-82443484D02*
X99595521Y-82519718D01*
X99595521Y-82519718D02*
X99633638Y-82672186D01*
X99633638Y-82672186D02*
X99633638Y-82862771D01*
X99633638Y-82862771D02*
X99595521Y-83015239D01*
X99595521Y-83015239D02*
X99557404Y-83091473D01*
X99557404Y-83091473D02*
X99519287Y-83129590D01*
X99519287Y-83129590D02*
X99443053Y-83167707D01*
X99443053Y-83167707D02*
X99366819Y-83167707D01*
X99366819Y-83167707D02*
X99290585Y-83129590D01*
X99290585Y-83129590D02*
X99252468Y-83091473D01*
X99252468Y-83091473D02*
X99214351Y-83015239D01*
X99214351Y-83015239D02*
X99176234Y-82862771D01*
X99176234Y-82862771D02*
X99176234Y-82672186D01*
X99176234Y-82672186D02*
X99214351Y-82519718D01*
X99214351Y-82519718D02*
X99252468Y-82443484D01*
X99252468Y-82443484D02*
X99290585Y-82405367D01*
X99290585Y-82405367D02*
X99366819Y-82367250D01*
X100395978Y-83167707D02*
X99938574Y-83167707D01*
X100167276Y-83167707D02*
X100167276Y-82367250D01*
X100167276Y-82367250D02*
X100091042Y-82481601D01*
X100091042Y-82481601D02*
X100014808Y-82557835D01*
X100014808Y-82557835D02*
X99938574Y-82595952D01*
D10*
X88204819Y-67714285D02*
X89014342Y-67714285D01*
X89014342Y-67714285D02*
X89109580Y-67666666D01*
X89109580Y-67666666D02*
X89157200Y-67619047D01*
X89157200Y-67619047D02*
X89204819Y-67523809D01*
X89204819Y-67523809D02*
X89204819Y-67333333D01*
X89204819Y-67333333D02*
X89157200Y-67238095D01*
X89157200Y-67238095D02*
X89109580Y-67190476D01*
X89109580Y-67190476D02*
X89014342Y-67142857D01*
X89014342Y-67142857D02*
X88204819Y-67142857D01*
X88204819Y-66190476D02*
X88204819Y-66666666D01*
X88204819Y-66666666D02*
X88681009Y-66714285D01*
X88681009Y-66714285D02*
X88633390Y-66666666D01*
X88633390Y-66666666D02*
X88585771Y-66571428D01*
X88585771Y-66571428D02*
X88585771Y-66333333D01*
X88585771Y-66333333D02*
X88633390Y-66238095D01*
X88633390Y-66238095D02*
X88681009Y-66190476D01*
X88681009Y-66190476D02*
X88776247Y-66142857D01*
X88776247Y-66142857D02*
X89014342Y-66142857D01*
X89014342Y-66142857D02*
X89109580Y-66190476D01*
X89109580Y-66190476D02*
X89157200Y-66238095D01*
X89157200Y-66238095D02*
X89204819Y-66333333D01*
X89204819Y-66333333D02*
X89204819Y-66571428D01*
X89204819Y-66571428D02*
X89157200Y-66666666D01*
X89157200Y-66666666D02*
X89109580Y-66714285D01*
X88204819Y-65523809D02*
X88204819Y-65428571D01*
X88204819Y-65428571D02*
X88252438Y-65333333D01*
X88252438Y-65333333D02*
X88300057Y-65285714D01*
X88300057Y-65285714D02*
X88395295Y-65238095D01*
X88395295Y-65238095D02*
X88585771Y-65190476D01*
X88585771Y-65190476D02*
X88823866Y-65190476D01*
X88823866Y-65190476D02*
X89014342Y-65238095D01*
X89014342Y-65238095D02*
X89109580Y-65285714D01*
X89109580Y-65285714D02*
X89157200Y-65333333D01*
X89157200Y-65333333D02*
X89204819Y-65428571D01*
X89204819Y-65428571D02*
X89204819Y-65523809D01*
X89204819Y-65523809D02*
X89157200Y-65619047D01*
X89157200Y-65619047D02*
X89109580Y-65666666D01*
X89109580Y-65666666D02*
X89014342Y-65714285D01*
X89014342Y-65714285D02*
X88823866Y-65761904D01*
X88823866Y-65761904D02*
X88585771Y-65761904D01*
X88585771Y-65761904D02*
X88395295Y-65714285D01*
X88395295Y-65714285D02*
X88300057Y-65666666D01*
X88300057Y-65666666D02*
X88252438Y-65619047D01*
X88252438Y-65619047D02*
X88204819Y-65523809D01*
X89204819Y-64238095D02*
X89204819Y-64809523D01*
X89204819Y-64523809D02*
X88204819Y-64523809D01*
X88204819Y-64523809D02*
X88347676Y-64619047D01*
X88347676Y-64619047D02*
X88442914Y-64714285D01*
X88442914Y-64714285D02*
X88490533Y-64809523D01*
X119054819Y-54335714D02*
X119769104Y-54335714D01*
X119769104Y-54335714D02*
X119911961Y-54383333D01*
X119911961Y-54383333D02*
X120007200Y-54478571D01*
X120007200Y-54478571D02*
X120054819Y-54621428D01*
X120054819Y-54621428D02*
X120054819Y-54716666D01*
X119054819Y-53430952D02*
X119054819Y-53621428D01*
X119054819Y-53621428D02*
X119102438Y-53716666D01*
X119102438Y-53716666D02*
X119150057Y-53764285D01*
X119150057Y-53764285D02*
X119292914Y-53859523D01*
X119292914Y-53859523D02*
X119483390Y-53907142D01*
X119483390Y-53907142D02*
X119864342Y-53907142D01*
X119864342Y-53907142D02*
X119959580Y-53859523D01*
X119959580Y-53859523D02*
X120007200Y-53811904D01*
X120007200Y-53811904D02*
X120054819Y-53716666D01*
X120054819Y-53716666D02*
X120054819Y-53526190D01*
X120054819Y-53526190D02*
X120007200Y-53430952D01*
X120007200Y-53430952D02*
X119959580Y-53383333D01*
X119959580Y-53383333D02*
X119864342Y-53335714D01*
X119864342Y-53335714D02*
X119626247Y-53335714D01*
X119626247Y-53335714D02*
X119531009Y-53383333D01*
X119531009Y-53383333D02*
X119483390Y-53430952D01*
X119483390Y-53430952D02*
X119435771Y-53526190D01*
X119435771Y-53526190D02*
X119435771Y-53716666D01*
X119435771Y-53716666D02*
X119483390Y-53811904D01*
X119483390Y-53811904D02*
X119531009Y-53859523D01*
X119531009Y-53859523D02*
X119626247Y-53907142D01*
X119054819Y-52716666D02*
X119054819Y-52621428D01*
X119054819Y-52621428D02*
X119102438Y-52526190D01*
X119102438Y-52526190D02*
X119150057Y-52478571D01*
X119150057Y-52478571D02*
X119245295Y-52430952D01*
X119245295Y-52430952D02*
X119435771Y-52383333D01*
X119435771Y-52383333D02*
X119673866Y-52383333D01*
X119673866Y-52383333D02*
X119864342Y-52430952D01*
X119864342Y-52430952D02*
X119959580Y-52478571D01*
X119959580Y-52478571D02*
X120007200Y-52526190D01*
X120007200Y-52526190D02*
X120054819Y-52621428D01*
X120054819Y-52621428D02*
X120054819Y-52716666D01*
X120054819Y-52716666D02*
X120007200Y-52811904D01*
X120007200Y-52811904D02*
X119959580Y-52859523D01*
X119959580Y-52859523D02*
X119864342Y-52907142D01*
X119864342Y-52907142D02*
X119673866Y-52954761D01*
X119673866Y-52954761D02*
X119435771Y-52954761D01*
X119435771Y-52954761D02*
X119245295Y-52907142D01*
X119245295Y-52907142D02*
X119150057Y-52859523D01*
X119150057Y-52859523D02*
X119102438Y-52811904D01*
X119102438Y-52811904D02*
X119054819Y-52716666D01*
X120054819Y-51430952D02*
X120054819Y-52002380D01*
X120054819Y-51716666D02*
X119054819Y-51716666D01*
X119054819Y-51716666D02*
X119197676Y-51811904D01*
X119197676Y-51811904D02*
X119292914Y-51907142D01*
X119292914Y-51907142D02*
X119340533Y-52002380D01*
X92799580Y-68699047D02*
X92847200Y-68746666D01*
X92847200Y-68746666D02*
X92894819Y-68889523D01*
X92894819Y-68889523D02*
X92894819Y-68984761D01*
X92894819Y-68984761D02*
X92847200Y-69127618D01*
X92847200Y-69127618D02*
X92751961Y-69222856D01*
X92751961Y-69222856D02*
X92656723Y-69270475D01*
X92656723Y-69270475D02*
X92466247Y-69318094D01*
X92466247Y-69318094D02*
X92323390Y-69318094D01*
X92323390Y-69318094D02*
X92132914Y-69270475D01*
X92132914Y-69270475D02*
X92037676Y-69222856D01*
X92037676Y-69222856D02*
X91942438Y-69127618D01*
X91942438Y-69127618D02*
X91894819Y-68984761D01*
X91894819Y-68984761D02*
X91894819Y-68889523D01*
X91894819Y-68889523D02*
X91942438Y-68746666D01*
X91942438Y-68746666D02*
X91990057Y-68699047D01*
X91894819Y-67794285D02*
X91894819Y-68270475D01*
X91894819Y-68270475D02*
X92371009Y-68318094D01*
X92371009Y-68318094D02*
X92323390Y-68270475D01*
X92323390Y-68270475D02*
X92275771Y-68175237D01*
X92275771Y-68175237D02*
X92275771Y-67937142D01*
X92275771Y-67937142D02*
X92323390Y-67841904D01*
X92323390Y-67841904D02*
X92371009Y-67794285D01*
X92371009Y-67794285D02*
X92466247Y-67746666D01*
X92466247Y-67746666D02*
X92704342Y-67746666D01*
X92704342Y-67746666D02*
X92799580Y-67794285D01*
X92799580Y-67794285D02*
X92847200Y-67841904D01*
X92847200Y-67841904D02*
X92894819Y-67937142D01*
X92894819Y-67937142D02*
X92894819Y-68175237D01*
X92894819Y-68175237D02*
X92847200Y-68270475D01*
X92847200Y-68270475D02*
X92799580Y-68318094D01*
X91894819Y-67127618D02*
X91894819Y-67032380D01*
X91894819Y-67032380D02*
X91942438Y-66937142D01*
X91942438Y-66937142D02*
X91990057Y-66889523D01*
X91990057Y-66889523D02*
X92085295Y-66841904D01*
X92085295Y-66841904D02*
X92275771Y-66794285D01*
X92275771Y-66794285D02*
X92513866Y-66794285D01*
X92513866Y-66794285D02*
X92704342Y-66841904D01*
X92704342Y-66841904D02*
X92799580Y-66889523D01*
X92799580Y-66889523D02*
X92847200Y-66937142D01*
X92847200Y-66937142D02*
X92894819Y-67032380D01*
X92894819Y-67032380D02*
X92894819Y-67127618D01*
X92894819Y-67127618D02*
X92847200Y-67222856D01*
X92847200Y-67222856D02*
X92799580Y-67270475D01*
X92799580Y-67270475D02*
X92704342Y-67318094D01*
X92704342Y-67318094D02*
X92513866Y-67365713D01*
X92513866Y-67365713D02*
X92275771Y-67365713D01*
X92275771Y-67365713D02*
X92085295Y-67318094D01*
X92085295Y-67318094D02*
X91990057Y-67270475D01*
X91990057Y-67270475D02*
X91942438Y-67222856D01*
X91942438Y-67222856D02*
X91894819Y-67127618D01*
X91990057Y-66413332D02*
X91942438Y-66365713D01*
X91942438Y-66365713D02*
X91894819Y-66270475D01*
X91894819Y-66270475D02*
X91894819Y-66032380D01*
X91894819Y-66032380D02*
X91942438Y-65937142D01*
X91942438Y-65937142D02*
X91990057Y-65889523D01*
X91990057Y-65889523D02*
X92085295Y-65841904D01*
X92085295Y-65841904D02*
X92180533Y-65841904D01*
X92180533Y-65841904D02*
X92323390Y-65889523D01*
X92323390Y-65889523D02*
X92894819Y-66460951D01*
X92894819Y-66460951D02*
X92894819Y-65841904D01*
X88399580Y-68719047D02*
X88447200Y-68766666D01*
X88447200Y-68766666D02*
X88494819Y-68909523D01*
X88494819Y-68909523D02*
X88494819Y-69004761D01*
X88494819Y-69004761D02*
X88447200Y-69147618D01*
X88447200Y-69147618D02*
X88351961Y-69242856D01*
X88351961Y-69242856D02*
X88256723Y-69290475D01*
X88256723Y-69290475D02*
X88066247Y-69338094D01*
X88066247Y-69338094D02*
X87923390Y-69338094D01*
X87923390Y-69338094D02*
X87732914Y-69290475D01*
X87732914Y-69290475D02*
X87637676Y-69242856D01*
X87637676Y-69242856D02*
X87542438Y-69147618D01*
X87542438Y-69147618D02*
X87494819Y-69004761D01*
X87494819Y-69004761D02*
X87494819Y-68909523D01*
X87494819Y-68909523D02*
X87542438Y-68766666D01*
X87542438Y-68766666D02*
X87590057Y-68719047D01*
X87494819Y-67814285D02*
X87494819Y-68290475D01*
X87494819Y-68290475D02*
X87971009Y-68338094D01*
X87971009Y-68338094D02*
X87923390Y-68290475D01*
X87923390Y-68290475D02*
X87875771Y-68195237D01*
X87875771Y-68195237D02*
X87875771Y-67957142D01*
X87875771Y-67957142D02*
X87923390Y-67861904D01*
X87923390Y-67861904D02*
X87971009Y-67814285D01*
X87971009Y-67814285D02*
X88066247Y-67766666D01*
X88066247Y-67766666D02*
X88304342Y-67766666D01*
X88304342Y-67766666D02*
X88399580Y-67814285D01*
X88399580Y-67814285D02*
X88447200Y-67861904D01*
X88447200Y-67861904D02*
X88494819Y-67957142D01*
X88494819Y-67957142D02*
X88494819Y-68195237D01*
X88494819Y-68195237D02*
X88447200Y-68290475D01*
X88447200Y-68290475D02*
X88399580Y-68338094D01*
X87494819Y-67147618D02*
X87494819Y-67052380D01*
X87494819Y-67052380D02*
X87542438Y-66957142D01*
X87542438Y-66957142D02*
X87590057Y-66909523D01*
X87590057Y-66909523D02*
X87685295Y-66861904D01*
X87685295Y-66861904D02*
X87875771Y-66814285D01*
X87875771Y-66814285D02*
X88113866Y-66814285D01*
X88113866Y-66814285D02*
X88304342Y-66861904D01*
X88304342Y-66861904D02*
X88399580Y-66909523D01*
X88399580Y-66909523D02*
X88447200Y-66957142D01*
X88447200Y-66957142D02*
X88494819Y-67052380D01*
X88494819Y-67052380D02*
X88494819Y-67147618D01*
X88494819Y-67147618D02*
X88447200Y-67242856D01*
X88447200Y-67242856D02*
X88399580Y-67290475D01*
X88399580Y-67290475D02*
X88304342Y-67338094D01*
X88304342Y-67338094D02*
X88113866Y-67385713D01*
X88113866Y-67385713D02*
X87875771Y-67385713D01*
X87875771Y-67385713D02*
X87685295Y-67338094D01*
X87685295Y-67338094D02*
X87590057Y-67290475D01*
X87590057Y-67290475D02*
X87542438Y-67242856D01*
X87542438Y-67242856D02*
X87494819Y-67147618D01*
X88494819Y-65861904D02*
X88494819Y-66433332D01*
X88494819Y-66147618D02*
X87494819Y-66147618D01*
X87494819Y-66147618D02*
X87637676Y-66242856D01*
X87637676Y-66242856D02*
X87732914Y-66338094D01*
X87732914Y-66338094D02*
X87780533Y-66433332D01*
X83390952Y-45684819D02*
X83057619Y-45208628D01*
X82819524Y-45684819D02*
X82819524Y-44684819D01*
X82819524Y-44684819D02*
X83200476Y-44684819D01*
X83200476Y-44684819D02*
X83295714Y-44732438D01*
X83295714Y-44732438D02*
X83343333Y-44780057D01*
X83343333Y-44780057D02*
X83390952Y-44875295D01*
X83390952Y-44875295D02*
X83390952Y-45018152D01*
X83390952Y-45018152D02*
X83343333Y-45113390D01*
X83343333Y-45113390D02*
X83295714Y-45161009D01*
X83295714Y-45161009D02*
X83200476Y-45208628D01*
X83200476Y-45208628D02*
X82819524Y-45208628D01*
X84248095Y-45018152D02*
X84248095Y-45684819D01*
X84010000Y-44637200D02*
X83771905Y-45351485D01*
X83771905Y-45351485D02*
X84390952Y-45351485D01*
X84962381Y-44684819D02*
X85057619Y-44684819D01*
X85057619Y-44684819D02*
X85152857Y-44732438D01*
X85152857Y-44732438D02*
X85200476Y-44780057D01*
X85200476Y-44780057D02*
X85248095Y-44875295D01*
X85248095Y-44875295D02*
X85295714Y-45065771D01*
X85295714Y-45065771D02*
X85295714Y-45303866D01*
X85295714Y-45303866D02*
X85248095Y-45494342D01*
X85248095Y-45494342D02*
X85200476Y-45589580D01*
X85200476Y-45589580D02*
X85152857Y-45637200D01*
X85152857Y-45637200D02*
X85057619Y-45684819D01*
X85057619Y-45684819D02*
X84962381Y-45684819D01*
X84962381Y-45684819D02*
X84867143Y-45637200D01*
X84867143Y-45637200D02*
X84819524Y-45589580D01*
X84819524Y-45589580D02*
X84771905Y-45494342D01*
X84771905Y-45494342D02*
X84724286Y-45303866D01*
X84724286Y-45303866D02*
X84724286Y-45065771D01*
X84724286Y-45065771D02*
X84771905Y-44875295D01*
X84771905Y-44875295D02*
X84819524Y-44780057D01*
X84819524Y-44780057D02*
X84867143Y-44732438D01*
X84867143Y-44732438D02*
X84962381Y-44684819D01*
X85629048Y-44684819D02*
X86248095Y-44684819D01*
X86248095Y-44684819D02*
X85914762Y-45065771D01*
X85914762Y-45065771D02*
X86057619Y-45065771D01*
X86057619Y-45065771D02*
X86152857Y-45113390D01*
X86152857Y-45113390D02*
X86200476Y-45161009D01*
X86200476Y-45161009D02*
X86248095Y-45256247D01*
X86248095Y-45256247D02*
X86248095Y-45494342D01*
X86248095Y-45494342D02*
X86200476Y-45589580D01*
X86200476Y-45589580D02*
X86152857Y-45637200D01*
X86152857Y-45637200D02*
X86057619Y-45684819D01*
X86057619Y-45684819D02*
X85771905Y-45684819D01*
X85771905Y-45684819D02*
X85676667Y-45637200D01*
X85676667Y-45637200D02*
X85629048Y-45589580D01*
X101280952Y-31399580D02*
X101233333Y-31447200D01*
X101233333Y-31447200D02*
X101090476Y-31494819D01*
X101090476Y-31494819D02*
X100995238Y-31494819D01*
X100995238Y-31494819D02*
X100852381Y-31447200D01*
X100852381Y-31447200D02*
X100757143Y-31351961D01*
X100757143Y-31351961D02*
X100709524Y-31256723D01*
X100709524Y-31256723D02*
X100661905Y-31066247D01*
X100661905Y-31066247D02*
X100661905Y-30923390D01*
X100661905Y-30923390D02*
X100709524Y-30732914D01*
X100709524Y-30732914D02*
X100757143Y-30637676D01*
X100757143Y-30637676D02*
X100852381Y-30542438D01*
X100852381Y-30542438D02*
X100995238Y-30494819D01*
X100995238Y-30494819D02*
X101090476Y-30494819D01*
X101090476Y-30494819D02*
X101233333Y-30542438D01*
X101233333Y-30542438D02*
X101280952Y-30590057D01*
X102138095Y-30828152D02*
X102138095Y-31494819D01*
X101900000Y-30447200D02*
X101661905Y-31161485D01*
X101661905Y-31161485D02*
X102280952Y-31161485D01*
X102852381Y-30494819D02*
X102947619Y-30494819D01*
X102947619Y-30494819D02*
X103042857Y-30542438D01*
X103042857Y-30542438D02*
X103090476Y-30590057D01*
X103090476Y-30590057D02*
X103138095Y-30685295D01*
X103138095Y-30685295D02*
X103185714Y-30875771D01*
X103185714Y-30875771D02*
X103185714Y-31113866D01*
X103185714Y-31113866D02*
X103138095Y-31304342D01*
X103138095Y-31304342D02*
X103090476Y-31399580D01*
X103090476Y-31399580D02*
X103042857Y-31447200D01*
X103042857Y-31447200D02*
X102947619Y-31494819D01*
X102947619Y-31494819D02*
X102852381Y-31494819D01*
X102852381Y-31494819D02*
X102757143Y-31447200D01*
X102757143Y-31447200D02*
X102709524Y-31399580D01*
X102709524Y-31399580D02*
X102661905Y-31304342D01*
X102661905Y-31304342D02*
X102614286Y-31113866D01*
X102614286Y-31113866D02*
X102614286Y-30875771D01*
X102614286Y-30875771D02*
X102661905Y-30685295D01*
X102661905Y-30685295D02*
X102709524Y-30590057D01*
X102709524Y-30590057D02*
X102757143Y-30542438D01*
X102757143Y-30542438D02*
X102852381Y-30494819D01*
X104138095Y-31494819D02*
X103566667Y-31494819D01*
X103852381Y-31494819D02*
X103852381Y-30494819D01*
X103852381Y-30494819D02*
X103757143Y-30637676D01*
X103757143Y-30637676D02*
X103661905Y-30732914D01*
X103661905Y-30732914D02*
X103566667Y-30780533D01*
X129730952Y-73484819D02*
X129397619Y-73008628D01*
X129159524Y-73484819D02*
X129159524Y-72484819D01*
X129159524Y-72484819D02*
X129540476Y-72484819D01*
X129540476Y-72484819D02*
X129635714Y-72532438D01*
X129635714Y-72532438D02*
X129683333Y-72580057D01*
X129683333Y-72580057D02*
X129730952Y-72675295D01*
X129730952Y-72675295D02*
X129730952Y-72818152D01*
X129730952Y-72818152D02*
X129683333Y-72913390D01*
X129683333Y-72913390D02*
X129635714Y-72961009D01*
X129635714Y-72961009D02*
X129540476Y-73008628D01*
X129540476Y-73008628D02*
X129159524Y-73008628D01*
X130588095Y-72484819D02*
X130397619Y-72484819D01*
X130397619Y-72484819D02*
X130302381Y-72532438D01*
X130302381Y-72532438D02*
X130254762Y-72580057D01*
X130254762Y-72580057D02*
X130159524Y-72722914D01*
X130159524Y-72722914D02*
X130111905Y-72913390D01*
X130111905Y-72913390D02*
X130111905Y-73294342D01*
X130111905Y-73294342D02*
X130159524Y-73389580D01*
X130159524Y-73389580D02*
X130207143Y-73437200D01*
X130207143Y-73437200D02*
X130302381Y-73484819D01*
X130302381Y-73484819D02*
X130492857Y-73484819D01*
X130492857Y-73484819D02*
X130588095Y-73437200D01*
X130588095Y-73437200D02*
X130635714Y-73389580D01*
X130635714Y-73389580D02*
X130683333Y-73294342D01*
X130683333Y-73294342D02*
X130683333Y-73056247D01*
X130683333Y-73056247D02*
X130635714Y-72961009D01*
X130635714Y-72961009D02*
X130588095Y-72913390D01*
X130588095Y-72913390D02*
X130492857Y-72865771D01*
X130492857Y-72865771D02*
X130302381Y-72865771D01*
X130302381Y-72865771D02*
X130207143Y-72913390D01*
X130207143Y-72913390D02*
X130159524Y-72961009D01*
X130159524Y-72961009D02*
X130111905Y-73056247D01*
X131302381Y-72484819D02*
X131397619Y-72484819D01*
X131397619Y-72484819D02*
X131492857Y-72532438D01*
X131492857Y-72532438D02*
X131540476Y-72580057D01*
X131540476Y-72580057D02*
X131588095Y-72675295D01*
X131588095Y-72675295D02*
X131635714Y-72865771D01*
X131635714Y-72865771D02*
X131635714Y-73103866D01*
X131635714Y-73103866D02*
X131588095Y-73294342D01*
X131588095Y-73294342D02*
X131540476Y-73389580D01*
X131540476Y-73389580D02*
X131492857Y-73437200D01*
X131492857Y-73437200D02*
X131397619Y-73484819D01*
X131397619Y-73484819D02*
X131302381Y-73484819D01*
X131302381Y-73484819D02*
X131207143Y-73437200D01*
X131207143Y-73437200D02*
X131159524Y-73389580D01*
X131159524Y-73389580D02*
X131111905Y-73294342D01*
X131111905Y-73294342D02*
X131064286Y-73103866D01*
X131064286Y-73103866D02*
X131064286Y-72865771D01*
X131064286Y-72865771D02*
X131111905Y-72675295D01*
X131111905Y-72675295D02*
X131159524Y-72580057D01*
X131159524Y-72580057D02*
X131207143Y-72532438D01*
X131207143Y-72532438D02*
X131302381Y-72484819D01*
X132588095Y-73484819D02*
X132016667Y-73484819D01*
X132302381Y-73484819D02*
X132302381Y-72484819D01*
X132302381Y-72484819D02*
X132207143Y-72627676D01*
X132207143Y-72627676D02*
X132111905Y-72722914D01*
X132111905Y-72722914D02*
X132016667Y-72770533D01*
X126452380Y-53612557D02*
X126357142Y-53564938D01*
X126357142Y-53564938D02*
X126261904Y-53469700D01*
X126261904Y-53469700D02*
X126119047Y-53326842D01*
X126119047Y-53326842D02*
X126023809Y-53279223D01*
X126023809Y-53279223D02*
X125928571Y-53279223D01*
X125976190Y-53517319D02*
X125880952Y-53469700D01*
X125880952Y-53469700D02*
X125785714Y-53374461D01*
X125785714Y-53374461D02*
X125738095Y-53183985D01*
X125738095Y-53183985D02*
X125738095Y-52850652D01*
X125738095Y-52850652D02*
X125785714Y-52660176D01*
X125785714Y-52660176D02*
X125880952Y-52564938D01*
X125880952Y-52564938D02*
X125976190Y-52517319D01*
X125976190Y-52517319D02*
X126166666Y-52517319D01*
X126166666Y-52517319D02*
X126261904Y-52564938D01*
X126261904Y-52564938D02*
X126357142Y-52660176D01*
X126357142Y-52660176D02*
X126404761Y-52850652D01*
X126404761Y-52850652D02*
X126404761Y-53183985D01*
X126404761Y-53183985D02*
X126357142Y-53374461D01*
X126357142Y-53374461D02*
X126261904Y-53469700D01*
X126261904Y-53469700D02*
X126166666Y-53517319D01*
X126166666Y-53517319D02*
X125976190Y-53517319D01*
X127261904Y-52517319D02*
X127071428Y-52517319D01*
X127071428Y-52517319D02*
X126976190Y-52564938D01*
X126976190Y-52564938D02*
X126928571Y-52612557D01*
X126928571Y-52612557D02*
X126833333Y-52755414D01*
X126833333Y-52755414D02*
X126785714Y-52945890D01*
X126785714Y-52945890D02*
X126785714Y-53326842D01*
X126785714Y-53326842D02*
X126833333Y-53422080D01*
X126833333Y-53422080D02*
X126880952Y-53469700D01*
X126880952Y-53469700D02*
X126976190Y-53517319D01*
X126976190Y-53517319D02*
X127166666Y-53517319D01*
X127166666Y-53517319D02*
X127261904Y-53469700D01*
X127261904Y-53469700D02*
X127309523Y-53422080D01*
X127309523Y-53422080D02*
X127357142Y-53326842D01*
X127357142Y-53326842D02*
X127357142Y-53088747D01*
X127357142Y-53088747D02*
X127309523Y-52993509D01*
X127309523Y-52993509D02*
X127261904Y-52945890D01*
X127261904Y-52945890D02*
X127166666Y-52898271D01*
X127166666Y-52898271D02*
X126976190Y-52898271D01*
X126976190Y-52898271D02*
X126880952Y-52945890D01*
X126880952Y-52945890D02*
X126833333Y-52993509D01*
X126833333Y-52993509D02*
X126785714Y-53088747D01*
X127976190Y-52517319D02*
X128071428Y-52517319D01*
X128071428Y-52517319D02*
X128166666Y-52564938D01*
X128166666Y-52564938D02*
X128214285Y-52612557D01*
X128214285Y-52612557D02*
X128261904Y-52707795D01*
X128261904Y-52707795D02*
X128309523Y-52898271D01*
X128309523Y-52898271D02*
X128309523Y-53136366D01*
X128309523Y-53136366D02*
X128261904Y-53326842D01*
X128261904Y-53326842D02*
X128214285Y-53422080D01*
X128214285Y-53422080D02*
X128166666Y-53469700D01*
X128166666Y-53469700D02*
X128071428Y-53517319D01*
X128071428Y-53517319D02*
X127976190Y-53517319D01*
X127976190Y-53517319D02*
X127880952Y-53469700D01*
X127880952Y-53469700D02*
X127833333Y-53422080D01*
X127833333Y-53422080D02*
X127785714Y-53326842D01*
X127785714Y-53326842D02*
X127738095Y-53136366D01*
X127738095Y-53136366D02*
X127738095Y-52898271D01*
X127738095Y-52898271D02*
X127785714Y-52707795D01*
X127785714Y-52707795D02*
X127833333Y-52612557D01*
X127833333Y-52612557D02*
X127880952Y-52564938D01*
X127880952Y-52564938D02*
X127976190Y-52517319D01*
X129261904Y-53517319D02*
X128690476Y-53517319D01*
X128976190Y-53517319D02*
X128976190Y-52517319D01*
X128976190Y-52517319D02*
X128880952Y-52660176D01*
X128880952Y-52660176D02*
X128785714Y-52755414D01*
X128785714Y-52755414D02*
X128690476Y-52803033D01*
X134337200Y-73585713D02*
X134384819Y-73442856D01*
X134384819Y-73442856D02*
X134384819Y-73204761D01*
X134384819Y-73204761D02*
X134337200Y-73109523D01*
X134337200Y-73109523D02*
X134289580Y-73061904D01*
X134289580Y-73061904D02*
X134194342Y-73014285D01*
X134194342Y-73014285D02*
X134099104Y-73014285D01*
X134099104Y-73014285D02*
X134003866Y-73061904D01*
X134003866Y-73061904D02*
X133956247Y-73109523D01*
X133956247Y-73109523D02*
X133908628Y-73204761D01*
X133908628Y-73204761D02*
X133861009Y-73395237D01*
X133861009Y-73395237D02*
X133813390Y-73490475D01*
X133813390Y-73490475D02*
X133765771Y-73538094D01*
X133765771Y-73538094D02*
X133670533Y-73585713D01*
X133670533Y-73585713D02*
X133575295Y-73585713D01*
X133575295Y-73585713D02*
X133480057Y-73538094D01*
X133480057Y-73538094D02*
X133432438Y-73490475D01*
X133432438Y-73490475D02*
X133384819Y-73395237D01*
X133384819Y-73395237D02*
X133384819Y-73157142D01*
X133384819Y-73157142D02*
X133432438Y-73014285D01*
X133384819Y-72680951D02*
X134384819Y-72442856D01*
X134384819Y-72442856D02*
X133670533Y-72252380D01*
X133670533Y-72252380D02*
X134384819Y-72061904D01*
X134384819Y-72061904D02*
X133384819Y-71823809D01*
X133384819Y-71014285D02*
X133384819Y-71204761D01*
X133384819Y-71204761D02*
X133432438Y-71299999D01*
X133432438Y-71299999D02*
X133480057Y-71347618D01*
X133480057Y-71347618D02*
X133622914Y-71442856D01*
X133622914Y-71442856D02*
X133813390Y-71490475D01*
X133813390Y-71490475D02*
X134194342Y-71490475D01*
X134194342Y-71490475D02*
X134289580Y-71442856D01*
X134289580Y-71442856D02*
X134337200Y-71395237D01*
X134337200Y-71395237D02*
X134384819Y-71299999D01*
X134384819Y-71299999D02*
X134384819Y-71109523D01*
X134384819Y-71109523D02*
X134337200Y-71014285D01*
X134337200Y-71014285D02*
X134289580Y-70966666D01*
X134289580Y-70966666D02*
X134194342Y-70919047D01*
X134194342Y-70919047D02*
X133956247Y-70919047D01*
X133956247Y-70919047D02*
X133861009Y-70966666D01*
X133861009Y-70966666D02*
X133813390Y-71014285D01*
X133813390Y-71014285D02*
X133765771Y-71109523D01*
X133765771Y-71109523D02*
X133765771Y-71299999D01*
X133765771Y-71299999D02*
X133813390Y-71395237D01*
X133813390Y-71395237D02*
X133861009Y-71442856D01*
X133861009Y-71442856D02*
X133956247Y-71490475D01*
X133384819Y-70299999D02*
X133384819Y-70204761D01*
X133384819Y-70204761D02*
X133432438Y-70109523D01*
X133432438Y-70109523D02*
X133480057Y-70061904D01*
X133480057Y-70061904D02*
X133575295Y-70014285D01*
X133575295Y-70014285D02*
X133765771Y-69966666D01*
X133765771Y-69966666D02*
X134003866Y-69966666D01*
X134003866Y-69966666D02*
X134194342Y-70014285D01*
X134194342Y-70014285D02*
X134289580Y-70061904D01*
X134289580Y-70061904D02*
X134337200Y-70109523D01*
X134337200Y-70109523D02*
X134384819Y-70204761D01*
X134384819Y-70204761D02*
X134384819Y-70299999D01*
X134384819Y-70299999D02*
X134337200Y-70395237D01*
X134337200Y-70395237D02*
X134289580Y-70442856D01*
X134289580Y-70442856D02*
X134194342Y-70490475D01*
X134194342Y-70490475D02*
X134003866Y-70538094D01*
X134003866Y-70538094D02*
X133765771Y-70538094D01*
X133765771Y-70538094D02*
X133575295Y-70490475D01*
X133575295Y-70490475D02*
X133480057Y-70442856D01*
X133480057Y-70442856D02*
X133432438Y-70395237D01*
X133432438Y-70395237D02*
X133384819Y-70299999D01*
X134384819Y-69014285D02*
X134384819Y-69585713D01*
X134384819Y-69299999D02*
X133384819Y-69299999D01*
X133384819Y-69299999D02*
X133527676Y-69395237D01*
X133527676Y-69395237D02*
X133622914Y-69490475D01*
X133622914Y-69490475D02*
X133670533Y-69585713D01*
X129230952Y-54474819D02*
X128897619Y-53998628D01*
X128659524Y-54474819D02*
X128659524Y-53474819D01*
X128659524Y-53474819D02*
X129040476Y-53474819D01*
X129040476Y-53474819D02*
X129135714Y-53522438D01*
X129135714Y-53522438D02*
X129183333Y-53570057D01*
X129183333Y-53570057D02*
X129230952Y-53665295D01*
X129230952Y-53665295D02*
X129230952Y-53808152D01*
X129230952Y-53808152D02*
X129183333Y-53903390D01*
X129183333Y-53903390D02*
X129135714Y-53951009D01*
X129135714Y-53951009D02*
X129040476Y-53998628D01*
X129040476Y-53998628D02*
X128659524Y-53998628D01*
X130088095Y-53474819D02*
X129897619Y-53474819D01*
X129897619Y-53474819D02*
X129802381Y-53522438D01*
X129802381Y-53522438D02*
X129754762Y-53570057D01*
X129754762Y-53570057D02*
X129659524Y-53712914D01*
X129659524Y-53712914D02*
X129611905Y-53903390D01*
X129611905Y-53903390D02*
X129611905Y-54284342D01*
X129611905Y-54284342D02*
X129659524Y-54379580D01*
X129659524Y-54379580D02*
X129707143Y-54427200D01*
X129707143Y-54427200D02*
X129802381Y-54474819D01*
X129802381Y-54474819D02*
X129992857Y-54474819D01*
X129992857Y-54474819D02*
X130088095Y-54427200D01*
X130088095Y-54427200D02*
X130135714Y-54379580D01*
X130135714Y-54379580D02*
X130183333Y-54284342D01*
X130183333Y-54284342D02*
X130183333Y-54046247D01*
X130183333Y-54046247D02*
X130135714Y-53951009D01*
X130135714Y-53951009D02*
X130088095Y-53903390D01*
X130088095Y-53903390D02*
X129992857Y-53855771D01*
X129992857Y-53855771D02*
X129802381Y-53855771D01*
X129802381Y-53855771D02*
X129707143Y-53903390D01*
X129707143Y-53903390D02*
X129659524Y-53951009D01*
X129659524Y-53951009D02*
X129611905Y-54046247D01*
X130802381Y-53474819D02*
X130897619Y-53474819D01*
X130897619Y-53474819D02*
X130992857Y-53522438D01*
X130992857Y-53522438D02*
X131040476Y-53570057D01*
X131040476Y-53570057D02*
X131088095Y-53665295D01*
X131088095Y-53665295D02*
X131135714Y-53855771D01*
X131135714Y-53855771D02*
X131135714Y-54093866D01*
X131135714Y-54093866D02*
X131088095Y-54284342D01*
X131088095Y-54284342D02*
X131040476Y-54379580D01*
X131040476Y-54379580D02*
X130992857Y-54427200D01*
X130992857Y-54427200D02*
X130897619Y-54474819D01*
X130897619Y-54474819D02*
X130802381Y-54474819D01*
X130802381Y-54474819D02*
X130707143Y-54427200D01*
X130707143Y-54427200D02*
X130659524Y-54379580D01*
X130659524Y-54379580D02*
X130611905Y-54284342D01*
X130611905Y-54284342D02*
X130564286Y-54093866D01*
X130564286Y-54093866D02*
X130564286Y-53855771D01*
X130564286Y-53855771D02*
X130611905Y-53665295D01*
X130611905Y-53665295D02*
X130659524Y-53570057D01*
X130659524Y-53570057D02*
X130707143Y-53522438D01*
X130707143Y-53522438D02*
X130802381Y-53474819D01*
X131992857Y-53474819D02*
X131802381Y-53474819D01*
X131802381Y-53474819D02*
X131707143Y-53522438D01*
X131707143Y-53522438D02*
X131659524Y-53570057D01*
X131659524Y-53570057D02*
X131564286Y-53712914D01*
X131564286Y-53712914D02*
X131516667Y-53903390D01*
X131516667Y-53903390D02*
X131516667Y-54284342D01*
X131516667Y-54284342D02*
X131564286Y-54379580D01*
X131564286Y-54379580D02*
X131611905Y-54427200D01*
X131611905Y-54427200D02*
X131707143Y-54474819D01*
X131707143Y-54474819D02*
X131897619Y-54474819D01*
X131897619Y-54474819D02*
X131992857Y-54427200D01*
X131992857Y-54427200D02*
X132040476Y-54379580D01*
X132040476Y-54379580D02*
X132088095Y-54284342D01*
X132088095Y-54284342D02*
X132088095Y-54046247D01*
X132088095Y-54046247D02*
X132040476Y-53951009D01*
X132040476Y-53951009D02*
X131992857Y-53903390D01*
X131992857Y-53903390D02*
X131897619Y-53855771D01*
X131897619Y-53855771D02*
X131707143Y-53855771D01*
X131707143Y-53855771D02*
X131611905Y-53903390D01*
X131611905Y-53903390D02*
X131564286Y-53951009D01*
X131564286Y-53951009D02*
X131516667Y-54046247D01*
X100632424Y-41654819D02*
X100632424Y-42464342D01*
X100632424Y-42464342D02*
X100680043Y-42559580D01*
X100680043Y-42559580D02*
X100727662Y-42607200D01*
X100727662Y-42607200D02*
X100822900Y-42654819D01*
X100822900Y-42654819D02*
X101013376Y-42654819D01*
X101013376Y-42654819D02*
X101108614Y-42607200D01*
X101108614Y-42607200D02*
X101156233Y-42559580D01*
X101156233Y-42559580D02*
X101203852Y-42464342D01*
X101203852Y-42464342D02*
X101203852Y-41654819D01*
X102108614Y-41988152D02*
X102108614Y-42654819D01*
X101870519Y-41607200D02*
X101632424Y-42321485D01*
X101632424Y-42321485D02*
X102251471Y-42321485D01*
X102822900Y-41654819D02*
X102918138Y-41654819D01*
X102918138Y-41654819D02*
X103013376Y-41702438D01*
X103013376Y-41702438D02*
X103060995Y-41750057D01*
X103060995Y-41750057D02*
X103108614Y-41845295D01*
X103108614Y-41845295D02*
X103156233Y-42035771D01*
X103156233Y-42035771D02*
X103156233Y-42273866D01*
X103156233Y-42273866D02*
X103108614Y-42464342D01*
X103108614Y-42464342D02*
X103060995Y-42559580D01*
X103060995Y-42559580D02*
X103013376Y-42607200D01*
X103013376Y-42607200D02*
X102918138Y-42654819D01*
X102918138Y-42654819D02*
X102822900Y-42654819D01*
X102822900Y-42654819D02*
X102727662Y-42607200D01*
X102727662Y-42607200D02*
X102680043Y-42559580D01*
X102680043Y-42559580D02*
X102632424Y-42464342D01*
X102632424Y-42464342D02*
X102584805Y-42273866D01*
X102584805Y-42273866D02*
X102584805Y-42035771D01*
X102584805Y-42035771D02*
X102632424Y-41845295D01*
X102632424Y-41845295D02*
X102680043Y-41750057D01*
X102680043Y-41750057D02*
X102727662Y-41702438D01*
X102727662Y-41702438D02*
X102822900Y-41654819D01*
X104108614Y-42654819D02*
X103537186Y-42654819D01*
X103822900Y-42654819D02*
X103822900Y-41654819D01*
X103822900Y-41654819D02*
X103727662Y-41797676D01*
X103727662Y-41797676D02*
X103632424Y-41892914D01*
X103632424Y-41892914D02*
X103537186Y-41940533D01*
X101280952Y-32374819D02*
X100947619Y-31898628D01*
X100709524Y-32374819D02*
X100709524Y-31374819D01*
X100709524Y-31374819D02*
X101090476Y-31374819D01*
X101090476Y-31374819D02*
X101185714Y-31422438D01*
X101185714Y-31422438D02*
X101233333Y-31470057D01*
X101233333Y-31470057D02*
X101280952Y-31565295D01*
X101280952Y-31565295D02*
X101280952Y-31708152D01*
X101280952Y-31708152D02*
X101233333Y-31803390D01*
X101233333Y-31803390D02*
X101185714Y-31851009D01*
X101185714Y-31851009D02*
X101090476Y-31898628D01*
X101090476Y-31898628D02*
X100709524Y-31898628D01*
X102138095Y-31708152D02*
X102138095Y-32374819D01*
X101900000Y-31327200D02*
X101661905Y-32041485D01*
X101661905Y-32041485D02*
X102280952Y-32041485D01*
X102852381Y-31374819D02*
X102947619Y-31374819D01*
X102947619Y-31374819D02*
X103042857Y-31422438D01*
X103042857Y-31422438D02*
X103090476Y-31470057D01*
X103090476Y-31470057D02*
X103138095Y-31565295D01*
X103138095Y-31565295D02*
X103185714Y-31755771D01*
X103185714Y-31755771D02*
X103185714Y-31993866D01*
X103185714Y-31993866D02*
X103138095Y-32184342D01*
X103138095Y-32184342D02*
X103090476Y-32279580D01*
X103090476Y-32279580D02*
X103042857Y-32327200D01*
X103042857Y-32327200D02*
X102947619Y-32374819D01*
X102947619Y-32374819D02*
X102852381Y-32374819D01*
X102852381Y-32374819D02*
X102757143Y-32327200D01*
X102757143Y-32327200D02*
X102709524Y-32279580D01*
X102709524Y-32279580D02*
X102661905Y-32184342D01*
X102661905Y-32184342D02*
X102614286Y-31993866D01*
X102614286Y-31993866D02*
X102614286Y-31755771D01*
X102614286Y-31755771D02*
X102661905Y-31565295D01*
X102661905Y-31565295D02*
X102709524Y-31470057D01*
X102709524Y-31470057D02*
X102757143Y-31422438D01*
X102757143Y-31422438D02*
X102852381Y-31374819D01*
X103566667Y-31470057D02*
X103614286Y-31422438D01*
X103614286Y-31422438D02*
X103709524Y-31374819D01*
X103709524Y-31374819D02*
X103947619Y-31374819D01*
X103947619Y-31374819D02*
X104042857Y-31422438D01*
X104042857Y-31422438D02*
X104090476Y-31470057D01*
X104090476Y-31470057D02*
X104138095Y-31565295D01*
X104138095Y-31565295D02*
X104138095Y-31660533D01*
X104138095Y-31660533D02*
X104090476Y-31803390D01*
X104090476Y-31803390D02*
X103519048Y-32374819D01*
X103519048Y-32374819D02*
X104138095Y-32374819D01*
X101280952Y-44324819D02*
X100947619Y-43848628D01*
X100709524Y-44324819D02*
X100709524Y-43324819D01*
X100709524Y-43324819D02*
X101090476Y-43324819D01*
X101090476Y-43324819D02*
X101185714Y-43372438D01*
X101185714Y-43372438D02*
X101233333Y-43420057D01*
X101233333Y-43420057D02*
X101280952Y-43515295D01*
X101280952Y-43515295D02*
X101280952Y-43658152D01*
X101280952Y-43658152D02*
X101233333Y-43753390D01*
X101233333Y-43753390D02*
X101185714Y-43801009D01*
X101185714Y-43801009D02*
X101090476Y-43848628D01*
X101090476Y-43848628D02*
X100709524Y-43848628D01*
X102138095Y-43658152D02*
X102138095Y-44324819D01*
X101900000Y-43277200D02*
X101661905Y-43991485D01*
X101661905Y-43991485D02*
X102280952Y-43991485D01*
X102852381Y-43324819D02*
X102947619Y-43324819D01*
X102947619Y-43324819D02*
X103042857Y-43372438D01*
X103042857Y-43372438D02*
X103090476Y-43420057D01*
X103090476Y-43420057D02*
X103138095Y-43515295D01*
X103138095Y-43515295D02*
X103185714Y-43705771D01*
X103185714Y-43705771D02*
X103185714Y-43943866D01*
X103185714Y-43943866D02*
X103138095Y-44134342D01*
X103138095Y-44134342D02*
X103090476Y-44229580D01*
X103090476Y-44229580D02*
X103042857Y-44277200D01*
X103042857Y-44277200D02*
X102947619Y-44324819D01*
X102947619Y-44324819D02*
X102852381Y-44324819D01*
X102852381Y-44324819D02*
X102757143Y-44277200D01*
X102757143Y-44277200D02*
X102709524Y-44229580D01*
X102709524Y-44229580D02*
X102661905Y-44134342D01*
X102661905Y-44134342D02*
X102614286Y-43943866D01*
X102614286Y-43943866D02*
X102614286Y-43705771D01*
X102614286Y-43705771D02*
X102661905Y-43515295D01*
X102661905Y-43515295D02*
X102709524Y-43420057D01*
X102709524Y-43420057D02*
X102757143Y-43372438D01*
X102757143Y-43372438D02*
X102852381Y-43324819D01*
X104138095Y-44324819D02*
X103566667Y-44324819D01*
X103852381Y-44324819D02*
X103852381Y-43324819D01*
X103852381Y-43324819D02*
X103757143Y-43467676D01*
X103757143Y-43467676D02*
X103661905Y-43562914D01*
X103661905Y-43562914D02*
X103566667Y-43610533D01*
X126105714Y-56004819D02*
X126105714Y-56814342D01*
X126105714Y-56814342D02*
X126153333Y-56909580D01*
X126153333Y-56909580D02*
X126200952Y-56957200D01*
X126200952Y-56957200D02*
X126296190Y-57004819D01*
X126296190Y-57004819D02*
X126486666Y-57004819D01*
X126486666Y-57004819D02*
X126581904Y-56957200D01*
X126581904Y-56957200D02*
X126629523Y-56909580D01*
X126629523Y-56909580D02*
X126677142Y-56814342D01*
X126677142Y-56814342D02*
X126677142Y-56004819D01*
X127581904Y-56004819D02*
X127391428Y-56004819D01*
X127391428Y-56004819D02*
X127296190Y-56052438D01*
X127296190Y-56052438D02*
X127248571Y-56100057D01*
X127248571Y-56100057D02*
X127153333Y-56242914D01*
X127153333Y-56242914D02*
X127105714Y-56433390D01*
X127105714Y-56433390D02*
X127105714Y-56814342D01*
X127105714Y-56814342D02*
X127153333Y-56909580D01*
X127153333Y-56909580D02*
X127200952Y-56957200D01*
X127200952Y-56957200D02*
X127296190Y-57004819D01*
X127296190Y-57004819D02*
X127486666Y-57004819D01*
X127486666Y-57004819D02*
X127581904Y-56957200D01*
X127581904Y-56957200D02*
X127629523Y-56909580D01*
X127629523Y-56909580D02*
X127677142Y-56814342D01*
X127677142Y-56814342D02*
X127677142Y-56576247D01*
X127677142Y-56576247D02*
X127629523Y-56481009D01*
X127629523Y-56481009D02*
X127581904Y-56433390D01*
X127581904Y-56433390D02*
X127486666Y-56385771D01*
X127486666Y-56385771D02*
X127296190Y-56385771D01*
X127296190Y-56385771D02*
X127200952Y-56433390D01*
X127200952Y-56433390D02*
X127153333Y-56481009D01*
X127153333Y-56481009D02*
X127105714Y-56576247D01*
X128296190Y-56004819D02*
X128391428Y-56004819D01*
X128391428Y-56004819D02*
X128486666Y-56052438D01*
X128486666Y-56052438D02*
X128534285Y-56100057D01*
X128534285Y-56100057D02*
X128581904Y-56195295D01*
X128581904Y-56195295D02*
X128629523Y-56385771D01*
X128629523Y-56385771D02*
X128629523Y-56623866D01*
X128629523Y-56623866D02*
X128581904Y-56814342D01*
X128581904Y-56814342D02*
X128534285Y-56909580D01*
X128534285Y-56909580D02*
X128486666Y-56957200D01*
X128486666Y-56957200D02*
X128391428Y-57004819D01*
X128391428Y-57004819D02*
X128296190Y-57004819D01*
X128296190Y-57004819D02*
X128200952Y-56957200D01*
X128200952Y-56957200D02*
X128153333Y-56909580D01*
X128153333Y-56909580D02*
X128105714Y-56814342D01*
X128105714Y-56814342D02*
X128058095Y-56623866D01*
X128058095Y-56623866D02*
X128058095Y-56385771D01*
X128058095Y-56385771D02*
X128105714Y-56195295D01*
X128105714Y-56195295D02*
X128153333Y-56100057D01*
X128153333Y-56100057D02*
X128200952Y-56052438D01*
X128200952Y-56052438D02*
X128296190Y-56004819D01*
X129010476Y-56100057D02*
X129058095Y-56052438D01*
X129058095Y-56052438D02*
X129153333Y-56004819D01*
X129153333Y-56004819D02*
X129391428Y-56004819D01*
X129391428Y-56004819D02*
X129486666Y-56052438D01*
X129486666Y-56052438D02*
X129534285Y-56100057D01*
X129534285Y-56100057D02*
X129581904Y-56195295D01*
X129581904Y-56195295D02*
X129581904Y-56290533D01*
X129581904Y-56290533D02*
X129534285Y-56433390D01*
X129534285Y-56433390D02*
X128962857Y-57004819D01*
X128962857Y-57004819D02*
X129581904Y-57004819D01*
X73824819Y-37834285D02*
X73824819Y-37262857D01*
X74824819Y-37548571D02*
X73824819Y-37548571D01*
X74158152Y-36500952D02*
X74824819Y-36500952D01*
X73777200Y-36739047D02*
X74491485Y-36977142D01*
X74491485Y-36977142D02*
X74491485Y-36358095D01*
X73824819Y-35786666D02*
X73824819Y-35691428D01*
X73824819Y-35691428D02*
X73872438Y-35596190D01*
X73872438Y-35596190D02*
X73920057Y-35548571D01*
X73920057Y-35548571D02*
X74015295Y-35500952D01*
X74015295Y-35500952D02*
X74205771Y-35453333D01*
X74205771Y-35453333D02*
X74443866Y-35453333D01*
X74443866Y-35453333D02*
X74634342Y-35500952D01*
X74634342Y-35500952D02*
X74729580Y-35548571D01*
X74729580Y-35548571D02*
X74777200Y-35596190D01*
X74777200Y-35596190D02*
X74824819Y-35691428D01*
X74824819Y-35691428D02*
X74824819Y-35786666D01*
X74824819Y-35786666D02*
X74777200Y-35881904D01*
X74777200Y-35881904D02*
X74729580Y-35929523D01*
X74729580Y-35929523D02*
X74634342Y-35977142D01*
X74634342Y-35977142D02*
X74443866Y-36024761D01*
X74443866Y-36024761D02*
X74205771Y-36024761D01*
X74205771Y-36024761D02*
X74015295Y-35977142D01*
X74015295Y-35977142D02*
X73920057Y-35929523D01*
X73920057Y-35929523D02*
X73872438Y-35881904D01*
X73872438Y-35881904D02*
X73824819Y-35786666D01*
X74824819Y-34500952D02*
X74824819Y-35072380D01*
X74824819Y-34786666D02*
X73824819Y-34786666D01*
X73824819Y-34786666D02*
X73967676Y-34881904D01*
X73967676Y-34881904D02*
X74062914Y-34977142D01*
X74062914Y-34977142D02*
X74110533Y-35072380D01*
X92463276Y-28881904D02*
X92463276Y-29247619D01*
X92463276Y-29064762D02*
X91823276Y-29064762D01*
X91823276Y-29064762D02*
X91914704Y-29125714D01*
X91914704Y-29125714D02*
X91975657Y-29186666D01*
X91975657Y-29186666D02*
X92006133Y-29247619D01*
X92036609Y-28333333D02*
X92463276Y-28333333D01*
X91792800Y-28485714D02*
X92249942Y-28638095D01*
X92249942Y-28638095D02*
X92249942Y-28241904D01*
X92463276Y-41837142D02*
X92463276Y-42202857D01*
X92463276Y-42020000D02*
X91823276Y-42020000D01*
X91823276Y-42020000D02*
X91914704Y-42080952D01*
X91914704Y-42080952D02*
X91975657Y-42141904D01*
X91975657Y-42141904D02*
X92006133Y-42202857D01*
X100612424Y-36704819D02*
X100612424Y-37514342D01*
X100612424Y-37514342D02*
X100660043Y-37609580D01*
X100660043Y-37609580D02*
X100707662Y-37657200D01*
X100707662Y-37657200D02*
X100802900Y-37704819D01*
X100802900Y-37704819D02*
X100993376Y-37704819D01*
X100993376Y-37704819D02*
X101088614Y-37657200D01*
X101088614Y-37657200D02*
X101136233Y-37609580D01*
X101136233Y-37609580D02*
X101183852Y-37514342D01*
X101183852Y-37514342D02*
X101183852Y-36704819D01*
X102088614Y-37038152D02*
X102088614Y-37704819D01*
X101850519Y-36657200D02*
X101612424Y-37371485D01*
X101612424Y-37371485D02*
X102231471Y-37371485D01*
X102802900Y-36704819D02*
X102898138Y-36704819D01*
X102898138Y-36704819D02*
X102993376Y-36752438D01*
X102993376Y-36752438D02*
X103040995Y-36800057D01*
X103040995Y-36800057D02*
X103088614Y-36895295D01*
X103088614Y-36895295D02*
X103136233Y-37085771D01*
X103136233Y-37085771D02*
X103136233Y-37323866D01*
X103136233Y-37323866D02*
X103088614Y-37514342D01*
X103088614Y-37514342D02*
X103040995Y-37609580D01*
X103040995Y-37609580D02*
X102993376Y-37657200D01*
X102993376Y-37657200D02*
X102898138Y-37704819D01*
X102898138Y-37704819D02*
X102802900Y-37704819D01*
X102802900Y-37704819D02*
X102707662Y-37657200D01*
X102707662Y-37657200D02*
X102660043Y-37609580D01*
X102660043Y-37609580D02*
X102612424Y-37514342D01*
X102612424Y-37514342D02*
X102564805Y-37323866D01*
X102564805Y-37323866D02*
X102564805Y-37085771D01*
X102564805Y-37085771D02*
X102612424Y-36895295D01*
X102612424Y-36895295D02*
X102660043Y-36800057D01*
X102660043Y-36800057D02*
X102707662Y-36752438D01*
X102707662Y-36752438D02*
X102802900Y-36704819D01*
X103517186Y-36800057D02*
X103564805Y-36752438D01*
X103564805Y-36752438D02*
X103660043Y-36704819D01*
X103660043Y-36704819D02*
X103898138Y-36704819D01*
X103898138Y-36704819D02*
X103993376Y-36752438D01*
X103993376Y-36752438D02*
X104040995Y-36800057D01*
X104040995Y-36800057D02*
X104088614Y-36895295D01*
X104088614Y-36895295D02*
X104088614Y-36990533D01*
X104088614Y-36990533D02*
X104040995Y-37133390D01*
X104040995Y-37133390D02*
X103469567Y-37704819D01*
X103469567Y-37704819D02*
X104088614Y-37704819D01*
D12*
X131704318Y-52446905D02*
X130434318Y-52446905D01*
X130434318Y-52446905D02*
X130434318Y-52144524D01*
X130434318Y-52144524D02*
X130494794Y-51963095D01*
X130494794Y-51963095D02*
X130615746Y-51842143D01*
X130615746Y-51842143D02*
X130736699Y-51781666D01*
X130736699Y-51781666D02*
X130978603Y-51721190D01*
X130978603Y-51721190D02*
X131160032Y-51721190D01*
X131160032Y-51721190D02*
X131401937Y-51781666D01*
X131401937Y-51781666D02*
X131522889Y-51842143D01*
X131522889Y-51842143D02*
X131643842Y-51963095D01*
X131643842Y-51963095D02*
X131704318Y-52144524D01*
X131704318Y-52144524D02*
X131704318Y-52446905D01*
X130434318Y-50632619D02*
X130434318Y-50874524D01*
X130434318Y-50874524D02*
X130494794Y-50995476D01*
X130494794Y-50995476D02*
X130555270Y-51055952D01*
X130555270Y-51055952D02*
X130736699Y-51176905D01*
X130736699Y-51176905D02*
X130978603Y-51237381D01*
X130978603Y-51237381D02*
X131462413Y-51237381D01*
X131462413Y-51237381D02*
X131583365Y-51176905D01*
X131583365Y-51176905D02*
X131643842Y-51116428D01*
X131643842Y-51116428D02*
X131704318Y-50995476D01*
X131704318Y-50995476D02*
X131704318Y-50753571D01*
X131704318Y-50753571D02*
X131643842Y-50632619D01*
X131643842Y-50632619D02*
X131583365Y-50572143D01*
X131583365Y-50572143D02*
X131462413Y-50511666D01*
X131462413Y-50511666D02*
X131160032Y-50511666D01*
X131160032Y-50511666D02*
X131039080Y-50572143D01*
X131039080Y-50572143D02*
X130978603Y-50632619D01*
X130978603Y-50632619D02*
X130918127Y-50753571D01*
X130918127Y-50753571D02*
X130918127Y-50995476D01*
X130918127Y-50995476D02*
X130978603Y-51116428D01*
X130978603Y-51116428D02*
X131039080Y-51176905D01*
X131039080Y-51176905D02*
X131160032Y-51237381D01*
X130434318Y-49725476D02*
X130434318Y-49604523D01*
X130434318Y-49604523D02*
X130494794Y-49483571D01*
X130494794Y-49483571D02*
X130555270Y-49423095D01*
X130555270Y-49423095D02*
X130676222Y-49362619D01*
X130676222Y-49362619D02*
X130918127Y-49302142D01*
X130918127Y-49302142D02*
X131220508Y-49302142D01*
X131220508Y-49302142D02*
X131462413Y-49362619D01*
X131462413Y-49362619D02*
X131583365Y-49423095D01*
X131583365Y-49423095D02*
X131643842Y-49483571D01*
X131643842Y-49483571D02*
X131704318Y-49604523D01*
X131704318Y-49604523D02*
X131704318Y-49725476D01*
X131704318Y-49725476D02*
X131643842Y-49846428D01*
X131643842Y-49846428D02*
X131583365Y-49906904D01*
X131583365Y-49906904D02*
X131462413Y-49967381D01*
X131462413Y-49967381D02*
X131220508Y-50027857D01*
X131220508Y-50027857D02*
X130918127Y-50027857D01*
X130918127Y-50027857D02*
X130676222Y-49967381D01*
X130676222Y-49967381D02*
X130555270Y-49906904D01*
X130555270Y-49906904D02*
X130494794Y-49846428D01*
X130494794Y-49846428D02*
X130434318Y-49725476D01*
X131704318Y-48092618D02*
X131704318Y-48818333D01*
X131704318Y-48455476D02*
X130434318Y-48455476D01*
X130434318Y-48455476D02*
X130615746Y-48576428D01*
X130615746Y-48576428D02*
X130736699Y-48697380D01*
X130736699Y-48697380D02*
X130797175Y-48818333D01*
D10*
X126095714Y-53154819D02*
X126095714Y-53964342D01*
X126095714Y-53964342D02*
X126143333Y-54059580D01*
X126143333Y-54059580D02*
X126190952Y-54107200D01*
X126190952Y-54107200D02*
X126286190Y-54154819D01*
X126286190Y-54154819D02*
X126476666Y-54154819D01*
X126476666Y-54154819D02*
X126571904Y-54107200D01*
X126571904Y-54107200D02*
X126619523Y-54059580D01*
X126619523Y-54059580D02*
X126667142Y-53964342D01*
X126667142Y-53964342D02*
X126667142Y-53154819D01*
X127571904Y-53154819D02*
X127381428Y-53154819D01*
X127381428Y-53154819D02*
X127286190Y-53202438D01*
X127286190Y-53202438D02*
X127238571Y-53250057D01*
X127238571Y-53250057D02*
X127143333Y-53392914D01*
X127143333Y-53392914D02*
X127095714Y-53583390D01*
X127095714Y-53583390D02*
X127095714Y-53964342D01*
X127095714Y-53964342D02*
X127143333Y-54059580D01*
X127143333Y-54059580D02*
X127190952Y-54107200D01*
X127190952Y-54107200D02*
X127286190Y-54154819D01*
X127286190Y-54154819D02*
X127476666Y-54154819D01*
X127476666Y-54154819D02*
X127571904Y-54107200D01*
X127571904Y-54107200D02*
X127619523Y-54059580D01*
X127619523Y-54059580D02*
X127667142Y-53964342D01*
X127667142Y-53964342D02*
X127667142Y-53726247D01*
X127667142Y-53726247D02*
X127619523Y-53631009D01*
X127619523Y-53631009D02*
X127571904Y-53583390D01*
X127571904Y-53583390D02*
X127476666Y-53535771D01*
X127476666Y-53535771D02*
X127286190Y-53535771D01*
X127286190Y-53535771D02*
X127190952Y-53583390D01*
X127190952Y-53583390D02*
X127143333Y-53631009D01*
X127143333Y-53631009D02*
X127095714Y-53726247D01*
X128286190Y-53154819D02*
X128381428Y-53154819D01*
X128381428Y-53154819D02*
X128476666Y-53202438D01*
X128476666Y-53202438D02*
X128524285Y-53250057D01*
X128524285Y-53250057D02*
X128571904Y-53345295D01*
X128571904Y-53345295D02*
X128619523Y-53535771D01*
X128619523Y-53535771D02*
X128619523Y-53773866D01*
X128619523Y-53773866D02*
X128571904Y-53964342D01*
X128571904Y-53964342D02*
X128524285Y-54059580D01*
X128524285Y-54059580D02*
X128476666Y-54107200D01*
X128476666Y-54107200D02*
X128381428Y-54154819D01*
X128381428Y-54154819D02*
X128286190Y-54154819D01*
X128286190Y-54154819D02*
X128190952Y-54107200D01*
X128190952Y-54107200D02*
X128143333Y-54059580D01*
X128143333Y-54059580D02*
X128095714Y-53964342D01*
X128095714Y-53964342D02*
X128048095Y-53773866D01*
X128048095Y-53773866D02*
X128048095Y-53535771D01*
X128048095Y-53535771D02*
X128095714Y-53345295D01*
X128095714Y-53345295D02*
X128143333Y-53250057D01*
X128143333Y-53250057D02*
X128190952Y-53202438D01*
X128190952Y-53202438D02*
X128286190Y-53154819D01*
X128952857Y-53154819D02*
X129571904Y-53154819D01*
X129571904Y-53154819D02*
X129238571Y-53535771D01*
X129238571Y-53535771D02*
X129381428Y-53535771D01*
X129381428Y-53535771D02*
X129476666Y-53583390D01*
X129476666Y-53583390D02*
X129524285Y-53631009D01*
X129524285Y-53631009D02*
X129571904Y-53726247D01*
X129571904Y-53726247D02*
X129571904Y-53964342D01*
X129571904Y-53964342D02*
X129524285Y-54059580D01*
X129524285Y-54059580D02*
X129476666Y-54107200D01*
X129476666Y-54107200D02*
X129381428Y-54154819D01*
X129381428Y-54154819D02*
X129095714Y-54154819D01*
X129095714Y-54154819D02*
X129000476Y-54107200D01*
X129000476Y-54107200D02*
X128952857Y-54059580D01*
X127390952Y-50074819D02*
X127057619Y-49598628D01*
X126819524Y-50074819D02*
X126819524Y-49074819D01*
X126819524Y-49074819D02*
X127200476Y-49074819D01*
X127200476Y-49074819D02*
X127295714Y-49122438D01*
X127295714Y-49122438D02*
X127343333Y-49170057D01*
X127343333Y-49170057D02*
X127390952Y-49265295D01*
X127390952Y-49265295D02*
X127390952Y-49408152D01*
X127390952Y-49408152D02*
X127343333Y-49503390D01*
X127343333Y-49503390D02*
X127295714Y-49551009D01*
X127295714Y-49551009D02*
X127200476Y-49598628D01*
X127200476Y-49598628D02*
X126819524Y-49598628D01*
X128248095Y-49074819D02*
X128057619Y-49074819D01*
X128057619Y-49074819D02*
X127962381Y-49122438D01*
X127962381Y-49122438D02*
X127914762Y-49170057D01*
X127914762Y-49170057D02*
X127819524Y-49312914D01*
X127819524Y-49312914D02*
X127771905Y-49503390D01*
X127771905Y-49503390D02*
X127771905Y-49884342D01*
X127771905Y-49884342D02*
X127819524Y-49979580D01*
X127819524Y-49979580D02*
X127867143Y-50027200D01*
X127867143Y-50027200D02*
X127962381Y-50074819D01*
X127962381Y-50074819D02*
X128152857Y-50074819D01*
X128152857Y-50074819D02*
X128248095Y-50027200D01*
X128248095Y-50027200D02*
X128295714Y-49979580D01*
X128295714Y-49979580D02*
X128343333Y-49884342D01*
X128343333Y-49884342D02*
X128343333Y-49646247D01*
X128343333Y-49646247D02*
X128295714Y-49551009D01*
X128295714Y-49551009D02*
X128248095Y-49503390D01*
X128248095Y-49503390D02*
X128152857Y-49455771D01*
X128152857Y-49455771D02*
X127962381Y-49455771D01*
X127962381Y-49455771D02*
X127867143Y-49503390D01*
X127867143Y-49503390D02*
X127819524Y-49551009D01*
X127819524Y-49551009D02*
X127771905Y-49646247D01*
X128962381Y-49074819D02*
X129057619Y-49074819D01*
X129057619Y-49074819D02*
X129152857Y-49122438D01*
X129152857Y-49122438D02*
X129200476Y-49170057D01*
X129200476Y-49170057D02*
X129248095Y-49265295D01*
X129248095Y-49265295D02*
X129295714Y-49455771D01*
X129295714Y-49455771D02*
X129295714Y-49693866D01*
X129295714Y-49693866D02*
X129248095Y-49884342D01*
X129248095Y-49884342D02*
X129200476Y-49979580D01*
X129200476Y-49979580D02*
X129152857Y-50027200D01*
X129152857Y-50027200D02*
X129057619Y-50074819D01*
X129057619Y-50074819D02*
X128962381Y-50074819D01*
X128962381Y-50074819D02*
X128867143Y-50027200D01*
X128867143Y-50027200D02*
X128819524Y-49979580D01*
X128819524Y-49979580D02*
X128771905Y-49884342D01*
X128771905Y-49884342D02*
X128724286Y-49693866D01*
X128724286Y-49693866D02*
X128724286Y-49455771D01*
X128724286Y-49455771D02*
X128771905Y-49265295D01*
X128771905Y-49265295D02*
X128819524Y-49170057D01*
X128819524Y-49170057D02*
X128867143Y-49122438D01*
X128867143Y-49122438D02*
X128962381Y-49074819D01*
X129676667Y-49170057D02*
X129724286Y-49122438D01*
X129724286Y-49122438D02*
X129819524Y-49074819D01*
X129819524Y-49074819D02*
X130057619Y-49074819D01*
X130057619Y-49074819D02*
X130152857Y-49122438D01*
X130152857Y-49122438D02*
X130200476Y-49170057D01*
X130200476Y-49170057D02*
X130248095Y-49265295D01*
X130248095Y-49265295D02*
X130248095Y-49360533D01*
X130248095Y-49360533D02*
X130200476Y-49503390D01*
X130200476Y-49503390D02*
X129629048Y-50074819D01*
X129629048Y-50074819D02*
X130248095Y-50074819D01*
D12*
X131704318Y-62496905D02*
X130434318Y-62496905D01*
X130434318Y-62496905D02*
X130434318Y-62194524D01*
X130434318Y-62194524D02*
X130494794Y-62013095D01*
X130494794Y-62013095D02*
X130615746Y-61892143D01*
X130615746Y-61892143D02*
X130736699Y-61831666D01*
X130736699Y-61831666D02*
X130978603Y-61771190D01*
X130978603Y-61771190D02*
X131160032Y-61771190D01*
X131160032Y-61771190D02*
X131401937Y-61831666D01*
X131401937Y-61831666D02*
X131522889Y-61892143D01*
X131522889Y-61892143D02*
X131643842Y-62013095D01*
X131643842Y-62013095D02*
X131704318Y-62194524D01*
X131704318Y-62194524D02*
X131704318Y-62496905D01*
X130434318Y-60682619D02*
X130434318Y-60924524D01*
X130434318Y-60924524D02*
X130494794Y-61045476D01*
X130494794Y-61045476D02*
X130555270Y-61105952D01*
X130555270Y-61105952D02*
X130736699Y-61226905D01*
X130736699Y-61226905D02*
X130978603Y-61287381D01*
X130978603Y-61287381D02*
X131462413Y-61287381D01*
X131462413Y-61287381D02*
X131583365Y-61226905D01*
X131583365Y-61226905D02*
X131643842Y-61166428D01*
X131643842Y-61166428D02*
X131704318Y-61045476D01*
X131704318Y-61045476D02*
X131704318Y-60803571D01*
X131704318Y-60803571D02*
X131643842Y-60682619D01*
X131643842Y-60682619D02*
X131583365Y-60622143D01*
X131583365Y-60622143D02*
X131462413Y-60561666D01*
X131462413Y-60561666D02*
X131160032Y-60561666D01*
X131160032Y-60561666D02*
X131039080Y-60622143D01*
X131039080Y-60622143D02*
X130978603Y-60682619D01*
X130978603Y-60682619D02*
X130918127Y-60803571D01*
X130918127Y-60803571D02*
X130918127Y-61045476D01*
X130918127Y-61045476D02*
X130978603Y-61166428D01*
X130978603Y-61166428D02*
X131039080Y-61226905D01*
X131039080Y-61226905D02*
X131160032Y-61287381D01*
X130434318Y-59775476D02*
X130434318Y-59654523D01*
X130434318Y-59654523D02*
X130494794Y-59533571D01*
X130494794Y-59533571D02*
X130555270Y-59473095D01*
X130555270Y-59473095D02*
X130676222Y-59412619D01*
X130676222Y-59412619D02*
X130918127Y-59352142D01*
X130918127Y-59352142D02*
X131220508Y-59352142D01*
X131220508Y-59352142D02*
X131462413Y-59412619D01*
X131462413Y-59412619D02*
X131583365Y-59473095D01*
X131583365Y-59473095D02*
X131643842Y-59533571D01*
X131643842Y-59533571D02*
X131704318Y-59654523D01*
X131704318Y-59654523D02*
X131704318Y-59775476D01*
X131704318Y-59775476D02*
X131643842Y-59896428D01*
X131643842Y-59896428D02*
X131583365Y-59956904D01*
X131583365Y-59956904D02*
X131462413Y-60017381D01*
X131462413Y-60017381D02*
X131220508Y-60077857D01*
X131220508Y-60077857D02*
X130918127Y-60077857D01*
X130918127Y-60077857D02*
X130676222Y-60017381D01*
X130676222Y-60017381D02*
X130555270Y-59956904D01*
X130555270Y-59956904D02*
X130494794Y-59896428D01*
X130494794Y-59896428D02*
X130434318Y-59775476D01*
X130434318Y-58203095D02*
X130434318Y-58807857D01*
X130434318Y-58807857D02*
X131039080Y-58868333D01*
X131039080Y-58868333D02*
X130978603Y-58807857D01*
X130978603Y-58807857D02*
X130918127Y-58686904D01*
X130918127Y-58686904D02*
X130918127Y-58384523D01*
X130918127Y-58384523D02*
X130978603Y-58263571D01*
X130978603Y-58263571D02*
X131039080Y-58203095D01*
X131039080Y-58203095D02*
X131160032Y-58142618D01*
X131160032Y-58142618D02*
X131462413Y-58142618D01*
X131462413Y-58142618D02*
X131583365Y-58203095D01*
X131583365Y-58203095D02*
X131643842Y-58263571D01*
X131643842Y-58263571D02*
X131704318Y-58384523D01*
X131704318Y-58384523D02*
X131704318Y-58686904D01*
X131704318Y-58686904D02*
X131643842Y-58807857D01*
X131643842Y-58807857D02*
X131583365Y-58868333D01*
X131704318Y-57496905D02*
X130434318Y-57496905D01*
X130434318Y-57496905D02*
X130434318Y-57194524D01*
X130434318Y-57194524D02*
X130494794Y-57013095D01*
X130494794Y-57013095D02*
X130615746Y-56892143D01*
X130615746Y-56892143D02*
X130736699Y-56831666D01*
X130736699Y-56831666D02*
X130978603Y-56771190D01*
X130978603Y-56771190D02*
X131160032Y-56771190D01*
X131160032Y-56771190D02*
X131401937Y-56831666D01*
X131401937Y-56831666D02*
X131522889Y-56892143D01*
X131522889Y-56892143D02*
X131643842Y-57013095D01*
X131643842Y-57013095D02*
X131704318Y-57194524D01*
X131704318Y-57194524D02*
X131704318Y-57496905D01*
X130434318Y-55682619D02*
X130434318Y-55924524D01*
X130434318Y-55924524D02*
X130494794Y-56045476D01*
X130494794Y-56045476D02*
X130555270Y-56105952D01*
X130555270Y-56105952D02*
X130736699Y-56226905D01*
X130736699Y-56226905D02*
X130978603Y-56287381D01*
X130978603Y-56287381D02*
X131462413Y-56287381D01*
X131462413Y-56287381D02*
X131583365Y-56226905D01*
X131583365Y-56226905D02*
X131643842Y-56166428D01*
X131643842Y-56166428D02*
X131704318Y-56045476D01*
X131704318Y-56045476D02*
X131704318Y-55803571D01*
X131704318Y-55803571D02*
X131643842Y-55682619D01*
X131643842Y-55682619D02*
X131583365Y-55622143D01*
X131583365Y-55622143D02*
X131462413Y-55561666D01*
X131462413Y-55561666D02*
X131160032Y-55561666D01*
X131160032Y-55561666D02*
X131039080Y-55622143D01*
X131039080Y-55622143D02*
X130978603Y-55682619D01*
X130978603Y-55682619D02*
X130918127Y-55803571D01*
X130918127Y-55803571D02*
X130918127Y-56045476D01*
X130918127Y-56045476D02*
X130978603Y-56166428D01*
X130978603Y-56166428D02*
X131039080Y-56226905D01*
X131039080Y-56226905D02*
X131160032Y-56287381D01*
X130434318Y-54775476D02*
X130434318Y-54654523D01*
X130434318Y-54654523D02*
X130494794Y-54533571D01*
X130494794Y-54533571D02*
X130555270Y-54473095D01*
X130555270Y-54473095D02*
X130676222Y-54412619D01*
X130676222Y-54412619D02*
X130918127Y-54352142D01*
X130918127Y-54352142D02*
X131220508Y-54352142D01*
X131220508Y-54352142D02*
X131462413Y-54412619D01*
X131462413Y-54412619D02*
X131583365Y-54473095D01*
X131583365Y-54473095D02*
X131643842Y-54533571D01*
X131643842Y-54533571D02*
X131704318Y-54654523D01*
X131704318Y-54654523D02*
X131704318Y-54775476D01*
X131704318Y-54775476D02*
X131643842Y-54896428D01*
X131643842Y-54896428D02*
X131583365Y-54956904D01*
X131583365Y-54956904D02*
X131462413Y-55017381D01*
X131462413Y-55017381D02*
X131220508Y-55077857D01*
X131220508Y-55077857D02*
X130918127Y-55077857D01*
X130918127Y-55077857D02*
X130676222Y-55017381D01*
X130676222Y-55017381D02*
X130555270Y-54956904D01*
X130555270Y-54956904D02*
X130494794Y-54896428D01*
X130494794Y-54896428D02*
X130434318Y-54775476D01*
X130434318Y-53263571D02*
X130434318Y-53505476D01*
X130434318Y-53505476D02*
X130494794Y-53626428D01*
X130494794Y-53626428D02*
X130555270Y-53686904D01*
X130555270Y-53686904D02*
X130736699Y-53807857D01*
X130736699Y-53807857D02*
X130978603Y-53868333D01*
X130978603Y-53868333D02*
X131462413Y-53868333D01*
X131462413Y-53868333D02*
X131583365Y-53807857D01*
X131583365Y-53807857D02*
X131643842Y-53747380D01*
X131643842Y-53747380D02*
X131704318Y-53626428D01*
X131704318Y-53626428D02*
X131704318Y-53384523D01*
X131704318Y-53384523D02*
X131643842Y-53263571D01*
X131643842Y-53263571D02*
X131583365Y-53203095D01*
X131583365Y-53203095D02*
X131462413Y-53142618D01*
X131462413Y-53142618D02*
X131160032Y-53142618D01*
X131160032Y-53142618D02*
X131039080Y-53203095D01*
X131039080Y-53203095D02*
X130978603Y-53263571D01*
X130978603Y-53263571D02*
X130918127Y-53384523D01*
X130918127Y-53384523D02*
X130918127Y-53626428D01*
X130918127Y-53626428D02*
X130978603Y-53747380D01*
X130978603Y-53747380D02*
X131039080Y-53807857D01*
X131039080Y-53807857D02*
X131160032Y-53868333D01*
D10*
X129230952Y-59474819D02*
X128897619Y-58998628D01*
X128659524Y-59474819D02*
X128659524Y-58474819D01*
X128659524Y-58474819D02*
X129040476Y-58474819D01*
X129040476Y-58474819D02*
X129135714Y-58522438D01*
X129135714Y-58522438D02*
X129183333Y-58570057D01*
X129183333Y-58570057D02*
X129230952Y-58665295D01*
X129230952Y-58665295D02*
X129230952Y-58808152D01*
X129230952Y-58808152D02*
X129183333Y-58903390D01*
X129183333Y-58903390D02*
X129135714Y-58951009D01*
X129135714Y-58951009D02*
X129040476Y-58998628D01*
X129040476Y-58998628D02*
X128659524Y-58998628D01*
X130088095Y-58474819D02*
X129897619Y-58474819D01*
X129897619Y-58474819D02*
X129802381Y-58522438D01*
X129802381Y-58522438D02*
X129754762Y-58570057D01*
X129754762Y-58570057D02*
X129659524Y-58712914D01*
X129659524Y-58712914D02*
X129611905Y-58903390D01*
X129611905Y-58903390D02*
X129611905Y-59284342D01*
X129611905Y-59284342D02*
X129659524Y-59379580D01*
X129659524Y-59379580D02*
X129707143Y-59427200D01*
X129707143Y-59427200D02*
X129802381Y-59474819D01*
X129802381Y-59474819D02*
X129992857Y-59474819D01*
X129992857Y-59474819D02*
X130088095Y-59427200D01*
X130088095Y-59427200D02*
X130135714Y-59379580D01*
X130135714Y-59379580D02*
X130183333Y-59284342D01*
X130183333Y-59284342D02*
X130183333Y-59046247D01*
X130183333Y-59046247D02*
X130135714Y-58951009D01*
X130135714Y-58951009D02*
X130088095Y-58903390D01*
X130088095Y-58903390D02*
X129992857Y-58855771D01*
X129992857Y-58855771D02*
X129802381Y-58855771D01*
X129802381Y-58855771D02*
X129707143Y-58903390D01*
X129707143Y-58903390D02*
X129659524Y-58951009D01*
X129659524Y-58951009D02*
X129611905Y-59046247D01*
X130802381Y-58474819D02*
X130897619Y-58474819D01*
X130897619Y-58474819D02*
X130992857Y-58522438D01*
X130992857Y-58522438D02*
X131040476Y-58570057D01*
X131040476Y-58570057D02*
X131088095Y-58665295D01*
X131088095Y-58665295D02*
X131135714Y-58855771D01*
X131135714Y-58855771D02*
X131135714Y-59093866D01*
X131135714Y-59093866D02*
X131088095Y-59284342D01*
X131088095Y-59284342D02*
X131040476Y-59379580D01*
X131040476Y-59379580D02*
X130992857Y-59427200D01*
X130992857Y-59427200D02*
X130897619Y-59474819D01*
X130897619Y-59474819D02*
X130802381Y-59474819D01*
X130802381Y-59474819D02*
X130707143Y-59427200D01*
X130707143Y-59427200D02*
X130659524Y-59379580D01*
X130659524Y-59379580D02*
X130611905Y-59284342D01*
X130611905Y-59284342D02*
X130564286Y-59093866D01*
X130564286Y-59093866D02*
X130564286Y-58855771D01*
X130564286Y-58855771D02*
X130611905Y-58665295D01*
X130611905Y-58665295D02*
X130659524Y-58570057D01*
X130659524Y-58570057D02*
X130707143Y-58522438D01*
X130707143Y-58522438D02*
X130802381Y-58474819D01*
X132040476Y-58474819D02*
X131564286Y-58474819D01*
X131564286Y-58474819D02*
X131516667Y-58951009D01*
X131516667Y-58951009D02*
X131564286Y-58903390D01*
X131564286Y-58903390D02*
X131659524Y-58855771D01*
X131659524Y-58855771D02*
X131897619Y-58855771D01*
X131897619Y-58855771D02*
X131992857Y-58903390D01*
X131992857Y-58903390D02*
X132040476Y-58951009D01*
X132040476Y-58951009D02*
X132088095Y-59046247D01*
X132088095Y-59046247D02*
X132088095Y-59284342D01*
X132088095Y-59284342D02*
X132040476Y-59379580D01*
X132040476Y-59379580D02*
X131992857Y-59427200D01*
X131992857Y-59427200D02*
X131897619Y-59474819D01*
X131897619Y-59474819D02*
X131659524Y-59474819D01*
X131659524Y-59474819D02*
X131564286Y-59427200D01*
X131564286Y-59427200D02*
X131516667Y-59379580D01*
D13*
%TO.C,kibuzzard-675D8416*%
G36*
X114705579Y-46917597D02*
G01*
X114169099Y-46917597D01*
X113044635Y-46917597D01*
X112497425Y-46917597D01*
X109855794Y-46917597D01*
X108973820Y-46917597D01*
X107759227Y-46917597D01*
X106145494Y-46917597D01*
X104626180Y-46917597D01*
X104430901Y-46917597D01*
X103894421Y-46917597D01*
X103894421Y-45039914D01*
X104430901Y-45039914D01*
X104430901Y-46149356D01*
X104434120Y-46223391D01*
X104454506Y-46282403D01*
X104514592Y-46331760D01*
X104626180Y-46346781D01*
X105345064Y-46346781D01*
X105406223Y-46343562D01*
X105457725Y-46325322D01*
X105499571Y-46273820D01*
X105512446Y-46179399D01*
X105499571Y-46082833D01*
X105457725Y-46032403D01*
X105408369Y-46015236D01*
X105347210Y-46012017D01*
X104823605Y-46012017D01*
X104823605Y-45801717D01*
X105574678Y-45801717D01*
X105594468Y-45955389D01*
X105653839Y-46090224D01*
X105752790Y-46206223D01*
X105875584Y-46295041D01*
X106006485Y-46348331D01*
X106145494Y-46366094D01*
X106283190Y-46348689D01*
X106413019Y-46296471D01*
X106534979Y-46209442D01*
X106633333Y-46094278D01*
X106692346Y-45957654D01*
X106712017Y-45799571D01*
X106693538Y-45648879D01*
X106638102Y-45514402D01*
X106545708Y-45396137D01*
X106426848Y-45304340D01*
X106292012Y-45249261D01*
X106141202Y-45230901D01*
X105993848Y-45249619D01*
X105860801Y-45305770D01*
X105742060Y-45399356D01*
X105649070Y-45518932D01*
X105593276Y-45653052D01*
X105574678Y-45801717D01*
X104823605Y-45801717D01*
X104823605Y-45042060D01*
X104823512Y-45039914D01*
X106817167Y-45039914D01*
X106817167Y-46147210D01*
X106820386Y-46221245D01*
X106840773Y-46280258D01*
X106900858Y-46329614D01*
X107012446Y-46344635D01*
X107126180Y-46329614D01*
X107186266Y-46281330D01*
X107206652Y-46223391D01*
X107209871Y-46149356D01*
X107209871Y-45941202D01*
X107409442Y-45941202D01*
X107639056Y-46252361D01*
X107759227Y-46352146D01*
X107911588Y-46293133D01*
X108014592Y-46166524D01*
X107956652Y-46018455D01*
X107802146Y-45812446D01*
X107815634Y-45797425D01*
X108070386Y-45797425D01*
X108087196Y-45935002D01*
X108137625Y-46061612D01*
X108221674Y-46177253D01*
X108327182Y-46269051D01*
X108441989Y-46324130D01*
X108566094Y-46342489D01*
X108688948Y-46323176D01*
X108791416Y-46265236D01*
X108852039Y-46323176D01*
X108973820Y-46342489D01*
X109085408Y-46327468D01*
X109145494Y-46279185D01*
X109165880Y-46222318D01*
X109169099Y-46149356D01*
X109169099Y-45451931D01*
X109165880Y-45380043D01*
X109145494Y-45321030D01*
X109086481Y-45271674D01*
X108975966Y-45256652D01*
X108846137Y-45278648D01*
X108791416Y-45344635D01*
X108692167Y-45280258D01*
X108566094Y-45258798D01*
X108443062Y-45277158D01*
X108328612Y-45332237D01*
X108222747Y-45424034D01*
X108138102Y-45538960D01*
X108087315Y-45663424D01*
X108070386Y-45797425D01*
X107815634Y-45797425D01*
X107907058Y-45695613D01*
X107970005Y-45556843D01*
X107990987Y-45396137D01*
X107977575Y-45268723D01*
X107937339Y-45152575D01*
X107875912Y-45053594D01*
X107798927Y-44977682D01*
X107750038Y-44945494D01*
X109275322Y-44945494D01*
X109284979Y-45104292D01*
X109671245Y-46211588D01*
X109690558Y-46257725D01*
X109748498Y-46313519D01*
X109855794Y-46344635D01*
X109977575Y-46308155D01*
X110046781Y-46198712D01*
X110248498Y-45539914D01*
X110450215Y-46200858D01*
X110462017Y-46231974D01*
X110489914Y-46277039D01*
X110550000Y-46325322D01*
X110641202Y-46344635D01*
X110760837Y-46311373D01*
X110818523Y-46225536D01*
X111282833Y-46225536D01*
X111403004Y-46329614D01*
X111559657Y-46360730D01*
X111666953Y-46241631D01*
X111765665Y-46035622D01*
X112293562Y-46035622D01*
X112392275Y-46239485D01*
X112497425Y-46362876D01*
X112656223Y-46331760D01*
X112775322Y-46226609D01*
X112746352Y-46074249D01*
X112244048Y-45035622D01*
X112851502Y-45035622D01*
X112851502Y-46149356D01*
X112855794Y-46224464D01*
X112876180Y-46283476D01*
X112934120Y-46331760D01*
X113044635Y-46346781D01*
X113158369Y-46331760D01*
X113218455Y-46283476D01*
X113238841Y-46225536D01*
X113242060Y-46151502D01*
X113242060Y-45554936D01*
X113797854Y-46288841D01*
X113861159Y-46334979D01*
X113971674Y-46346781D01*
X114085408Y-46331760D01*
X114145494Y-46283476D01*
X114165880Y-46225536D01*
X114169099Y-46151502D01*
X114169099Y-45044206D01*
X114165880Y-44970172D01*
X114145494Y-44911159D01*
X114085408Y-44861803D01*
X113973820Y-44846781D01*
X113862232Y-44861803D01*
X113802146Y-44907940D01*
X113780687Y-44964807D01*
X113776395Y-45035622D01*
X113776395Y-45651502D01*
X113239914Y-44930472D01*
X113201288Y-44886481D01*
X113146567Y-44859657D01*
X113048927Y-44846781D01*
X112936266Y-44860730D01*
X112877253Y-44906867D01*
X112855794Y-44963734D01*
X112851502Y-45035622D01*
X112244048Y-45035622D01*
X112207725Y-44960515D01*
X112134227Y-44873605D01*
X112029614Y-44844635D01*
X111924464Y-44875751D01*
X111849356Y-44958369D01*
X111310730Y-46074249D01*
X111282833Y-46225536D01*
X110818523Y-46225536D01*
X110827897Y-46211588D01*
X111212017Y-45104292D01*
X111223820Y-44947639D01*
X111089700Y-44853219D01*
X110927682Y-44844635D01*
X110840773Y-44977682D01*
X110617597Y-45634335D01*
X110441631Y-44990558D01*
X110435193Y-44973391D01*
X110424464Y-44946567D01*
X110410515Y-44919742D01*
X110386910Y-44891845D01*
X110353648Y-44868240D01*
X110306438Y-44850000D01*
X110244206Y-44844635D01*
X110120815Y-44880579D01*
X110055365Y-44988412D01*
X109879399Y-45630043D01*
X109656223Y-44977682D01*
X109569313Y-44845708D01*
X109409442Y-44855365D01*
X109275322Y-44945494D01*
X107750038Y-44945494D01*
X107712554Y-44920815D01*
X107622961Y-44878970D01*
X107533101Y-44853219D01*
X107445923Y-44844635D01*
X107014592Y-44844635D01*
X106900858Y-44859657D01*
X106840773Y-44909013D01*
X106820386Y-44968026D01*
X106817167Y-45039914D01*
X104823512Y-45039914D01*
X104820386Y-44968026D01*
X104800000Y-44909013D01*
X104739914Y-44859657D01*
X104628326Y-44844635D01*
X104514592Y-44859657D01*
X104454506Y-44909013D01*
X104434120Y-44968026D01*
X104430901Y-45039914D01*
X103894421Y-45039914D01*
X103894421Y-44282403D01*
X104430901Y-44282403D01*
X114169099Y-44282403D01*
X114705579Y-44282403D01*
X114705579Y-46917597D01*
G37*
G36*
X107552146Y-45282403D02*
G01*
X107598283Y-45393991D01*
X107548927Y-45512017D01*
X107445923Y-45550644D01*
X107209871Y-45550644D01*
X107209871Y-45237339D01*
X107441631Y-45237339D01*
X107552146Y-45282403D01*
G37*
G36*
X106269957Y-45670815D02*
G01*
X106319313Y-45797425D01*
X106261373Y-45930472D01*
X106141202Y-45973391D01*
X106023176Y-45930472D01*
X105967382Y-45799571D01*
X106017811Y-45674034D01*
X106139056Y-45623605D01*
X106269957Y-45670815D01*
G37*
G36*
X108723820Y-45690129D02*
G01*
X108767811Y-45799571D01*
X108723820Y-45907940D01*
X108619742Y-45954077D01*
X108507082Y-45907940D01*
X108458798Y-45801717D01*
X108504936Y-45692275D01*
X108615451Y-45645064D01*
X108723820Y-45690129D01*
G37*
G36*
X112128326Y-45700858D02*
G01*
X111926609Y-45700858D01*
X112027468Y-45492704D01*
X112128326Y-45700858D01*
G37*
D14*
%TO.C,C505*%
X118890000Y-49557836D02*
X118890000Y-49342164D01*
X119610000Y-49557836D02*
X119610000Y-49342164D01*
%TO.C,C504*%
X117940000Y-49557836D02*
X117940000Y-49342164D01*
X118660000Y-49557836D02*
X118660000Y-49342164D01*
%TO.C,C503*%
X116811252Y-47385000D02*
X116288748Y-47385000D01*
X116811252Y-45915000D02*
X116288748Y-45915000D01*
%TO.C,U601*%
X85290000Y-75292500D02*
X85290000Y-73292500D01*
X87510000Y-75292500D02*
X87510000Y-73292500D01*
X85580000Y-75922500D02*
X85300000Y-75642500D01*
X85580000Y-75642500D01*
X85580000Y-75922500D01*
G36*
X85580000Y-75922500D02*
G01*
X85300000Y-75642500D01*
X85580000Y-75642500D01*
X85580000Y-75922500D01*
G37*
D15*
%TO.C,U502*%
X103400000Y-50620000D02*
X103400000Y-49620000D01*
X103400000Y-49620000D02*
X115400000Y-49620000D01*
X115400000Y-49620000D02*
X115400000Y-61630000D01*
X115400000Y-61630000D02*
X106400000Y-61630000D01*
X106400000Y-61630000D02*
X106400000Y-58620000D01*
X106400000Y-58620000D02*
X103400000Y-58620000D01*
X103400000Y-58620000D02*
X103400000Y-50620000D01*
X103400000Y-59620000D02*
X105400000Y-59620000D01*
X105400000Y-59620000D02*
X105400000Y-61620000D01*
X105400000Y-61620000D02*
X103400000Y-61620000D01*
X103400000Y-61620000D02*
X103400000Y-59620000D01*
X105270000Y-47840000D02*
X101890000Y-47840000D01*
X116890000Y-49310000D02*
X116890000Y-47840000D01*
X116890000Y-47840000D02*
X113530000Y-47840000D01*
X116890000Y-58310000D02*
X116890000Y-54580000D01*
X113530000Y-63440000D02*
X116890000Y-63440000D01*
X116890000Y-63440000D02*
X116890000Y-61580000D01*
X101890000Y-61580000D02*
X101890000Y-63440000D01*
X101890000Y-63440000D02*
X109270000Y-63440000D01*
X101890000Y-47840000D02*
X101890000Y-49310000D01*
D16*
X100650000Y-49970000D02*
G75*
G02*
X100350000Y-49970000I-150000J0D01*
G01*
X100350000Y-49970000D02*
G75*
G02*
X100650000Y-49970000I150000J0D01*
G01*
D14*
%TO.C,C602*%
X84290000Y-74457836D02*
X84290000Y-74242164D01*
X85010000Y-74457836D02*
X85010000Y-74242164D01*
%TO.C,C601*%
X82315000Y-74811252D02*
X82315000Y-74288748D01*
X83785000Y-74811252D02*
X83785000Y-74288748D01*
D13*
%TO.C,kibuzzard-675D80CA*%
G36*
X102351073Y-68887554D02*
G01*
X101814592Y-68887554D01*
X101617167Y-68887554D01*
X99878970Y-68887554D01*
X98475536Y-68887554D01*
X97080687Y-68887554D01*
X96885408Y-68887554D01*
X96348927Y-68887554D01*
X96348927Y-67044206D01*
X96885408Y-67044206D01*
X96885408Y-68151502D01*
X96888627Y-68225536D01*
X96909013Y-68284549D01*
X96969099Y-68333906D01*
X97080687Y-68348927D01*
X97194421Y-68333906D01*
X97254506Y-68285622D01*
X97274893Y-68227682D01*
X97278112Y-68153648D01*
X97278112Y-67767382D01*
X97767382Y-67767382D01*
X97767382Y-68151502D01*
X97770601Y-68225536D01*
X97790987Y-68284549D01*
X97851073Y-68333906D01*
X97962661Y-68348927D01*
X98076395Y-68333906D01*
X98136481Y-68285622D01*
X98156867Y-68227682D01*
X98160086Y-68153648D01*
X98160086Y-67046352D01*
X98159899Y-67042060D01*
X98280258Y-67042060D01*
X98280258Y-68151502D01*
X98285622Y-68227682D01*
X98308155Y-68287768D01*
X98367167Y-68333906D01*
X98475536Y-68348927D01*
X98840343Y-68348927D01*
X98991229Y-68335046D01*
X99130579Y-68293401D01*
X99258396Y-68223994D01*
X99374678Y-68126824D01*
X99471379Y-68010072D01*
X99540451Y-67881921D01*
X99581894Y-67742369D01*
X99595708Y-67591416D01*
X99581894Y-67444421D01*
X99540451Y-67308155D01*
X99471379Y-67182618D01*
X99374678Y-67067811D01*
X99346114Y-67044206D01*
X99685837Y-67044206D01*
X99685837Y-68151502D01*
X99690129Y-68226609D01*
X99710515Y-68285622D01*
X99768455Y-68333906D01*
X99878970Y-68348927D01*
X99992704Y-68333906D01*
X100052790Y-68285622D01*
X100073176Y-68227682D01*
X100076395Y-68155794D01*
X100076395Y-67544206D01*
X100325322Y-67883262D01*
X100396137Y-67949249D01*
X100492704Y-67971245D01*
X100551717Y-67964807D01*
X100596781Y-67945494D01*
X100624678Y-67924034D01*
X100645064Y-67900429D01*
X100657940Y-67883262D01*
X100909013Y-67542060D01*
X100909013Y-68151502D01*
X100912232Y-68225536D01*
X100932618Y-68284549D01*
X100992704Y-68333906D01*
X101104292Y-68348927D01*
X101216953Y-68333906D01*
X101275966Y-68286695D01*
X101297425Y-68228755D01*
X101301717Y-68155794D01*
X101301717Y-67048498D01*
X101301472Y-67044206D01*
X101421888Y-67044206D01*
X101421888Y-68153648D01*
X101425107Y-68227682D01*
X101445494Y-68286695D01*
X101505579Y-68336052D01*
X101617167Y-68351073D01*
X101730901Y-68336052D01*
X101790987Y-68287768D01*
X101811373Y-68229828D01*
X101814592Y-68155794D01*
X101814592Y-67046352D01*
X101811373Y-66972318D01*
X101790987Y-66913305D01*
X101730901Y-66863948D01*
X101619313Y-66848927D01*
X101505579Y-66863948D01*
X101445494Y-66913305D01*
X101425107Y-66972318D01*
X101421888Y-67044206D01*
X101301472Y-67044206D01*
X101297425Y-66973391D01*
X101277039Y-66914378D01*
X101218026Y-66866094D01*
X101106438Y-66851073D01*
X100992704Y-66863948D01*
X100928326Y-66913305D01*
X100492704Y-67473391D01*
X100054936Y-66911159D01*
X100040987Y-66896137D01*
X100024893Y-66880043D01*
X100006652Y-66869313D01*
X99978755Y-66859657D01*
X99940129Y-66854292D01*
X99883262Y-66851073D01*
X99769528Y-66866094D01*
X99709442Y-66914378D01*
X99689056Y-66972318D01*
X99685837Y-67044206D01*
X99346114Y-67044206D01*
X99258798Y-66972049D01*
X99132189Y-66903648D01*
X98994850Y-66862607D01*
X98846781Y-66848927D01*
X98477682Y-66848927D01*
X98363948Y-66862876D01*
X98303863Y-66911159D01*
X98283476Y-66970172D01*
X98280258Y-67042060D01*
X98159899Y-67042060D01*
X98156867Y-66972318D01*
X98136481Y-66913305D01*
X98076395Y-66863948D01*
X97964807Y-66848927D01*
X97851073Y-66863948D01*
X97790987Y-66913305D01*
X97770601Y-66972318D01*
X97767382Y-67044206D01*
X97767382Y-67432618D01*
X97278112Y-67432618D01*
X97278112Y-67046352D01*
X97274893Y-66972318D01*
X97254506Y-66913305D01*
X97194421Y-66863948D01*
X97082833Y-66848927D01*
X96969099Y-66863948D01*
X96909013Y-66913305D01*
X96888627Y-66972318D01*
X96885408Y-67044206D01*
X96348927Y-67044206D01*
X96348927Y-66312446D01*
X96885408Y-66312446D01*
X101814592Y-66312446D01*
X102351073Y-66312446D01*
X102351073Y-68887554D01*
G37*
G36*
X98981974Y-67267918D02*
G01*
X99097854Y-67346781D01*
X99176717Y-67462661D01*
X99203004Y-67600000D01*
X99176717Y-67737071D01*
X99097854Y-67852146D01*
X98982511Y-67930204D01*
X98846781Y-67956223D01*
X98672961Y-67956223D01*
X98672961Y-67241631D01*
X98844635Y-67241631D01*
X98981974Y-67267918D01*
G37*
%TO.C,kibuzzard-675D4C90*%
G36*
X123616452Y-27766237D02*
G01*
X122936910Y-27766237D01*
X122216595Y-27766237D01*
X121140200Y-27766237D01*
X120515021Y-27766237D01*
X118386695Y-27766237D01*
X116932475Y-27766237D01*
X115796280Y-27766237D01*
X113496710Y-27766237D01*
X110058226Y-27766237D01*
X109411302Y-27766237D01*
X107587411Y-27766237D01*
X106940486Y-27766237D01*
X104738770Y-27766237D01*
X103080687Y-27766237D01*
X100560944Y-27766237D01*
X99547067Y-27766237D01*
X98563090Y-27766237D01*
X97883548Y-27766237D01*
X97883548Y-26080973D01*
X98563090Y-26080973D01*
X98580418Y-26278720D01*
X98632403Y-26458798D01*
X98710891Y-26614753D01*
X98807725Y-26740129D01*
X98920869Y-26842060D01*
X99048283Y-26927682D01*
X99180794Y-26993938D01*
X99309227Y-27037768D01*
X99431885Y-27062232D01*
X99547067Y-27070386D01*
X99722842Y-27053473D01*
X99891369Y-27002734D01*
X100052647Y-26918169D01*
X100164092Y-26835265D01*
X100202146Y-26736052D01*
X100142346Y-26578398D01*
X100044492Y-26462196D01*
X99952074Y-26423462D01*
X99816166Y-26477825D01*
X99679578Y-26545100D01*
X99536195Y-26567525D01*
X99329614Y-26524034D01*
X99231420Y-26463215D01*
X99143419Y-26367740D01*
X99081241Y-26243044D01*
X99060515Y-26094564D01*
X99072067Y-25979041D01*
X99106724Y-25877110D01*
X99227682Y-25728970D01*
X99381259Y-25648784D01*
X99536195Y-25621602D01*
X99601431Y-25624320D01*
X99655794Y-25633834D01*
X99699285Y-25644707D01*
X99735980Y-25658298D01*
X99761803Y-25673247D01*
X99784907Y-25688197D01*
X99802575Y-25700429D01*
X99949356Y-25762947D01*
X100043133Y-25726252D01*
X100145064Y-25616166D01*
X100204864Y-25463948D01*
X100180763Y-25387840D01*
X100316309Y-25387840D01*
X100316309Y-26790415D01*
X100321745Y-26885551D01*
X100347568Y-26960300D01*
X100420959Y-27021459D01*
X100560944Y-27040486D01*
X100705007Y-27021459D01*
X100781116Y-26960300D01*
X100806938Y-26886910D01*
X100811016Y-26795851D01*
X100811016Y-26021173D01*
X101126323Y-26450644D01*
X101216023Y-26534227D01*
X101338340Y-26562089D01*
X101413090Y-26553934D01*
X101470172Y-26529471D01*
X101505508Y-26502289D01*
X101531330Y-26472389D01*
X101547639Y-26450644D01*
X101865665Y-26018455D01*
X101865665Y-26790415D01*
X101869742Y-26884192D01*
X101895565Y-26958941D01*
X101971674Y-27021459D01*
X102113019Y-27040486D01*
X102255722Y-27021459D01*
X102330472Y-26961660D01*
X102357654Y-26888269D01*
X102363090Y-26795851D01*
X102363090Y-26722461D01*
X102452790Y-26722461D01*
X102556080Y-26888269D01*
X102613162Y-26937196D01*
X102797997Y-27030973D01*
X102933906Y-27066649D01*
X103080687Y-27078541D01*
X103257368Y-27056946D01*
X103414115Y-26992163D01*
X103550930Y-26884192D01*
X103656636Y-26744508D01*
X103720060Y-26584589D01*
X103741202Y-26404435D01*
X103719456Y-26242704D01*
X103654220Y-26094564D01*
X103545494Y-25960014D01*
X103408075Y-25853553D01*
X103256764Y-25789676D01*
X103091559Y-25768383D01*
X103077969Y-25768383D01*
X103031760Y-25773820D01*
X103050787Y-25629757D01*
X103469385Y-25629757D01*
X103556366Y-25625680D01*
X103627039Y-25601216D01*
X103685479Y-25529185D01*
X103703147Y-25393276D01*
X103702449Y-25387840D01*
X104494134Y-25387840D01*
X104494134Y-26790415D01*
X104499571Y-26885551D01*
X104525393Y-26960300D01*
X104598784Y-27021459D01*
X104738770Y-27040486D01*
X104882833Y-27021459D01*
X104958941Y-26960300D01*
X104984764Y-26886910D01*
X104988841Y-26795851D01*
X104988841Y-26021173D01*
X105304149Y-26450644D01*
X105393848Y-26534227D01*
X105516166Y-26562089D01*
X105590916Y-26553934D01*
X105647997Y-26529471D01*
X105683333Y-26502289D01*
X105709156Y-26472389D01*
X105725465Y-26450644D01*
X106043491Y-26018455D01*
X106043491Y-26790415D01*
X106047568Y-26884192D01*
X106073391Y-26958941D01*
X106149499Y-27021459D01*
X106290844Y-27040486D01*
X106433548Y-27021459D01*
X106508298Y-26961660D01*
X106535479Y-26888269D01*
X106540916Y-26795851D01*
X106540916Y-25393276D01*
X106540605Y-25387840D01*
X106693133Y-25387840D01*
X106693133Y-26793133D01*
X106697210Y-26886910D01*
X106723033Y-26961660D01*
X106799142Y-27024177D01*
X106940486Y-27043205D01*
X107084549Y-27024177D01*
X107160658Y-26963019D01*
X107186481Y-26889628D01*
X107190558Y-26795851D01*
X107190558Y-25390558D01*
X107190203Y-25382403D01*
X107342775Y-25382403D01*
X107342775Y-26793133D01*
X107348212Y-26888269D01*
X107374034Y-26963019D01*
X107447425Y-27024177D01*
X107587411Y-27043205D01*
X107731474Y-27024177D01*
X107807582Y-26963019D01*
X107833405Y-26889628D01*
X107837482Y-26795851D01*
X107837482Y-26040200D01*
X108541488Y-26969814D01*
X108621674Y-27028255D01*
X108761660Y-27043205D01*
X108905722Y-27024177D01*
X108981831Y-26963019D01*
X109007654Y-26889628D01*
X109011731Y-26795851D01*
X109011731Y-25393276D01*
X109011495Y-25387840D01*
X109163948Y-25387840D01*
X109163948Y-26793133D01*
X109168026Y-26886910D01*
X109193848Y-26961660D01*
X109269957Y-27024177D01*
X109411302Y-27043205D01*
X109555365Y-27024177D01*
X109631474Y-26963019D01*
X109657296Y-26889628D01*
X109661373Y-26795851D01*
X109661373Y-25390558D01*
X109661255Y-25387840D01*
X109813591Y-25387840D01*
X109813591Y-26790415D01*
X109819027Y-26885551D01*
X109844850Y-26960300D01*
X109918240Y-27021459D01*
X110058226Y-27040486D01*
X110202289Y-27021459D01*
X110278398Y-26960300D01*
X110304220Y-26886910D01*
X110308298Y-26795851D01*
X110308298Y-26021173D01*
X110623605Y-26450644D01*
X110713305Y-26534227D01*
X110835622Y-26562089D01*
X110910372Y-26553934D01*
X110967454Y-26529471D01*
X111002790Y-26502289D01*
X111028612Y-26472389D01*
X111044921Y-26450644D01*
X111362947Y-26018455D01*
X111362947Y-26790415D01*
X111367024Y-26884192D01*
X111392847Y-26958941D01*
X111468956Y-27021459D01*
X111610300Y-27040486D01*
X111753004Y-27021459D01*
X111827754Y-26961660D01*
X111854433Y-26889628D01*
X111958226Y-26889628D01*
X112110443Y-27021459D01*
X112308870Y-27060873D01*
X112444778Y-26910014D01*
X112569814Y-26649070D01*
X113238484Y-26649070D01*
X113363519Y-26907296D01*
X113496710Y-27063591D01*
X113697854Y-27024177D01*
X113848712Y-26890987D01*
X113812017Y-26697997D01*
X113178396Y-25387840D01*
X114603004Y-25387840D01*
X114603004Y-26790415D01*
X114607082Y-26884192D01*
X114632904Y-26958941D01*
X114709013Y-27021459D01*
X114850358Y-27040486D01*
X114994421Y-27021459D01*
X115070529Y-26960300D01*
X115096352Y-26886910D01*
X115100429Y-26793133D01*
X115100429Y-26529471D01*
X115353219Y-26529471D01*
X115644063Y-26923605D01*
X115796280Y-27050000D01*
X115989270Y-26975250D01*
X116119742Y-26814878D01*
X116046352Y-26627325D01*
X115850644Y-26366381D01*
X115857967Y-26358226D01*
X116190415Y-26358226D01*
X116200948Y-26481903D01*
X116232546Y-26602861D01*
X116284871Y-26719742D01*
X116357582Y-26831187D01*
X116457135Y-26929381D01*
X116589986Y-27006509D01*
X116750358Y-27056456D01*
X116932475Y-27073104D01*
X117179828Y-27057645D01*
X117356509Y-27011266D01*
X117462518Y-26933968D01*
X117497854Y-26825751D01*
X117462518Y-26700715D01*
X117389127Y-26602861D01*
X117299428Y-26570243D01*
X117174392Y-26605579D01*
X116954220Y-26640916D01*
X116793848Y-26602861D01*
X116712303Y-26499571D01*
X117291273Y-26499571D01*
X117401699Y-26478845D01*
X117488340Y-26416667D01*
X117544403Y-26316434D01*
X117563090Y-26181545D01*
X117522657Y-25990594D01*
X117413171Y-25826824D01*
X117650072Y-25826824D01*
X117688126Y-26021173D01*
X118169242Y-26937196D01*
X118254864Y-27026896D01*
X118386695Y-27056795D01*
X118518526Y-27026896D01*
X118604149Y-26937196D01*
X119085265Y-26021173D01*
X119130114Y-25887983D01*
X119097496Y-25779256D01*
X119008557Y-25711302D01*
X119830043Y-25711302D01*
X119914306Y-25890701D01*
X120076037Y-25985837D01*
X120243205Y-25907010D01*
X120270386Y-25882546D01*
X120270386Y-26801288D01*
X120324750Y-26994278D01*
X120515021Y-27048641D01*
X120708011Y-26994278D01*
X120762375Y-26804006D01*
X120762375Y-26790415D01*
X120879256Y-26790415D01*
X120937697Y-26988841D01*
X121140200Y-27045923D01*
X121342704Y-26988841D01*
X121401144Y-26787697D01*
X121386874Y-26663001D01*
X121344063Y-26582475D01*
X121142918Y-26524034D01*
X121018222Y-26538644D01*
X120937697Y-26582475D01*
X120893866Y-26663680D01*
X120879256Y-26790415D01*
X120762375Y-26790415D01*
X120762375Y-26094564D01*
X121477253Y-26094564D01*
X121488126Y-26292990D01*
X121526180Y-26509084D01*
X121560497Y-26621888D01*
X121609084Y-26723820D01*
X121742275Y-26903219D01*
X121830955Y-26976949D01*
X121942060Y-27032332D01*
X122071853Y-27066989D01*
X122216595Y-27078541D01*
X122380365Y-27061552D01*
X122523748Y-27010587D01*
X122642668Y-26933798D01*
X122733047Y-26839342D01*
X122802021Y-26727557D01*
X122856724Y-26598784D01*
X122896477Y-26465594D01*
X122920601Y-26340558D01*
X122932833Y-26219260D01*
X122936910Y-26097282D01*
X122933172Y-25978362D01*
X122921960Y-25860801D01*
X122898856Y-25738144D01*
X122859442Y-25603934D01*
X122804739Y-25472783D01*
X122735765Y-25359299D01*
X122644707Y-25263144D01*
X122523748Y-25183977D01*
X122377647Y-25130973D01*
X122211159Y-25113305D01*
X122039914Y-25131313D01*
X121890415Y-25185336D01*
X121767418Y-25265862D01*
X121675680Y-25363376D01*
X121606706Y-25478219D01*
X121552003Y-25610730D01*
X121512929Y-25745279D01*
X121490844Y-25866237D01*
X121480651Y-25980401D01*
X121477253Y-26094564D01*
X120762375Y-26094564D01*
X120762375Y-25390558D01*
X120708011Y-25196209D01*
X120517740Y-25140486D01*
X120332904Y-25186695D01*
X120289413Y-25222031D01*
X119944206Y-25531903D01*
X119861302Y-25624320D01*
X119830043Y-25711302D01*
X119008557Y-25711302D01*
X118976538Y-25686838D01*
X118778112Y-25641989D01*
X118706080Y-25691255D01*
X118642203Y-25798283D01*
X118386695Y-26379971D01*
X118131187Y-25798283D01*
X117999356Y-25643348D01*
X117796853Y-25686838D01*
X117650072Y-25826824D01*
X117413171Y-25826824D01*
X117401359Y-25809156D01*
X117277682Y-25711000D01*
X117122294Y-25652106D01*
X116935193Y-25632475D01*
X116729367Y-25654975D01*
X116550421Y-25722477D01*
X116398355Y-25834979D01*
X116282833Y-25983119D01*
X116213519Y-26157535D01*
X116190415Y-26358226D01*
X115857967Y-26358226D01*
X115983532Y-26218391D01*
X116063265Y-26042616D01*
X116089843Y-25839056D01*
X116072854Y-25677665D01*
X116021888Y-25530544D01*
X115944081Y-25405168D01*
X115846567Y-25309013D01*
X115737160Y-25236981D01*
X115623677Y-25183977D01*
X115509853Y-25151359D01*
X115399428Y-25140486D01*
X114853076Y-25140486D01*
X114709013Y-25159514D01*
X114632904Y-25222031D01*
X114607082Y-25296781D01*
X114603004Y-25387840D01*
X113178396Y-25387840D01*
X113129757Y-25287268D01*
X113036660Y-25177182D01*
X112904149Y-25140486D01*
X112770959Y-25179900D01*
X112675823Y-25284549D01*
X111993562Y-26697997D01*
X111958226Y-26889628D01*
X111854433Y-26889628D01*
X111854936Y-26888269D01*
X111860372Y-26795851D01*
X111860372Y-25393276D01*
X111854936Y-25298140D01*
X111829113Y-25223391D01*
X111754363Y-25162232D01*
X111613019Y-25143205D01*
X111468956Y-25159514D01*
X111387411Y-25222031D01*
X110835622Y-25931474D01*
X110281116Y-25219313D01*
X110263448Y-25200286D01*
X110243062Y-25179900D01*
X110219957Y-25166309D01*
X110184621Y-25154077D01*
X110135694Y-25147282D01*
X110063662Y-25143205D01*
X109919599Y-25162232D01*
X109843491Y-25223391D01*
X109817668Y-25296781D01*
X109813591Y-25387840D01*
X109661255Y-25387840D01*
X109657296Y-25296781D01*
X109631474Y-25222031D01*
X109555365Y-25159514D01*
X109414020Y-25140486D01*
X109269957Y-25159514D01*
X109193848Y-25222031D01*
X109168026Y-25296781D01*
X109163948Y-25387840D01*
X109011495Y-25387840D01*
X109007654Y-25299499D01*
X108981831Y-25224750D01*
X108905722Y-25162232D01*
X108764378Y-25143205D01*
X108623033Y-25162232D01*
X108546924Y-25220672D01*
X108519742Y-25292704D01*
X108514306Y-25382403D01*
X108514306Y-26162518D01*
X107834764Y-25249213D01*
X107785837Y-25193491D01*
X107716524Y-25159514D01*
X107592847Y-25143205D01*
X107450143Y-25160873D01*
X107375393Y-25219313D01*
X107348212Y-25291345D01*
X107342775Y-25382403D01*
X107190203Y-25382403D01*
X107186481Y-25296781D01*
X107160658Y-25222031D01*
X107084549Y-25159514D01*
X106943205Y-25140486D01*
X106799142Y-25159514D01*
X106723033Y-25222031D01*
X106697210Y-25296781D01*
X106693133Y-25387840D01*
X106540605Y-25387840D01*
X106535479Y-25298140D01*
X106509657Y-25223391D01*
X106434907Y-25162232D01*
X106293562Y-25143205D01*
X106149499Y-25159514D01*
X106067954Y-25222031D01*
X105516166Y-25931474D01*
X104961660Y-25219313D01*
X104943991Y-25200286D01*
X104923605Y-25179900D01*
X104900501Y-25166309D01*
X104865165Y-25154077D01*
X104816237Y-25147282D01*
X104744206Y-25143205D01*
X104600143Y-25162232D01*
X104524034Y-25223391D01*
X104498212Y-25296781D01*
X104494134Y-25387840D01*
X103702449Y-25387840D01*
X103684120Y-25245136D01*
X103622961Y-25169027D01*
X103549571Y-25143205D01*
X103455794Y-25137768D01*
X102833333Y-25135050D01*
X102704220Y-25159514D01*
X102628112Y-25231545D01*
X102596853Y-25306295D01*
X102583262Y-25382403D01*
X102482690Y-26154363D01*
X102516667Y-26233190D01*
X102637625Y-26314735D01*
X102814306Y-26369099D01*
X102966524Y-26303863D01*
X103072532Y-26265808D01*
X103192132Y-26310658D01*
X103241059Y-26423462D01*
X103194850Y-26537625D01*
X103064378Y-26578398D01*
X102906724Y-26534907D01*
X102721888Y-26445207D01*
X102553362Y-26537625D01*
X102452790Y-26722461D01*
X102363090Y-26722461D01*
X102363090Y-25393276D01*
X102357654Y-25298140D01*
X102331831Y-25223391D01*
X102257082Y-25162232D01*
X102115737Y-25143205D01*
X101971674Y-25159514D01*
X101890129Y-25222031D01*
X101338340Y-25931474D01*
X100783834Y-25219313D01*
X100766166Y-25200286D01*
X100745780Y-25179900D01*
X100722675Y-25166309D01*
X100687339Y-25154077D01*
X100638412Y-25147282D01*
X100566381Y-25143205D01*
X100422318Y-25162232D01*
X100346209Y-25223391D01*
X100320386Y-25296781D01*
X100316309Y-25387840D01*
X100180763Y-25387840D01*
X100179041Y-25382403D01*
X100128755Y-25325322D01*
X100055365Y-25273677D01*
X99883818Y-25189111D01*
X99717104Y-25138372D01*
X99555222Y-25121459D01*
X99435283Y-25129614D01*
X99309227Y-25154077D01*
X99178755Y-25197228D01*
X99045565Y-25261445D01*
X98918151Y-25344349D01*
X98805007Y-25443562D01*
X98708512Y-25565540D01*
X98631044Y-25716738D01*
X98580079Y-25890701D01*
X98563090Y-26080973D01*
X97883548Y-26080973D01*
X97883548Y-24433763D01*
X98563090Y-24433763D01*
X122936910Y-24433763D01*
X123616452Y-24433763D01*
X123616452Y-27766237D01*
G37*
G36*
X122309523Y-25640969D02*
G01*
X122381724Y-25731688D01*
X122425045Y-25882886D01*
X122439485Y-26094564D01*
X122439485Y-26108155D01*
X122438126Y-26216881D01*
X122423176Y-26336481D01*
X122387840Y-26458798D01*
X122318526Y-26541702D01*
X122205722Y-26578398D01*
X122104641Y-26548328D01*
X122032439Y-26458119D01*
X121989118Y-26307770D01*
X121974678Y-26097282D01*
X121989288Y-25884415D01*
X122033119Y-25732368D01*
X122106170Y-25641139D01*
X122208441Y-25610730D01*
X122309523Y-25640969D01*
G37*
G36*
X115533977Y-25694993D02*
G01*
X115592418Y-25836338D01*
X115529900Y-25985837D01*
X115399428Y-26034764D01*
X115100429Y-26034764D01*
X115100429Y-25637911D01*
X115393991Y-25637911D01*
X115533977Y-25694993D01*
G37*
G36*
X117046638Y-26098641D02*
G01*
X117090129Y-26178827D01*
X117016738Y-26244063D01*
X116712303Y-26244063D01*
X116776180Y-26123104D01*
X116929757Y-26070100D01*
X117046638Y-26098641D01*
G37*
G36*
X113029185Y-26225036D02*
G01*
X112773677Y-26225036D01*
X112901431Y-25961373D01*
X113029185Y-26225036D01*
G37*
%TO.C,kibuzzard-675D4AE2*%
G36*
X123638126Y-80285265D02*
G01*
X122743991Y-80285265D01*
X122411373Y-80285265D01*
X119224678Y-80285265D01*
X117575894Y-80285265D01*
X115358441Y-80285265D01*
X113584478Y-80285265D01*
X111481474Y-80285265D01*
X111156009Y-80285265D01*
X110261874Y-80285265D01*
X110261874Y-77173677D01*
X111156009Y-77173677D01*
X111156009Y-79019170D01*
X111161373Y-79142561D01*
X111195351Y-79240916D01*
X111295494Y-79323176D01*
X111481474Y-79348212D01*
X111671030Y-79323176D01*
X111771173Y-79242704D01*
X111805150Y-79146137D01*
X111810515Y-79022747D01*
X111810515Y-78679399D01*
X112193205Y-78679399D01*
X112339396Y-78665093D01*
X112491845Y-78622175D01*
X112643848Y-78552432D01*
X112788698Y-78457654D01*
X112917006Y-78332028D01*
X113019385Y-78169742D01*
X113086445Y-77978845D01*
X113108798Y-77767382D01*
X113085998Y-77555025D01*
X113017597Y-77361445D01*
X112914324Y-77196477D01*
X112891363Y-77173677D01*
X113259013Y-77173677D01*
X113259013Y-79022747D01*
X113264378Y-79146137D01*
X113298355Y-79244492D01*
X113398498Y-79326753D01*
X113584478Y-79351788D01*
X113774034Y-79326753D01*
X113874177Y-79246280D01*
X113908155Y-79149714D01*
X113913519Y-79026323D01*
X113913519Y-78085694D01*
X114063734Y-78085694D01*
X114086534Y-78345887D01*
X114154936Y-78582833D01*
X114258208Y-78788036D01*
X114385622Y-78953004D01*
X114534496Y-79087124D01*
X114702146Y-79199785D01*
X114876502Y-79286964D01*
X115045494Y-79344635D01*
X115206885Y-79376824D01*
X115358441Y-79387554D01*
X115589723Y-79365300D01*
X115811469Y-79298538D01*
X116023677Y-79187268D01*
X116170315Y-79078183D01*
X116220386Y-78947639D01*
X116141702Y-78740200D01*
X116012947Y-78587303D01*
X115891345Y-78536338D01*
X115712518Y-78607868D01*
X115532797Y-78696388D01*
X115344134Y-78725894D01*
X115072318Y-78668670D01*
X114943115Y-78588644D01*
X114827325Y-78463019D01*
X114745511Y-78298945D01*
X114720736Y-78121459D01*
X116320529Y-78121459D01*
X116343553Y-78374723D01*
X116412625Y-78608763D01*
X116527745Y-78823578D01*
X116688913Y-79019170D01*
X116882493Y-79181903D01*
X117094850Y-79298140D01*
X117325984Y-79367883D01*
X117575894Y-79391130D01*
X117818987Y-79367547D01*
X118043974Y-79296799D01*
X118250854Y-79178885D01*
X118439628Y-79013805D01*
X118596884Y-78815643D01*
X118709210Y-78598480D01*
X118776605Y-78362317D01*
X118799070Y-78107153D01*
X118776270Y-77847519D01*
X118745126Y-77738770D01*
X118899213Y-77738770D01*
X118904578Y-77862160D01*
X118938555Y-77960515D01*
X119038698Y-78042775D01*
X119224678Y-78067811D01*
X119414235Y-78044564D01*
X119514378Y-77969456D01*
X119548355Y-77878255D01*
X119553720Y-77763805D01*
X119623462Y-77541166D01*
X119832690Y-77466953D01*
X120013305Y-77515236D01*
X120091989Y-77608226D01*
X120104506Y-77703004D01*
X120072765Y-77840701D01*
X119977539Y-77974821D01*
X119841184Y-78096423D01*
X119686052Y-78196567D01*
X119513484Y-78297157D01*
X119324821Y-78420100D01*
X119152253Y-78551985D01*
X119027969Y-78679399D01*
X118931402Y-78844814D01*
X118899213Y-79026323D01*
X118995780Y-79260587D01*
X119224678Y-79358941D01*
X120515808Y-79358941D01*
X120639199Y-79351788D01*
X120741130Y-79316023D01*
X120823391Y-79217668D01*
X120848426Y-79033476D01*
X120823391Y-78843920D01*
X120742918Y-78743777D01*
X120646352Y-78708011D01*
X120522961Y-78700858D01*
X120075894Y-78700858D01*
X120290486Y-78573891D01*
X120508655Y-78386123D01*
X120563928Y-78318169D01*
X120891345Y-78318169D01*
X120896710Y-78441559D01*
X120930687Y-78539914D01*
X121030830Y-78622175D01*
X121216810Y-78647210D01*
X122085908Y-78647210D01*
X122085908Y-79019170D01*
X122091273Y-79142561D01*
X122125250Y-79240916D01*
X122225393Y-79323176D01*
X122411373Y-79348212D01*
X122600930Y-79323176D01*
X122701073Y-79244492D01*
X122736838Y-79146137D01*
X122743991Y-79022747D01*
X122743991Y-77173677D01*
X122736838Y-77052074D01*
X122702861Y-76951931D01*
X122604506Y-76869671D01*
X122418526Y-76844635D01*
X122227182Y-76867883D01*
X122125250Y-76944778D01*
X122091273Y-77037768D01*
X122085908Y-77155794D01*
X122085908Y-78032046D01*
X121617382Y-78032046D01*
X121839127Y-77120029D01*
X121789056Y-76962661D01*
X121581617Y-76858941D01*
X121311588Y-76855365D01*
X121177468Y-77091416D01*
X120902074Y-78203720D01*
X120891345Y-78318169D01*
X120563928Y-78318169D01*
X120611928Y-78259156D01*
X120692847Y-78107153D01*
X120745154Y-77937268D01*
X120762589Y-77756652D01*
X120732388Y-77507487D01*
X120641782Y-77284549D01*
X120490773Y-77087840D01*
X120296447Y-76934843D01*
X120075894Y-76843046D01*
X119829113Y-76812446D01*
X119570013Y-76844238D01*
X119345883Y-76939612D01*
X119156724Y-77098569D01*
X119013662Y-77296869D01*
X118927825Y-77510269D01*
X118899213Y-77738770D01*
X118745126Y-77738770D01*
X118707868Y-77608673D01*
X118593866Y-77390616D01*
X118434263Y-77193348D01*
X118242024Y-77029833D01*
X118030114Y-76913036D01*
X117798534Y-76842959D01*
X117547282Y-76819599D01*
X117301171Y-76843294D01*
X117074285Y-76914378D01*
X116866622Y-77032851D01*
X116678183Y-77198712D01*
X116521710Y-77398552D01*
X116409943Y-77618956D01*
X116342883Y-77859925D01*
X116320529Y-78121459D01*
X114720736Y-78121459D01*
X114718240Y-78103577D01*
X114733441Y-77951574D01*
X114779041Y-77817454D01*
X114938197Y-77622532D01*
X115140272Y-77517024D01*
X115344134Y-77481259D01*
X115429971Y-77484835D01*
X115501502Y-77497353D01*
X115558727Y-77511660D01*
X115607010Y-77529542D01*
X115640987Y-77549213D01*
X115671388Y-77568884D01*
X115694635Y-77584979D01*
X115887768Y-77667239D01*
X116011159Y-77618956D01*
X116145279Y-77474106D01*
X116223963Y-77273820D01*
X116189986Y-77166524D01*
X116123820Y-77091416D01*
X116027253Y-77023462D01*
X115801534Y-76912192D01*
X115582173Y-76845430D01*
X115369170Y-76823176D01*
X115211356Y-76833906D01*
X115045494Y-76866094D01*
X114873820Y-76922872D01*
X114698569Y-77007368D01*
X114530919Y-77116452D01*
X114382046Y-77246996D01*
X114255079Y-77407493D01*
X114153147Y-77606438D01*
X114086087Y-77835336D01*
X114063734Y-78085694D01*
X113913519Y-78085694D01*
X113913519Y-77177253D01*
X113908155Y-77053863D01*
X113874177Y-76955508D01*
X113774034Y-76873247D01*
X113588054Y-76848212D01*
X113398498Y-76873247D01*
X113298355Y-76955508D01*
X113264378Y-77053863D01*
X113259013Y-77173677D01*
X112891363Y-77173677D01*
X112786910Y-77069957D01*
X112643848Y-76975179D01*
X112493634Y-76905436D01*
X112342525Y-76862518D01*
X112196781Y-76848212D01*
X111485050Y-76848212D01*
X111295494Y-76873247D01*
X111195351Y-76955508D01*
X111161373Y-77053863D01*
X111156009Y-77173677D01*
X110261874Y-77173677D01*
X110261874Y-75914735D01*
X111156009Y-75914735D01*
X122743991Y-75914735D01*
X123638126Y-75914735D01*
X123638126Y-80285265D01*
G37*
G36*
X117784227Y-77520154D02*
G01*
X117972890Y-77658298D01*
X118101645Y-77862607D01*
X118144564Y-78107153D01*
X118102092Y-78353487D01*
X117974678Y-78556009D01*
X117785569Y-78691470D01*
X117558011Y-78736624D01*
X117337607Y-78690129D01*
X117148498Y-78550644D01*
X117018401Y-78346781D01*
X116975036Y-78107153D01*
X117017954Y-77862607D01*
X117146710Y-77658298D01*
X117336266Y-77520154D01*
X117561588Y-77474106D01*
X117784227Y-77520154D01*
G37*
G36*
X112380973Y-77577825D02*
G01*
X112457868Y-77763805D01*
X112373820Y-77960515D01*
X112196781Y-78024893D01*
X111810515Y-78024893D01*
X111810515Y-77502718D01*
X112193205Y-77502718D01*
X112380973Y-77577825D01*
G37*
%TO.C,kibuzzard-675D4877*%
G36*
X93322876Y-46880258D02*
G01*
X93369013Y-46991845D01*
X93319657Y-47109871D01*
X93216652Y-47148498D01*
X92980601Y-47148498D01*
X92980601Y-46835193D01*
X93212361Y-46835193D01*
X93322876Y-46880258D01*
G37*
G36*
X98418369Y-48496137D02*
G01*
X97881888Y-48496137D01*
X97225236Y-48496137D01*
X95523519Y-48496137D01*
X94062146Y-48496137D01*
X93529957Y-48496137D01*
X91495622Y-48496137D01*
X90079313Y-48496137D01*
X89135107Y-48496137D01*
X87433391Y-48496137D01*
X87238112Y-48496137D01*
X86701631Y-48496137D01*
X86701631Y-46637768D01*
X87238112Y-46637768D01*
X87238112Y-47747210D01*
X87241330Y-47821245D01*
X87261717Y-47880258D01*
X87321803Y-47929614D01*
X87433391Y-47944635D01*
X88223090Y-47944635D01*
X88297124Y-47941416D01*
X88356137Y-47921030D01*
X88405494Y-47860944D01*
X88420515Y-47749356D01*
X88405494Y-47635622D01*
X88357210Y-47575536D01*
X88299270Y-47555150D01*
X88225236Y-47551931D01*
X87630815Y-47551931D01*
X87630815Y-47360944D01*
X88023519Y-47360944D01*
X88094335Y-47357725D01*
X88147983Y-47340558D01*
X88189828Y-47291202D01*
X88201631Y-47195708D01*
X88189828Y-47098069D01*
X88149056Y-47046567D01*
X88097554Y-47029399D01*
X88027811Y-47026180D01*
X87630815Y-47026180D01*
X87630815Y-46835193D01*
X88223090Y-46835193D01*
X88297124Y-46831974D01*
X88356137Y-46811588D01*
X88405494Y-46751502D01*
X88420515Y-46639914D01*
X88415697Y-46603433D01*
X88482747Y-46603433D01*
X88495622Y-46700000D01*
X88536395Y-46750429D01*
X88584678Y-46767597D01*
X88645837Y-46770815D01*
X88944120Y-46770815D01*
X88944120Y-47751502D01*
X88947339Y-47823391D01*
X88966652Y-47881330D01*
X89024592Y-47929614D01*
X89135107Y-47944635D01*
X89246695Y-47929614D01*
X89306781Y-47882403D01*
X89327167Y-47825536D01*
X89330386Y-47753648D01*
X89330386Y-46770815D01*
X89626524Y-46770815D01*
X89687682Y-46767597D01*
X89737039Y-46750429D01*
X89778884Y-46700000D01*
X89787370Y-46637768D01*
X89884034Y-46637768D01*
X89884034Y-47745064D01*
X89887253Y-47819099D01*
X89907639Y-47878112D01*
X89967725Y-47927468D01*
X90079313Y-47942489D01*
X90193047Y-47927468D01*
X90253133Y-47879185D01*
X90273519Y-47821245D01*
X90276738Y-47747210D01*
X90276738Y-47360944D01*
X90766009Y-47360944D01*
X90766009Y-47745064D01*
X90769227Y-47819099D01*
X90789614Y-47878112D01*
X90849700Y-47927468D01*
X90961288Y-47942489D01*
X91075021Y-47927468D01*
X91135107Y-47879185D01*
X91155494Y-47821245D01*
X91158712Y-47747210D01*
X91158712Y-46639914D01*
X91158619Y-46637768D01*
X91300343Y-46637768D01*
X91300343Y-47747210D01*
X91303562Y-47821245D01*
X91323948Y-47880258D01*
X91384034Y-47929614D01*
X91495622Y-47944635D01*
X92285322Y-47944635D01*
X92359356Y-47941416D01*
X92418369Y-47921030D01*
X92467725Y-47860944D01*
X92482747Y-47749356D01*
X92467725Y-47635622D01*
X92419442Y-47575536D01*
X92361502Y-47555150D01*
X92287468Y-47551931D01*
X91693047Y-47551931D01*
X91693047Y-47360944D01*
X92085751Y-47360944D01*
X92156567Y-47357725D01*
X92210215Y-47340558D01*
X92252060Y-47291202D01*
X92263863Y-47195708D01*
X92252060Y-47098069D01*
X92211288Y-47046567D01*
X92159785Y-47029399D01*
X92090043Y-47026180D01*
X91693047Y-47026180D01*
X91693047Y-46835193D01*
X92285322Y-46835193D01*
X92359356Y-46831974D01*
X92418369Y-46811588D01*
X92467725Y-46751502D01*
X92482747Y-46639914D01*
X92482464Y-46637768D01*
X92587897Y-46637768D01*
X92587897Y-47745064D01*
X92591116Y-47819099D01*
X92611502Y-47878112D01*
X92671588Y-47927468D01*
X92783176Y-47942489D01*
X92896910Y-47927468D01*
X92956996Y-47879185D01*
X92977382Y-47821245D01*
X92980601Y-47747210D01*
X92980601Y-47539056D01*
X93180172Y-47539056D01*
X93409785Y-47850215D01*
X93529957Y-47950000D01*
X93682318Y-47890987D01*
X93785322Y-47764378D01*
X93727382Y-47616309D01*
X93572876Y-47410300D01*
X93677787Y-47293467D01*
X93740734Y-47154697D01*
X93761717Y-46993991D01*
X93748305Y-46866577D01*
X93708069Y-46750429D01*
X93646642Y-46651448D01*
X93628416Y-46633476D01*
X93869013Y-46633476D01*
X93869013Y-47747210D01*
X93873305Y-47822318D01*
X93893691Y-47881330D01*
X93951631Y-47929614D01*
X94062146Y-47944635D01*
X94175880Y-47929614D01*
X94235966Y-47881330D01*
X94256352Y-47823391D01*
X94259571Y-47749356D01*
X94259571Y-47152790D01*
X94815365Y-47886695D01*
X94878670Y-47932833D01*
X94989185Y-47944635D01*
X95102918Y-47929614D01*
X95163004Y-47881330D01*
X95183391Y-47823391D01*
X95186609Y-47749356D01*
X95186609Y-46642060D01*
X95186422Y-46637768D01*
X95328240Y-46637768D01*
X95328240Y-47747210D01*
X95331459Y-47821245D01*
X95351845Y-47880258D01*
X95411931Y-47929614D01*
X95523519Y-47944635D01*
X96313219Y-47944635D01*
X96387253Y-47941416D01*
X96446266Y-47921030D01*
X96495622Y-47860944D01*
X96510644Y-47749356D01*
X96495622Y-47635622D01*
X96447339Y-47575536D01*
X96389399Y-47555150D01*
X96315365Y-47551931D01*
X95720944Y-47551931D01*
X95720944Y-47360944D01*
X96113648Y-47360944D01*
X96184464Y-47357725D01*
X96238112Y-47340558D01*
X96279957Y-47291202D01*
X96291760Y-47195708D01*
X96279957Y-47098069D01*
X96239185Y-47046567D01*
X96187682Y-47029399D01*
X96117940Y-47026180D01*
X95720944Y-47026180D01*
X95720944Y-46835193D01*
X96313219Y-46835193D01*
X96387253Y-46831974D01*
X96446266Y-46811588D01*
X96495622Y-46751502D01*
X96510644Y-46639914D01*
X96505826Y-46603433D01*
X96572876Y-46603433D01*
X96585751Y-46700000D01*
X96626524Y-46750429D01*
X96674807Y-46767597D01*
X96735966Y-46770815D01*
X97034249Y-46770815D01*
X97034249Y-47751502D01*
X97037468Y-47823391D01*
X97056781Y-47881330D01*
X97114721Y-47929614D01*
X97225236Y-47944635D01*
X97336824Y-47929614D01*
X97396910Y-47882403D01*
X97417296Y-47825536D01*
X97420515Y-47753648D01*
X97420515Y-46770815D01*
X97716652Y-46770815D01*
X97777811Y-46767597D01*
X97827167Y-46750429D01*
X97869013Y-46700000D01*
X97881888Y-46605579D01*
X97869013Y-46511159D01*
X97828240Y-46460730D01*
X97779957Y-46443562D01*
X97718798Y-46440343D01*
X96738112Y-46440343D01*
X96676953Y-46443562D01*
X96627597Y-46460730D01*
X96585751Y-46510086D01*
X96572876Y-46603433D01*
X96505826Y-46603433D01*
X96495622Y-46526180D01*
X96447339Y-46466094D01*
X96389399Y-46445708D01*
X96315365Y-46442489D01*
X95529957Y-46442489D01*
X95372232Y-46484335D01*
X95328240Y-46637768D01*
X95186422Y-46637768D01*
X95183391Y-46568026D01*
X95163004Y-46509013D01*
X95102918Y-46459657D01*
X94991330Y-46444635D01*
X94879742Y-46459657D01*
X94819657Y-46505794D01*
X94798197Y-46562661D01*
X94793906Y-46633476D01*
X94793906Y-47249356D01*
X94257425Y-46528326D01*
X94218798Y-46484335D01*
X94164077Y-46457511D01*
X94066438Y-46444635D01*
X93953777Y-46458584D01*
X93894764Y-46504721D01*
X93873305Y-46561588D01*
X93869013Y-46633476D01*
X93628416Y-46633476D01*
X93569657Y-46575536D01*
X93483283Y-46518670D01*
X93393691Y-46476824D01*
X93303830Y-46451073D01*
X93216652Y-46442489D01*
X92785322Y-46442489D01*
X92671588Y-46457511D01*
X92611502Y-46506867D01*
X92591116Y-46565880D01*
X92587897Y-46637768D01*
X92482464Y-46637768D01*
X92467725Y-46526180D01*
X92419442Y-46466094D01*
X92361502Y-46445708D01*
X92287468Y-46442489D01*
X91502060Y-46442489D01*
X91344335Y-46484335D01*
X91300343Y-46637768D01*
X91158619Y-46637768D01*
X91155494Y-46565880D01*
X91135107Y-46506867D01*
X91075021Y-46457511D01*
X90963433Y-46442489D01*
X90849700Y-46457511D01*
X90789614Y-46506867D01*
X90769227Y-46565880D01*
X90766009Y-46637768D01*
X90766009Y-47026180D01*
X90276738Y-47026180D01*
X90276738Y-46639914D01*
X90273519Y-46565880D01*
X90253133Y-46506867D01*
X90193047Y-46457511D01*
X90081459Y-46442489D01*
X89967725Y-46457511D01*
X89907639Y-46506867D01*
X89887253Y-46565880D01*
X89884034Y-46637768D01*
X89787370Y-46637768D01*
X89791760Y-46605579D01*
X89778884Y-46511159D01*
X89738112Y-46460730D01*
X89689828Y-46443562D01*
X89628670Y-46440343D01*
X88647983Y-46440343D01*
X88586824Y-46443562D01*
X88537468Y-46460730D01*
X88495622Y-46510086D01*
X88482747Y-46603433D01*
X88415697Y-46603433D01*
X88405494Y-46526180D01*
X88357210Y-46466094D01*
X88299270Y-46445708D01*
X88225236Y-46442489D01*
X87439828Y-46442489D01*
X87282103Y-46484335D01*
X87238112Y-46637768D01*
X86701631Y-46637768D01*
X86701631Y-45903863D01*
X87238112Y-45903863D01*
X97881888Y-45903863D01*
X98418369Y-45903863D01*
X98418369Y-48496137D01*
G37*
%TO.C,kibuzzard-675D47F4*%
G36*
X87153433Y-68830472D02*
G01*
X87175966Y-68917382D01*
X87152361Y-69005365D01*
X87075107Y-69033262D01*
X86998927Y-69006438D01*
X86976395Y-68917382D01*
X86998927Y-68830472D01*
X87075107Y-68805794D01*
X87153433Y-68830472D01*
G37*
G36*
X87994635Y-69557940D02*
G01*
X88017167Y-69644850D01*
X87993562Y-69733906D01*
X87916309Y-69760730D01*
X87840129Y-69734979D01*
X87817597Y-69646996D01*
X87840129Y-69559013D01*
X87916309Y-69533262D01*
X87994635Y-69557940D01*
G37*
G36*
X83051502Y-68765021D02*
G01*
X83081545Y-68842275D01*
X83050429Y-68920601D01*
X82974249Y-68951717D01*
X82899142Y-68921674D01*
X82869099Y-68844421D01*
X82899142Y-68766094D01*
X82974249Y-68734979D01*
X83051502Y-68765021D01*
G37*
G36*
X88809013Y-70636266D02*
G01*
X88272532Y-70636266D01*
X87918455Y-70636266D01*
X87156652Y-70636266D01*
X85521459Y-70636266D01*
X84579399Y-70636266D01*
X82976395Y-70636266D01*
X81879828Y-70636266D01*
X81227468Y-70636266D01*
X80690987Y-70636266D01*
X80690987Y-68694206D01*
X81227468Y-68694206D01*
X81240343Y-68790773D01*
X81281116Y-68841202D01*
X81329399Y-68858369D01*
X81390558Y-68861588D01*
X81688841Y-68861588D01*
X81688841Y-69842275D01*
X81692060Y-69914163D01*
X81711373Y-69972103D01*
X81769313Y-70020386D01*
X81879828Y-70035408D01*
X81991416Y-70020386D01*
X82051502Y-69973176D01*
X82071888Y-69916309D01*
X82075107Y-69844421D01*
X82075107Y-68861588D01*
X82371245Y-68861588D01*
X82432403Y-68858369D01*
X82466335Y-68846567D01*
X82598712Y-68846567D01*
X82626878Y-68990343D01*
X82711373Y-69112661D01*
X82833959Y-69196352D01*
X82976395Y-69224249D01*
X83119903Y-69196352D01*
X83172871Y-69159871D01*
X83914163Y-69159871D01*
X83924893Y-69258584D01*
X83972639Y-69313305D01*
X84068670Y-69331545D01*
X84579399Y-69331545D01*
X84686695Y-69312232D01*
X84724249Y-69259657D01*
X84736052Y-69162017D01*
X84723176Y-69063305D01*
X84677039Y-69010193D01*
X84581545Y-68992489D01*
X84070815Y-68992489D01*
X83967811Y-69011803D01*
X83927039Y-69063305D01*
X83914163Y-69159871D01*
X83172871Y-69159871D01*
X83241416Y-69112661D01*
X83324303Y-68989807D01*
X83351931Y-68844421D01*
X83330151Y-68728541D01*
X85326180Y-68728541D01*
X85326180Y-69835837D01*
X85329399Y-69909871D01*
X85349785Y-69968884D01*
X85409871Y-70018240D01*
X85521459Y-70033262D01*
X85635193Y-70018240D01*
X85695279Y-69969957D01*
X85715665Y-69912017D01*
X85718884Y-69837983D01*
X85718884Y-69451717D01*
X86208155Y-69451717D01*
X86208155Y-69835837D01*
X86211373Y-69909871D01*
X86231760Y-69968884D01*
X86291845Y-70018240D01*
X86403433Y-70033262D01*
X86517167Y-70018240D01*
X86521173Y-70015021D01*
X87013412Y-70015021D01*
X87077253Y-70074034D01*
X87156652Y-70094421D01*
X87210300Y-70046137D01*
X87420713Y-69649142D01*
X87560086Y-69649142D01*
X87584764Y-69807940D01*
X87658798Y-69932403D01*
X87773069Y-70012876D01*
X87918455Y-70039700D01*
X88068670Y-70014217D01*
X88180258Y-69937768D01*
X88249464Y-69814109D01*
X88272532Y-69646996D01*
X88249195Y-69481223D01*
X88179185Y-69357296D01*
X88066792Y-69280043D01*
X87916309Y-69254292D01*
X87769850Y-69280848D01*
X87656652Y-69360515D01*
X87584227Y-69485783D01*
X87560086Y-69649142D01*
X87420713Y-69649142D01*
X87987124Y-68580472D01*
X87997854Y-68514485D01*
X87935622Y-68453863D01*
X87854614Y-68435622D01*
X87796137Y-68488197D01*
X87077253Y-69844093D01*
X87023605Y-69945279D01*
X87013412Y-70015021D01*
X86521173Y-70015021D01*
X86577253Y-69969957D01*
X86597639Y-69912017D01*
X86600858Y-69837983D01*
X86600858Y-68921674D01*
X86721030Y-68921674D01*
X86745440Y-69080472D01*
X86818670Y-69204936D01*
X86932135Y-69285408D01*
X87077253Y-69312232D01*
X87227736Y-69286481D01*
X87340129Y-69209227D01*
X87410139Y-69085300D01*
X87433476Y-68919528D01*
X87409871Y-68755097D01*
X87339056Y-68630901D01*
X87225858Y-68552843D01*
X87075107Y-68526824D01*
X86928916Y-68553648D01*
X86816524Y-68634120D01*
X86744903Y-68759657D01*
X86721030Y-68921674D01*
X86600858Y-68921674D01*
X86600858Y-68730687D01*
X86597639Y-68656652D01*
X86577253Y-68597639D01*
X86517167Y-68548283D01*
X86405579Y-68533262D01*
X86291845Y-68548283D01*
X86231760Y-68597639D01*
X86211373Y-68656652D01*
X86208155Y-68728541D01*
X86208155Y-69116953D01*
X85718884Y-69116953D01*
X85718884Y-68730687D01*
X85715665Y-68656652D01*
X85695279Y-68597639D01*
X85635193Y-68548283D01*
X85523605Y-68533262D01*
X85409871Y-68548283D01*
X85349785Y-68597639D01*
X85329399Y-68656652D01*
X85326180Y-68728541D01*
X83330151Y-68728541D01*
X83324303Y-68697425D01*
X83241416Y-68574034D01*
X83119367Y-68490343D01*
X82974249Y-68462446D01*
X82830740Y-68490612D01*
X82709227Y-68575107D01*
X82626341Y-68699303D01*
X82598712Y-68846567D01*
X82466335Y-68846567D01*
X82481760Y-68841202D01*
X82523605Y-68790773D01*
X82536481Y-68696352D01*
X82523605Y-68601931D01*
X82482833Y-68551502D01*
X82434549Y-68534335D01*
X82373391Y-68531116D01*
X81392704Y-68531116D01*
X81331545Y-68534335D01*
X81282189Y-68551502D01*
X81240343Y-68600858D01*
X81227468Y-68694206D01*
X80690987Y-68694206D01*
X80690987Y-67863734D01*
X81227468Y-67863734D01*
X88272532Y-67863734D01*
X88809013Y-67863734D01*
X88809013Y-70636266D01*
G37*
%TO.C,kibuzzard-675D47D9*%
G36*
X122927897Y-58337983D02*
G01*
X122726180Y-58337983D01*
X122827039Y-58129828D01*
X122927897Y-58337983D01*
G37*
G36*
X125505150Y-59554721D02*
G01*
X124968670Y-59554721D01*
X123844206Y-59554721D01*
X123296996Y-59554721D01*
X121026609Y-59554721D01*
X120831330Y-59554721D01*
X120294850Y-59554721D01*
X120294850Y-57677039D01*
X120831330Y-57677039D01*
X120831330Y-58786481D01*
X120834549Y-58860515D01*
X120854936Y-58919528D01*
X120915021Y-58968884D01*
X121026609Y-58983906D01*
X121140343Y-58968884D01*
X121200429Y-58920601D01*
X121220815Y-58862661D01*
X122082403Y-58862661D01*
X122202575Y-58966738D01*
X122359227Y-58997854D01*
X122466524Y-58878755D01*
X122565236Y-58672747D01*
X123093133Y-58672747D01*
X123191845Y-58876609D01*
X123296996Y-59000000D01*
X123455794Y-58968884D01*
X123574893Y-58863734D01*
X123545923Y-58711373D01*
X123043620Y-57672747D01*
X123651073Y-57672747D01*
X123651073Y-58786481D01*
X123655365Y-58861588D01*
X123675751Y-58920601D01*
X123733691Y-58968884D01*
X123844206Y-58983906D01*
X123957940Y-58968884D01*
X124018026Y-58920601D01*
X124038412Y-58862661D01*
X124041631Y-58788627D01*
X124041631Y-58192060D01*
X124597425Y-58925966D01*
X124660730Y-58972103D01*
X124771245Y-58983906D01*
X124884979Y-58968884D01*
X124945064Y-58920601D01*
X124965451Y-58862661D01*
X124968670Y-58788627D01*
X124968670Y-57681330D01*
X124965451Y-57607296D01*
X124945064Y-57548283D01*
X124884979Y-57498927D01*
X124773391Y-57483906D01*
X124661803Y-57498927D01*
X124601717Y-57545064D01*
X124580258Y-57601931D01*
X124575966Y-57672747D01*
X124575966Y-58288627D01*
X124039485Y-57567597D01*
X124000858Y-57523605D01*
X123946137Y-57496781D01*
X123848498Y-57483906D01*
X123735837Y-57497854D01*
X123676824Y-57543991D01*
X123655365Y-57600858D01*
X123651073Y-57672747D01*
X123043620Y-57672747D01*
X123007296Y-57597639D01*
X122933798Y-57510730D01*
X122829185Y-57481760D01*
X122724034Y-57512876D01*
X122648927Y-57595494D01*
X122110300Y-58711373D01*
X122082403Y-58862661D01*
X121220815Y-58862661D01*
X121224034Y-58788627D01*
X121224034Y-58400215D01*
X121616738Y-58400215D01*
X121686481Y-58396996D01*
X121739056Y-58379828D01*
X121780901Y-58330472D01*
X121792704Y-58237124D01*
X121780901Y-58138412D01*
X121740129Y-58086910D01*
X121688627Y-58068670D01*
X121618884Y-58065451D01*
X121224034Y-58065451D01*
X121224034Y-57874464D01*
X121814163Y-57874464D01*
X121888197Y-57871245D01*
X121947210Y-57850858D01*
X121996567Y-57791845D01*
X122011588Y-57679185D01*
X121996567Y-57565451D01*
X121948283Y-57505365D01*
X121890343Y-57484979D01*
X121818455Y-57481760D01*
X121033047Y-57481760D01*
X120875322Y-57523605D01*
X120831330Y-57677039D01*
X120294850Y-57677039D01*
X120294850Y-56945279D01*
X120831330Y-56945279D01*
X124968670Y-56945279D01*
X125505150Y-56945279D01*
X125505150Y-59554721D01*
G37*
%TO.C,kibuzzard-675D46A4*%
G36*
X128395064Y-72611159D02*
G01*
X127858584Y-72611159D01*
X126734120Y-72611159D01*
X125463734Y-72611159D01*
X124186910Y-72611159D01*
X123111803Y-72611159D01*
X122096781Y-72611159D01*
X121341416Y-72611159D01*
X120804936Y-72611159D01*
X120804936Y-71280687D01*
X121341416Y-71280687D01*
X121355365Y-71438010D01*
X121397210Y-71583798D01*
X121466953Y-71718053D01*
X121564592Y-71840773D01*
X121681545Y-71943106D01*
X121809227Y-72016202D01*
X121947639Y-72060059D01*
X122096781Y-72074678D01*
X122261302Y-72065379D01*
X122402933Y-72037482D01*
X122521674Y-71990987D01*
X122600536Y-71941363D01*
X122661159Y-71882618D01*
X122712661Y-71759227D01*
X122712661Y-71319313D01*
X122711588Y-71265665D01*
X122701931Y-71218455D01*
X122676180Y-71175536D01*
X122625751Y-71147639D01*
X122543133Y-71132618D01*
X122167597Y-71132618D01*
X122109657Y-71135837D01*
X122062446Y-71153004D01*
X122022747Y-71203433D01*
X122010944Y-71297854D01*
X122021674Y-71394421D01*
X122058155Y-71444850D01*
X122103219Y-71462017D01*
X122161159Y-71465236D01*
X122319957Y-71465236D01*
X122319957Y-71649785D01*
X122228755Y-71670708D01*
X122105365Y-71677682D01*
X121966416Y-71648176D01*
X121845708Y-71559657D01*
X121762017Y-71431974D01*
X121734120Y-71284979D01*
X121760944Y-71142543D01*
X121841416Y-71024249D01*
X121959979Y-70944582D01*
X122101073Y-70918026D01*
X122233584Y-70933047D01*
X122343562Y-70978112D01*
X122459442Y-71027468D01*
X122538841Y-70999034D01*
X122618240Y-70913734D01*
X122667597Y-70793562D01*
X122652131Y-70746352D01*
X122916524Y-70746352D01*
X122916524Y-71855794D01*
X122919742Y-71929828D01*
X122940129Y-71988841D01*
X123000215Y-72038197D01*
X123111803Y-72053219D01*
X123830687Y-72053219D01*
X123891845Y-72050000D01*
X123943348Y-72031760D01*
X123985193Y-71980258D01*
X123998069Y-71885837D01*
X123997783Y-71883691D01*
X124056009Y-71883691D01*
X124066738Y-71969528D01*
X124186910Y-72031760D01*
X125030258Y-72031760D01*
X125122532Y-72014592D01*
X125153648Y-71969528D01*
X125163305Y-71884764D01*
X125152575Y-71800000D01*
X125032403Y-71735622D01*
X124189056Y-71735622D01*
X124096781Y-71752790D01*
X124064592Y-71797854D01*
X124056009Y-71883691D01*
X123997783Y-71883691D01*
X123985193Y-71789270D01*
X123943348Y-71738841D01*
X123893991Y-71721674D01*
X123832833Y-71718455D01*
X123309227Y-71718455D01*
X123309227Y-70748498D01*
X123309134Y-70746352D01*
X125268455Y-70746352D01*
X125268455Y-71855794D01*
X125271674Y-71929828D01*
X125292060Y-71988841D01*
X125352146Y-72038197D01*
X125463734Y-72053219D01*
X126253433Y-72053219D01*
X126327468Y-72050000D01*
X126386481Y-72029614D01*
X126435837Y-71969528D01*
X126450858Y-71857940D01*
X126435837Y-71744206D01*
X126387554Y-71684120D01*
X126329614Y-71663734D01*
X126255579Y-71660515D01*
X125661159Y-71660515D01*
X125661159Y-71469528D01*
X126053863Y-71469528D01*
X126124678Y-71466309D01*
X126178326Y-71449142D01*
X126220172Y-71399785D01*
X126231974Y-71304292D01*
X126220172Y-71206652D01*
X126179399Y-71155150D01*
X126127897Y-71137983D01*
X126058155Y-71134764D01*
X125661159Y-71134764D01*
X125661159Y-70943777D01*
X126253433Y-70943777D01*
X126327468Y-70940558D01*
X126386481Y-70920172D01*
X126435837Y-70860086D01*
X126450858Y-70748498D01*
X126450008Y-70742060D01*
X126540987Y-70742060D01*
X126540987Y-71855794D01*
X126545279Y-71930901D01*
X126565665Y-71989914D01*
X126623605Y-72038197D01*
X126734120Y-72053219D01*
X126847854Y-72038197D01*
X126907940Y-71989914D01*
X126928326Y-71931974D01*
X126931545Y-71857940D01*
X126931545Y-71261373D01*
X127487339Y-71995279D01*
X127550644Y-72041416D01*
X127661159Y-72053219D01*
X127774893Y-72038197D01*
X127834979Y-71989914D01*
X127855365Y-71931974D01*
X127858584Y-71857940D01*
X127858584Y-70750644D01*
X127855365Y-70676609D01*
X127834979Y-70617597D01*
X127774893Y-70568240D01*
X127663305Y-70553219D01*
X127551717Y-70568240D01*
X127491631Y-70614378D01*
X127470172Y-70671245D01*
X127465880Y-70742060D01*
X127465880Y-71357940D01*
X126929399Y-70636910D01*
X126890773Y-70592918D01*
X126836052Y-70566094D01*
X126738412Y-70553219D01*
X126625751Y-70567167D01*
X126566738Y-70613305D01*
X126545279Y-70670172D01*
X126540987Y-70742060D01*
X126450008Y-70742060D01*
X126435837Y-70634764D01*
X126387554Y-70574678D01*
X126329614Y-70554292D01*
X126255579Y-70551073D01*
X125470172Y-70551073D01*
X125312446Y-70592918D01*
X125268455Y-70746352D01*
X123309134Y-70746352D01*
X123306009Y-70674464D01*
X123285622Y-70615451D01*
X123225536Y-70566094D01*
X123113948Y-70551073D01*
X123000215Y-70566094D01*
X122940129Y-70615451D01*
X122919742Y-70674464D01*
X122916524Y-70746352D01*
X122652131Y-70746352D01*
X122647210Y-70731330D01*
X122607511Y-70686266D01*
X122547425Y-70643348D01*
X122455418Y-70593723D01*
X122342489Y-70556438D01*
X122223122Y-70533101D01*
X122111803Y-70525322D01*
X121958704Y-70539203D01*
X121817006Y-70580848D01*
X121686709Y-70650255D01*
X121567811Y-70747425D01*
X121468763Y-70864042D01*
X121398015Y-70991792D01*
X121355566Y-71130673D01*
X121341416Y-71280687D01*
X120804936Y-71280687D01*
X120804936Y-69988841D01*
X121341416Y-69988841D01*
X127858584Y-69988841D01*
X128395064Y-69988841D01*
X128395064Y-72611159D01*
G37*
%TO.C,kibuzzard-675D4694*%
G36*
X120217597Y-66092060D02*
G01*
X120263734Y-66203648D01*
X120213305Y-66321674D01*
X120107082Y-66360300D01*
X119875322Y-66360300D01*
X119875322Y-66046996D01*
X120104936Y-66046996D01*
X120217597Y-66092060D01*
G37*
G36*
X123526609Y-66092060D02*
G01*
X123572747Y-66203648D01*
X123523391Y-66321674D01*
X123420386Y-66360300D01*
X123184335Y-66360300D01*
X123184335Y-66046996D01*
X123416094Y-66046996D01*
X123526609Y-66092060D01*
G37*
G36*
X125975107Y-66062017D02*
G01*
X125997639Y-66128541D01*
X125982618Y-66195064D01*
X125931116Y-66210086D01*
X125905365Y-66210086D01*
X125774464Y-66245494D01*
X125735837Y-66368884D01*
X125772318Y-66496567D01*
X125894635Y-66534120D01*
X125922532Y-66534120D01*
X126012661Y-66554506D01*
X126040558Y-66643562D01*
X126028755Y-66711159D01*
X125996567Y-66747639D01*
X125963305Y-66759442D01*
X125933262Y-66761588D01*
X125626395Y-66761588D01*
X125626395Y-66044850D01*
X125886052Y-66044850D01*
X125975107Y-66062017D01*
G37*
G36*
X128353863Y-67707940D02*
G01*
X127817382Y-67707940D01*
X127160730Y-67707940D01*
X125428970Y-67707940D01*
X124169313Y-67707940D01*
X123733691Y-67707940D01*
X121306652Y-67707940D01*
X119677897Y-67707940D01*
X119482618Y-67707940D01*
X118946137Y-67707940D01*
X118946137Y-65849571D01*
X119482618Y-65849571D01*
X119482618Y-66956867D01*
X119485837Y-67030901D01*
X119506223Y-67089914D01*
X119566309Y-67139270D01*
X119677897Y-67154292D01*
X119791631Y-67139270D01*
X119851717Y-67090987D01*
X119872103Y-67033047D01*
X119875322Y-66959013D01*
X119875322Y-66753004D01*
X120104936Y-66753004D01*
X120192650Y-66744421D01*
X120284120Y-66718670D01*
X120375322Y-66676824D01*
X120462232Y-66619957D01*
X120539217Y-66544582D01*
X120600644Y-66447210D01*
X120640880Y-66332672D01*
X120654292Y-66205794D01*
X120640612Y-66078380D01*
X120599571Y-65962232D01*
X120537607Y-65863251D01*
X120461159Y-65787339D01*
X120412572Y-65755150D01*
X120726180Y-65755150D01*
X120735837Y-65913948D01*
X121122103Y-67021245D01*
X121141416Y-67067382D01*
X121199356Y-67123176D01*
X121306652Y-67154292D01*
X121428433Y-67117811D01*
X121497639Y-67008369D01*
X121699356Y-66349571D01*
X121901073Y-67010515D01*
X121912876Y-67041631D01*
X121940773Y-67086695D01*
X122000858Y-67134979D01*
X122092060Y-67154292D01*
X122211695Y-67121030D01*
X122278755Y-67021245D01*
X122662876Y-65913948D01*
X122667726Y-65849571D01*
X122791631Y-65849571D01*
X122791631Y-66956867D01*
X122794850Y-67030901D01*
X122815236Y-67089914D01*
X122875322Y-67139270D01*
X122986910Y-67154292D01*
X123100644Y-67139270D01*
X123160730Y-67090987D01*
X123181116Y-67033047D01*
X123184335Y-66959013D01*
X123184335Y-66750858D01*
X123383906Y-66750858D01*
X123613519Y-67062017D01*
X123733691Y-67161803D01*
X123886052Y-67102790D01*
X123980327Y-66986910D01*
X124038412Y-66986910D01*
X124049142Y-67072747D01*
X124169313Y-67134979D01*
X125012661Y-67134979D01*
X125104936Y-67117811D01*
X125136052Y-67072747D01*
X125145708Y-66987983D01*
X125134979Y-66903219D01*
X125014807Y-66838841D01*
X124171459Y-66838841D01*
X124079185Y-66856009D01*
X124046996Y-66901073D01*
X124038412Y-66986910D01*
X123980327Y-66986910D01*
X123989056Y-66976180D01*
X123931116Y-66828112D01*
X123776609Y-66622103D01*
X123881521Y-66505269D01*
X123944468Y-66366500D01*
X123965451Y-66205794D01*
X123952039Y-66078380D01*
X123911803Y-65962232D01*
X123850376Y-65863251D01*
X123834326Y-65847425D01*
X125233691Y-65847425D01*
X125233691Y-66954721D01*
X125236910Y-67029828D01*
X125257296Y-67089914D01*
X125317382Y-67139270D01*
X125428970Y-67154292D01*
X125954721Y-67154292D01*
X126078827Y-67138555D01*
X126190773Y-67091345D01*
X126290558Y-67012661D01*
X126368884Y-66911326D01*
X126416452Y-66796161D01*
X126433262Y-66667167D01*
X126404828Y-66502468D01*
X126319528Y-66351717D01*
X126372639Y-66236910D01*
X126390343Y-66111373D01*
X126375560Y-65992513D01*
X126331211Y-65884859D01*
X126277853Y-65815236D01*
X126508369Y-65815236D01*
X126521245Y-65911803D01*
X126562017Y-65962232D01*
X126610300Y-65979399D01*
X126671459Y-65982618D01*
X126969742Y-65982618D01*
X126969742Y-66963305D01*
X126972961Y-67035193D01*
X126992275Y-67093133D01*
X127050215Y-67141416D01*
X127160730Y-67156438D01*
X127272318Y-67141416D01*
X127332403Y-67094206D01*
X127352790Y-67037339D01*
X127356009Y-66965451D01*
X127356009Y-65982618D01*
X127652146Y-65982618D01*
X127713305Y-65979399D01*
X127762661Y-65962232D01*
X127804506Y-65911803D01*
X127817382Y-65817382D01*
X127804506Y-65722961D01*
X127763734Y-65672532D01*
X127715451Y-65655365D01*
X127654292Y-65652146D01*
X126673605Y-65652146D01*
X126612446Y-65655365D01*
X126563090Y-65672532D01*
X126521245Y-65721888D01*
X126508369Y-65815236D01*
X126277853Y-65815236D01*
X126257296Y-65788412D01*
X126162160Y-65712709D01*
X126054149Y-65667287D01*
X125933262Y-65652146D01*
X125431116Y-65652146D01*
X125317382Y-65667167D01*
X125257296Y-65716524D01*
X125236910Y-65775536D01*
X125233691Y-65847425D01*
X123834326Y-65847425D01*
X123773391Y-65787339D01*
X123687017Y-65730472D01*
X123597425Y-65688627D01*
X123507564Y-65662876D01*
X123420386Y-65654292D01*
X122989056Y-65654292D01*
X122875322Y-65669313D01*
X122815236Y-65718670D01*
X122794850Y-65777682D01*
X122791631Y-65849571D01*
X122667726Y-65849571D01*
X122674678Y-65757296D01*
X122540558Y-65662876D01*
X122378541Y-65654292D01*
X122291631Y-65787339D01*
X122068455Y-66443991D01*
X121892489Y-65800215D01*
X121886052Y-65783047D01*
X121875322Y-65756223D01*
X121861373Y-65729399D01*
X121837768Y-65701502D01*
X121804506Y-65677897D01*
X121757296Y-65659657D01*
X121695064Y-65654292D01*
X121571674Y-65690236D01*
X121506223Y-65798069D01*
X121330258Y-66439700D01*
X121107082Y-65787339D01*
X121020172Y-65655365D01*
X120860300Y-65665021D01*
X120726180Y-65755150D01*
X120412572Y-65755150D01*
X120375322Y-65730472D01*
X120285193Y-65688627D01*
X120194528Y-65662876D01*
X120107082Y-65654292D01*
X119680043Y-65654292D01*
X119566309Y-65669313D01*
X119506223Y-65718670D01*
X119485837Y-65777682D01*
X119482618Y-65849571D01*
X118946137Y-65849571D01*
X118946137Y-65092060D01*
X119482618Y-65092060D01*
X127817382Y-65092060D01*
X128353863Y-65092060D01*
X128353863Y-67707940D01*
G37*
D14*
%TO.C,R104*%
X123486359Y-49030000D02*
X123793641Y-49030000D01*
X123486359Y-48270000D02*
X123793641Y-48270000D01*
%TO.C,R103*%
X121935000Y-61627064D02*
X121935000Y-61172936D01*
X120465000Y-61627064D02*
X120465000Y-61172936D01*
%TO.C,R102*%
X123935000Y-61627064D02*
X123935000Y-61172936D01*
X122465000Y-61627064D02*
X122465000Y-61172936D01*
%TO.C,SW602*%
X132250000Y-64700000D02*
X132250000Y-68000000D01*
X131960000Y-64700000D02*
X132250000Y-64700000D01*
X129750000Y-64700000D02*
X129460000Y-64700000D01*
X129460000Y-64700000D02*
X129460000Y-65700000D01*
X132570000Y-65350000D02*
X132250000Y-65350000D01*
X132950000Y-65850000D02*
X132570000Y-65350000D01*
X132950000Y-65850000D02*
X132950000Y-66850000D01*
X132950000Y-66850000D02*
X132570000Y-67350000D01*
X132570000Y-67350000D02*
X132250000Y-67350000D01*
X132250000Y-68000000D02*
X131960000Y-68000000D01*
X129460000Y-68000000D02*
X129460000Y-67000000D01*
X129460000Y-68000000D02*
X129750000Y-68000000D01*
%TO.C,R101*%
X87146359Y-65630000D02*
X87453641Y-65630000D01*
X87146359Y-64870000D02*
X87453641Y-64870000D01*
%TO.C,J101*%
X82150000Y-48430000D02*
X83850000Y-48430000D01*
X82150000Y-57770000D02*
X83850000Y-57770000D01*
%TO.C,C102*%
X130892164Y-63360000D02*
X131107836Y-63360000D01*
X130892164Y-62640000D02*
X131107836Y-62640000D01*
%TO.C,C101*%
X88410000Y-49807836D02*
X88410000Y-49592164D01*
X87690000Y-49807836D02*
X87690000Y-49592164D01*
D17*
%TO.C,J501*%
X104500000Y-69100000D02*
G75*
G02*
X104300000Y-69100000I-100000J0D01*
G01*
X104300000Y-69100000D02*
G75*
G02*
X104500000Y-69100000I100000J0D01*
G01*
D18*
X107200000Y-78700000D02*
X107200000Y-81150000D01*
X107200000Y-73500000D02*
X107200000Y-76300000D01*
X104700000Y-69600000D02*
X105800000Y-69600000D01*
X92400000Y-69600000D02*
X93900000Y-69600000D01*
X91000000Y-81150000D02*
X107200000Y-81150000D01*
X91000000Y-81150000D02*
X91000000Y-78800000D01*
X91000000Y-76300000D02*
X91000000Y-73400000D01*
D14*
%TO.C,U501*%
X89850000Y-67280000D02*
X89520000Y-67520000D01*
X89520000Y-67040000D01*
X89850000Y-67280000D01*
G36*
X89850000Y-67280000D02*
G01*
X89520000Y-67520000D01*
X89520000Y-67040000D01*
X89850000Y-67280000D01*
G37*
X89840000Y-65040000D02*
X90730000Y-65040000D01*
X89840000Y-65040000D02*
X89840000Y-66890000D01*
X92960000Y-65055000D02*
X92960000Y-66905000D01*
X92070000Y-65055000D02*
X92960000Y-65055000D01*
%TO.C,J601*%
X122860000Y-56160000D02*
X124010000Y-56160000D01*
X124010000Y-56160000D02*
X124010000Y-55110000D01*
X124010000Y-55110000D02*
X125000000Y-55110000D01*
X120890000Y-54990000D02*
X120890000Y-51110000D01*
X122860000Y-49940000D02*
X124010000Y-49940000D01*
X124010000Y-49940000D02*
X124010000Y-50990000D01*
%TO.C,C502*%
X93960000Y-67687836D02*
X93960000Y-67472164D01*
X93240000Y-67687836D02*
X93240000Y-67472164D01*
%TO.C,C501*%
X89560000Y-67707836D02*
X89560000Y-67492164D01*
X88840000Y-67707836D02*
X88840000Y-67492164D01*
%TO.C,R403*%
X84356359Y-46780000D02*
X84663641Y-46780000D01*
X84356359Y-46020000D02*
X84663641Y-46020000D01*
%TO.C,C401*%
X102292164Y-32560000D02*
X102507836Y-32560000D01*
X102292164Y-31840000D02*
X102507836Y-31840000D01*
%TO.C,R601*%
X130696359Y-73820000D02*
X131003641Y-73820000D01*
X130696359Y-74580000D02*
X131003641Y-74580000D01*
%TO.C,Q601*%
X127500000Y-52222500D02*
X128150000Y-52222500D01*
X127500000Y-52222500D02*
X126850000Y-52222500D01*
X127500000Y-49102500D02*
X128150000Y-49102500D01*
X127500000Y-49102500D02*
X126850000Y-49102500D01*
X128902500Y-52502500D02*
X128422500Y-52502500D01*
X128662500Y-52172500D01*
X128902500Y-52502500D01*
G36*
X128902500Y-52502500D02*
G01*
X128422500Y-52502500D01*
X128662500Y-52172500D01*
X128902500Y-52502500D01*
G37*
%TO.C,SW601*%
X129460000Y-72950000D02*
X129750000Y-72950000D01*
X129460000Y-72950000D02*
X129460000Y-71950000D01*
X132250000Y-72950000D02*
X131960000Y-72950000D01*
X132570000Y-72300000D02*
X132250000Y-72300000D01*
X132950000Y-71800000D02*
X132570000Y-72300000D01*
X132950000Y-70800000D02*
X132950000Y-71800000D01*
X132950000Y-70800000D02*
X132570000Y-70300000D01*
X132570000Y-70300000D02*
X132250000Y-70300000D01*
X129460000Y-69650000D02*
X129460000Y-70650000D01*
X129750000Y-69650000D02*
X129460000Y-69650000D01*
X131960000Y-69650000D02*
X132250000Y-69650000D01*
X132250000Y-69650000D02*
X132250000Y-72950000D01*
%TO.C,R606*%
X130503641Y-53230000D02*
X130196359Y-53230000D01*
X130503641Y-52470000D02*
X130196359Y-52470000D01*
%TO.C,U401*%
X101865000Y-41110000D02*
X102655000Y-41110000D01*
X101865000Y-38290000D02*
X102865000Y-38290000D01*
X102985000Y-41390000D02*
X102985000Y-41110000D01*
X103265000Y-41110000D01*
X102985000Y-41390000D01*
G36*
X102985000Y-41390000D02*
G01*
X102985000Y-41110000D01*
X103265000Y-41110000D01*
X102985000Y-41390000D01*
G37*
%TO.C,R402*%
X102553641Y-31130000D02*
X102246359Y-31130000D01*
X102553641Y-30370000D02*
X102246359Y-30370000D01*
%TO.C,R401*%
X102553641Y-43080000D02*
X102246359Y-43080000D01*
X102553641Y-42320000D02*
X102246359Y-42320000D01*
%TO.C,U602*%
X127110000Y-57640000D02*
X128520000Y-57640000D01*
X127120000Y-59960000D02*
X128520000Y-59960000D01*
X126740000Y-57690000D02*
X126500000Y-57360000D01*
X126980000Y-57360000D01*
X126740000Y-57690000D01*
G36*
X126740000Y-57690000D02*
G01*
X126500000Y-57360000D01*
X126980000Y-57360000D01*
X126740000Y-57690000D01*
G37*
D19*
%TO.C,T401*%
X99805000Y-43680000D02*
G75*
G02*
X99605000Y-43680000I-100000J0D01*
G01*
X99605000Y-43680000D02*
G75*
G02*
X99805000Y-43680000I100000J0D01*
G01*
D17*
X97735000Y-28195000D02*
X97735000Y-28820000D01*
X85705000Y-28195000D02*
X97735000Y-28195000D01*
X75695000Y-28195000D02*
X81905000Y-28195000D01*
X97735000Y-44045000D02*
X97735000Y-43420000D01*
X85705000Y-44045000D02*
X97735000Y-44045000D01*
X81905000Y-44045000D02*
X75695000Y-44045000D01*
X75695000Y-44045000D02*
X75695000Y-28195000D01*
D14*
%TO.C,U402*%
X101845000Y-36160000D02*
X102635000Y-36160000D01*
X101845000Y-33340000D02*
X102845000Y-33340000D01*
X102965000Y-36440000D02*
X102965000Y-36160000D01*
X103245000Y-36160000D01*
X102965000Y-36440000D01*
G36*
X102965000Y-36440000D02*
G01*
X102965000Y-36160000D01*
X103245000Y-36160000D01*
X102965000Y-36440000D01*
G37*
D20*
%TO.C,D601*%
X131000000Y-48900000D02*
G75*
G02*
X131000000Y-48800000I0J50000D01*
G01*
X131000000Y-48800000D02*
G75*
G02*
X131000000Y-48900000I0J-50000D01*
G01*
X131000000Y-48900000D02*
X131000000Y-48900000D01*
X131000000Y-48800000D02*
X131000000Y-48800000D01*
D14*
%TO.C,U603*%
X127100000Y-54790000D02*
X128510000Y-54790000D01*
X127110000Y-57110000D02*
X128510000Y-57110000D01*
X126730000Y-54840000D02*
X126490000Y-54510000D01*
X126970000Y-54510000D01*
X126730000Y-54840000D01*
G36*
X126730000Y-54840000D02*
G01*
X126490000Y-54510000D01*
X126970000Y-54510000D01*
X126730000Y-54840000D01*
G37*
%TO.C,R602*%
X128663641Y-48830000D02*
X128356359Y-48830000D01*
X128663641Y-48070000D02*
X128356359Y-48070000D01*
D20*
%TO.C,D605*%
X131000000Y-58950000D02*
G75*
G02*
X131000000Y-58850000I0J50000D01*
G01*
X131000000Y-58850000D02*
G75*
G02*
X131000000Y-58950000I0J-50000D01*
G01*
X131000000Y-58950000D02*
X131000000Y-58950000D01*
X131000000Y-58850000D02*
X131000000Y-58850000D01*
%TO.C,D606*%
X131000000Y-53950000D02*
G75*
G02*
X131000000Y-53850000I0J50000D01*
G01*
X131000000Y-53850000D02*
G75*
G02*
X131000000Y-53950000I0J-50000D01*
G01*
X131000000Y-53950000D02*
X131000000Y-53950000D01*
X131000000Y-53850000D02*
X131000000Y-53850000D01*
D14*
%TO.C,R605*%
X130503641Y-58230000D02*
X130196359Y-58230000D01*
X130503641Y-57470000D02*
X130196359Y-57470000D01*
D13*
%TO.C,kibuzzard-675D489D*%
G36*
X80369957Y-62190773D02*
G01*
X80416094Y-62302361D01*
X80365665Y-62420386D01*
X80259442Y-62459013D01*
X80027682Y-62459013D01*
X80027682Y-62145708D01*
X80257296Y-62145708D01*
X80369957Y-62190773D01*
G37*
G36*
X82977253Y-59478326D02*
G01*
X82999785Y-59544850D01*
X82984764Y-59611373D01*
X82933262Y-59626395D01*
X82907511Y-59626395D01*
X82776609Y-59661803D01*
X82737983Y-59785193D01*
X82774464Y-59912876D01*
X82896781Y-59950429D01*
X82924678Y-59950429D01*
X83014807Y-59970815D01*
X83042704Y-60059871D01*
X83030901Y-60127468D01*
X82998712Y-60163948D01*
X82965451Y-60175751D01*
X82935408Y-60177897D01*
X82628541Y-60177897D01*
X82628541Y-59461159D01*
X82888197Y-59461159D01*
X82977253Y-59478326D01*
G37*
G36*
X81598498Y-62171996D02*
G01*
X81714378Y-62250858D01*
X81793240Y-62366738D01*
X81819528Y-62504077D01*
X81793240Y-62641148D01*
X81714378Y-62756223D01*
X81599034Y-62834281D01*
X81463305Y-62860300D01*
X81289485Y-62860300D01*
X81289485Y-62145708D01*
X81461159Y-62145708D01*
X81598498Y-62171996D01*
G37*
G36*
X86216524Y-63789485D02*
G01*
X85680043Y-63789485D01*
X85160730Y-63789485D01*
X84171459Y-63789485D01*
X82431116Y-63789485D01*
X81092060Y-63789485D01*
X79830258Y-63789485D01*
X79619957Y-63789485D01*
X79083476Y-63789485D01*
X79083476Y-61948283D01*
X79634979Y-61948283D01*
X79634979Y-63055579D01*
X79638197Y-63129614D01*
X79658584Y-63188627D01*
X79718670Y-63237983D01*
X79830258Y-63253004D01*
X79943991Y-63237983D01*
X80004077Y-63189700D01*
X80024464Y-63131760D01*
X80027682Y-63057725D01*
X80027682Y-62851717D01*
X80257296Y-62851717D01*
X80345011Y-62843133D01*
X80436481Y-62817382D01*
X80527682Y-62775536D01*
X80614592Y-62718670D01*
X80691577Y-62643294D01*
X80753004Y-62545923D01*
X80793240Y-62431384D01*
X80806652Y-62304506D01*
X80792972Y-62177092D01*
X80751931Y-62060944D01*
X80689968Y-61961964D01*
X80674029Y-61946137D01*
X80896781Y-61946137D01*
X80896781Y-63055579D01*
X80902146Y-63131760D01*
X80924678Y-63191845D01*
X80983691Y-63237983D01*
X81092060Y-63253004D01*
X81456867Y-63253004D01*
X81607752Y-63239123D01*
X81747103Y-63197479D01*
X81874920Y-63128071D01*
X81991202Y-63030901D01*
X82087902Y-62914150D01*
X82156974Y-62785998D01*
X82198417Y-62646446D01*
X82212232Y-62495494D01*
X82198417Y-62348498D01*
X82156974Y-62212232D01*
X82087902Y-62086695D01*
X81991202Y-61971888D01*
X81875322Y-61876127D01*
X81748712Y-61807725D01*
X81611373Y-61766685D01*
X81589914Y-61764702D01*
X81463305Y-61753004D01*
X81094206Y-61753004D01*
X80980472Y-61766953D01*
X80920386Y-61815236D01*
X80900000Y-61874249D01*
X80896781Y-61946137D01*
X80674029Y-61946137D01*
X80613519Y-61886052D01*
X80527682Y-61829185D01*
X80437554Y-61787339D01*
X80346888Y-61761588D01*
X80280901Y-61755111D01*
X80259442Y-61753004D01*
X79832403Y-61753004D01*
X79718670Y-61768026D01*
X79658584Y-61817382D01*
X79638197Y-61876395D01*
X79634979Y-61948283D01*
X79083476Y-61948283D01*
X79083476Y-59265880D01*
X79619957Y-59265880D01*
X79619957Y-59866738D01*
X79630687Y-59996567D01*
X79662876Y-60124249D01*
X79715182Y-60246030D01*
X79786266Y-60358155D01*
X79878809Y-60454989D01*
X79995494Y-60530901D01*
X80131223Y-60579989D01*
X80280901Y-60596352D01*
X80430848Y-60580258D01*
X80567382Y-60531974D01*
X80685139Y-60457135D01*
X80778755Y-60361373D01*
X80850912Y-60250054D01*
X80863757Y-60220815D01*
X81040558Y-60220815D01*
X81094206Y-60360300D01*
X81107082Y-60375322D01*
X81130687Y-60405365D01*
X81168240Y-60442918D01*
X81219742Y-60484764D01*
X81286266Y-60525536D01*
X81368884Y-60560944D01*
X81469742Y-60584549D01*
X81589914Y-60594206D01*
X81732618Y-60578112D01*
X81879614Y-60523391D01*
X82011588Y-60427897D01*
X82104936Y-60283047D01*
X82132296Y-60190236D01*
X82141416Y-60087768D01*
X82121298Y-59927361D01*
X82060944Y-59810944D01*
X81966792Y-59729399D01*
X81845279Y-59673605D01*
X81707940Y-59640343D01*
X81577039Y-59613519D01*
X81492275Y-59575966D01*
X81454721Y-59506223D01*
X81489056Y-59440773D01*
X81568455Y-59413948D01*
X81639270Y-59421459D01*
X81681116Y-59437554D01*
X81711159Y-59462232D01*
X81735837Y-59482618D01*
X81879614Y-59522318D01*
X82006223Y-59418240D01*
X82057725Y-59286266D01*
X82041975Y-59263734D01*
X82235837Y-59263734D01*
X82235837Y-60371030D01*
X82239056Y-60446137D01*
X82259442Y-60506223D01*
X82319528Y-60555579D01*
X82431116Y-60570601D01*
X82956867Y-60570601D01*
X83080973Y-60554864D01*
X83192918Y-60507654D01*
X83292704Y-60428970D01*
X83371030Y-60327635D01*
X83418598Y-60212470D01*
X83435408Y-60083476D01*
X83406974Y-59918777D01*
X83321674Y-59768026D01*
X83354434Y-59697210D01*
X83506223Y-59697210D01*
X83516953Y-59795923D01*
X83564700Y-59850644D01*
X83660730Y-59868884D01*
X84171459Y-59868884D01*
X84278755Y-59849571D01*
X84304813Y-59813090D01*
X84383906Y-59813090D01*
X84397586Y-59969206D01*
X84438627Y-60111373D01*
X84500590Y-60234496D01*
X84577039Y-60333476D01*
X84666363Y-60413948D01*
X84766953Y-60481545D01*
X84871567Y-60533852D01*
X84972961Y-60568455D01*
X85069796Y-60587768D01*
X85160730Y-60594206D01*
X85299499Y-60580854D01*
X85432546Y-60540796D01*
X85559871Y-60474034D01*
X85647854Y-60408584D01*
X85677897Y-60330258D01*
X85630687Y-60205794D01*
X85553433Y-60114056D01*
X85480472Y-60083476D01*
X85373176Y-60126395D01*
X85265343Y-60179506D01*
X85152146Y-60197210D01*
X84989056Y-60162876D01*
X84911534Y-60114861D01*
X84842060Y-60039485D01*
X84792972Y-59941041D01*
X84776609Y-59823820D01*
X84785730Y-59732618D01*
X84813090Y-59652146D01*
X84908584Y-59535193D01*
X85029828Y-59471888D01*
X85152146Y-59450429D01*
X85203648Y-59452575D01*
X85246567Y-59460086D01*
X85280901Y-59468670D01*
X85309871Y-59479399D01*
X85330258Y-59491202D01*
X85348498Y-59503004D01*
X85362446Y-59512661D01*
X85478326Y-59562017D01*
X85552361Y-59533047D01*
X85632833Y-59446137D01*
X85680043Y-59325966D01*
X85659657Y-59261588D01*
X85619957Y-59216524D01*
X85562017Y-59175751D01*
X85426586Y-59108989D01*
X85294969Y-59068932D01*
X85167167Y-59055579D01*
X85072479Y-59062017D01*
X84972961Y-59081330D01*
X84869957Y-59115397D01*
X84764807Y-59166094D01*
X84664217Y-59231545D01*
X84574893Y-59309871D01*
X84498712Y-59406170D01*
X84437554Y-59525536D01*
X84397318Y-59662876D01*
X84383906Y-59813090D01*
X84304813Y-59813090D01*
X84316309Y-59796996D01*
X84328112Y-59699356D01*
X84315236Y-59600644D01*
X84269099Y-59547532D01*
X84173605Y-59529828D01*
X83662876Y-59529828D01*
X83559871Y-59549142D01*
X83519099Y-59600644D01*
X83506223Y-59697210D01*
X83354434Y-59697210D01*
X83374785Y-59653219D01*
X83392489Y-59527682D01*
X83377706Y-59408822D01*
X83333357Y-59301168D01*
X83259442Y-59204721D01*
X83164306Y-59129018D01*
X83056295Y-59083596D01*
X82935408Y-59068455D01*
X82433262Y-59068455D01*
X82319528Y-59083476D01*
X82259442Y-59132833D01*
X82239056Y-59191845D01*
X82235837Y-59263734D01*
X82041975Y-59263734D01*
X81980472Y-59175751D01*
X81869123Y-59104220D01*
X81732499Y-59061302D01*
X81570601Y-59046996D01*
X81433023Y-59061421D01*
X81312136Y-59104697D01*
X81207940Y-59176824D01*
X81128064Y-59270887D01*
X81080138Y-59379971D01*
X81064163Y-59504077D01*
X81081330Y-59643562D01*
X81132833Y-59759442D01*
X81218670Y-59851717D01*
X81338841Y-59920386D01*
X81420118Y-59949624D01*
X81522318Y-59977253D01*
X81690773Y-60027682D01*
X81746567Y-60094206D01*
X81707940Y-60193991D01*
X81581330Y-60225107D01*
X81496567Y-60204721D01*
X81409657Y-60126395D01*
X81312852Y-60048188D01*
X81219862Y-60033882D01*
X81130687Y-60083476D01*
X81040558Y-60220815D01*
X80863757Y-60220815D01*
X80904292Y-60128541D01*
X80937285Y-60000858D01*
X80948283Y-59871030D01*
X80948283Y-59268026D01*
X80945064Y-59193991D01*
X80924678Y-59133906D01*
X80864592Y-59083476D01*
X80753004Y-59068455D01*
X80641416Y-59083476D01*
X80581330Y-59129614D01*
X80559871Y-59185408D01*
X80555579Y-59255150D01*
X80555579Y-59864592D01*
X80537339Y-60001931D01*
X80482618Y-60109227D01*
X80397318Y-60178433D01*
X80287339Y-60201502D01*
X80195601Y-60187285D01*
X80122103Y-60144635D01*
X80036266Y-60018026D01*
X80014807Y-59866738D01*
X80014807Y-59268026D01*
X80010515Y-59191845D01*
X79989056Y-59131760D01*
X79930043Y-59083476D01*
X79817382Y-59068455D01*
X79703648Y-59083476D01*
X79643562Y-59132833D01*
X79623176Y-59191845D01*
X79619957Y-59265880D01*
X79083476Y-59265880D01*
X79083476Y-58510515D01*
X79619957Y-58510515D01*
X85680043Y-58510515D01*
X86216524Y-58510515D01*
X86216524Y-63789485D01*
G37*
%TD*%
%LPC*%
D21*
%TO.C,C505*%
X119250000Y-49930000D03*
X119250000Y-48970000D03*
%TD*%
%TO.C,C504*%
X118300000Y-49930000D03*
X118300000Y-48970000D03*
%TD*%
D22*
%TO.C,C503*%
X117500000Y-46650000D03*
X115600000Y-46650000D03*
%TD*%
D23*
%TO.C,U601*%
X85900000Y-75217500D03*
X86900000Y-75217500D03*
X86900000Y-73367500D03*
X85900000Y-73367500D03*
D24*
X86400000Y-74292500D03*
%TD*%
D25*
%TO.C,U502*%
X116690000Y-60940000D03*
D26*
X112900000Y-63190000D03*
X111900000Y-63190000D03*
X110900000Y-63190000D03*
X109900000Y-63190000D03*
D25*
X102110000Y-60940000D03*
X102110000Y-59940000D03*
X102110000Y-58940000D03*
X102110000Y-57940000D03*
X102110000Y-56940000D03*
X102110000Y-55940000D03*
X102110000Y-54940000D03*
X102110000Y-53940000D03*
X102110000Y-52940000D03*
X102110000Y-51940000D03*
X102110000Y-50940000D03*
X102110000Y-49940000D03*
D26*
X105900000Y-48050000D03*
X106900000Y-48050000D03*
X107900000Y-48050000D03*
X108900000Y-48050000D03*
X109900000Y-48050000D03*
X110900000Y-48050000D03*
X111900000Y-48050000D03*
X112900000Y-48050000D03*
D25*
X116690000Y-49940000D03*
X116690000Y-50940000D03*
X116690000Y-51940000D03*
X116690000Y-52940000D03*
X116690000Y-53940000D03*
X116690000Y-58940000D03*
X116690000Y-59940000D03*
%TD*%
D21*
%TO.C,C602*%
X84650000Y-74830000D03*
X84650000Y-73870000D03*
%TD*%
D27*
%TO.C,C601*%
X83050000Y-75500000D03*
X83050000Y-73600000D03*
%TD*%
D28*
%TO.C,R104*%
X124150000Y-48650000D03*
X123130000Y-48650000D03*
%TD*%
D29*
%TO.C,R103*%
X121200000Y-60400000D03*
X121200000Y-62400000D03*
%TD*%
%TO.C,R102*%
X123200000Y-60400000D03*
X123200000Y-62400000D03*
%TD*%
D30*
%TO.C,Module302*%
X127250000Y-29600000D03*
X127250000Y-77600000D03*
%TD*%
%TO.C,Module301*%
X127250000Y-77600000D03*
X127250000Y-29600000D03*
%TD*%
D31*
%TO.C,SW602*%
X130850000Y-66350000D03*
D32*
X130850000Y-64650000D03*
X130850000Y-68050000D03*
D33*
X129210000Y-66350000D03*
%TD*%
D28*
%TO.C,R101*%
X87810000Y-65250000D03*
X86790000Y-65250000D03*
%TD*%
D34*
%TO.C,J101*%
X84655000Y-50210000D03*
X84655000Y-55990000D03*
D35*
X85730000Y-49900000D03*
X85730000Y-50700000D03*
D36*
X85730000Y-51850000D03*
X85730000Y-52850000D03*
X85730000Y-53350000D03*
X85730000Y-54350000D03*
D35*
X85730000Y-55500000D03*
X85730000Y-56300000D03*
X85730000Y-56300000D03*
X85730000Y-55500000D03*
D36*
X85730000Y-54850000D03*
X85730000Y-53850000D03*
X85730000Y-52350000D03*
X85730000Y-51350000D03*
D35*
X85730000Y-50700000D03*
X85730000Y-49900000D03*
D37*
X85155000Y-48780000D03*
D38*
X80975000Y-48780000D03*
D37*
X85155000Y-57420000D03*
D38*
X80975000Y-57420000D03*
%TD*%
D39*
%TO.C,C102*%
X131480000Y-63000000D03*
X130520000Y-63000000D03*
%TD*%
D21*
%TO.C,C101*%
X88050000Y-49220000D03*
X88050000Y-50180000D03*
%TD*%
D40*
%TO.C,J501*%
X106350000Y-77560000D03*
X91850000Y-77560000D03*
D41*
X91850000Y-71600000D03*
X106350000Y-71600000D03*
D42*
X94600000Y-70870000D03*
X95100000Y-70870000D03*
X95600000Y-70870000D03*
X96100000Y-70870000D03*
X96600000Y-70870000D03*
X97100000Y-70870000D03*
X97600000Y-70870000D03*
X98100000Y-70870000D03*
X98600000Y-70870000D03*
X99100000Y-70870000D03*
X99600000Y-70870000D03*
X100100000Y-70870000D03*
X100600000Y-70870000D03*
X101100000Y-70870000D03*
X101600000Y-70870000D03*
X102100000Y-70870000D03*
X102600000Y-70870000D03*
X103100000Y-70870000D03*
X103600000Y-70870000D03*
%TD*%
D43*
%TO.C,U501*%
X91400000Y-64290000D03*
X92350000Y-67710000D03*
X90450000Y-67710000D03*
%TD*%
D44*
%TO.C,J601*%
X124225000Y-54550000D03*
X124225000Y-53550000D03*
X124225000Y-52550000D03*
X124225000Y-51550000D03*
D45*
X121700000Y-55850000D03*
X121700000Y-50250000D03*
%TD*%
D21*
%TO.C,C502*%
X93600000Y-67100000D03*
X93600000Y-68060000D03*
%TD*%
%TO.C,C501*%
X89200000Y-67120000D03*
X89200000Y-68080000D03*
%TD*%
D28*
%TO.C,R403*%
X85020000Y-46400000D03*
X84000000Y-46400000D03*
%TD*%
D39*
%TO.C,C401*%
X102880000Y-32200000D03*
X101920000Y-32200000D03*
%TD*%
D28*
%TO.C,R601*%
X130340000Y-74200000D03*
X131360000Y-74200000D03*
%TD*%
D46*
%TO.C,Q601*%
X128437500Y-51612500D03*
X128437500Y-49712500D03*
X126562500Y-50662500D03*
%TD*%
D33*
%TO.C,SW601*%
X129210000Y-71300000D03*
D32*
X130850000Y-73000000D03*
X130850000Y-69600000D03*
D31*
X130850000Y-71300000D03*
%TD*%
D47*
%TO.C,R606*%
X130860000Y-52850000D03*
X129840000Y-52850000D03*
%TD*%
D48*
%TO.C,U401*%
X102750000Y-40700000D03*
X102750000Y-40200000D03*
X102750000Y-39700000D03*
X102750000Y-39200000D03*
X102750000Y-38700000D03*
X101980000Y-38700000D03*
X101980000Y-39200000D03*
X101980000Y-39700000D03*
X101980000Y-40200000D03*
X101980000Y-40700000D03*
%TD*%
D47*
%TO.C,R402*%
X102910000Y-30750000D03*
X101890000Y-30750000D03*
%TD*%
%TO.C,R401*%
X102910000Y-42700000D03*
X101890000Y-42700000D03*
%TD*%
D49*
%TO.C,U602*%
X126870000Y-58150000D03*
X126870000Y-58800000D03*
X126870000Y-59450000D03*
X128770000Y-59450000D03*
X128770000Y-58150000D03*
%TD*%
D50*
%TO.C,T401*%
X83805000Y-27395000D03*
X83805000Y-44845000D03*
D51*
X97505000Y-29490000D03*
X97505000Y-30510000D03*
X97505000Y-31530000D03*
X97505000Y-32550000D03*
X97505000Y-33570000D03*
X97505000Y-34590000D03*
X97505000Y-35610000D03*
X97505000Y-36630000D03*
X97505000Y-37650000D03*
X97505000Y-38670000D03*
X97505000Y-39690000D03*
X97505000Y-40710000D03*
X97505000Y-41730000D03*
X97505000Y-42750000D03*
D52*
X94005000Y-32620000D03*
X94005000Y-39620000D03*
%TD*%
D48*
%TO.C,U402*%
X102730000Y-35750000D03*
X102730000Y-35250000D03*
X102730000Y-34750000D03*
X102730000Y-34250000D03*
X102730000Y-33750000D03*
X101960000Y-33750000D03*
X101960000Y-34250000D03*
X101960000Y-34750000D03*
X101960000Y-35250000D03*
X101960000Y-35750000D03*
%TD*%
D53*
%TO.C,D601*%
X130700000Y-50300000D03*
D54*
X131000000Y-51000000D03*
X131000000Y-49600000D03*
%TD*%
D49*
%TO.C,U603*%
X126860000Y-55300000D03*
X126860000Y-55950000D03*
X126860000Y-56600000D03*
X128760000Y-56600000D03*
X128760000Y-55300000D03*
%TD*%
D47*
%TO.C,R602*%
X129020000Y-48450000D03*
X128000000Y-48450000D03*
%TD*%
D53*
%TO.C,D605*%
X130700000Y-60350000D03*
D54*
X131000000Y-61050000D03*
X131000000Y-59650000D03*
%TD*%
D53*
%TO.C,D606*%
X130700000Y-55350000D03*
D54*
X131000000Y-56050000D03*
X131000000Y-54650000D03*
%TD*%
D47*
%TO.C,R605*%
X130860000Y-57850000D03*
X129840000Y-57850000D03*
%TD*%
%LPD*%
M02*
