%TF.GenerationSoftware,KiCad,Pcbnew,8.0.7*%
%TF.CreationDate,2024-12-17T16:06:41+01:00*%
%TF.ProjectId,CM5_MINIMA,434d355f-4d49-44e4-994d-412e6b696361,rev?*%
%TF.SameCoordinates,Original*%
%TF.FileFunction,Soldermask,Top*%
%TF.FilePolarity,Negative*%
%FSLAX46Y46*%
G04 Gerber Fmt 4.6, Leading zero omitted, Abs format (unit mm)*
G04 Created by KiCad (PCBNEW 8.0.7) date 2024-12-17 16:06:41*
%MOMM*%
%LPD*%
G01*
G04 APERTURE LIST*
G04 Aperture macros list*
%AMRoundRect*
0 Rectangle with rounded corners*
0 $1 Rounding radius*
0 $2 $3 $4 $5 $6 $7 $8 $9 X,Y pos of 4 corners*
0 Add a 4 corners polygon primitive as box body*
4,1,4,$2,$3,$4,$5,$6,$7,$8,$9,$2,$3,0*
0 Add four circle primitives for the rounded corners*
1,1,$1+$1,$2,$3*
1,1,$1+$1,$4,$5*
1,1,$1+$1,$6,$7*
1,1,$1+$1,$8,$9*
0 Add four rect primitives between the rounded corners*
20,1,$1+$1,$2,$3,$4,$5,0*
20,1,$1+$1,$4,$5,$6,$7,0*
20,1,$1+$1,$6,$7,$8,$9,0*
20,1,$1+$1,$8,$9,$2,$3,0*%
%AMFreePoly0*
4,1,19,0.500000,-0.750000,0.000000,-0.750000,0.000000,-0.744911,-0.071157,-0.744911,-0.207708,-0.704816,-0.327430,-0.627875,-0.420627,-0.520320,-0.479746,-0.390866,-0.500000,-0.250000,-0.500000,0.250000,-0.479746,0.390866,-0.420627,0.520320,-0.327430,0.627875,-0.207708,0.704816,-0.071157,0.744911,0.000000,0.744911,0.000000,0.750000,0.500000,0.750000,0.500000,-0.750000,0.500000,-0.750000,
$1*%
%AMFreePoly1*
4,1,19,0.000000,0.744911,0.071157,0.744911,0.207708,0.704816,0.327430,0.627875,0.420627,0.520320,0.479746,0.390866,0.500000,0.250000,0.500000,-0.250000,0.479746,-0.390866,0.420627,-0.520320,0.327430,-0.627875,0.207708,-0.704816,0.071157,-0.744911,0.000000,-0.744911,0.000000,-0.750000,-0.500000,-0.750000,-0.500000,0.750000,0.000000,0.750000,0.000000,0.744911,0.000000,0.744911,
$1*%
G04 Aperture macros list end*
%ADD10C,0.010000*%
%ADD11C,1.400000*%
%ADD12RoundRect,0.102000X1.500000X-0.355000X1.500000X0.355000X-1.500000X0.355000X-1.500000X-0.355000X0*%
%ADD13RoundRect,0.102000X1.500000X-0.700000X1.500000X0.700000X-1.500000X0.700000X-1.500000X-0.700000X0*%
%ADD14RoundRect,0.150000X0.512500X0.150000X-0.512500X0.150000X-0.512500X-0.150000X0.512500X-0.150000X0*%
%ADD15RoundRect,0.135000X0.185000X-0.135000X0.185000X0.135000X-0.185000X0.135000X-0.185000X-0.135000X0*%
%ADD16RoundRect,0.140000X-0.170000X0.140000X-0.170000X-0.140000X0.170000X-0.140000X0.170000X0.140000X0*%
%ADD17RoundRect,0.150000X0.150000X0.700000X-0.150000X0.700000X-0.150000X-0.700000X0.150000X-0.700000X0*%
%ADD18RoundRect,0.250000X0.250000X1.150000X-0.250000X1.150000X-0.250000X-1.150000X0.250000X-1.150000X0*%
%ADD19C,1.000000*%
%ADD20R,0.800000X1.800000*%
%ADD21R,1.800000X0.800000*%
%ADD22RoundRect,0.075000X0.075000X0.200000X-0.075000X0.200000X-0.075000X-0.200000X0.075000X-0.200000X0*%
%ADD23C,0.800000*%
%ADD24R,1.700000X0.900000*%
%ADD25R,1.100000X0.800000*%
%ADD26RoundRect,0.250000X-0.475000X0.250000X-0.475000X-0.250000X0.475000X-0.250000X0.475000X0.250000X0*%
%ADD27RoundRect,0.135000X0.135000X0.185000X-0.135000X0.185000X-0.135000X-0.185000X0.135000X-0.185000X0*%
%ADD28RoundRect,0.147500X0.172500X-0.147500X0.172500X0.147500X-0.172500X0.147500X-0.172500X-0.147500X0*%
%ADD29RoundRect,0.147500X0.147500X0.172500X-0.147500X0.172500X-0.147500X-0.172500X0.147500X-0.172500X0*%
%ADD30RoundRect,0.200000X0.800000X-0.200000X0.800000X0.200000X-0.800000X0.200000X-0.800000X-0.200000X0*%
%ADD31RoundRect,0.140000X0.170000X-0.140000X0.170000X0.140000X-0.170000X0.140000X-0.170000X-0.140000X0*%
%ADD32RoundRect,0.075000X0.200000X-0.075000X0.200000X0.075000X-0.200000X0.075000X-0.200000X-0.075000X0*%
%ADD33RoundRect,0.135000X-0.185000X0.135000X-0.185000X-0.135000X0.185000X-0.135000X0.185000X0.135000X0*%
%ADD34RoundRect,0.125000X0.125000X-0.175000X0.125000X0.175000X-0.125000X0.175000X-0.125000X-0.175000X0*%
%ADD35RoundRect,0.135000X-0.135000X-0.185000X0.135000X-0.185000X0.135000X0.185000X-0.135000X0.185000X0*%
%ADD36RoundRect,0.125000X-0.175000X-0.125000X0.175000X-0.125000X0.175000X0.125000X-0.175000X0.125000X0*%
%ADD37RoundRect,0.250000X0.475000X-0.250000X0.475000X0.250000X-0.475000X0.250000X-0.475000X-0.250000X0*%
%ADD38C,2.600000*%
%ADD39C,3.800000*%
%ADD40C,0.990600*%
%ADD41C,0.787400*%
%ADD42RoundRect,0.150000X0.625000X-0.150000X0.625000X0.150000X-0.625000X0.150000X-0.625000X-0.150000X0*%
%ADD43RoundRect,0.250000X0.650000X-0.350000X0.650000X0.350000X-0.650000X0.350000X-0.650000X-0.350000X0*%
%ADD44RoundRect,0.250000X-0.250000X-0.475000X0.250000X-0.475000X0.250000X0.475000X-0.250000X0.475000X0*%
%ADD45RoundRect,0.100000X-0.225000X-0.100000X0.225000X-0.100000X0.225000X0.100000X-0.225000X0.100000X0*%
%ADD46RoundRect,0.140000X-0.140000X-0.170000X0.140000X-0.170000X0.140000X0.170000X-0.140000X0.170000X0*%
%ADD47FreePoly0,0.000000*%
%ADD48FreePoly1,0.000000*%
%ADD49RoundRect,0.087500X0.087500X-0.187500X0.087500X0.187500X-0.087500X0.187500X-0.087500X-0.187500X0*%
%ADD50RoundRect,0.175000X0.625000X-0.175000X0.625000X0.175000X-0.625000X0.175000X-0.625000X-0.175000X0*%
%ADD51O,1.800000X0.860000*%
%ADD52R,0.400000X1.100000*%
%ADD53R,0.300000X2.600000*%
%ADD54O,1.500000X3.300000*%
%ADD55O,1.500000X2.300000*%
%ADD56RoundRect,0.125000X-0.125000X0.175000X-0.125000X-0.175000X0.125000X-0.175000X0.125000X0.175000X0*%
%ADD57RoundRect,0.140000X0.140000X0.170000X-0.140000X0.170000X-0.140000X-0.170000X0.140000X-0.170000X0*%
%ADD58R,0.600000X0.600000*%
%ADD59R,0.500000X0.400000*%
%ADD60C,6.100000*%
G04 APERTURE END LIST*
D10*
%TO.C,REF\u002A\u002A*%
X31053440Y51690748D02*
X31070788Y51683166D01*
X31112196Y51650372D01*
X31147605Y51602953D01*
X31169504Y51552349D01*
X31173069Y51527402D01*
X31161119Y51492573D01*
X31134907Y51474143D01*
X31106804Y51462984D01*
X31093935Y51460928D01*
X31087669Y51475851D01*
X31075296Y51508325D01*
X31069868Y51522998D01*
X31039430Y51573756D01*
X30995360Y51599073D01*
X30938850Y51598294D01*
X30934665Y51597297D01*
X30904495Y51582993D01*
X30882316Y51555107D01*
X30867167Y51510213D01*
X30858090Y51444885D01*
X30854126Y51355696D01*
X30853754Y51308239D01*
X30853570Y51233429D01*
X30852362Y51182431D01*
X30849149Y51150029D01*
X30842949Y51131005D01*
X30832780Y51120144D01*
X30817659Y51112228D01*
X30816786Y51111830D01*
X30787668Y51099519D01*
X30773243Y51094986D01*
X30771026Y51108691D01*
X30769129Y51146575D01*
X30767687Y51203785D01*
X30766838Y51275473D01*
X30766669Y51327935D01*
X30767532Y51429453D01*
X30770910Y51506468D01*
X30777982Y51563477D01*
X30789928Y51604974D01*
X30807930Y51635457D01*
X30833167Y51659420D01*
X30858087Y51676145D01*
X30918011Y51698403D01*
X30987751Y51703424D01*
X31053440Y51690748D01*
G36*
X31053440Y51690748D02*
G01*
X31070788Y51683166D01*
X31112196Y51650372D01*
X31147605Y51602953D01*
X31169504Y51552349D01*
X31173069Y51527402D01*
X31161119Y51492573D01*
X31134907Y51474143D01*
X31106804Y51462984D01*
X31093935Y51460928D01*
X31087669Y51475851D01*
X31075296Y51508325D01*
X31069868Y51522998D01*
X31039430Y51573756D01*
X30995360Y51599073D01*
X30938850Y51598294D01*
X30934665Y51597297D01*
X30904495Y51582993D01*
X30882316Y51555107D01*
X30867167Y51510213D01*
X30858090Y51444885D01*
X30854126Y51355696D01*
X30853754Y51308239D01*
X30853570Y51233429D01*
X30852362Y51182431D01*
X30849149Y51150029D01*
X30842949Y51131005D01*
X30832780Y51120144D01*
X30817659Y51112228D01*
X30816786Y51111830D01*
X30787668Y51099519D01*
X30773243Y51094986D01*
X30771026Y51108691D01*
X30769129Y51146575D01*
X30767687Y51203785D01*
X30766838Y51275473D01*
X30766669Y51327935D01*
X30767532Y51429453D01*
X30770910Y51506468D01*
X30777982Y51563477D01*
X30789928Y51604974D01*
X30807930Y51635457D01*
X30833167Y51659420D01*
X30858087Y51676145D01*
X30918011Y51698403D01*
X30987751Y51703424D01*
X31053440Y51690748D01*
G37*
X27116933Y51721720D02*
X27163512Y51694777D01*
X27195897Y51668034D01*
X27219582Y51640016D01*
X27235899Y51605752D01*
X27246179Y51560273D01*
X27251754Y51498608D01*
X27253956Y51415789D01*
X27254211Y51356254D01*
X27254211Y51137109D01*
X27192526Y51109456D01*
X27130840Y51081803D01*
X27123583Y51321830D01*
X27120584Y51411472D01*
X27117438Y51476538D01*
X27113541Y51521474D01*
X27108287Y51550730D01*
X27101071Y51568752D01*
X27091290Y51579989D01*
X27088152Y51582421D01*
X27040601Y51601417D01*
X26992537Y51593900D01*
X26963926Y51573957D01*
X26952287Y51559825D01*
X26944231Y51541280D01*
X26939111Y51513166D01*
X26936281Y51470327D01*
X26935096Y51407605D01*
X26934897Y51342239D01*
X26934858Y51260232D01*
X26933454Y51202184D01*
X26928754Y51163035D01*
X26918827Y51137720D01*
X26901743Y51121177D01*
X26875572Y51108344D01*
X26840615Y51095009D01*
X26802436Y51080493D01*
X26806981Y51338111D01*
X26808811Y51430981D01*
X26810952Y51499611D01*
X26814021Y51548789D01*
X26818634Y51583302D01*
X26825408Y51607938D01*
X26834959Y51627484D01*
X26846474Y51644730D01*
X26902030Y51699820D01*
X26969820Y51731678D01*
X27043553Y51739309D01*
X27116933Y51721720D01*
G36*
X27116933Y51721720D02*
G01*
X27163512Y51694777D01*
X27195897Y51668034D01*
X27219582Y51640016D01*
X27235899Y51605752D01*
X27246179Y51560273D01*
X27251754Y51498608D01*
X27253956Y51415789D01*
X27254211Y51356254D01*
X27254211Y51137109D01*
X27192526Y51109456D01*
X27130840Y51081803D01*
X27123583Y51321830D01*
X27120584Y51411472D01*
X27117438Y51476538D01*
X27113541Y51521474D01*
X27108287Y51550730D01*
X27101071Y51568752D01*
X27091290Y51579989D01*
X27088152Y51582421D01*
X27040601Y51601417D01*
X26992537Y51593900D01*
X26963926Y51573957D01*
X26952287Y51559825D01*
X26944231Y51541280D01*
X26939111Y51513166D01*
X26936281Y51470327D01*
X26935096Y51407605D01*
X26934897Y51342239D01*
X26934858Y51260232D01*
X26933454Y51202184D01*
X26928754Y51163035D01*
X26918827Y51137720D01*
X26901743Y51121177D01*
X26875572Y51108344D01*
X26840615Y51095009D01*
X26802436Y51080493D01*
X26806981Y51338111D01*
X26808811Y51430981D01*
X26810952Y51499611D01*
X26814021Y51548789D01*
X26818634Y51583302D01*
X26825408Y51607938D01*
X26834959Y51627484D01*
X26846474Y51644730D01*
X26902030Y51699820D01*
X26969820Y51731678D01*
X27043553Y51739309D01*
X27116933Y51721720D01*
G37*
X28930766Y51699745D02*
X28996698Y51675416D01*
X29050113Y51632383D01*
X29071004Y51602091D01*
X29093779Y51546506D01*
X29093306Y51506314D01*
X29069402Y51479283D01*
X29060557Y51474687D01*
X29022370Y51460356D01*
X29002868Y51464028D01*
X28996262Y51488093D01*
X28995926Y51501386D01*
X28983832Y51550290D01*
X28952311Y51584501D01*
X28908499Y51601024D01*
X28859535Y51596866D01*
X28819734Y51575273D01*
X28806290Y51562956D01*
X28796761Y51548013D01*
X28790325Y51525425D01*
X28786157Y51490172D01*
X28783437Y51437234D01*
X28781342Y51361593D01*
X28780800Y51337643D01*
X28778821Y51255710D01*
X28776571Y51198045D01*
X28773197Y51159892D01*
X28767846Y51136496D01*
X28759664Y51123102D01*
X28747799Y51114955D01*
X28740202Y51111356D01*
X28707942Y51099048D01*
X28688951Y51094986D01*
X28682676Y51108552D01*
X28678846Y51149566D01*
X28677440Y51218501D01*
X28678438Y51315831D01*
X28678748Y51330843D01*
X28680941Y51419641D01*
X28683533Y51484481D01*
X28687222Y51530433D01*
X28692704Y51562565D01*
X28700675Y51585947D01*
X28711833Y51605648D01*
X28717670Y51614090D01*
X28751136Y51651443D01*
X28788567Y51680497D01*
X28793149Y51683033D01*
X28860266Y51703057D01*
X28930766Y51699745D01*
G36*
X28930766Y51699745D02*
G01*
X28996698Y51675416D01*
X29050113Y51632383D01*
X29071004Y51602091D01*
X29093779Y51546506D01*
X29093306Y51506314D01*
X29069402Y51479283D01*
X29060557Y51474687D01*
X29022370Y51460356D01*
X29002868Y51464028D01*
X28996262Y51488093D01*
X28995926Y51501386D01*
X28983832Y51550290D01*
X28952311Y51584501D01*
X28908499Y51601024D01*
X28859535Y51596866D01*
X28819734Y51575273D01*
X28806290Y51562956D01*
X28796761Y51548013D01*
X28790325Y51525425D01*
X28786157Y51490172D01*
X28783437Y51437234D01*
X28781342Y51361593D01*
X28780800Y51337643D01*
X28778821Y51255710D01*
X28776571Y51198045D01*
X28773197Y51159892D01*
X28767846Y51136496D01*
X28759664Y51123102D01*
X28747799Y51114955D01*
X28740202Y51111356D01*
X28707942Y51099048D01*
X28688951Y51094986D01*
X28682676Y51108552D01*
X28678846Y51149566D01*
X28677440Y51218501D01*
X28678438Y51315831D01*
X28678748Y51330843D01*
X28680941Y51419641D01*
X28683533Y51484481D01*
X28687222Y51530433D01*
X28692704Y51562565D01*
X28700675Y51585947D01*
X28711833Y51605648D01*
X28717670Y51614090D01*
X28751136Y51651443D01*
X28788567Y51680497D01*
X28793149Y51683033D01*
X28860266Y51703057D01*
X28930766Y51699745D01*
G37*
X27776726Y51798211D02*
X27780979Y51738887D01*
X27785865Y51703928D01*
X27792635Y51688680D01*
X27802542Y51688485D01*
X27805754Y51690305D01*
X27848484Y51703485D01*
X27904067Y51702715D01*
X27960577Y51689167D01*
X27995922Y51671639D01*
X28032161Y51643639D01*
X28058653Y51611951D01*
X28076839Y51571687D01*
X28088162Y51517957D01*
X28094062Y51445874D01*
X28095983Y51350549D01*
X28096017Y51332263D01*
X28096040Y51126854D01*
X28050331Y51110920D01*
X28017867Y51100080D01*
X28000055Y51095032D01*
X27999531Y51094986D01*
X27997777Y51108672D01*
X27996284Y51146424D01*
X27995166Y51203276D01*
X27994537Y51274266D01*
X27994440Y51317427D01*
X27994238Y51402527D01*
X27993198Y51463519D01*
X27990671Y51505323D01*
X27986004Y51532858D01*
X27978547Y51551044D01*
X27967651Y51564802D01*
X27960847Y51571427D01*
X27914112Y51598125D01*
X27863112Y51600125D01*
X27816841Y51577545D01*
X27808284Y51569393D01*
X27795733Y51554064D01*
X27787028Y51535882D01*
X27781471Y51509591D01*
X27778366Y51469938D01*
X27777016Y51411668D01*
X27776726Y51331327D01*
X27776726Y51126854D01*
X27731017Y51110920D01*
X27698553Y51100080D01*
X27680741Y51095032D01*
X27680217Y51094986D01*
X27678877Y51108877D01*
X27677668Y51148061D01*
X27676641Y51208800D01*
X27675842Y51287359D01*
X27675321Y51380002D01*
X27675126Y51482991D01*
X27675126Y51880158D01*
X27722297Y51900056D01*
X27769469Y51919953D01*
X27776726Y51798211D01*
G36*
X27776726Y51798211D02*
G01*
X27780979Y51738887D01*
X27785865Y51703928D01*
X27792635Y51688680D01*
X27802542Y51688485D01*
X27805754Y51690305D01*
X27848484Y51703485D01*
X27904067Y51702715D01*
X27960577Y51689167D01*
X27995922Y51671639D01*
X28032161Y51643639D01*
X28058653Y51611951D01*
X28076839Y51571687D01*
X28088162Y51517957D01*
X28094062Y51445874D01*
X28095983Y51350549D01*
X28096017Y51332263D01*
X28096040Y51126854D01*
X28050331Y51110920D01*
X28017867Y51100080D01*
X28000055Y51095032D01*
X27999531Y51094986D01*
X27997777Y51108672D01*
X27996284Y51146424D01*
X27995166Y51203276D01*
X27994537Y51274266D01*
X27994440Y51317427D01*
X27994238Y51402527D01*
X27993198Y51463519D01*
X27990671Y51505323D01*
X27986004Y51532858D01*
X27978547Y51551044D01*
X27967651Y51564802D01*
X27960847Y51571427D01*
X27914112Y51598125D01*
X27863112Y51600125D01*
X27816841Y51577545D01*
X27808284Y51569393D01*
X27795733Y51554064D01*
X27787028Y51535882D01*
X27781471Y51509591D01*
X27778366Y51469938D01*
X27777016Y51411668D01*
X27776726Y51331327D01*
X27776726Y51126854D01*
X27731017Y51110920D01*
X27698553Y51100080D01*
X27680741Y51095032D01*
X27680217Y51094986D01*
X27678877Y51108877D01*
X27677668Y51148061D01*
X27676641Y51208800D01*
X27675842Y51287359D01*
X27675321Y51380002D01*
X27675126Y51482991D01*
X27675126Y51880158D01*
X27722297Y51900056D01*
X27769469Y51919953D01*
X27776726Y51798211D01*
G37*
X30180673Y51690837D02*
X30182888Y51652650D01*
X30184624Y51594614D01*
X30185739Y51521320D01*
X30186097Y51444445D01*
X30186097Y51184304D01*
X30140166Y51138373D01*
X30108515Y51110071D01*
X30080730Y51098607D01*
X30042755Y51099332D01*
X30027680Y51101179D01*
X29980566Y51106552D01*
X29941596Y51109631D01*
X29932097Y51109915D01*
X29900073Y51108055D01*
X29854272Y51103386D01*
X29836514Y51101179D01*
X29792897Y51097765D01*
X29763585Y51105180D01*
X29734520Y51128073D01*
X29724028Y51138373D01*
X29678097Y51184304D01*
X29678097Y51670898D01*
X29715066Y51687742D01*
X29746899Y51700218D01*
X29765523Y51704586D01*
X29770298Y51690782D01*
X29774761Y51652214D01*
X29778615Y51593144D01*
X29781562Y51517837D01*
X29782983Y51454214D01*
X29786954Y51203843D01*
X29821599Y51198944D01*
X29853108Y51202369D01*
X29868548Y51213459D01*
X29872863Y51234192D01*
X29876548Y51278355D01*
X29879309Y51340354D01*
X29880852Y51414591D01*
X29881075Y51452794D01*
X29881297Y51672717D01*
X29927006Y51688651D01*
X29959358Y51699485D01*
X29976955Y51704538D01*
X29977463Y51704586D01*
X29979228Y51690852D01*
X29981169Y51652770D01*
X29983122Y51595018D01*
X29984924Y51522273D01*
X29986183Y51454214D01*
X29990154Y51203843D01*
X30077240Y51203843D01*
X30081236Y51432260D01*
X30085232Y51660678D01*
X30127687Y51682632D01*
X30159032Y51697707D01*
X30177584Y51704549D01*
X30178119Y51704586D01*
X30180673Y51690837D01*
G36*
X30180673Y51690837D02*
G01*
X30182888Y51652650D01*
X30184624Y51594614D01*
X30185739Y51521320D01*
X30186097Y51444445D01*
X30186097Y51184304D01*
X30140166Y51138373D01*
X30108515Y51110071D01*
X30080730Y51098607D01*
X30042755Y51099332D01*
X30027680Y51101179D01*
X29980566Y51106552D01*
X29941596Y51109631D01*
X29932097Y51109915D01*
X29900073Y51108055D01*
X29854272Y51103386D01*
X29836514Y51101179D01*
X29792897Y51097765D01*
X29763585Y51105180D01*
X29734520Y51128073D01*
X29724028Y51138373D01*
X29678097Y51184304D01*
X29678097Y51670898D01*
X29715066Y51687742D01*
X29746899Y51700218D01*
X29765523Y51704586D01*
X29770298Y51690782D01*
X29774761Y51652214D01*
X29778615Y51593144D01*
X29781562Y51517837D01*
X29782983Y51454214D01*
X29786954Y51203843D01*
X29821599Y51198944D01*
X29853108Y51202369D01*
X29868548Y51213459D01*
X29872863Y51234192D01*
X29876548Y51278355D01*
X29879309Y51340354D01*
X29880852Y51414591D01*
X29881075Y51452794D01*
X29881297Y51672717D01*
X29927006Y51688651D01*
X29959358Y51699485D01*
X29976955Y51704538D01*
X29977463Y51704586D01*
X29979228Y51690852D01*
X29981169Y51652770D01*
X29983122Y51595018D01*
X29984924Y51522273D01*
X29986183Y51454214D01*
X29990154Y51203843D01*
X30077240Y51203843D01*
X30081236Y51432260D01*
X30085232Y51660678D01*
X30127687Y51682632D01*
X30159032Y51697707D01*
X30177584Y51704549D01*
X30178119Y51704586D01*
X30180673Y51690837D01*
G37*
X25441955Y51727538D02*
X25509985Y51691767D01*
X25560191Y51634199D01*
X25578025Y51597188D01*
X25591903Y51541618D01*
X25599007Y51471404D01*
X25599680Y51394773D01*
X25594267Y51319948D01*
X25583110Y51255158D01*
X25566554Y51208627D01*
X25561466Y51200613D01*
X25501195Y51140793D01*
X25429609Y51104965D01*
X25351932Y51094480D01*
X25273388Y51110690D01*
X25251529Y51120408D01*
X25208962Y51150357D01*
X25171603Y51190067D01*
X25168072Y51195103D01*
X25153721Y51219376D01*
X25144234Y51245322D01*
X25138630Y51279478D01*
X25135926Y51328381D01*
X25135139Y51398565D01*
X25135126Y51414300D01*
X25135162Y51419308D01*
X25280269Y51419308D01*
X25281113Y51353070D01*
X25284436Y51309114D01*
X25291423Y51280721D01*
X25303256Y51261175D01*
X25309297Y51254643D01*
X25344026Y51229820D01*
X25377743Y51230952D01*
X25411835Y51252484D01*
X25432169Y51275471D01*
X25444211Y51309022D01*
X25450974Y51361931D01*
X25451438Y51368101D01*
X25452592Y51463987D01*
X25440528Y51535201D01*
X25415410Y51581306D01*
X25377400Y51601865D01*
X25363832Y51602986D01*
X25328204Y51597348D01*
X25303834Y51577814D01*
X25288933Y51540458D01*
X25281715Y51481350D01*
X25280269Y51419308D01*
X25135162Y51419308D01*
X25135666Y51489087D01*
X25137936Y51541341D01*
X25142908Y51577551D01*
X25151553Y51604201D01*
X25164845Y51627778D01*
X25167783Y51632162D01*
X25217153Y51691251D01*
X25270949Y51725553D01*
X25336442Y51739169D01*
X25358682Y51739835D01*
X25441955Y51727538D01*
G36*
X25441955Y51727538D02*
G01*
X25509985Y51691767D01*
X25560191Y51634199D01*
X25578025Y51597188D01*
X25591903Y51541618D01*
X25599007Y51471404D01*
X25599680Y51394773D01*
X25594267Y51319948D01*
X25583110Y51255158D01*
X25566554Y51208627D01*
X25561466Y51200613D01*
X25501195Y51140793D01*
X25429609Y51104965D01*
X25351932Y51094480D01*
X25273388Y51110690D01*
X25251529Y51120408D01*
X25208962Y51150357D01*
X25171603Y51190067D01*
X25168072Y51195103D01*
X25153721Y51219376D01*
X25144234Y51245322D01*
X25138630Y51279478D01*
X25135926Y51328381D01*
X25135139Y51398565D01*
X25135126Y51414300D01*
X25135162Y51419308D01*
X25280269Y51419308D01*
X25281113Y51353070D01*
X25284436Y51309114D01*
X25291423Y51280721D01*
X25303256Y51261175D01*
X25309297Y51254643D01*
X25344026Y51229820D01*
X25377743Y51230952D01*
X25411835Y51252484D01*
X25432169Y51275471D01*
X25444211Y51309022D01*
X25450974Y51361931D01*
X25451438Y51368101D01*
X25452592Y51463987D01*
X25440528Y51535201D01*
X25415410Y51581306D01*
X25377400Y51601865D01*
X25363832Y51602986D01*
X25328204Y51597348D01*
X25303834Y51577814D01*
X25288933Y51540458D01*
X25281715Y51481350D01*
X25280269Y51419308D01*
X25135162Y51419308D01*
X25135666Y51489087D01*
X25137936Y51541341D01*
X25142908Y51577551D01*
X25151553Y51604201D01*
X25164845Y51627778D01*
X25167783Y51632162D01*
X25217153Y51691251D01*
X25270949Y51725553D01*
X25336442Y51739169D01*
X25358682Y51739835D01*
X25441955Y51727538D01*
G37*
X31554435Y51682534D02*
X31611861Y51645003D01*
X31639559Y51611404D01*
X31661502Y51550436D01*
X31663245Y51502192D01*
X31659297Y51437684D01*
X31510526Y51372566D01*
X31438189Y51339298D01*
X31390924Y51312536D01*
X31366347Y51289356D01*
X31362077Y51266833D01*
X31375729Y51242045D01*
X31390783Y51225614D01*
X31434586Y51199265D01*
X31482229Y51197419D01*
X31525985Y51217954D01*
X31558129Y51258748D01*
X31563878Y51273153D01*
X31591416Y51318144D01*
X31623098Y51337318D01*
X31666554Y51353721D01*
X31666554Y51291534D01*
X31662712Y51249217D01*
X31647663Y51213531D01*
X31616120Y51172557D01*
X31611432Y51167233D01*
X31576346Y51130780D01*
X31546187Y51111217D01*
X31508455Y51102217D01*
X31477175Y51099270D01*
X31421225Y51098535D01*
X31381395Y51107840D01*
X31356548Y51121654D01*
X31317496Y51152033D01*
X31290465Y51184887D01*
X31273357Y51226206D01*
X31264078Y51281979D01*
X31260533Y51358195D01*
X31260250Y51396878D01*
X31261212Y51443253D01*
X31348847Y51443253D01*
X31349863Y51418374D01*
X31352396Y51414300D01*
X31369114Y51419835D01*
X31405089Y51434483D01*
X31453171Y51455310D01*
X31463226Y51459786D01*
X31523992Y51490686D01*
X31557472Y51517843D01*
X31564830Y51543280D01*
X31547231Y51569019D01*
X31532696Y51580391D01*
X31480250Y51603136D01*
X31431162Y51599378D01*
X31390067Y51571616D01*
X31361598Y51522348D01*
X31352471Y51483243D01*
X31348847Y51443253D01*
X31261212Y51443253D01*
X31262125Y51487251D01*
X31269036Y51554116D01*
X31282724Y51602805D01*
X31304936Y51638651D01*
X31337414Y51666987D01*
X31351573Y51676145D01*
X31415893Y51699993D01*
X31486313Y51701494D01*
X31554435Y51682534D01*
G36*
X31554435Y51682534D02*
G01*
X31611861Y51645003D01*
X31639559Y51611404D01*
X31661502Y51550436D01*
X31663245Y51502192D01*
X31659297Y51437684D01*
X31510526Y51372566D01*
X31438189Y51339298D01*
X31390924Y51312536D01*
X31366347Y51289356D01*
X31362077Y51266833D01*
X31375729Y51242045D01*
X31390783Y51225614D01*
X31434586Y51199265D01*
X31482229Y51197419D01*
X31525985Y51217954D01*
X31558129Y51258748D01*
X31563878Y51273153D01*
X31591416Y51318144D01*
X31623098Y51337318D01*
X31666554Y51353721D01*
X31666554Y51291534D01*
X31662712Y51249217D01*
X31647663Y51213531D01*
X31616120Y51172557D01*
X31611432Y51167233D01*
X31576346Y51130780D01*
X31546187Y51111217D01*
X31508455Y51102217D01*
X31477175Y51099270D01*
X31421225Y51098535D01*
X31381395Y51107840D01*
X31356548Y51121654D01*
X31317496Y51152033D01*
X31290465Y51184887D01*
X31273357Y51226206D01*
X31264078Y51281979D01*
X31260533Y51358195D01*
X31260250Y51396878D01*
X31261212Y51443253D01*
X31348847Y51443253D01*
X31349863Y51418374D01*
X31352396Y51414300D01*
X31369114Y51419835D01*
X31405089Y51434483D01*
X31453171Y51455310D01*
X31463226Y51459786D01*
X31523992Y51490686D01*
X31557472Y51517843D01*
X31564830Y51543280D01*
X31547231Y51569019D01*
X31532696Y51580391D01*
X31480250Y51603136D01*
X31431162Y51599378D01*
X31390067Y51571616D01*
X31361598Y51522348D01*
X31352471Y51483243D01*
X31348847Y51443253D01*
X31261212Y51443253D01*
X31262125Y51487251D01*
X31269036Y51554116D01*
X31282724Y51602805D01*
X31304936Y51638651D01*
X31337414Y51666987D01*
X31351573Y51676145D01*
X31415893Y51699993D01*
X31486313Y51701494D01*
X31554435Y51682534D01*
G37*
X29590957Y51584142D02*
X29590773Y51475663D01*
X29590059Y51392213D01*
X29588515Y51329796D01*
X29585841Y51284415D01*
X29581734Y51252071D01*
X29575895Y51228767D01*
X29568022Y51210505D01*
X29562061Y51200082D01*
X29512695Y51143555D01*
X29450104Y51108123D01*
X29380853Y51095410D01*
X29311508Y51107037D01*
X29270215Y51127932D01*
X29226865Y51164078D01*
X29197321Y51208224D01*
X29179495Y51266038D01*
X29171303Y51343187D01*
X29170142Y51399786D01*
X29170298Y51403853D01*
X29271697Y51403853D01*
X29272316Y51338950D01*
X29275154Y51295986D01*
X29281680Y51267878D01*
X29293363Y51247547D01*
X29307323Y51232212D01*
X29354205Y51202610D01*
X29404541Y51200081D01*
X29452116Y51224795D01*
X29455819Y51228144D01*
X29471623Y51245565D01*
X29481533Y51266291D01*
X29486898Y51297138D01*
X29489068Y51344923D01*
X29489411Y51397752D01*
X29488667Y51464119D01*
X29485588Y51508394D01*
X29478901Y51537491D01*
X29467336Y51558327D01*
X29457853Y51569393D01*
X29413800Y51597302D01*
X29363064Y51600657D01*
X29314636Y51579341D01*
X29305290Y51571427D01*
X29289380Y51553853D01*
X29279450Y51532913D01*
X29274118Y51501718D01*
X29272003Y51453378D01*
X29271697Y51403853D01*
X29170298Y51403853D01*
X29173650Y51490932D01*
X29185566Y51559414D01*
X29207975Y51610900D01*
X29242964Y51651057D01*
X29270215Y51671639D01*
X29319747Y51693875D01*
X29377156Y51704196D01*
X29430522Y51701433D01*
X29460383Y51690288D01*
X29472101Y51687117D01*
X29479877Y51698943D01*
X29485305Y51730634D01*
X29489411Y51778907D01*
X29493907Y51832671D01*
X29500153Y51865018D01*
X29511516Y51883515D01*
X29531368Y51895730D01*
X29543840Y51901138D01*
X29591011Y51920899D01*
X29590957Y51584142D01*
G36*
X29590957Y51584142D02*
G01*
X29590773Y51475663D01*
X29590059Y51392213D01*
X29588515Y51329796D01*
X29585841Y51284415D01*
X29581734Y51252071D01*
X29575895Y51228767D01*
X29568022Y51210505D01*
X29562061Y51200082D01*
X29512695Y51143555D01*
X29450104Y51108123D01*
X29380853Y51095410D01*
X29311508Y51107037D01*
X29270215Y51127932D01*
X29226865Y51164078D01*
X29197321Y51208224D01*
X29179495Y51266038D01*
X29171303Y51343187D01*
X29170142Y51399786D01*
X29170298Y51403853D01*
X29271697Y51403853D01*
X29272316Y51338950D01*
X29275154Y51295986D01*
X29281680Y51267878D01*
X29293363Y51247547D01*
X29307323Y51232212D01*
X29354205Y51202610D01*
X29404541Y51200081D01*
X29452116Y51224795D01*
X29455819Y51228144D01*
X29471623Y51245565D01*
X29481533Y51266291D01*
X29486898Y51297138D01*
X29489068Y51344923D01*
X29489411Y51397752D01*
X29488667Y51464119D01*
X29485588Y51508394D01*
X29478901Y51537491D01*
X29467336Y51558327D01*
X29457853Y51569393D01*
X29413800Y51597302D01*
X29363064Y51600657D01*
X29314636Y51579341D01*
X29305290Y51571427D01*
X29289380Y51553853D01*
X29279450Y51532913D01*
X29274118Y51501718D01*
X29272003Y51453378D01*
X29271697Y51403853D01*
X29170298Y51403853D01*
X29173650Y51490932D01*
X29185566Y51559414D01*
X29207975Y51610900D01*
X29242964Y51651057D01*
X29270215Y51671639D01*
X29319747Y51693875D01*
X29377156Y51704196D01*
X29430522Y51701433D01*
X29460383Y51690288D01*
X29472101Y51687117D01*
X29479877Y51698943D01*
X29485305Y51730634D01*
X29489411Y51778907D01*
X29493907Y51832671D01*
X29500153Y51865018D01*
X29511516Y51883515D01*
X29531368Y51895730D01*
X29543840Y51901138D01*
X29591011Y51920899D01*
X29590957Y51584142D01*
G37*
X26569143Y51718261D02*
X26626367Y51679765D01*
X26670589Y51624165D01*
X26697007Y51553414D01*
X26702350Y51501338D01*
X26701743Y51479607D01*
X26696662Y51462969D01*
X26682695Y51448063D01*
X26655429Y51431527D01*
X26610452Y51410002D01*
X26543351Y51380126D01*
X26543011Y51379976D01*
X26481247Y51351687D01*
X26430599Y51326567D01*
X26396244Y51307321D01*
X26383358Y51296652D01*
X26383354Y51296566D01*
X26394712Y51273334D01*
X26421271Y51247726D01*
X26451763Y51229279D01*
X26467210Y51225614D01*
X26509355Y51238288D01*
X26545648Y51270029D01*
X26563357Y51304928D01*
X26580392Y51330655D01*
X26613762Y51359954D01*
X26652989Y51385265D01*
X26687596Y51399029D01*
X26694833Y51399786D01*
X26702979Y51387340D01*
X26703470Y51355528D01*
X26697483Y51312634D01*
X26686197Y51266942D01*
X26670790Y51226739D01*
X26670011Y51225178D01*
X26623644Y51160438D01*
X26563551Y51116403D01*
X26495305Y51094789D01*
X26424478Y51097315D01*
X26356644Y51125696D01*
X26353628Y51127692D01*
X26300267Y51176052D01*
X26265180Y51239148D01*
X26245762Y51322113D01*
X26243156Y51345422D01*
X26238541Y51455445D01*
X26244073Y51506752D01*
X26383354Y51506752D01*
X26385164Y51474747D01*
X26395062Y51465407D01*
X26419738Y51472395D01*
X26458635Y51488913D01*
X26502115Y51509619D01*
X26503196Y51510167D01*
X26540049Y51529551D01*
X26554840Y51542487D01*
X26551193Y51556049D01*
X26535835Y51573868D01*
X26496763Y51599655D01*
X26454686Y51601550D01*
X26416943Y51582783D01*
X26390874Y51546585D01*
X26383354Y51506752D01*
X26244073Y51506752D01*
X26248034Y51543473D01*
X26272390Y51613288D01*
X26306296Y51662198D01*
X26367493Y51711622D01*
X26434903Y51736141D01*
X26503720Y51737703D01*
X26569143Y51718261D01*
G36*
X26569143Y51718261D02*
G01*
X26626367Y51679765D01*
X26670589Y51624165D01*
X26697007Y51553414D01*
X26702350Y51501338D01*
X26701743Y51479607D01*
X26696662Y51462969D01*
X26682695Y51448063D01*
X26655429Y51431527D01*
X26610452Y51410002D01*
X26543351Y51380126D01*
X26543011Y51379976D01*
X26481247Y51351687D01*
X26430599Y51326567D01*
X26396244Y51307321D01*
X26383358Y51296652D01*
X26383354Y51296566D01*
X26394712Y51273334D01*
X26421271Y51247726D01*
X26451763Y51229279D01*
X26467210Y51225614D01*
X26509355Y51238288D01*
X26545648Y51270029D01*
X26563357Y51304928D01*
X26580392Y51330655D01*
X26613762Y51359954D01*
X26652989Y51385265D01*
X26687596Y51399029D01*
X26694833Y51399786D01*
X26702979Y51387340D01*
X26703470Y51355528D01*
X26697483Y51312634D01*
X26686197Y51266942D01*
X26670790Y51226739D01*
X26670011Y51225178D01*
X26623644Y51160438D01*
X26563551Y51116403D01*
X26495305Y51094789D01*
X26424478Y51097315D01*
X26356644Y51125696D01*
X26353628Y51127692D01*
X26300267Y51176052D01*
X26265180Y51239148D01*
X26245762Y51322113D01*
X26243156Y51345422D01*
X26238541Y51455445D01*
X26244073Y51506752D01*
X26383354Y51506752D01*
X26385164Y51474747D01*
X26395062Y51465407D01*
X26419738Y51472395D01*
X26458635Y51488913D01*
X26502115Y51509619D01*
X26503196Y51510167D01*
X26540049Y51529551D01*
X26554840Y51542487D01*
X26551193Y51556049D01*
X26535835Y51573868D01*
X26496763Y51599655D01*
X26454686Y51601550D01*
X26416943Y51582783D01*
X26390874Y51546585D01*
X26383354Y51506752D01*
X26244073Y51506752D01*
X26248034Y51543473D01*
X26272390Y51613288D01*
X26306296Y51662198D01*
X26367493Y51711622D01*
X26434903Y51736141D01*
X26503720Y51737703D01*
X26569143Y51718261D01*
G37*
X28440584Y51698532D02*
X28497456Y51677413D01*
X28498107Y51677007D01*
X28533280Y51651120D01*
X28559247Y51620867D01*
X28577510Y51581442D01*
X28589572Y51528038D01*
X28596936Y51455849D01*
X28601104Y51360068D01*
X28601469Y51346422D01*
X28606716Y51140658D01*
X28562556Y51117822D01*
X28530603Y51102390D01*
X28511310Y51095077D01*
X28510418Y51094986D01*
X28507079Y51108478D01*
X28504427Y51144874D01*
X28502796Y51198048D01*
X28502440Y51241107D01*
X28502432Y51310859D01*
X28499243Y51354663D01*
X28488128Y51375556D01*
X28464341Y51376575D01*
X28423136Y51360759D01*
X28360926Y51331685D01*
X28315181Y51307537D01*
X28291653Y51286587D01*
X28284736Y51263753D01*
X28284726Y51262623D01*
X28296139Y51223288D01*
X28329932Y51202038D01*
X28381649Y51198961D01*
X28418901Y51199494D01*
X28438543Y51188765D01*
X28450792Y51162995D01*
X28457842Y51130163D01*
X28447682Y51111534D01*
X28443857Y51108868D01*
X28407841Y51098160D01*
X28357406Y51096644D01*
X28305466Y51103741D01*
X28268662Y51116712D01*
X28217778Y51159915D01*
X28188854Y51220054D01*
X28183126Y51267038D01*
X28187497Y51309418D01*
X28203315Y51344012D01*
X28234637Y51374737D01*
X28285518Y51405510D01*
X28360016Y51440248D01*
X28364554Y51442212D01*
X28431661Y51473213D01*
X28473072Y51498638D01*
X28490821Y51521486D01*
X28486947Y51544755D01*
X28463483Y51571444D01*
X28456467Y51577586D01*
X28409470Y51601400D01*
X28360773Y51600397D01*
X28318362Y51577049D01*
X28290224Y51533825D01*
X28287609Y51525340D01*
X28262148Y51484192D01*
X28229841Y51464372D01*
X28183126Y51444730D01*
X28183126Y51495550D01*
X28197336Y51569418D01*
X28239515Y51637173D01*
X28261464Y51659839D01*
X28311357Y51688931D01*
X28374807Y51702100D01*
X28440584Y51698532D01*
G36*
X28440584Y51698532D02*
G01*
X28497456Y51677413D01*
X28498107Y51677007D01*
X28533280Y51651120D01*
X28559247Y51620867D01*
X28577510Y51581442D01*
X28589572Y51528038D01*
X28596936Y51455849D01*
X28601104Y51360068D01*
X28601469Y51346422D01*
X28606716Y51140658D01*
X28562556Y51117822D01*
X28530603Y51102390D01*
X28511310Y51095077D01*
X28510418Y51094986D01*
X28507079Y51108478D01*
X28504427Y51144874D01*
X28502796Y51198048D01*
X28502440Y51241107D01*
X28502432Y51310859D01*
X28499243Y51354663D01*
X28488128Y51375556D01*
X28464341Y51376575D01*
X28423136Y51360759D01*
X28360926Y51331685D01*
X28315181Y51307537D01*
X28291653Y51286587D01*
X28284736Y51263753D01*
X28284726Y51262623D01*
X28296139Y51223288D01*
X28329932Y51202038D01*
X28381649Y51198961D01*
X28418901Y51199494D01*
X28438543Y51188765D01*
X28450792Y51162995D01*
X28457842Y51130163D01*
X28447682Y51111534D01*
X28443857Y51108868D01*
X28407841Y51098160D01*
X28357406Y51096644D01*
X28305466Y51103741D01*
X28268662Y51116712D01*
X28217778Y51159915D01*
X28188854Y51220054D01*
X28183126Y51267038D01*
X28187497Y51309418D01*
X28203315Y51344012D01*
X28234637Y51374737D01*
X28285518Y51405510D01*
X28360016Y51440248D01*
X28364554Y51442212D01*
X28431661Y51473213D01*
X28473072Y51498638D01*
X28490821Y51521486D01*
X28486947Y51544755D01*
X28463483Y51571444D01*
X28456467Y51577586D01*
X28409470Y51601400D01*
X28360773Y51600397D01*
X28318362Y51577049D01*
X28290224Y51533825D01*
X28287609Y51525340D01*
X28262148Y51484192D01*
X28229841Y51464372D01*
X28183126Y51444730D01*
X28183126Y51495550D01*
X28197336Y51569418D01*
X28239515Y51637173D01*
X28261464Y51659839D01*
X28311357Y51688931D01*
X28374807Y51702100D01*
X28440584Y51698532D01*
G37*
X26000584Y51729582D02*
X26056041Y51701932D01*
X26104988Y51651020D01*
X26118469Y51632162D01*
X26133154Y51607485D01*
X26142682Y51580684D01*
X26148133Y51544913D01*
X26150587Y51493331D01*
X26151126Y51425233D01*
X26148692Y51331912D01*
X26140234Y51261843D01*
X26124014Y51209569D01*
X26098294Y51169631D01*
X26061337Y51136571D01*
X26058622Y51134614D01*
X26022200Y51114592D01*
X25978342Y51104685D01*
X25922564Y51102243D01*
X25831888Y51102243D01*
X25831850Y51014217D01*
X25831006Y50965192D01*
X25825864Y50936435D01*
X25812427Y50919189D01*
X25786698Y50904692D01*
X25780519Y50901731D01*
X25751604Y50887852D01*
X25729216Y50879086D01*
X25712569Y50878329D01*
X25700876Y50888477D01*
X25693350Y50912427D01*
X25689206Y50953074D01*
X25687655Y51013314D01*
X25687911Y51096045D01*
X25689189Y51204161D01*
X25689588Y51236500D01*
X25691025Y51347976D01*
X25692312Y51420897D01*
X25831811Y51420897D01*
X25832595Y51359001D01*
X25836080Y51318503D01*
X25843964Y51291792D01*
X25857945Y51271256D01*
X25867437Y51261240D01*
X25906244Y51231933D01*
X25940603Y51229548D01*
X25976056Y51253750D01*
X25976954Y51254643D01*
X25991379Y51273347D01*
X26000153Y51298768D01*
X26004579Y51337916D01*
X26005958Y51397803D01*
X26005983Y51411070D01*
X26002652Y51493599D01*
X25991809Y51550809D01*
X25972180Y51585734D01*
X25942490Y51601406D01*
X25925331Y51602986D01*
X25884606Y51595574D01*
X25856672Y51571170D01*
X25839857Y51526520D01*
X25832490Y51458370D01*
X25831811Y51420897D01*
X25692312Y51420897D01*
X25692548Y51434255D01*
X25694517Y51499167D01*
X25697290Y51546542D01*
X25701228Y51580210D01*
X25706689Y51604002D01*
X25714032Y51621747D01*
X25723617Y51637276D01*
X25727727Y51643119D01*
X25782245Y51698315D01*
X25851176Y51729610D01*
X25930912Y51738335D01*
X26000584Y51729582D01*
G36*
X26000584Y51729582D02*
G01*
X26056041Y51701932D01*
X26104988Y51651020D01*
X26118469Y51632162D01*
X26133154Y51607485D01*
X26142682Y51580684D01*
X26148133Y51544913D01*
X26150587Y51493331D01*
X26151126Y51425233D01*
X26148692Y51331912D01*
X26140234Y51261843D01*
X26124014Y51209569D01*
X26098294Y51169631D01*
X26061337Y51136571D01*
X26058622Y51134614D01*
X26022200Y51114592D01*
X25978342Y51104685D01*
X25922564Y51102243D01*
X25831888Y51102243D01*
X25831850Y51014217D01*
X25831006Y50965192D01*
X25825864Y50936435D01*
X25812427Y50919189D01*
X25786698Y50904692D01*
X25780519Y50901731D01*
X25751604Y50887852D01*
X25729216Y50879086D01*
X25712569Y50878329D01*
X25700876Y50888477D01*
X25693350Y50912427D01*
X25689206Y50953074D01*
X25687655Y51013314D01*
X25687911Y51096045D01*
X25689189Y51204161D01*
X25689588Y51236500D01*
X25691025Y51347976D01*
X25692312Y51420897D01*
X25831811Y51420897D01*
X25832595Y51359001D01*
X25836080Y51318503D01*
X25843964Y51291792D01*
X25857945Y51271256D01*
X25867437Y51261240D01*
X25906244Y51231933D01*
X25940603Y51229548D01*
X25976056Y51253750D01*
X25976954Y51254643D01*
X25991379Y51273347D01*
X26000153Y51298768D01*
X26004579Y51337916D01*
X26005958Y51397803D01*
X26005983Y51411070D01*
X26002652Y51493599D01*
X25991809Y51550809D01*
X25972180Y51585734D01*
X25942490Y51601406D01*
X25925331Y51602986D01*
X25884606Y51595574D01*
X25856672Y51571170D01*
X25839857Y51526520D01*
X25832490Y51458370D01*
X25831811Y51420897D01*
X25692312Y51420897D01*
X25692548Y51434255D01*
X25694517Y51499167D01*
X25697290Y51546542D01*
X25701228Y51580210D01*
X25706689Y51604002D01*
X25714032Y51621747D01*
X25723617Y51637276D01*
X25727727Y51643119D01*
X25782245Y51698315D01*
X25851176Y51729610D01*
X25930912Y51738335D01*
X26000584Y51729582D01*
G37*
X30545716Y51693165D02*
X30587507Y51674156D01*
X30620309Y51651122D01*
X30644343Y51625367D01*
X30660937Y51592142D01*
X30671417Y51546700D01*
X30677111Y51484293D01*
X30679347Y51400173D01*
X30679583Y51344779D01*
X30679583Y51128674D01*
X30642614Y51111830D01*
X30613496Y51099519D01*
X30599071Y51094986D01*
X30596312Y51108475D01*
X30594122Y51144847D01*
X30592782Y51197958D01*
X30592497Y51240128D01*
X30591274Y51301053D01*
X30587976Y51349385D01*
X30583161Y51378982D01*
X30579336Y51385271D01*
X30553623Y51378848D01*
X30513258Y51362375D01*
X30466519Y51340042D01*
X30421685Y51316043D01*
X30387033Y51294570D01*
X30370842Y51279815D01*
X30370778Y51279655D01*
X30372170Y51252348D01*
X30384658Y51226281D01*
X30406583Y51205108D01*
X30438583Y51198026D01*
X30465932Y51198851D01*
X30504666Y51199458D01*
X30524998Y51190384D01*
X30537209Y51166408D01*
X30538749Y51161887D01*
X30544043Y51127694D01*
X30529887Y51106932D01*
X30492988Y51097038D01*
X30453129Y51095208D01*
X30381402Y51108773D01*
X30344272Y51128145D01*
X30298416Y51173655D01*
X30274096Y51229517D01*
X30271913Y51288543D01*
X30292469Y51343547D01*
X30323389Y51378014D01*
X30354260Y51397311D01*
X30402782Y51421741D01*
X30459325Y51446515D01*
X30468750Y51450301D01*
X30530859Y51477709D01*
X30566662Y51501866D01*
X30578177Y51525881D01*
X30567420Y51552865D01*
X30548954Y51573957D01*
X30505309Y51599928D01*
X30457286Y51601876D01*
X30413246Y51581863D01*
X30381549Y51541949D01*
X30377389Y51531652D01*
X30353167Y51493776D01*
X30317805Y51465658D01*
X30273183Y51442583D01*
X30273183Y51508015D01*
X30275809Y51547994D01*
X30287070Y51579503D01*
X30312039Y51613122D01*
X30336009Y51639016D01*
X30373281Y51675683D01*
X30402241Y51695379D01*
X30433345Y51703280D01*
X30468553Y51704586D01*
X30545716Y51693165D01*
G36*
X30545716Y51693165D02*
G01*
X30587507Y51674156D01*
X30620309Y51651122D01*
X30644343Y51625367D01*
X30660937Y51592142D01*
X30671417Y51546700D01*
X30677111Y51484293D01*
X30679347Y51400173D01*
X30679583Y51344779D01*
X30679583Y51128674D01*
X30642614Y51111830D01*
X30613496Y51099519D01*
X30599071Y51094986D01*
X30596312Y51108475D01*
X30594122Y51144847D01*
X30592782Y51197958D01*
X30592497Y51240128D01*
X30591274Y51301053D01*
X30587976Y51349385D01*
X30583161Y51378982D01*
X30579336Y51385271D01*
X30553623Y51378848D01*
X30513258Y51362375D01*
X30466519Y51340042D01*
X30421685Y51316043D01*
X30387033Y51294570D01*
X30370842Y51279815D01*
X30370778Y51279655D01*
X30372170Y51252348D01*
X30384658Y51226281D01*
X30406583Y51205108D01*
X30438583Y51198026D01*
X30465932Y51198851D01*
X30504666Y51199458D01*
X30524998Y51190384D01*
X30537209Y51166408D01*
X30538749Y51161887D01*
X30544043Y51127694D01*
X30529887Y51106932D01*
X30492988Y51097038D01*
X30453129Y51095208D01*
X30381402Y51108773D01*
X30344272Y51128145D01*
X30298416Y51173655D01*
X30274096Y51229517D01*
X30271913Y51288543D01*
X30292469Y51343547D01*
X30323389Y51378014D01*
X30354260Y51397311D01*
X30402782Y51421741D01*
X30459325Y51446515D01*
X30468750Y51450301D01*
X30530859Y51477709D01*
X30566662Y51501866D01*
X30578177Y51525881D01*
X30567420Y51552865D01*
X30548954Y51573957D01*
X30505309Y51599928D01*
X30457286Y51601876D01*
X30413246Y51581863D01*
X30381549Y51541949D01*
X30377389Y51531652D01*
X30353167Y51493776D01*
X30317805Y51465658D01*
X30273183Y51442583D01*
X30273183Y51508015D01*
X30275809Y51547994D01*
X30287070Y51579503D01*
X30312039Y51613122D01*
X30336009Y51639016D01*
X30373281Y51675683D01*
X30402241Y51695379D01*
X30433345Y51703280D01*
X30468553Y51704586D01*
X30545716Y51693165D01*
G37*
X28503779Y56408348D02*
X28582323Y56407918D01*
X28639167Y56406754D01*
X28677974Y56404489D01*
X28702407Y56400756D01*
X28716131Y56395190D01*
X28722809Y56387423D01*
X28726105Y56377091D01*
X28726425Y56375753D01*
X28731431Y56351617D01*
X28740698Y56303995D01*
X28753261Y56237955D01*
X28768156Y56158568D01*
X28784420Y56070900D01*
X28784988Y56067821D01*
X28801279Y55981907D01*
X28816521Y55906000D01*
X28829730Y55844651D01*
X28839923Y55802414D01*
X28846117Y55783841D01*
X28846412Y55783512D01*
X28864657Y55774443D01*
X28902274Y55759329D01*
X28951140Y55741434D01*
X28951412Y55741338D01*
X29012962Y55718203D01*
X29085526Y55688731D01*
X29153926Y55659099D01*
X29157163Y55657634D01*
X29268571Y55607070D01*
X29515268Y55775536D01*
X29590946Y55826893D01*
X29659500Y55872807D01*
X29716957Y55910666D01*
X29759345Y55937859D01*
X29782694Y55951775D01*
X29784911Y55952807D01*
X29801879Y55948212D01*
X29833570Y55926041D01*
X29881221Y55885249D01*
X29946067Y55824791D01*
X30012266Y55760469D01*
X30076083Y55697084D01*
X30133198Y55639245D01*
X30180174Y55590521D01*
X30213572Y55554486D01*
X30229954Y55534712D01*
X30230563Y55533694D01*
X30232374Y55520124D01*
X30225552Y55497963D01*
X30208409Y55464218D01*
X30179262Y55415896D01*
X30136424Y55350004D01*
X30079317Y55265179D01*
X30028635Y55190519D01*
X29983330Y55123556D01*
X29946019Y55068180D01*
X29919321Y55028276D01*
X29905854Y55007734D01*
X29905006Y55006340D01*
X29906650Y54986658D01*
X29919114Y54948403D01*
X29939917Y54898807D01*
X29947331Y54882968D01*
X29979683Y54812406D01*
X30014197Y54732343D01*
X30042234Y54663067D01*
X30062437Y54611651D01*
X30078484Y54572577D01*
X30087757Y54552155D01*
X30088910Y54550582D01*
X30105965Y54547975D01*
X30146167Y54540833D01*
X30204171Y54530173D01*
X30274632Y54517011D01*
X30352204Y54502363D01*
X30431541Y54487247D01*
X30507300Y54472678D01*
X30574133Y54459674D01*
X30626697Y54449251D01*
X30659645Y54442426D01*
X30667726Y54440497D01*
X30676074Y54435734D01*
X30682375Y54424978D01*
X30686914Y54404598D01*
X30689973Y54370962D01*
X30691836Y54320441D01*
X30692787Y54249404D01*
X30693109Y54154220D01*
X30693126Y54115204D01*
X30693126Y53797897D01*
X30616926Y53782857D01*
X30574532Y53774701D01*
X30511269Y53762797D01*
X30434831Y53748580D01*
X30352912Y53733486D01*
X30330269Y53729341D01*
X30254675Y53714643D01*
X30188822Y53700191D01*
X30138235Y53687321D01*
X30108443Y53677374D01*
X30103481Y53674409D01*
X30091295Y53653413D01*
X30073822Y53612729D01*
X30054446Y53560374D01*
X30050603Y53549096D01*
X30025208Y53479173D01*
X29993686Y53400278D01*
X29962838Y53329430D01*
X29962686Y53329101D01*
X29911316Y53217963D01*
X30080268Y52969443D01*
X30249221Y52720924D01*
X30032298Y52503638D01*
X29966688Y52438970D01*
X29906848Y52381963D01*
X29856136Y52335663D01*
X29817915Y52303112D01*
X29795544Y52287353D01*
X29792335Y52286353D01*
X29773495Y52294227D01*
X29735049Y52316118D01*
X29681199Y52349429D01*
X29616145Y52391565D01*
X29545809Y52438753D01*
X29474424Y52486886D01*
X29410777Y52528768D01*
X29358910Y52561825D01*
X29322864Y52583478D01*
X29306736Y52591153D01*
X29287058Y52584659D01*
X29249744Y52567546D01*
X29202490Y52543370D01*
X29197481Y52540683D01*
X29133846Y52508769D01*
X29090210Y52493117D01*
X29063071Y52492951D01*
X29048926Y52507492D01*
X29048844Y52507696D01*
X29041774Y52524917D01*
X29024911Y52565797D01*
X28999564Y52627171D01*
X28967040Y52705877D01*
X28928647Y52798749D01*
X28885691Y52902624D01*
X28844091Y53003194D01*
X28798373Y53114180D01*
X28756395Y53216993D01*
X28719417Y53308481D01*
X28688696Y53385495D01*
X28665491Y53444881D01*
X28651059Y53483487D01*
X28646612Y53497896D01*
X28657765Y53514424D01*
X28686938Y53540766D01*
X28725840Y53569809D01*
X28836626Y53661657D01*
X28923220Y53766937D01*
X28984585Y53883430D01*
X29019684Y54008920D01*
X29027477Y54141189D01*
X29021812Y54202239D01*
X28990947Y54328901D01*
X28937789Y54440755D01*
X28865636Y54536695D01*
X28777786Y54615620D01*
X28677534Y54676426D01*
X28568179Y54718009D01*
X28453016Y54739268D01*
X28335344Y54739097D01*
X28218459Y54716395D01*
X28105658Y54670058D01*
X28000238Y54598983D01*
X27956237Y54558785D01*
X27871848Y54455567D01*
X27813091Y54342771D01*
X27779573Y54223686D01*
X27770904Y54101601D01*
X27786692Y53979803D01*
X27826547Y53861580D01*
X27890076Y53750221D01*
X27976890Y53649012D01*
X28073898Y53569809D01*
X28114306Y53539534D01*
X28142851Y53513477D01*
X28153126Y53497871D01*
X28147746Y53480853D01*
X28132444Y53440196D01*
X28108481Y53379054D01*
X28077113Y53300577D01*
X28039601Y53207916D01*
X27997202Y53104224D01*
X27955532Y53003170D01*
X27909559Y52892089D01*
X27866976Y52789155D01*
X27829090Y52697531D01*
X27797209Y52620380D01*
X27772640Y52560865D01*
X27756689Y52522152D01*
X27750779Y52507696D01*
X27736817Y52493011D01*
X27709809Y52493054D01*
X27666282Y52508597D01*
X27602759Y52540412D01*
X27602257Y52540683D01*
X27554429Y52565373D01*
X27515766Y52583358D01*
X27493964Y52591082D01*
X27493002Y52591153D01*
X27476590Y52583318D01*
X27440356Y52561531D01*
X27388343Y52528368D01*
X27324594Y52486405D01*
X27253929Y52438753D01*
X27181985Y52390505D01*
X27117143Y52348545D01*
X27063604Y52315469D01*
X27025566Y52293875D01*
X27007402Y52286353D01*
X26990677Y52296239D01*
X26957049Y52323870D01*
X26909879Y52366201D01*
X26852527Y52420191D01*
X26788353Y52482797D01*
X26767366Y52503713D01*
X26550368Y52721073D01*
X26715537Y52963476D01*
X26765733Y53037915D01*
X26809788Y53104724D01*
X26845231Y53160031D01*
X26869588Y53199967D01*
X26880391Y53220660D01*
X26880707Y53222133D01*
X26875012Y53241638D01*
X26859695Y53280874D01*
X26837406Y53333266D01*
X26821762Y53368341D01*
X26792510Y53435495D01*
X26764963Y53503338D01*
X26743606Y53560662D01*
X26737804Y53578124D01*
X26721321Y53624758D01*
X26705209Y53660791D01*
X26696359Y53674409D01*
X26676829Y53682744D01*
X26634203Y53694559D01*
X26574014Y53708515D01*
X26501791Y53723274D01*
X26469469Y53729341D01*
X26387391Y53744423D01*
X26308664Y53759027D01*
X26240978Y53771716D01*
X26192029Y53781054D01*
X26182812Y53782857D01*
X26106612Y53797897D01*
X26106612Y54115204D01*
X26106783Y54219542D01*
X26107485Y54298483D01*
X26109003Y54355658D01*
X26111618Y54394697D01*
X26115615Y54419231D01*
X26121278Y54432891D01*
X26128889Y54439307D01*
X26132012Y54440497D01*
X26150847Y54444716D01*
X26192457Y54453134D01*
X26251499Y54464735D01*
X26322626Y54478501D01*
X26400494Y54493416D01*
X26479756Y54508464D01*
X26555067Y54522627D01*
X26621082Y54534890D01*
X26672456Y54544235D01*
X26703844Y54549646D01*
X26710828Y54550582D01*
X26717154Y54563100D01*
X26731159Y54596450D01*
X26750224Y54644319D01*
X26757503Y54663067D01*
X26786865Y54735501D01*
X26821440Y54815526D01*
X26852406Y54882968D01*
X26875192Y54934537D01*
X26890351Y54976911D01*
X26895411Y55002862D01*
X26894605Y55006340D01*
X26883910Y55022760D01*
X26859489Y55059279D01*
X26823964Y55112009D01*
X26779956Y55177061D01*
X26730086Y55250545D01*
X26720225Y55265051D01*
X26662361Y55350992D01*
X26619825Y55416435D01*
X26590923Y55464392D01*
X26573959Y55497876D01*
X26567236Y55519901D01*
X26569059Y55533479D01*
X26569105Y55533565D01*
X26583455Y55551399D01*
X26615192Y55585879D01*
X26660879Y55633428D01*
X26717073Y55690474D01*
X26780337Y55753441D01*
X26787471Y55760469D01*
X26867199Y55837676D01*
X26928726Y55894366D01*
X26973290Y55931586D01*
X27002126Y55950381D01*
X27014827Y55952807D01*
X27033363Y55942225D01*
X27071830Y55917780D01*
X27126255Y55882084D01*
X27192667Y55837749D01*
X27267094Y55787385D01*
X27284470Y55775536D01*
X27531166Y55607070D01*
X27642575Y55657634D01*
X27710326Y55687101D01*
X27783052Y55716737D01*
X27845572Y55740366D01*
X27848326Y55741338D01*
X27897229Y55759239D01*
X27934926Y55774376D01*
X27953294Y55783486D01*
X27953325Y55783512D01*
X27959154Y55799979D01*
X27969061Y55840477D01*
X27982064Y55900454D01*
X27997178Y55975356D01*
X28013421Y56060632D01*
X28014750Y56067821D01*
X28031044Y56155682D01*
X28046002Y56235436D01*
X28058660Y56302015D01*
X28068055Y56350349D01*
X28073223Y56375371D01*
X28073313Y56375753D01*
X28076458Y56386397D01*
X28082573Y56394434D01*
X28095322Y56400229D01*
X28118369Y56404149D01*
X28155378Y56406561D01*
X28210013Y56407831D01*
X28285936Y56408325D01*
X28386813Y56408410D01*
X28399869Y56408410D01*
X28503779Y56408348D01*
G36*
X28503779Y56408348D02*
G01*
X28582323Y56407918D01*
X28639167Y56406754D01*
X28677974Y56404489D01*
X28702407Y56400756D01*
X28716131Y56395190D01*
X28722809Y56387423D01*
X28726105Y56377091D01*
X28726425Y56375753D01*
X28731431Y56351617D01*
X28740698Y56303995D01*
X28753261Y56237955D01*
X28768156Y56158568D01*
X28784420Y56070900D01*
X28784988Y56067821D01*
X28801279Y55981907D01*
X28816521Y55906000D01*
X28829730Y55844651D01*
X28839923Y55802414D01*
X28846117Y55783841D01*
X28846412Y55783512D01*
X28864657Y55774443D01*
X28902274Y55759329D01*
X28951140Y55741434D01*
X28951412Y55741338D01*
X29012962Y55718203D01*
X29085526Y55688731D01*
X29153926Y55659099D01*
X29157163Y55657634D01*
X29268571Y55607070D01*
X29515268Y55775536D01*
X29590946Y55826893D01*
X29659500Y55872807D01*
X29716957Y55910666D01*
X29759345Y55937859D01*
X29782694Y55951775D01*
X29784911Y55952807D01*
X29801879Y55948212D01*
X29833570Y55926041D01*
X29881221Y55885249D01*
X29946067Y55824791D01*
X30012266Y55760469D01*
X30076083Y55697084D01*
X30133198Y55639245D01*
X30180174Y55590521D01*
X30213572Y55554486D01*
X30229954Y55534712D01*
X30230563Y55533694D01*
X30232374Y55520124D01*
X30225552Y55497963D01*
X30208409Y55464218D01*
X30179262Y55415896D01*
X30136424Y55350004D01*
X30079317Y55265179D01*
X30028635Y55190519D01*
X29983330Y55123556D01*
X29946019Y55068180D01*
X29919321Y55028276D01*
X29905854Y55007734D01*
X29905006Y55006340D01*
X29906650Y54986658D01*
X29919114Y54948403D01*
X29939917Y54898807D01*
X29947331Y54882968D01*
X29979683Y54812406D01*
X30014197Y54732343D01*
X30042234Y54663067D01*
X30062437Y54611651D01*
X30078484Y54572577D01*
X30087757Y54552155D01*
X30088910Y54550582D01*
X30105965Y54547975D01*
X30146167Y54540833D01*
X30204171Y54530173D01*
X30274632Y54517011D01*
X30352204Y54502363D01*
X30431541Y54487247D01*
X30507300Y54472678D01*
X30574133Y54459674D01*
X30626697Y54449251D01*
X30659645Y54442426D01*
X30667726Y54440497D01*
X30676074Y54435734D01*
X30682375Y54424978D01*
X30686914Y54404598D01*
X30689973Y54370962D01*
X30691836Y54320441D01*
X30692787Y54249404D01*
X30693109Y54154220D01*
X30693126Y54115204D01*
X30693126Y53797897D01*
X30616926Y53782857D01*
X30574532Y53774701D01*
X30511269Y53762797D01*
X30434831Y53748580D01*
X30352912Y53733486D01*
X30330269Y53729341D01*
X30254675Y53714643D01*
X30188822Y53700191D01*
X30138235Y53687321D01*
X30108443Y53677374D01*
X30103481Y53674409D01*
X30091295Y53653413D01*
X30073822Y53612729D01*
X30054446Y53560374D01*
X30050603Y53549096D01*
X30025208Y53479173D01*
X29993686Y53400278D01*
X29962838Y53329430D01*
X29962686Y53329101D01*
X29911316Y53217963D01*
X30080268Y52969443D01*
X30249221Y52720924D01*
X30032298Y52503638D01*
X29966688Y52438970D01*
X29906848Y52381963D01*
X29856136Y52335663D01*
X29817915Y52303112D01*
X29795544Y52287353D01*
X29792335Y52286353D01*
X29773495Y52294227D01*
X29735049Y52316118D01*
X29681199Y52349429D01*
X29616145Y52391565D01*
X29545809Y52438753D01*
X29474424Y52486886D01*
X29410777Y52528768D01*
X29358910Y52561825D01*
X29322864Y52583478D01*
X29306736Y52591153D01*
X29287058Y52584659D01*
X29249744Y52567546D01*
X29202490Y52543370D01*
X29197481Y52540683D01*
X29133846Y52508769D01*
X29090210Y52493117D01*
X29063071Y52492951D01*
X29048926Y52507492D01*
X29048844Y52507696D01*
X29041774Y52524917D01*
X29024911Y52565797D01*
X28999564Y52627171D01*
X28967040Y52705877D01*
X28928647Y52798749D01*
X28885691Y52902624D01*
X28844091Y53003194D01*
X28798373Y53114180D01*
X28756395Y53216993D01*
X28719417Y53308481D01*
X28688696Y53385495D01*
X28665491Y53444881D01*
X28651059Y53483487D01*
X28646612Y53497896D01*
X28657765Y53514424D01*
X28686938Y53540766D01*
X28725840Y53569809D01*
X28836626Y53661657D01*
X28923220Y53766937D01*
X28984585Y53883430D01*
X29019684Y54008920D01*
X29027477Y54141189D01*
X29021812Y54202239D01*
X28990947Y54328901D01*
X28937789Y54440755D01*
X28865636Y54536695D01*
X28777786Y54615620D01*
X28677534Y54676426D01*
X28568179Y54718009D01*
X28453016Y54739268D01*
X28335344Y54739097D01*
X28218459Y54716395D01*
X28105658Y54670058D01*
X28000238Y54598983D01*
X27956237Y54558785D01*
X27871848Y54455567D01*
X27813091Y54342771D01*
X27779573Y54223686D01*
X27770904Y54101601D01*
X27786692Y53979803D01*
X27826547Y53861580D01*
X27890076Y53750221D01*
X27976890Y53649012D01*
X28073898Y53569809D01*
X28114306Y53539534D01*
X28142851Y53513477D01*
X28153126Y53497871D01*
X28147746Y53480853D01*
X28132444Y53440196D01*
X28108481Y53379054D01*
X28077113Y53300577D01*
X28039601Y53207916D01*
X27997202Y53104224D01*
X27955532Y53003170D01*
X27909559Y52892089D01*
X27866976Y52789155D01*
X27829090Y52697531D01*
X27797209Y52620380D01*
X27772640Y52560865D01*
X27756689Y52522152D01*
X27750779Y52507696D01*
X27736817Y52493011D01*
X27709809Y52493054D01*
X27666282Y52508597D01*
X27602759Y52540412D01*
X27602257Y52540683D01*
X27554429Y52565373D01*
X27515766Y52583358D01*
X27493964Y52591082D01*
X27493002Y52591153D01*
X27476590Y52583318D01*
X27440356Y52561531D01*
X27388343Y52528368D01*
X27324594Y52486405D01*
X27253929Y52438753D01*
X27181985Y52390505D01*
X27117143Y52348545D01*
X27063604Y52315469D01*
X27025566Y52293875D01*
X27007402Y52286353D01*
X26990677Y52296239D01*
X26957049Y52323870D01*
X26909879Y52366201D01*
X26852527Y52420191D01*
X26788353Y52482797D01*
X26767366Y52503713D01*
X26550368Y52721073D01*
X26715537Y52963476D01*
X26765733Y53037915D01*
X26809788Y53104724D01*
X26845231Y53160031D01*
X26869588Y53199967D01*
X26880391Y53220660D01*
X26880707Y53222133D01*
X26875012Y53241638D01*
X26859695Y53280874D01*
X26837406Y53333266D01*
X26821762Y53368341D01*
X26792510Y53435495D01*
X26764963Y53503338D01*
X26743606Y53560662D01*
X26737804Y53578124D01*
X26721321Y53624758D01*
X26705209Y53660791D01*
X26696359Y53674409D01*
X26676829Y53682744D01*
X26634203Y53694559D01*
X26574014Y53708515D01*
X26501791Y53723274D01*
X26469469Y53729341D01*
X26387391Y53744423D01*
X26308664Y53759027D01*
X26240978Y53771716D01*
X26192029Y53781054D01*
X26182812Y53782857D01*
X26106612Y53797897D01*
X26106612Y54115204D01*
X26106783Y54219542D01*
X26107485Y54298483D01*
X26109003Y54355658D01*
X26111618Y54394697D01*
X26115615Y54419231D01*
X26121278Y54432891D01*
X26128889Y54439307D01*
X26132012Y54440497D01*
X26150847Y54444716D01*
X26192457Y54453134D01*
X26251499Y54464735D01*
X26322626Y54478501D01*
X26400494Y54493416D01*
X26479756Y54508464D01*
X26555067Y54522627D01*
X26621082Y54534890D01*
X26672456Y54544235D01*
X26703844Y54549646D01*
X26710828Y54550582D01*
X26717154Y54563100D01*
X26731159Y54596450D01*
X26750224Y54644319D01*
X26757503Y54663067D01*
X26786865Y54735501D01*
X26821440Y54815526D01*
X26852406Y54882968D01*
X26875192Y54934537D01*
X26890351Y54976911D01*
X26895411Y55002862D01*
X26894605Y55006340D01*
X26883910Y55022760D01*
X26859489Y55059279D01*
X26823964Y55112009D01*
X26779956Y55177061D01*
X26730086Y55250545D01*
X26720225Y55265051D01*
X26662361Y55350992D01*
X26619825Y55416435D01*
X26590923Y55464392D01*
X26573959Y55497876D01*
X26567236Y55519901D01*
X26569059Y55533479D01*
X26569105Y55533565D01*
X26583455Y55551399D01*
X26615192Y55585879D01*
X26660879Y55633428D01*
X26717073Y55690474D01*
X26780337Y55753441D01*
X26787471Y55760469D01*
X26867199Y55837676D01*
X26928726Y55894366D01*
X26973290Y55931586D01*
X27002126Y55950381D01*
X27014827Y55952807D01*
X27033363Y55942225D01*
X27071830Y55917780D01*
X27126255Y55882084D01*
X27192667Y55837749D01*
X27267094Y55787385D01*
X27284470Y55775536D01*
X27531166Y55607070D01*
X27642575Y55657634D01*
X27710326Y55687101D01*
X27783052Y55716737D01*
X27845572Y55740366D01*
X27848326Y55741338D01*
X27897229Y55759239D01*
X27934926Y55774376D01*
X27953294Y55783486D01*
X27953325Y55783512D01*
X27959154Y55799979D01*
X27969061Y55840477D01*
X27982064Y55900454D01*
X27997178Y55975356D01*
X28013421Y56060632D01*
X28014750Y56067821D01*
X28031044Y56155682D01*
X28046002Y56235436D01*
X28058660Y56302015D01*
X28068055Y56350349D01*
X28073223Y56375371D01*
X28073313Y56375753D01*
X28076458Y56386397D01*
X28082573Y56394434D01*
X28095322Y56400229D01*
X28118369Y56404149D01*
X28155378Y56406561D01*
X28210013Y56407831D01*
X28285936Y56408325D01*
X28386813Y56408410D01*
X28399869Y56408410D01*
X28503779Y56408348D01*
G37*
%TD*%
D11*
%TO.C,T401*%
X15770000Y41480000D03*
X15770000Y48480000D03*
D12*
X19270000Y38350000D03*
X19270000Y39370000D03*
X19270000Y40390000D03*
X19270000Y41410000D03*
X19270000Y42430000D03*
X19270000Y43450000D03*
X19270000Y44470000D03*
X19270000Y45490000D03*
X19270000Y46510000D03*
X19270000Y47530000D03*
X19270000Y48550000D03*
X19270000Y49570000D03*
X19270000Y50590000D03*
X19270000Y51610000D03*
D13*
X5570000Y36255000D03*
X5570000Y53705000D03*
%TD*%
D14*
%TO.C,U405*%
X15147500Y12900000D03*
X15147500Y13850000D03*
X15147500Y14800000D03*
X12872500Y14800000D03*
X12872500Y12900000D03*
%TD*%
D15*
%TO.C,R601*%
X50400000Y10600000D03*
X50400000Y11620000D03*
%TD*%
D16*
%TO.C,C504*%
X39700000Y18030000D03*
X39700000Y17070000D03*
%TD*%
D17*
%TO.C,J502*%
X45375000Y11600000D03*
X44125000Y11600000D03*
X42875000Y11600000D03*
X41625000Y11600000D03*
X40375000Y11600000D03*
X39125000Y11600000D03*
D18*
X47225000Y8250000D03*
X37275000Y8250000D03*
%TD*%
D19*
%TO.C,TP103*%
X47800000Y16050000D03*
%TD*%
D20*
%TO.C,U502*%
X36880000Y33540000D03*
X35880000Y33540000D03*
X34880000Y33539999D03*
X33880000Y33540000D03*
X32880000Y33540000D03*
X31880000Y33540000D03*
X30880000Y33540000D03*
X29880000Y33539999D03*
X28880000Y33540000D03*
X27880000Y33540000D03*
X26880000Y33540000D03*
X25879999Y33540000D03*
D21*
X23630000Y25750000D03*
X23630000Y24750000D03*
X23630000Y23750000D03*
X23630000Y22750000D03*
D20*
X25879999Y18960000D03*
X26880000Y18960000D03*
X27880000Y18960000D03*
X32880000Y18960000D03*
X33880000Y18960000D03*
X34880000Y18960001D03*
X35880000Y18960000D03*
X36880000Y18960000D03*
D21*
X38770000Y22750000D03*
X38770000Y23750000D03*
X38770000Y24750000D03*
X38770000Y25750000D03*
X38770000Y26750000D03*
X38770000Y27750000D03*
X38770000Y28750000D03*
X38770000Y29750000D03*
%TD*%
D22*
%TO.C,U403*%
X25050000Y13985000D03*
X24550000Y13985000D03*
X24050000Y13985000D03*
X23550000Y13985000D03*
X23050000Y13985000D03*
X23050000Y13215000D03*
X23550000Y13215000D03*
X24050000Y13215000D03*
X24550000Y13215000D03*
X25050000Y13215000D03*
%TD*%
D23*
%TO.C,SW602*%
X52550000Y14300000D03*
D24*
X52550000Y16000000D03*
X52550000Y12600000D03*
D25*
X50910000Y14300000D03*
%TD*%
D26*
%TO.C,C503*%
X42100000Y18349999D03*
X42100000Y16450001D03*
%TD*%
D27*
%TO.C,R504*%
X35909999Y15950000D03*
X34890001Y15950000D03*
%TD*%
D28*
%TO.C,D505*%
X41000000Y33415000D03*
X41000000Y34385000D03*
%TD*%
D23*
%TO.C,SW601*%
X52550000Y9500000D03*
D24*
X52550000Y11200000D03*
X52550000Y7800000D03*
D25*
X50910000Y9500000D03*
%TD*%
D29*
%TO.C,D504*%
X35170000Y35650000D03*
X34200000Y35650000D03*
%TD*%
D30*
%TO.C,SW501*%
X34500000Y8100000D03*
X34500000Y12300000D03*
%TD*%
D27*
%TO.C,R606*%
X50710000Y30250000D03*
X49690000Y30250000D03*
%TD*%
D15*
%TO.C,R103*%
X45650000Y17090000D03*
X45650000Y18110000D03*
%TD*%
D29*
%TO.C,D503*%
X35155000Y36600000D03*
X34185000Y36600000D03*
%TD*%
D31*
%TO.C,C502*%
X16800000Y12720000D03*
X16800000Y13680000D03*
%TD*%
D14*
%TO.C,U701*%
X9037500Y12850000D03*
X9037500Y13800000D03*
X9037500Y14750000D03*
X6762500Y14750000D03*
X6762500Y13800000D03*
X6762500Y12850000D03*
%TD*%
D32*
%TO.C,U401*%
X24450000Y40400000D03*
X24450000Y40900000D03*
X24450000Y41400000D03*
X24450000Y41900000D03*
X24450000Y42400000D03*
X23680000Y42400000D03*
X23680000Y41900000D03*
X23680000Y41400000D03*
X23680000Y40900000D03*
X23680000Y40400000D03*
%TD*%
D33*
%TO.C,R101*%
X10950000Y11660000D03*
X10950000Y10640000D03*
%TD*%
D19*
%TO.C,TP102*%
X45550000Y22950000D03*
%TD*%
D15*
%TO.C,R507*%
X40050000Y33390001D03*
X40050000Y34409999D03*
%TD*%
D27*
%TO.C,R402*%
X24610000Y50150000D03*
X23590000Y50150000D03*
%TD*%
D15*
%TO.C,R102*%
X44700000Y17090000D03*
X44700000Y18110000D03*
%TD*%
D34*
%TO.C,D501*%
X44400000Y13550000D03*
X45400000Y13550000D03*
X44900000Y14850000D03*
%TD*%
D19*
%TO.C,TP104*%
X18750000Y33200000D03*
%TD*%
D27*
%TO.C,R401*%
X24610000Y38400000D03*
X23590000Y38400000D03*
%TD*%
D35*
%TO.C,R505*%
X32260001Y36600000D03*
X33279999Y36600000D03*
%TD*%
D36*
%TO.C,Q501*%
X39900000Y32300000D03*
X39900000Y31300000D03*
X41199999Y31800000D03*
%TD*%
D19*
%TO.C,TP101*%
X13550000Y32150000D03*
%TD*%
D35*
%TO.C,R403*%
X5590000Y55200000D03*
X6610000Y55200000D03*
%TD*%
D37*
%TO.C,C701*%
X10950000Y12900000D03*
X10950000Y14800000D03*
%TD*%
D38*
%TO.C,H101*%
X2450000Y24100000D03*
D39*
X2450000Y24100000D03*
%TD*%
D16*
%TO.C,C505*%
X40650000Y18030000D03*
X40650000Y17070000D03*
%TD*%
D40*
%TO.C,U503*%
X26740000Y13835000D03*
X31820000Y14851000D03*
X31820000Y12819000D03*
D41*
X28010000Y13200000D03*
X28010000Y14470000D03*
X29280000Y13200000D03*
X29280000Y14470000D03*
X30550000Y13200000D03*
X30550000Y14470000D03*
%TD*%
D42*
%TO.C,J601*%
X46025000Y27800000D03*
X46025000Y28800000D03*
X46025000Y29800000D03*
X46025000Y30800000D03*
D43*
X43500000Y26500000D03*
X43500000Y32100000D03*
%TD*%
D44*
%TO.C,C703*%
X6550000Y10850000D03*
X8450000Y10850000D03*
%TD*%
D45*
%TO.C,U602*%
X48550000Y25200000D03*
X48550000Y24550000D03*
X48550000Y23900000D03*
X50450000Y23900000D03*
X50450000Y25200000D03*
%TD*%
D31*
%TO.C,C602*%
X5450000Y4970000D03*
X5450000Y5930000D03*
%TD*%
D46*
%TO.C,C401*%
X23620000Y48900000D03*
X24580000Y48900000D03*
%TD*%
D35*
%TO.C,R702*%
X5240001Y24650000D03*
X6259999Y24650000D03*
%TD*%
D47*
%TO.C,JP501*%
X30450001Y9700000D03*
D48*
X31749999Y9700000D03*
%TD*%
D27*
%TO.C,R503*%
X33909999Y16900000D03*
X32890001Y16900000D03*
%TD*%
D49*
%TO.C,U601*%
X6700000Y4525000D03*
X7700000Y4525000D03*
X7700000Y6375000D03*
X6700000Y6375000D03*
D50*
X7200000Y5450000D03*
%TD*%
D23*
%TO.C,J101*%
X11430000Y30400000D03*
X4270000Y30400000D03*
D51*
X10900000Y28370000D03*
X10900000Y32430000D03*
X4800000Y28370000D03*
X4800000Y32430000D03*
D52*
X10400000Y29550000D03*
X9600000Y29550000D03*
X8900000Y29550000D03*
X8200000Y29550000D03*
X7500000Y29550000D03*
X6800000Y29550000D03*
X6100000Y29550000D03*
X5300000Y29550000D03*
X5300000Y31250000D03*
X6100000Y31250000D03*
X6800000Y31250000D03*
X7500000Y31250000D03*
X8200000Y31250000D03*
X8900000Y31250000D03*
X9600000Y31250000D03*
X10400000Y31250000D03*
%TD*%
D35*
%TO.C,R501*%
X39890000Y14400000D03*
X40910000Y14400000D03*
%TD*%
D19*
%TO.C,TP105*%
X41950000Y24400000D03*
%TD*%
D35*
%TO.C,R506*%
X32270001Y35649999D03*
X33289999Y35649999D03*
%TD*%
D32*
%TO.C,U402*%
X24430000Y45350000D03*
X24430000Y45850000D03*
X24430000Y46350000D03*
X24430000Y46850000D03*
X24430000Y47350000D03*
X23660000Y47350000D03*
X23660000Y46850000D03*
X23660000Y46350000D03*
X23660000Y45850000D03*
X23660000Y45350000D03*
%TD*%
D16*
%TO.C,C501*%
X11900000Y11630000D03*
X11900000Y10670000D03*
%TD*%
D53*
%TO.C,J501*%
X25300000Y10230000D03*
X24800000Y10230000D03*
X24300000Y10230000D03*
X23800000Y10230000D03*
X23300000Y10230000D03*
X22800000Y10230000D03*
X22300000Y10230000D03*
X21800000Y10230000D03*
X21300000Y10230000D03*
X20800000Y10230000D03*
X20300000Y10230000D03*
X19800000Y10230000D03*
X19300000Y10230000D03*
X18800000Y10230000D03*
X18300000Y10230000D03*
X17800000Y10230000D03*
X17300000Y10230000D03*
X16800000Y10230000D03*
X16300000Y10230000D03*
D54*
X28050000Y9500000D03*
X13550000Y9500000D03*
D55*
X13550000Y3540000D03*
X28050000Y3540000D03*
%TD*%
D33*
%TO.C,R701*%
X9950000Y11660000D03*
X9950000Y10640000D03*
%TD*%
D56*
%TO.C,D101*%
X8400000Y27100000D03*
X7400000Y27100000D03*
X7900000Y25800000D03*
%TD*%
D46*
%TO.C,C102*%
X52420000Y17200000D03*
X53380000Y17200000D03*
%TD*%
D57*
%TO.C,C101*%
X6180000Y33950000D03*
X5220000Y33950000D03*
%TD*%
D45*
%TO.C,U603*%
X48550000Y29000000D03*
X48550000Y28350000D03*
X48550000Y27700000D03*
X50450000Y27700000D03*
X50450000Y29000000D03*
%TD*%
D33*
%TO.C,R104*%
X47800000Y32810000D03*
X47800000Y31790000D03*
%TD*%
D23*
%TO.C,USB701*%
X11430000Y18850000D03*
X4270000Y18850000D03*
D51*
X10900000Y16820000D03*
X10900000Y20880000D03*
X4800000Y16820000D03*
X4800000Y20880000D03*
D52*
X10400000Y18000000D03*
X9600000Y18000000D03*
X8900000Y18000000D03*
X8200000Y18000000D03*
X7500000Y18000000D03*
X6800000Y18000000D03*
X6100000Y18000000D03*
X5300000Y18000000D03*
X5300000Y19700000D03*
X6100000Y19700000D03*
X6800000Y19700000D03*
X7500000Y19700000D03*
X8200000Y19700000D03*
X8900000Y19700000D03*
X9600000Y19700000D03*
X10400000Y19700000D03*
%TD*%
D34*
%TO.C,D701*%
X7350000Y22200000D03*
X8350000Y22200000D03*
X7850000Y23499999D03*
%TD*%
D37*
%TO.C,C601*%
X37600000Y13850000D03*
X37600000Y15750000D03*
%TD*%
D46*
%TO.C,C506*%
X34920000Y16900000D03*
X35880000Y16900000D03*
%TD*%
D35*
%TO.C,R703*%
X5240001Y25600000D03*
X6259999Y25600000D03*
%TD*%
D58*
%TO.C,D605*%
X52700000Y25400000D03*
X52700000Y24000000D03*
D59*
X52400000Y24700000D03*
%TD*%
D34*
%TO.C,D502*%
X42000000Y13550000D03*
X43000000Y13550000D03*
X42500000Y14850000D03*
%TD*%
D22*
%TO.C,U404*%
X22050000Y14000000D03*
X21550000Y14000000D03*
X21050000Y14000000D03*
X20550000Y14000000D03*
X20050000Y14000000D03*
X20050000Y13230000D03*
X20550000Y13230000D03*
X21050000Y13230000D03*
X21550000Y13230000D03*
X22050000Y13230000D03*
%TD*%
D19*
%TO.C,TP106*%
X49250000Y12800000D03*
%TD*%
D35*
%TO.C,R502*%
X39890000Y13450000D03*
X40910000Y13450000D03*
%TD*%
D58*
%TO.C,D606*%
X52700000Y29450000D03*
X52700000Y28050000D03*
D59*
X52400000Y28750000D03*
%TD*%
D27*
%TO.C,R605*%
X50710000Y26450000D03*
X49690000Y26450000D03*
%TD*%
D60*
%TO.C,Module301*%
X48950000Y3500000D03*
X48950000Y51500000D03*
%TD*%
%TO.C,Module302*%
X48950000Y3500000D03*
X48950000Y51500000D03*
%TD*%
M02*
