%TF.GenerationSoftware,KiCad,Pcbnew,8.0.7*%
%TF.CreationDate,2024-12-14T14:48:29+01:00*%
%TF.ProjectId,CM5_CB,434d355f-4342-42e6-9b69-6361645f7063,rev?*%
%TF.SameCoordinates,Original*%
%TF.FileFunction,Legend,Bot*%
%TF.FilePolarity,Positive*%
%FSLAX46Y46*%
G04 Gerber Fmt 4.6, Leading zero omitted, Abs format (unit mm)*
G04 Created by KiCad (PCBNEW 8.0.7) date 2024-12-14 14:48:29*
%MOMM*%
%LPD*%
G01*
G04 APERTURE LIST*
%ADD10C,0.150000*%
%ADD11C,0.120000*%
%ADD12C,6.100000*%
%ADD13R,0.700000X0.200000*%
%ADD14C,0.800000*%
%ADD15C,0.650000*%
%ADD16O,2.100000X1.000000*%
%ADD17O,1.800000X1.000000*%
%ADD18O,1.500000X2.300000*%
%ADD19O,1.500000X3.300000*%
%ADD20C,1.400000*%
G04 APERTURE END LIST*
D10*
X97374819Y-61730476D02*
X96374819Y-61730476D01*
X96374819Y-61730476D02*
X97089104Y-62063809D01*
X97089104Y-62063809D02*
X96374819Y-62397142D01*
X96374819Y-62397142D02*
X97374819Y-62397142D01*
X97374819Y-63016190D02*
X97327200Y-62920952D01*
X97327200Y-62920952D02*
X97279580Y-62873333D01*
X97279580Y-62873333D02*
X97184342Y-62825714D01*
X97184342Y-62825714D02*
X96898628Y-62825714D01*
X96898628Y-62825714D02*
X96803390Y-62873333D01*
X96803390Y-62873333D02*
X96755771Y-62920952D01*
X96755771Y-62920952D02*
X96708152Y-63016190D01*
X96708152Y-63016190D02*
X96708152Y-63159047D01*
X96708152Y-63159047D02*
X96755771Y-63254285D01*
X96755771Y-63254285D02*
X96803390Y-63301904D01*
X96803390Y-63301904D02*
X96898628Y-63349523D01*
X96898628Y-63349523D02*
X97184342Y-63349523D01*
X97184342Y-63349523D02*
X97279580Y-63301904D01*
X97279580Y-63301904D02*
X97327200Y-63254285D01*
X97327200Y-63254285D02*
X97374819Y-63159047D01*
X97374819Y-63159047D02*
X97374819Y-63016190D01*
X97374819Y-64206666D02*
X96374819Y-64206666D01*
X97327200Y-64206666D02*
X97374819Y-64111428D01*
X97374819Y-64111428D02*
X97374819Y-63920952D01*
X97374819Y-63920952D02*
X97327200Y-63825714D01*
X97327200Y-63825714D02*
X97279580Y-63778095D01*
X97279580Y-63778095D02*
X97184342Y-63730476D01*
X97184342Y-63730476D02*
X96898628Y-63730476D01*
X96898628Y-63730476D02*
X96803390Y-63778095D01*
X96803390Y-63778095D02*
X96755771Y-63825714D01*
X96755771Y-63825714D02*
X96708152Y-63920952D01*
X96708152Y-63920952D02*
X96708152Y-64111428D01*
X96708152Y-64111428D02*
X96755771Y-64206666D01*
X96708152Y-65111428D02*
X97374819Y-65111428D01*
X96708152Y-64682857D02*
X97231961Y-64682857D01*
X97231961Y-64682857D02*
X97327200Y-64730476D01*
X97327200Y-64730476D02*
X97374819Y-64825714D01*
X97374819Y-64825714D02*
X97374819Y-64968571D01*
X97374819Y-64968571D02*
X97327200Y-65063809D01*
X97327200Y-65063809D02*
X97279580Y-65111428D01*
X97374819Y-65730476D02*
X97327200Y-65635238D01*
X97327200Y-65635238D02*
X97231961Y-65587619D01*
X97231961Y-65587619D02*
X96374819Y-65587619D01*
X97327200Y-66492381D02*
X97374819Y-66397143D01*
X97374819Y-66397143D02*
X97374819Y-66206667D01*
X97374819Y-66206667D02*
X97327200Y-66111429D01*
X97327200Y-66111429D02*
X97231961Y-66063810D01*
X97231961Y-66063810D02*
X96851009Y-66063810D01*
X96851009Y-66063810D02*
X96755771Y-66111429D01*
X96755771Y-66111429D02*
X96708152Y-66206667D01*
X96708152Y-66206667D02*
X96708152Y-66397143D01*
X96708152Y-66397143D02*
X96755771Y-66492381D01*
X96755771Y-66492381D02*
X96851009Y-66540000D01*
X96851009Y-66540000D02*
X96946247Y-66540000D01*
X96946247Y-66540000D02*
X97041485Y-66063810D01*
X96374819Y-66873334D02*
X96374819Y-67492381D01*
X96374819Y-67492381D02*
X96755771Y-67159048D01*
X96755771Y-67159048D02*
X96755771Y-67301905D01*
X96755771Y-67301905D02*
X96803390Y-67397143D01*
X96803390Y-67397143D02*
X96851009Y-67444762D01*
X96851009Y-67444762D02*
X96946247Y-67492381D01*
X96946247Y-67492381D02*
X97184342Y-67492381D01*
X97184342Y-67492381D02*
X97279580Y-67444762D01*
X97279580Y-67444762D02*
X97327200Y-67397143D01*
X97327200Y-67397143D02*
X97374819Y-67301905D01*
X97374819Y-67301905D02*
X97374819Y-67016191D01*
X97374819Y-67016191D02*
X97327200Y-66920953D01*
X97327200Y-66920953D02*
X97279580Y-66873334D01*
X96374819Y-68111429D02*
X96374819Y-68206667D01*
X96374819Y-68206667D02*
X96422438Y-68301905D01*
X96422438Y-68301905D02*
X96470057Y-68349524D01*
X96470057Y-68349524D02*
X96565295Y-68397143D01*
X96565295Y-68397143D02*
X96755771Y-68444762D01*
X96755771Y-68444762D02*
X96993866Y-68444762D01*
X96993866Y-68444762D02*
X97184342Y-68397143D01*
X97184342Y-68397143D02*
X97279580Y-68349524D01*
X97279580Y-68349524D02*
X97327200Y-68301905D01*
X97327200Y-68301905D02*
X97374819Y-68206667D01*
X97374819Y-68206667D02*
X97374819Y-68111429D01*
X97374819Y-68111429D02*
X97327200Y-68016191D01*
X97327200Y-68016191D02*
X97279580Y-67968572D01*
X97279580Y-67968572D02*
X97184342Y-67920953D01*
X97184342Y-67920953D02*
X96993866Y-67873334D01*
X96993866Y-67873334D02*
X96755771Y-67873334D01*
X96755771Y-67873334D02*
X96565295Y-67920953D01*
X96565295Y-67920953D02*
X96470057Y-67968572D01*
X96470057Y-67968572D02*
X96422438Y-68016191D01*
X96422438Y-68016191D02*
X96374819Y-68111429D01*
X96470057Y-68825715D02*
X96422438Y-68873334D01*
X96422438Y-68873334D02*
X96374819Y-68968572D01*
X96374819Y-68968572D02*
X96374819Y-69206667D01*
X96374819Y-69206667D02*
X96422438Y-69301905D01*
X96422438Y-69301905D02*
X96470057Y-69349524D01*
X96470057Y-69349524D02*
X96565295Y-69397143D01*
X96565295Y-69397143D02*
X96660533Y-69397143D01*
X96660533Y-69397143D02*
X96803390Y-69349524D01*
X96803390Y-69349524D02*
X97374819Y-68778096D01*
X97374819Y-68778096D02*
X97374819Y-69397143D01*
X124874819Y-61800476D02*
X123874819Y-61800476D01*
X123874819Y-61800476D02*
X124589104Y-62133809D01*
X124589104Y-62133809D02*
X123874819Y-62467142D01*
X123874819Y-62467142D02*
X124874819Y-62467142D01*
X124874819Y-63086190D02*
X124827200Y-62990952D01*
X124827200Y-62990952D02*
X124779580Y-62943333D01*
X124779580Y-62943333D02*
X124684342Y-62895714D01*
X124684342Y-62895714D02*
X124398628Y-62895714D01*
X124398628Y-62895714D02*
X124303390Y-62943333D01*
X124303390Y-62943333D02*
X124255771Y-62990952D01*
X124255771Y-62990952D02*
X124208152Y-63086190D01*
X124208152Y-63086190D02*
X124208152Y-63229047D01*
X124208152Y-63229047D02*
X124255771Y-63324285D01*
X124255771Y-63324285D02*
X124303390Y-63371904D01*
X124303390Y-63371904D02*
X124398628Y-63419523D01*
X124398628Y-63419523D02*
X124684342Y-63419523D01*
X124684342Y-63419523D02*
X124779580Y-63371904D01*
X124779580Y-63371904D02*
X124827200Y-63324285D01*
X124827200Y-63324285D02*
X124874819Y-63229047D01*
X124874819Y-63229047D02*
X124874819Y-63086190D01*
X124874819Y-64276666D02*
X123874819Y-64276666D01*
X124827200Y-64276666D02*
X124874819Y-64181428D01*
X124874819Y-64181428D02*
X124874819Y-63990952D01*
X124874819Y-63990952D02*
X124827200Y-63895714D01*
X124827200Y-63895714D02*
X124779580Y-63848095D01*
X124779580Y-63848095D02*
X124684342Y-63800476D01*
X124684342Y-63800476D02*
X124398628Y-63800476D01*
X124398628Y-63800476D02*
X124303390Y-63848095D01*
X124303390Y-63848095D02*
X124255771Y-63895714D01*
X124255771Y-63895714D02*
X124208152Y-63990952D01*
X124208152Y-63990952D02*
X124208152Y-64181428D01*
X124208152Y-64181428D02*
X124255771Y-64276666D01*
X124208152Y-65181428D02*
X124874819Y-65181428D01*
X124208152Y-64752857D02*
X124731961Y-64752857D01*
X124731961Y-64752857D02*
X124827200Y-64800476D01*
X124827200Y-64800476D02*
X124874819Y-64895714D01*
X124874819Y-64895714D02*
X124874819Y-65038571D01*
X124874819Y-65038571D02*
X124827200Y-65133809D01*
X124827200Y-65133809D02*
X124779580Y-65181428D01*
X124874819Y-65800476D02*
X124827200Y-65705238D01*
X124827200Y-65705238D02*
X124731961Y-65657619D01*
X124731961Y-65657619D02*
X123874819Y-65657619D01*
X124827200Y-66562381D02*
X124874819Y-66467143D01*
X124874819Y-66467143D02*
X124874819Y-66276667D01*
X124874819Y-66276667D02*
X124827200Y-66181429D01*
X124827200Y-66181429D02*
X124731961Y-66133810D01*
X124731961Y-66133810D02*
X124351009Y-66133810D01*
X124351009Y-66133810D02*
X124255771Y-66181429D01*
X124255771Y-66181429D02*
X124208152Y-66276667D01*
X124208152Y-66276667D02*
X124208152Y-66467143D01*
X124208152Y-66467143D02*
X124255771Y-66562381D01*
X124255771Y-66562381D02*
X124351009Y-66610000D01*
X124351009Y-66610000D02*
X124446247Y-66610000D01*
X124446247Y-66610000D02*
X124541485Y-66133810D01*
X123874819Y-66943334D02*
X123874819Y-67562381D01*
X123874819Y-67562381D02*
X124255771Y-67229048D01*
X124255771Y-67229048D02*
X124255771Y-67371905D01*
X124255771Y-67371905D02*
X124303390Y-67467143D01*
X124303390Y-67467143D02*
X124351009Y-67514762D01*
X124351009Y-67514762D02*
X124446247Y-67562381D01*
X124446247Y-67562381D02*
X124684342Y-67562381D01*
X124684342Y-67562381D02*
X124779580Y-67514762D01*
X124779580Y-67514762D02*
X124827200Y-67467143D01*
X124827200Y-67467143D02*
X124874819Y-67371905D01*
X124874819Y-67371905D02*
X124874819Y-67086191D01*
X124874819Y-67086191D02*
X124827200Y-66990953D01*
X124827200Y-66990953D02*
X124779580Y-66943334D01*
X123874819Y-68181429D02*
X123874819Y-68276667D01*
X123874819Y-68276667D02*
X123922438Y-68371905D01*
X123922438Y-68371905D02*
X123970057Y-68419524D01*
X123970057Y-68419524D02*
X124065295Y-68467143D01*
X124065295Y-68467143D02*
X124255771Y-68514762D01*
X124255771Y-68514762D02*
X124493866Y-68514762D01*
X124493866Y-68514762D02*
X124684342Y-68467143D01*
X124684342Y-68467143D02*
X124779580Y-68419524D01*
X124779580Y-68419524D02*
X124827200Y-68371905D01*
X124827200Y-68371905D02*
X124874819Y-68276667D01*
X124874819Y-68276667D02*
X124874819Y-68181429D01*
X124874819Y-68181429D02*
X124827200Y-68086191D01*
X124827200Y-68086191D02*
X124779580Y-68038572D01*
X124779580Y-68038572D02*
X124684342Y-67990953D01*
X124684342Y-67990953D02*
X124493866Y-67943334D01*
X124493866Y-67943334D02*
X124255771Y-67943334D01*
X124255771Y-67943334D02*
X124065295Y-67990953D01*
X124065295Y-67990953D02*
X123970057Y-68038572D01*
X123970057Y-68038572D02*
X123922438Y-68086191D01*
X123922438Y-68086191D02*
X123874819Y-68181429D01*
X124874819Y-69467143D02*
X124874819Y-68895715D01*
X124874819Y-69181429D02*
X123874819Y-69181429D01*
X123874819Y-69181429D02*
X124017676Y-69086191D01*
X124017676Y-69086191D02*
X124112914Y-68990953D01*
X124112914Y-68990953D02*
X124160533Y-68895715D01*
D11*
%TO.C,Module302*%
X130750000Y-77600000D02*
X130750000Y-29600000D01*
X94250000Y-81100000D02*
X127250000Y-81100000D01*
X95190000Y-45700000D02*
X95190000Y-44700000D01*
X92310000Y-44700000D02*
X95190000Y-44700000D01*
X95190000Y-66500000D02*
X95190000Y-67500000D01*
X92310000Y-67500000D02*
X95190000Y-67500000D01*
X127250000Y-26100000D02*
X94250000Y-26100000D01*
X92310000Y-45700000D02*
X92310000Y-44700000D01*
X92310000Y-66500000D02*
X92310000Y-67500000D01*
X90750000Y-29600000D02*
X90750000Y-77600000D01*
X127250000Y-26100000D02*
G75*
G02*
X130750000Y-29600000I1J-3499999D01*
G01*
X130750000Y-77600000D02*
G75*
G02*
X127250000Y-81100000I-3499999J-1D01*
G01*
X90750000Y-29600000D02*
G75*
G02*
X94250000Y-26100000I3500000J0D01*
G01*
X94250000Y-81100000D02*
G75*
G02*
X90750000Y-77600000I0J3500000D01*
G01*
%TO.C,Module301*%
X94250000Y-81100000D02*
G75*
G02*
X90750000Y-77600000I0J3500000D01*
G01*
X90750000Y-29600000D02*
G75*
G02*
X94250000Y-26100000I3500000J0D01*
G01*
X130750000Y-77600000D02*
G75*
G02*
X127250000Y-81100000I-3499999J-1D01*
G01*
X127250000Y-26100000D02*
G75*
G02*
X130750000Y-29600000I1J-3499999D01*
G01*
X90750000Y-29600000D02*
X90750000Y-77600000D01*
X127250000Y-26100000D02*
X94250000Y-26100000D01*
X126310000Y-66500000D02*
X126310000Y-67500000D01*
X126310000Y-45700000D02*
X126310000Y-44700000D01*
X94250000Y-81100000D02*
X127250000Y-81100000D01*
X126310000Y-67500000D02*
X129110000Y-67500000D01*
X129110000Y-66500000D02*
X129110000Y-67500000D01*
X126310000Y-44700000D02*
X129110000Y-44700000D01*
X129110000Y-45700000D02*
X129110000Y-44700000D01*
X130750000Y-77600000D02*
X130750000Y-29600000D01*
%TD*%
%LPC*%
D12*
%TO.C,Module302*%
X127250000Y-29600000D03*
X127250000Y-77600000D03*
D13*
X95290000Y-46300000D03*
X92210000Y-46300000D03*
X95290000Y-46700000D03*
X92210000Y-46700000D03*
X95290000Y-47100000D03*
X92210000Y-47100000D03*
X95290000Y-47500000D03*
X92210000Y-47500000D03*
X95290000Y-47900000D03*
X92210000Y-47900000D03*
X95290000Y-48300000D03*
X92210000Y-48300000D03*
X95290000Y-48700000D03*
X92210000Y-48700000D03*
X95290000Y-49100000D03*
X92210000Y-49100000D03*
X95290000Y-49500000D03*
X92210000Y-49500000D03*
X95290000Y-49900000D03*
X92210000Y-49900000D03*
X95290000Y-50300000D03*
X92210000Y-50300000D03*
X95290000Y-50700000D03*
X92210000Y-50700000D03*
X95290000Y-51100000D03*
X92210000Y-51100000D03*
X95290000Y-51500000D03*
X92210000Y-51500000D03*
X95290000Y-51900000D03*
X92210000Y-51900000D03*
X95290000Y-52300000D03*
X92210000Y-52300000D03*
X95290000Y-52700000D03*
X92210000Y-52700000D03*
X95290000Y-53100000D03*
X92210000Y-53100000D03*
X95290000Y-53500000D03*
X92210000Y-53500000D03*
X95290000Y-53900000D03*
X92210000Y-53900000D03*
X95290000Y-54300000D03*
X92210000Y-54300000D03*
X95290000Y-54700000D03*
X92210000Y-54700000D03*
X95290000Y-55100000D03*
X92210000Y-55100000D03*
X95290000Y-55500000D03*
X92210000Y-55500000D03*
X95290000Y-55900000D03*
X92210000Y-55900000D03*
X95290000Y-56300000D03*
X92210000Y-56300000D03*
X95290000Y-56700000D03*
X92210000Y-56700000D03*
X95290000Y-57100000D03*
X92210000Y-57100000D03*
X95290000Y-57500000D03*
X92210000Y-57500000D03*
X95290000Y-57900000D03*
X92210000Y-57900000D03*
X95290000Y-58300000D03*
X92210000Y-58300000D03*
X95290000Y-58700000D03*
X92210000Y-58700000D03*
X95290000Y-59100000D03*
X92210000Y-59100000D03*
X95290000Y-59500000D03*
X92210000Y-59500000D03*
X95290000Y-59900000D03*
X92210000Y-59900000D03*
X95290000Y-60300000D03*
X92210000Y-60300000D03*
X95290000Y-60700000D03*
X92210000Y-60700000D03*
X95290000Y-61100000D03*
X92210000Y-61100000D03*
X95290000Y-61500000D03*
X92210000Y-61500000D03*
X95290000Y-61900000D03*
X92210000Y-61900000D03*
X95290000Y-62300000D03*
X92210000Y-62300000D03*
X95290000Y-62700000D03*
X92210000Y-62700000D03*
X95290000Y-63100000D03*
X92210000Y-63100000D03*
X95290000Y-63500000D03*
X92210000Y-63500000D03*
X95290000Y-63900000D03*
X92210000Y-63900000D03*
X95290000Y-64300000D03*
X92210000Y-64300000D03*
X95290000Y-64700000D03*
X92210000Y-64700000D03*
X95290000Y-65100000D03*
X92210000Y-65100000D03*
X95290000Y-65500000D03*
X92210000Y-65500000D03*
X95290000Y-65900000D03*
X92210000Y-65900000D03*
%TD*%
%TO.C,Module301*%
X126210000Y-65900000D03*
X129290000Y-65900000D03*
X126210000Y-65500000D03*
X129290000Y-65500000D03*
X126210000Y-65100000D03*
X129290000Y-65100000D03*
X126210000Y-64700000D03*
X129290000Y-64700000D03*
X126210000Y-64300000D03*
X129290000Y-64300000D03*
X126210000Y-63900000D03*
X129290000Y-63900000D03*
X126210000Y-63500000D03*
X129290000Y-63500000D03*
X126210000Y-63100000D03*
X129290000Y-63100000D03*
X126210000Y-62700000D03*
X129290000Y-62700000D03*
X126210000Y-62300000D03*
X129290000Y-62300000D03*
X126210000Y-61900000D03*
X129290000Y-61900000D03*
X126210000Y-61500000D03*
X129290000Y-61500000D03*
X126210000Y-61100000D03*
X129290000Y-61100000D03*
X126210000Y-60700000D03*
X129290000Y-60700000D03*
X126210000Y-60300000D03*
X129290000Y-60300000D03*
X126210000Y-59900000D03*
X129290000Y-59900000D03*
X126210000Y-59500000D03*
X129290000Y-59500000D03*
X126210000Y-59100000D03*
X129290000Y-59100000D03*
X126210000Y-58700000D03*
X129290000Y-58700000D03*
X126210000Y-58300000D03*
X129290000Y-58300000D03*
X126210000Y-57900000D03*
X129290000Y-57900000D03*
X126210000Y-57500000D03*
X129290000Y-57500000D03*
X126210000Y-57100000D03*
X129290000Y-57100000D03*
X126210000Y-56700000D03*
X129290000Y-56700000D03*
X126210000Y-56300000D03*
X129290000Y-56300000D03*
X126210000Y-55900000D03*
X129290000Y-55900000D03*
X126210000Y-55500000D03*
X129290000Y-55500000D03*
X126210000Y-55100000D03*
X129290000Y-55100000D03*
X126210000Y-54700000D03*
X129290000Y-54700000D03*
X126210000Y-54300000D03*
X129290000Y-54300000D03*
X126210000Y-53900000D03*
X129290000Y-53900000D03*
X126210000Y-53500000D03*
X129290000Y-53500000D03*
X126210000Y-53100000D03*
X129290000Y-53100000D03*
X126210000Y-52700000D03*
X129290000Y-52700000D03*
X126210000Y-52300000D03*
X129290000Y-52300000D03*
X126210000Y-51900000D03*
X129290000Y-51900000D03*
X126210000Y-51500000D03*
X129290000Y-51500000D03*
X126210000Y-51100000D03*
X129290000Y-51100000D03*
X126210000Y-50700000D03*
X129290000Y-50700000D03*
X126210000Y-50300000D03*
X129290000Y-50300000D03*
X126210000Y-49900000D03*
X129290000Y-49900000D03*
X126210000Y-49500000D03*
X129290000Y-49500000D03*
X126210000Y-49100000D03*
X129290000Y-49100000D03*
X126210000Y-48700000D03*
X129290000Y-48700000D03*
X126210000Y-48300000D03*
X129290000Y-48300000D03*
X126210000Y-47900000D03*
X129290000Y-47900000D03*
X126210000Y-47500000D03*
X129290000Y-47500000D03*
X126210000Y-47100000D03*
X129290000Y-47100000D03*
X126210000Y-46700000D03*
X129290000Y-46700000D03*
X126210000Y-46300000D03*
X129290000Y-46300000D03*
D12*
X127250000Y-77600000D03*
X127250000Y-29600000D03*
%TD*%
D14*
%TO.C,SW602*%
X130850000Y-66350000D03*
%TD*%
D15*
%TO.C,J101*%
X84655000Y-50210000D03*
X84655000Y-55990000D03*
D16*
X85155000Y-48780000D03*
D17*
X80975000Y-48780000D03*
D16*
X85155000Y-57420000D03*
D17*
X80975000Y-57420000D03*
%TD*%
D18*
%TO.C,J501*%
X106350000Y-77560000D03*
X91850000Y-77560000D03*
D19*
X91850000Y-71600000D03*
X106350000Y-71600000D03*
%TD*%
D14*
%TO.C,SW601*%
X130850000Y-71300000D03*
%TD*%
D20*
%TO.C,T401*%
X94005000Y-32620000D03*
X94005000Y-39620000D03*
%TD*%
%LPD*%
M02*
