M48
; DRILL file {KiCad 8.0.7} date 2024-12-14T14:48:29+0100
; FORMAT={-:-/ absolute / inch / decimal}
; #@! TF.CreationDate,2024-12-14T14:48:29+01:00
; #@! TF.GenerationSoftware,Kicad,Pcbnew,8.0.7
; #@! TF.FileFunction,Plated,1,4,PTH
FMAT,2
INCH
; #@! TA.AperFunction,Plated,PTH,ViaDrill
T1C0.0118
; #@! TA.AperFunction,Plated,PTH,ComponentDrill
T2C0.0236
; #@! TA.AperFunction,Plated,PTH,ComponentDrill
T3C0.0354
%
G90
G05
T1
X3.311Y-2.9528
X3.4261Y-2.057
X3.4261Y-2.0847
X3.4882Y-2.9094
X3.5315Y-2.9449
X3.6673Y-2.5945
X3.6767Y-2.4468
X3.6767Y-2.4745
X3.6796Y-2.3523
X3.6796Y-2.38
X3.7189Y-2.4944
X3.7189Y-2.5221
X3.7192Y-2.3992
X3.7192Y-2.4268
X3.7244Y-2.7283
X3.7283Y-2.6339
X3.7598Y-1.1634
X3.7605Y-1.6523
X3.8429Y-2.7283
X3.872Y-2.002
X3.878Y-2.2461
X3.8917Y-2.0217
X3.9252Y-2.2205
X3.9291Y-2.0217
X4.6772Y-2.3091
X4.6772Y-2.3287
X4.7264Y-1.9764
X4.7283Y-1.9961
X4.7447Y-1.7799
X4.7642Y-1.7605
X4.7756Y-2.4902
X4.8602Y-2.3209
X4.9016Y-2.3209
X4.9016Y-2.4646
X4.9193Y-2.3386
X4.9252Y-2.2598
X4.9252Y-2.4961
X4.93Y-1.7408
X4.9311Y-2.2303
X4.937Y-2.4213
X4.9495Y-1.7213
X5.0Y-2.5394
X5.0118Y-1.8819
X5.0395Y-1.7164
X5.0472Y-2.9055
X5.059Y-1.6969
X5.0984Y-2.874
X5.1123Y-1.62
X5.1161Y-2.4409
X5.124Y-2.4252
X5.1318Y-1.6005
X5.1386Y-2.4409
X5.185Y-1.8661
T2
G00X3.2037Y-1.9205
M15
G01X3.1722Y-1.9205
M16
G05
G00X3.2037Y-2.2606
M15
G01X3.1722Y-2.2606
M16
G05
G00X3.3742Y-1.9205
M15
G01X3.3309Y-1.9205
M16
G05
G00X3.3742Y-2.2606
M15
G01X3.3309Y-2.2606
M16
G05
T3
G00X3.6161Y-2.7835
M15
G01X3.6161Y-2.8543
M16
G05
G00X3.6161Y-3.0378
M15
G01X3.6161Y-3.0693
M16
G05
G00X4.187Y-2.7835
M15
G01X4.187Y-2.8543
M16
G05
G00X4.187Y-3.0378
M15
G01X4.187Y-3.0693
M16
G05
M30
